<?xml version="1.0" standalone="no"?>
<!DOCTYPE svg PUBLIC "-//W3C//DTD SVG 1.1//EN" "http://www.w3.org/Graphics/SVG/1.1/DTD/svg11.dtd" >
<svg xmlns="http://www.w3.org/2000/svg" xmlns:xlink="http://www.w3.org/1999/xlink" version="1.1">
<metadata>
Created by FontForge 20201107 at Wed Nov 27 21:16:30 2024
 By 
 Copyright (c)2016 Talbot Type. All Rights Reserved
</metadata>
<defs>
<font id="Korto-Medium" horiz-adv-x="1298" >
  <font-face 
    font-family="Korto Medium"
    font-weight="500"
    font-stretch="normal"
    units-per-em="2048"
    panose-1="2 11 6 3 3 6 0 2 0 4"
    ascent="1638"
    descent="-410"
    x-height="1186"
    cap-height="1536"
    bbox="-72 -446 2591 1995.57"
    underline-thickness="102"
    underline-position="-358"
    unicode-range="U+0020-FB06"
  />
<missing-glyph horiz-adv-x="552" 
 />
    <glyph glyph-name=".notdef" horiz-adv-x="552" 
 />
    <glyph glyph-name=".null" horiz-adv-x="0" 
 />
    <glyph glyph-name="nonmarkingreturn" horiz-adv-x="681" 
 />
    <glyph glyph-name="space" unicode=" " horiz-adv-x="552" 
 />
    <glyph glyph-name="exclam" unicode="!" horiz-adv-x="458" 
d="M102 109q0 54 37.5 91.5t91.5 37.5q51 0 88 -37.5t37 -91.5q0 -49 -38 -87t-87 -38q-54 0 -91.5 37t-37.5 88zM336 1536l-37 -1165h-139l-37 1165h213z" />
    <glyph glyph-name="quotedbl" unicode="&#x22;" horiz-adv-x="538" 
d="M225 1536v-473h-123v473h123zM436 1536v-473h-123v473h123z" />
    <glyph glyph-name="numbersign" unicode="#" horiz-adv-x="1269" 
d="M733 643l53 248h-247l-52 -248h246zM1227 891h-322l-53 -248h377l-2 -119h-398l-114 -524h-123l119 524h-248l-117 -524h-119l115 524h-301v119h324l53 248h-379l2 121h403l107 524h123l-107 -524h246l107 524h122l-106 -524h291v-121z" />
    <glyph glyph-name="dollar" unicode="$" horiz-adv-x="1177" 
d="M334 1141q0 -112 96 -170q55 -34 203 -72q145 -37 221 -68q242 -108 242 -395q0 -171 -109.5 -299.5t-294.5 -161.5v-129h-205v127q-183 30 -294 152.5t-111 310.5v31h211v-31q-2 -58 17.5 -107.5t51.5 -82.5t72.5 -56t80 -32.5t73.5 -7.5q34 -2 73.5 7.5t80 32.5
t72.5 56t51.5 82.5t17.5 107.5q0 113 -74 178q-43 37 -94 56q-42 15 -203 57q-138 33 -207.5 71t-109.5 91q-74 100 -74 252q0 160 94.5 276t271.5 146v127h205v-129q48 -9 93.5 -26t95.5 -50.5t87 -78t61 -113.5t24 -152v-31h-211v31q0 108 -73 176.5t-181 68.5t-181 -68.5
t-73 -176.5z" />
    <glyph glyph-name="percent" unicode="%" horiz-adv-x="1808" 
d="M877 1180q0 -160 -118.5 -277t-279.5 -117q-137 0 -256 97q-59 48 -100 126.5t-41 170.5q0 138 100 256q54 64 135 99.5t162 35.5q161 0 279.5 -116.5t118.5 -274.5zM1726 358q0 -160 -118 -276.5t-279 -116.5q-138 0 -256 96q-59 48 -100 126.5t-41 170.5q0 138 100 256
q54 64 135 100t162 36q161 0 279 -117t118 -275zM1323 1536h193l-1033 -1536h-192zM715 1180q0 98 -69 166.5t-167 68.5q-42 5 -96.5 -22.5t-97 -85.5t-41.5 -127q0 -104 74 -171t161 -67q75 -9 157.5 62t78.5 176zM1565 358q0 98 -69 167t-167 69q-30 4 -70.5 -12.5
t-77.5 -46.5t-62.5 -77.5t-24.5 -99.5q0 -104 74 -170.5t161 -66.5q75 -9 157.5 61.5t78.5 175.5z" />
    <glyph glyph-name="ampersand" unicode="&#x26;" horiz-adv-x="1212" 
d="M1024 674v-258q0 -121 -63 -225t-170.5 -165t-233.5 -61q-124 0 -233.5 61t-175.5 165.5t-66 224.5q0 111 50 204t140 148q-90 55 -140 148t-50 204q0 160 119 295q65 74 162.5 115t193.5 41q167 0 307 -111q76 -61 118 -153.5t42 -186.5h-205q3 28 -7.5 63.5t-33.5 70.5
t-54.5 64.5t-75.5 47t-91 16.5q-28 3 -63.5 -7.5t-70.5 -33.5t-64.5 -54.5t-47 -75.5t-16.5 -91q-4 -36 14 -80.5t51 -85t86 -67t111 -25.5h262v131h205v-131h127v-188h-127zM819 674h-262q-48 6 -109.5 -25.5t-108 -95.5t-44.5 -137q-3 -28 7.5 -63.5t33.5 -70.5
t54.5 -64.5t75.5 -47t91 -16.5q28 -3 63.5 7.5t70.5 33.5t64.5 54.5t47 75.5t16.5 91v258z" />
    <glyph glyph-name="quotesingle" unicode="'" horiz-adv-x="327" 
d="M225 1536v-473h-123v473h123z" />
    <glyph glyph-name="parenleft" unicode="(" horiz-adv-x="653" 
d="M362 588q0 -280 58 -533.5t172 -439.5h-186q-111 201 -177 463q-65 260 -65 510q0 324 100 645q58 184 142 338h186q-114 -186 -172 -442t-58 -541z" />
    <glyph glyph-name="parenright" unicode=")" horiz-adv-x="653" 
d="M291 588q0 285 -58 541t-172 442h187q142 -247 207 -596q34 -194 34 -387q0 -258 -63 -510q-65 -259 -178 -463h-187q114 186 172 439.5t58 533.5z" />
    <glyph glyph-name="asterisk" unicode="*" horiz-adv-x="784" 
d="M344 1450l-14 147h125l-17 -147l119 88l64 -108l-134 -62l134 -57l-64 -109l-119 86l17 -145h-125l14 145l-117 -86l-63 109l133 57l-133 62l63 108z" />
    <glyph glyph-name="plus" unicode="+" horiz-adv-x="1392" 
d="M102 516v156h512v514h168v-514h508v-156h-508v-516h-168v516h-512z" />
    <glyph glyph-name="comma" unicode="," horiz-adv-x="499" 
d="M176 -221h-104l96 207q-41 7 -68.5 42.5t-27.5 80.5q0 54 36.5 91.5t90.5 37.5t90.5 -37.5t36.5 -91.5q0 -24 -11 -50z" />
    <glyph glyph-name="hyphen" unicode="-" horiz-adv-x="952" 
d="M809 516h-666v156h666v-156z" />
    <glyph glyph-name="period" unicode="." horiz-adv-x="499" 
d="M72 111q0 51 38 89t89 38t89 -38t38 -89t-38 -89t-89 -38t-89 38t-38 89z" />
    <glyph glyph-name="slash" unicode="/" horiz-adv-x="1024" 
d="M262 0h-139l639 1536h139z" />
    <glyph glyph-name="zero" unicode="0" horiz-adv-x="1277" 
d="M1171 1042v-548q0 -146 -69 -267t-191 -191.5t-270 -70.5q-226 0 -380.5 153.5t-154.5 375.5v548q0 146 70 267.5t193 191.5t272 70q225 0 377.5 -153t152.5 -376zM981 494v548q4 64 -24.5 128t-76 111.5t-111.5 76t-128 24.5q-51 0 -108 -20t-111 -58.5t-89.5 -107
t-35.5 -154.5v-548q0 -138 102 -239t242 -101q64 -4 128 24.5t111.5 76t76 111.5t24.5 128z" />
    <glyph glyph-name="one" unicode="1" horiz-adv-x="690" 
d="M342 0v1348h-240v188h445v-1536h-205z" />
    <glyph glyph-name="two" unicode="2" horiz-adv-x="1196" 
d="M901 631l-500 -438l2 -5h666v-188h-944v201l635 573q64 57 102.5 135t38.5 158q4 48 -15.5 102.5t-57.5 103t-100 79.5t-134 30q-121 7 -217 -91t-90 -224v-68h-205v68q0 225 142.5 364.5t369.5 139.5t373.5 -140t146.5 -364q0 -247 -213 -436z" />
    <glyph glyph-name="three" unicode="3" horiz-adv-x="1239" 
d="M246 842l506 501l-557 5v188h841v-199l-348 -333l4 -9q194 -12 329.5 -157t135.5 -355q0 -224 -155.5 -371t-387.5 -147q-231 0 -383.5 146.5t-152.5 371.5h207q0 -137 98 -231q94 -98 231 -98q136 0 234 98q96 96 96 231q0 114 -80 211q-42 47 -107 79t-143 32
q-65 0 -126.5 -25.5t-104.5 -68.5z" />
    <glyph glyph-name="four" unicode="4" horiz-adv-x="1286" 
d="M813 317h-739v201l739 1018h205v-1030h194v-189h-194v-317h-205v317zM307 510l2 -4h504v690l-6 4z" />
    <glyph glyph-name="five" unicode="5" horiz-adv-x="1239" 
d="M340 657l-178 31l143 848h725v-188h-553l-65 -402l4 -4q65 33 136 47t153 5t157 -46q118 -59 185 -147q110 -150 110 -318q0 -149 -74 -268.5t-198 -184.5t-271 -65q-104 0 -202 40t-171.5 108.5t-118 165.5t-44.5 204h207q0 -137 98 -231q94 -98 231 -98q136 0 234 98
q96 96 96 231q0 114 -80 211q-42 47 -107 79t-143 32q-83 0 -157 -40.5t-117 -107.5z" />
    <glyph glyph-name="six" unicode="6" horiz-adv-x="1243" 
d="M647 1010h35l20 -2l19 -2l78 -17l37 -12l18 -8q57 -26 117 -72q24 -19 55 -53q34 -39 49 -64q52 -80 72 -168l4 -20l4 -21l2 -20l4 -66v-22l-4 -43l-12 -62l-6 -20q-18 -57 -29 -76l-10 -18l-21 -35q-15 -25 -49 -64l-14 -16l-29 -27l-16 -14l-15 -12l-16 -13l-53 -32
l-19 -8l-18 -11l-19 -8l-59 -18l-43 -11l-20 -2l-21 -4l-65 -4h-23l-45 4q-93 14 -145 35l-76 35q-35 20 -66 47l-16 12q-49 42 -80 90l-22 35l-27 53l-8 21q-30 82 -33 166v55l2 19l4 32l6 23q20 94 88 194l510 750h246l-371 -537l2 -4h2l2 2h5l6 2l26 7h6l19 2zM662 819
l-39 2q-49 0 -105 -18l-12 -4l-12 -4l-11 -7q-18 -5 -34 -18l-11 -6q-53 -39 -88 -92l-14 -23l-6 -10l-4 -12q-25 -56 -31 -115v-41l2 -27q6 -57 33 -110l20 -33l23 -31l16 -18l10 -10q39 -36 84 -58l47 -18l25 -6q34 -6 68 -6h12l41 4q49 11 61 16l13 6q48 19 94 62
q29 29 49 59l29 55l16 50l4 14l6 51v14l-2 41l-4 27l-6 25q-5 15 -25 61l-18 33l-8 10l-15 20l-36 37l-9 9l-20 16q-26 18 -68 35l-12 4l-12 4l-37 10z" />
    <glyph glyph-name="seven" unicode="7" horiz-adv-x="1116" 
d="M842 1343l-2 5h-787v188h1002v-188l-568 -1348h-227z" />
    <glyph glyph-name="eight" unicode="8" horiz-adv-x="1187" 
d="M82 453q0 129 63 233.5t174 165.5q-75 49 -117 132t-42 177q0 53 14 107.5t46.5 109.5t81 97.5t124 69t168.5 26.5q190 0 312 -114.5t122 -295.5q0 -94 -42.5 -177t-117.5 -132q109 -56 173.5 -163.5t64.5 -235.5q0 -214 -145.5 -351t-366.5 -137t-366.5 137t-145.5 351z
M295 453q0 -126 88 -211q85 -88 211 -88q125 0 213 88q86 86 86 211q0 122 -86 211q-88 88 -213 88t-211 -86q-88 -88 -88 -213zM594 940q31 -4 69.5 11t73 43t57 73t21.5 94q4 31 -11 69.5t-43 73t-73 57t-94 21.5q-31 4 -69.5 -11t-73 -43t-57 -73t-21.5 -94
q-4 -31 11 -69.5t43 -73t73 -57t94 -21.5z" />
    <glyph glyph-name="nine" unicode="9" horiz-adv-x="1243" 
d="M621 715q138 0 231 100q96 101 96 236q2 39 -9.5 82t-38 86.5t-64 79t-94 58.5t-121.5 25q-136 0 -230 -98q-96 -101 -96 -233q0 -39 11.5 -82.5t37 -89t62.5 -82t93 -59.5t122 -23zM582 526q-133 0 -248 69.5t-183.5 191t-68.5 264.5q0 141 73.5 261t198 189.5
t267.5 69.5q149 0 273 -68t195.5 -187.5t71.5 -264.5q0 -157 -100 -301l-510 -750h-246l371 537l-2 4q-40 -15 -92 -15z" />
    <glyph glyph-name="colon" unicode=":" horiz-adv-x="499" 
d="M72 111q0 51 38 89t89 38t89 -38t38 -89t-38 -89t-89 -38t-89 38t-38 89zM72 1075q0 51 38 89t89 38t89 -38t38 -89t-38 -89t-89 -38t-89 38t-38 89z" />
    <glyph glyph-name="semicolon" unicode=";" horiz-adv-x="499" 
d="M176 -221h-104l96 207q-41 7 -68.5 42.5t-27.5 80.5q0 54 36.5 91.5t90.5 37.5t90.5 -37.5t36.5 -91.5q0 -24 -11 -50zM72 1075q0 51 38 89t89 38t89 -38t38 -89t-38 -89t-89 -38t-89 38t-38 89z" />
    <glyph glyph-name="less" unicode="&#x3c;" horiz-adv-x="862" 
d="M82 678l698 508v-207l-530 -381v-10l530 -381v-207l-698 506v172z" />
    <glyph glyph-name="equal" unicode="=" horiz-adv-x="1390" 
d="M102 344v156h1186v-156h-1186zM1288 848v-156h-1186v156h1186z" />
    <glyph glyph-name="greater" unicode="&#x3e;" horiz-adv-x="862" 
d="M612 598l-530 381v207l698 -508v-172l-698 -506v207l530 381v10z" />
    <glyph glyph-name="question" unicode="?" horiz-adv-x="1241" 
d="M721 350h-205v369h102q140 0 234 98q94 94 94 234q0 137 -94 235q-96 96 -234 96q-135 0 -231 -96q-96 -101 -96 -235h-209q0 143 71 262.5t194.5 188.5t270.5 69q197 0 357 -125q88 -71 136 -178t48 -217q0 -89 -31 -174.5t-86.5 -154.5t-139 -116t-181.5 -59v-197z
M489 109q0 54 37.5 91.5t91.5 37.5q51 0 88 -37.5t37 -91.5q0 -49 -37.5 -87t-87.5 -38q-54 0 -91.5 37t-37.5 88z" />
    <glyph glyph-name="at" unicode="@" horiz-adv-x="1792" 
d="M1180 465q-64 -68 -132 -98.5t-161 -30.5q-158 0 -285 106q-71 58 -110 146.5t-39 179.5q0 178 127 304t307 126t306 -125.5t126 -304.5v-160q0 -37 28.5 -65.5t65.5 -28.5q38 0 67 28.5t29 65.5v160q0 147 -66.5 285.5t-207.5 234.5q-161 107 -348 107
q-124 1 -239.5 -49.5t-199.5 -135.5t-133 -201.5t-47 -240.5q-2 -124 47 -240.5t133 -201.5t199.5 -135.5t239.5 -49.5q137 0 280 70l78 -162q-168 -84 -358 -84q-159 -3 -309 62t-259 174.5t-174 259t-63 307.5q-2 158 63 307.5t174 259t259 174.5t309 62q158 3 307.5 -62
t259 -174.5t174.5 -259t62 -307.5v-160q2 -68 -28 -124.5t-75 -87.5t-91.5 -47t-82.5 -13q-83 0 -145.5 39.5t-87.5 89.5zM1139 768q1 55 -25 106t-65.5 83t-83.5 49.5t-78 13.5q-34 4 -77 -13.5t-82 -49.5t-64.5 -83t-24.5 -106q0 -104 74 -178q70 -76 174 -76
q105 0 178 76q74 74 74 178z" />
    <glyph glyph-name="A" unicode="A" horiz-adv-x="1366" 
d="M1335 0h-219l-108 319h-650l-106 -319h-221l542 1536h220zM688 1274h-8l-258 -766h522z" />
    <glyph glyph-name="B" unicode="B" horiz-adv-x="1204" 
d="M1122 428q0 -196 -121 -312t-323 -116h-555v1536h512q190 0 317 -116t127 -300q1 -65 -22 -124t-58.5 -99.5t-69.5 -67t-63 -38.5v-5q113 -34 184.5 -128.5t71.5 -229.5zM909 434q0 103 -69.5 174.5t-169.5 71.5h-342v-492h344q47 -5 102 22.5t96 88t39 135.5zM328 1348
v-480h307q69 -2 126 40.5t83.5 98.5t21.5 101q0 100 -67 170t-164 70h-307z" />
    <glyph glyph-name="C" unicode="C" horiz-adv-x="1400" 
d="M285 768q0 -165 83 -306.5t224.5 -224.5t306.5 -83q108 0 211.5 37.5t183.5 105.5v-231q-186 -101 -395 -101q-161 -3 -314.5 62t-266 174.5t-180.5 259t-66 307.5q-2 158 66 307.5t180.5 259t266 174.5t314.5 62q209 0 395 -101v-231q-80 68 -183.5 105.5t-211.5 37.5
q-165 0 -306.5 -83t-224.5 -224.5t-83 -306.5z" />
    <glyph glyph-name="D" unicode="D" horiz-adv-x="1372" 
d="M1300 768q2 -158 -59 -301.5t-166 -246.5t-250.5 -162.5t-304.5 -57.5h-397v1536h397q159 2 304.5 -57.5t250.5 -162.5t166 -246.5t59 -301.5zM1087 768q0 159 -75 292t-205.5 210.5t-286.5 77.5h-192v-1160h192q156 0 286.5 77.5t205.5 210.5t75 292z" />
    <glyph glyph-name="E" unicode="E" horiz-adv-x="1140" 
d="M328 674v-486h741v-188h-946v1536h946v-188h-741v-486h641v-188h-641z" />
    <glyph glyph-name="F" unicode="F" horiz-adv-x="1077" 
d="M946 674h-618v-674h-205v1536h924v-188h-719v-486h618v-188z" />
    <glyph glyph-name="G" unicode="G" horiz-adv-x="1798" 
d="M1505 674h-614v188h829q6 -46 6 -94q3 -158 -65 -307.5t-181.5 -259t-267 -174.5t-313.5 -62q-161 -3 -314.5 62t-266 174.5t-180.5 259t-66 307.5q-2 158 66 307.5t180.5 259t266 174.5t314.5 62q208 0 408 -109q99 -54 190 -145t148 -207h-236q-49 97 -198 186.5
t-312 85.5q-165 0 -306.5 -83t-224.5 -224.5t-83 -306.5t83 -306.5t224.5 -224.5t306.5 -83q226 0 399 149.5t207 370.5z" />
    <glyph glyph-name="H" unicode="H" 
d="M1176 1536v-1536h-205v674h-643v-674h-205v1536h205v-674h643v674h205z" />
    <glyph glyph-name="I" unicode="I" horiz-adv-x="450" 
d="M328 0h-205v1536h205v-1536z" />
    <glyph glyph-name="J" unicode="J" horiz-adv-x="739" 
d="M166 0h-117v188h117q104 0 175 71t71 175v1102h204v-1098q0 -191 -127 -315q-126 -123 -323 -123z" />
    <glyph glyph-name="K" unicode="K" horiz-adv-x="1208" 
d="M328 0h-205v1536h205v-674h164l446 674h246l-508 -768l508 -768h-246l-446 674h-164v-674z" />
    <glyph glyph-name="L" unicode="L" horiz-adv-x="1095" 
d="M328 188h727v-188h-932v1536h205v-1348z" />
    <glyph glyph-name="M" unicode="M" horiz-adv-x="1794" 
d="M891 326h12l297 1210h240l323 -1536h-219l-225 1235h-12l-281 -1235h-258l-281 1235h-12l-225 -1235h-219l313 1536h260z" />
    <glyph glyph-name="N" unicode="N" horiz-adv-x="1335" 
d="M1008 1536h204v-1536h-204l-674 1128l-6 -6v-1122h-205v1536h205l671 -1128l9 6v1122z" />
    <glyph glyph-name="O" unicode="O" horiz-adv-x="1798" 
d="M1726 768q3 -158 -65 -307.5t-181.5 -259t-267 -174.5t-313.5 -62q-161 -3 -314.5 62t-266 174.5t-180.5 259t-66 307.5q-2 158 66 307.5t180.5 259t266 174.5t314.5 62q160 3 313.5 -62t267 -174.5t181.5 -259t65 -307.5zM285 768q0 -165 83 -306.5t224.5 -224.5
t306.5 -83t306.5 83t224.5 224.5t83 306.5t-83 306.5t-224.5 224.5t-306.5 83t-306.5 -83t-224.5 -224.5t-83 -306.5z" />
    <glyph glyph-name="P" unicode="P" horiz-adv-x="1198" 
d="M1126 1047q0 -134 -65 -246.5t-177.5 -178t-246.5 -65.5h-309v-557h-205v1536h514q204 0 346.5 -142.5t142.5 -346.5zM913 1047q0 94 -49.5 167.5t-115 106t-123.5 27.5h-297v-603h297q148 0 239 134q49 73 49 168z" />
    <glyph glyph-name="Q" unicode="Q" horiz-adv-x="1798" 
d="M1726 768q0 -134 -47.5 -263t-132.5 -233l180 -178l-145 -145l-184 182q-107 -79 -236.5 -122.5t-261.5 -43.5q-161 -3 -314.5 62t-266 174.5t-180.5 259t-66 307.5q-2 158 66 307.5t180.5 259t266 174.5t314.5 62q160 3 313.5 -62t267 -174.5t181.5 -259t65 -307.5z
M285 768q0 -165 83 -306.5t224.5 -224.5t306.5 -83t306.5 83t224.5 224.5t83 306.5t-83 306.5t-224.5 224.5t-306.5 83t-306.5 -83t-224.5 -224.5t-83 -306.5z" />
    <glyph glyph-name="R" unicode="R" horiz-adv-x="1218" 
d="M1147 1047q0 -162 -92 -288.5t-242 -176.5l274 -582h-227l-262 557h-270v-557h-205v1536h534q134 0 246.5 -65t178 -177.5t65.5 -246.5zM934 1047q0 72 -29.5 133t-73.5 97.5t-93.5 55.5t-92.5 15h-317v-603h317q149 0 240 134q49 73 49 168z" />
    <glyph glyph-name="S" unicode="S" horiz-adv-x="1243" 
d="M340 1141q0 -108 104 -168q58 -34 218 -72q167 -43 237 -70q125 -49 193.5 -143.5t68.5 -251.5q4 -63 -16.5 -128.5t-66 -126.5t-109 -109t-154 -77t-194.5 -30q-154 0 -275 57t-192.5 172t-71.5 273h211q-8 -123 82.5 -220t245.5 -93q83 -2 159 32t124 100.5t44 149.5
q0 113 -74 174q-44 34 -88 52q-51 20 -221 61q-179 43 -243 78q-76 40 -115 88q-80 100 -80 252q0 130 66.5 229t178 150t249.5 51q215 0 353 -121.5t138 -339.5h-211q0 130 -76.5 201t-203.5 71q-114 0 -197 -65q-84 -69 -84 -176z" />
    <glyph glyph-name="T" unicode="T" horiz-adv-x="1089" 
d="M1059 1536v-188h-412v-1348h-205v1348h-411v188h1028z" />
    <glyph glyph-name="U" unicode="U" horiz-adv-x="1411" 
d="M328 1536v-1004q0 -155 111 -266.5t266 -111.5q43 -2 92.5 10.5t99.5 43.5t91 74.5t67 108.5t28 141v1004h205v-997q0 -162 -76.5 -294t-209.5 -206t-295 -74q-163 0 -296.5 74t-210.5 206t-77 294v997h205z" />
    <glyph glyph-name="V" unicode="V" horiz-adv-x="1267" 
d="M1018 1536h219l-494 -1536h-219l-493 1536h221l379 -1266h8z" />
    <glyph glyph-name="W" unicode="W" horiz-adv-x="1794" 
d="M1440 0h-240l-297 1210h-12l-287 -1210h-260l-313 1536h219l225 -1235h12l281 1235h258l281 -1235h12l225 1235h219z" />
    <glyph glyph-name="X" unicode="X" horiz-adv-x="1224" 
d="M948 1536h246l-459 -768l459 -768h-246l-332 582h-8l-329 -582h-248l458 768l-458 768h248l329 -582h8z" />
    <glyph glyph-name="Y" unicode="Y" horiz-adv-x="1245" 
d="M520 694l-489 842h248l339 -618h9l342 618h245l-489 -842v-694h-205v694z" />
    <glyph glyph-name="Z" unicode="Z" horiz-adv-x="1146" 
d="M61 1348v188h1024v-201l-778 -1140l4 -7h774v-188h-1024v201l781 1140l-4 7h-777z" />
    <glyph glyph-name="bracketleft" unicode="[" horiz-adv-x="585" 
d="M332 1384v-1583h192v-151h-360v1886h360v-152h-192z" />
    <glyph glyph-name="backslash" unicode="\" horiz-adv-x="1024" 
d="M123 1536h139l639 -1536h-139z" />
    <glyph glyph-name="bracketright" unicode="]" horiz-adv-x="585" 
d="M61 -350v151h193v1583h-193v152h361v-1886h-361z" />
    <glyph glyph-name="asciicircum" unicode="^" horiz-adv-x="1224" 
d="M123 768l405 768h168l406 -768h-191l-295 578h-4l-299 -578h-190z" />
    <glyph glyph-name="underscore" unicode="_" horiz-adv-x="1062" 
d="M0 -238v52h1186v-52h-1186z" />
    <glyph glyph-name="grave" unicode="`" horiz-adv-x="755" 
d="M571 1348l-387 94v149l387 -131v-112z" />
    <glyph glyph-name="a" unicode="a" horiz-adv-x="1499" 
d="M1376 0h-205v205l-8 4q-173 -244 -471 -244q-172 0 -313 85t-219 228.5t-78 315.5q0 128 46.5 243t126.5 199.5t194 134.5t243 50q297 0 473 -244l6 4v205h205v-1186zM733 154q116 0 217 59.5t161 161t60 219.5q0 155 -108 287q-60 71 -150.5 111t-179.5 40
q-154 0 -276 -100q-72 -59 -117 -147t-45 -191q0 -161 108 -287q60 -73 149.5 -113t180.5 -40z" />
    <glyph glyph-name="b" unicode="b" horiz-adv-x="1499" 
d="M336 209l-8 -4v-205h-205v1597h205v-616l6 -4q176 244 473 244q229 0 407 -154q98 -85 150.5 -212.5t52.5 -260.5q0 -172 -78 -315.5t-219 -228.5t-313 -85q-298 0 -471 244zM766 154q117 0 218 59.5t160.5 161t59.5 219.5q0 158 -106 287q-61 72 -151.5 111.5
t-180.5 39.5q-156 0 -285 -108q-73 -60 -113 -150t-40 -180q0 -158 108 -287q60 -73 150 -113t180 -40z" />
    <glyph glyph-name="c" unicode="c" horiz-adv-x="1122" 
d="M733 -35q-190 0 -358 107q-102 64 -170 157q-123 174 -123 365q0 127 53.5 243.5t142 200t208 133.5t247.5 50q161 0 307 -76v-240q-60 60 -140.5 93.5t-166.5 33.5q-154 0 -276 -100q-72 -59 -117 -147t-45 -191q0 -161 108 -287q60 -73 149.5 -113t180.5 -40
q86 0 166.5 33.5t140.5 93.5v-242q-68 -33 -151 -53.5t-156 -20.5z" />
    <glyph glyph-name="d" unicode="d" horiz-adv-x="1499" 
d="M1376 0h-205v205l-8 4q-173 -244 -471 -244q-172 0 -313 85t-219 228.5t-78 315.5q0 128 46.5 243t126.5 199.5t194 134.5t243 50q297 0 473 -244l6 4v616h205v-1597zM733 154q116 0 217 59.5t161 161t60 219.5q0 155 -108 287q-60 71 -150.5 111t-179.5 40
q-154 0 -276 -100q-72 -59 -117 -147t-45 -191q0 -161 108 -287q60 -73 149.5 -113t180.5 -40z" />
    <glyph glyph-name="e" unicode="e" horiz-adv-x="1466" 
d="M733 154q82 -7 193.5 48.5t169.5 149.5h231q-73 -171 -235 -278q-165 -109 -359 -109q-127 0 -246.5 50t-208.5 134t-142.5 201t-53.5 244t53.5 243.5t142.5 200t208.5 133.5t246.5 50t246.5 -50t208.5 -133.5t142.5 -200t53.5 -243.5q0 -39 -8 -94h-1067
q35 -148 154 -246q118 -100 270 -100zM733 1032q-153 0 -272 -98q-117 -99 -152 -246h850q-13 53 -44 109t-81.5 110.5t-129 89.5t-171.5 35z" />
    <glyph glyph-name="f" unicode="f" horiz-adv-x="571" 
d="M346 1321v-135h174v-189h-174v-997h-205v997h-100v189h100v151q0 107 78 185q75 75 182 75h109v-188h-80q-36 0 -60 -25.5t-24 -62.5z" />
    <glyph glyph-name="g" unicode="g" horiz-adv-x="1441" 
d="M82 621q0 163 76 300.5t211.5 218.5t300.5 81q303 0 440 -224l4 2v187h205v-1096q0 -269 -165 -402.5t-456 -133.5q-236 0 -398 112.5t-187 292.5h209q25 -99 128.5 -158t247.5 -59q214 0 315 86t101 262v162l-4 2q-155 -236 -440 -236q-68 0 -135.5 15.5t-147.5 59.5
t-147 114q-71 74 -114.5 184.5t-43.5 229.5zM295 621q0 -149 96 -261q57 -68 139 -110.5t179 -42.5q147 0 262 96q67 57 109 139t42 179q0 167 -123 289t-290 122q-148 0 -269 -100q-69 -57 -107 -142t-38 -169z" />
    <glyph glyph-name="h" unicode="h" 
d="M328 711v-711h-205v1597h205v-571l6 -4q132 199 379 199q120 0 225 -59.5t171.5 -173.5t66.5 -257v-731h-205v711q5 82 -40.5 159t-122.5 122t-159 40q-61 4 -122 -22.5t-105.5 -71t-71 -105.5t-22.5 -122z" />
    <glyph glyph-name="i" unicode="i" horiz-adv-x="450" 
d="M123 0v1186h205v-1186h-205zM94 1501q0 54 38.5 92.5t92.5 38.5t92.5 -38.5t38.5 -92.5t-38.5 -92.5t-92.5 -38.5t-92.5 38.5t-38.5 92.5z" />
    <glyph glyph-name="j" unicode="j" horiz-adv-x="491" 
d="M135 1501q0 54 38.5 92.5t92.5 38.5t92.5 -38.5t38.5 -92.5t-38.5 -92.5t-92.5 -38.5t-92.5 38.5t-38.5 92.5zM164 -135v1321h205v-1338q0 -108 -76 -184t-184 -76h-109v189h80q36 0 60 25.5t24 62.5z" />
    <glyph glyph-name="k" unicode="k" horiz-adv-x="1075" 
d="M473 500h-145v-500h-205v1597h205v-909h145l330 498h246l-392 -592l394 -594h-248z" />
    <glyph glyph-name="l" unicode="l" horiz-adv-x="487" 
d="M123 1597h205v-1321q0 -37 24 -62.5t60 -25.5h39v-188h-68q-104 0 -182 78t-78 182v1337z" />
    <glyph glyph-name="m" unicode="m" horiz-adv-x="1851" 
d="M1729 805v-805h-205v784q4 34 -13 77t-48.5 82t-81.5 64.5t-105 24.5q-34 4 -77 -13t-82 -48.5t-64.5 -81.5t-24.5 -105v-784h-205v784q4 34 -13 77t-48.5 82t-81.5 64.5t-105 24.5q-34 4 -77 -13t-81.5 -48.5t-64 -81.5t-24.5 -105v-784h-205v1186h205v-129l6 -4
q26 50 71.5 87.5t91 53.5t81 23t51.5 4q97 3 191 -46.5t151 -148.5q58 87 155.5 141t200.5 54q140 0 256 -93q65 -55 105.5 -139t40.5 -184z" />
    <glyph glyph-name="n" unicode="n" 
d="M328 711v-711h-205v1186h205v-160l6 -4q132 199 379 199q120 0 225 -59.5t171.5 -173.5t66.5 -257v-731h-205v711q5 82 -40.5 159t-122.5 122t-159 40q-61 4 -122 -22.5t-105.5 -71t-71 -105.5t-22.5 -122z" />
    <glyph glyph-name="o" unicode="o" horiz-adv-x="1466" 
d="M733 154q116 0 217 59.5t161 161t60 219.5q0 155 -108 287q-60 71 -150.5 111t-179.5 40q-154 0 -276 -100q-72 -59 -117 -147t-45 -191q0 -161 108 -287q60 -73 149.5 -113t180.5 -40zM733 -35q-190 0 -358 107q-102 64 -170 157q-123 174 -123 365q0 127 53.5 243.5
t142 200t208 133.5t247.5 50q173 0 323 -84t239 -229t89 -314q0 -127 -53 -244t-141 -201t-208 -134t-249 -50z" />
    <glyph glyph-name="p" unicode="p" horiz-adv-x="1499" 
d="M123 1186h205v-205l8 -4q173 244 471 244q172 0 313 -85t219 -228.5t78 -315.5q0 -128 -46.5 -243t-126.5 -199.5t-194 -134.5t-243 -50q-297 0 -473 244l-6 -4v-617h-205v1598zM766 1032q-116 0 -217 -59.5t-161 -161t-60 -219.5q0 -156 108 -285q60 -73 150 -113
t180 -40q154 0 278 102q71 58 115.5 145.5t44.5 190.5q0 160 -106 289q-61 72 -151.5 111.5t-180.5 39.5z" />
    <glyph glyph-name="q" unicode="q" horiz-adv-x="1499" 
d="M1163 977l8 4v205h205v-1598h-205v617l-6 4q-176 -244 -473 -244q-227 0 -405 154q-98 85 -151.5 213t-53.5 260q0 172 78 315.5t219 228.5t313 85q298 0 471 -244zM733 1032q-117 0 -218 -59.5t-160.5 -161t-59.5 -219.5q0 -159 108 -285q60 -73 149.5 -113t180.5 -40
q155 0 287 108q71 60 111 150.5t40 179.5q0 157 -108 289q-60 71 -150.5 111t-179.5 40z" />
    <glyph glyph-name="r" unicode="r" horiz-adv-x="727" 
d="M686 1008h-49q-136 0 -223 -93q-86 -92 -86 -225v-690h-205v1186h205v-164l6 -4q28 60 87 109t122.5 73.5t113.5 20.5h29v-213z" />
    <glyph glyph-name="s" unicode="s" horiz-adv-x="1107" 
d="M82 360h215q0 -100 71 -155t187 -55q111 0 184.5 52t73.5 138q0 67 -49 113q-49 43 -229 84q-180 37 -240 65q-94 47 -134 101t-46 169q0 149 119.5 249t320.5 100q123 0 221 -41t157.5 -126t59.5 -202h-211q0 89 -62.5 136.5t-164.5 47.5q-96 0 -161.5 -47t-65.5 -117
q0 -77 88 -118q44 -23 207 -58q170 -38 221 -65q49 -27 77.5 -49t53 -55t36 -78t15.5 -109q0 -168 -124.5 -271.5t-346.5 -103.5q-228 0 -350.5 106t-122.5 289z" />
    <glyph glyph-name="t" unicode="t" horiz-adv-x="561" 
d="M346 1454v-268h174v-189h-174v-997h-205v997h-100v189h100v268h205z" />
    <glyph glyph-name="u" unicode="u" 
d="M123 469v717h205v-711q-4 -61 22.5 -122t71 -105.5t105.5 -71t122 -22.5q82 -5 159 40t122.5 122t40.5 159v711h205v-717q0 -222 -151 -363t-376 -141q-147 0 -266.5 62.5t-189.5 178.5t-70 263z" />
    <glyph glyph-name="v" unicode="v" horiz-adv-x="1175" 
d="M690 0h-207l-452 1186h225l326 -907h8l328 907h227z" />
    <glyph glyph-name="w" unicode="w" horiz-adv-x="1759" 
d="M1505 1186h224l-351 -1186h-227l-268 850h-4l-269 -850h-227l-352 1186h227l246 -883h4l266 883h215l264 -883h4z" />
    <glyph glyph-name="x" unicode="x" horiz-adv-x="1177" 
d="M893 1186h254l-430 -594l430 -592h-254l-301 426h-4l-303 -426h-254l432 592l-432 594h254l303 -426h4z" />
    <glyph glyph-name="y" unicode="y" horiz-adv-x="1175" 
d="M918 1186h227l-613 -1598h-217l164 422l-448 1176h225l326 -907h8z" />
    <glyph glyph-name="z" unicode="z" horiz-adv-x="1083" 
d="M1018 1186v-201l-696 -792l2 -5h694v-188h-952v201l696 792l-2 4h-694v189h952z" />
    <glyph glyph-name="braceleft" unicode="{" horiz-adv-x="710" 
d="M580 -197h69v-151h-69q-40 -4 -86.5 13t-87.5 49t-67 86.5t-24 117.5v488q0 43 -31.5 74.5t-74.5 31.5h-45v164h45q43 0 74.5 31.5t31.5 74.5v488q-4 40 12.5 86.5t49 87.5t86.5 67.5t117 24.5h69v-152h-69q-42 0 -69.5 -28.5t-27.5 -71.5v-520q0 -51 -39 -100t-94 -66
v-8q55 -17 94 -66t39 -100v-520q0 -43 27.5 -72t69.5 -29z" />
    <glyph glyph-name="bar" unicode="|" horiz-adv-x="659" 
d="M414 1536v-1886h-168v1886h168z" />
    <glyph glyph-name="braceright" unicode="}" horiz-adv-x="710" 
d="M61 -348v151h70q42 0 69 29t27 72v520q0 51 39 100t94 66v8q-55 17 -94 66t-39 100v520q0 43 -27 71.5t-69 28.5h-70v152h70q40 4 86 -13t87 -49t67 -86.5t24 -117.5v-488q0 -43 32 -74.5t75 -31.5h45v-164h-45q-43 0 -75 -31.5t-32 -74.5v-488q4 -40 -12.5 -86.5
t-49 -87.5t-86 -67.5t-116.5 -24.5h-70z" />
    <glyph glyph-name="asciitilde" unicode="~" horiz-adv-x="1157" 
d="M819 584q61 39 64 114h151q0 -74 -37 -141.5t-100 -105.5q-98 -55 -213 -25q-113 30 -172 129q-14 22 -40 39.5t-61.5 23t-72.5 -15.5q-26 -13 -45 -44t-19 -71h-151q0 74 37 142t100 106q98 55 213 25q113 -30 172 -129q14 -22 40 -39.5t61.5 -23t72.5 15.5z" />
    <glyph glyph-name="uni00A0" unicode="&#xa0;" horiz-adv-x="1024" 
 />
    <glyph glyph-name="exclamdown" unicode="&#xa1;" horiz-adv-x="458" 
d="M102 1427q0 51 37.5 88t91.5 37q49 0 87 -38t38 -87q0 -54 -37 -91.5t-88 -37.5q-54 0 -91.5 37.5t-37.5 91.5zM123 0l37 1165h139l37 -1165h-213z" />
    <glyph glyph-name="cent" unicode="&#xa2;" horiz-adv-x="1126" 
d="M836 -27v-147h-205v147q-150 22 -275.5 110t-199.5 223.5t-74 287.5q0 151 74 285.5t199.5 222.5t275.5 110v150h205v-150q99 -15 204 -67v-240q-60 60 -140.5 93.5t-166.5 33.5q-154 0 -276 -100q-72 -59 -117 -147t-45 -191q0 -161 108 -287q60 -73 149.5 -113
t180.5 -40q86 0 166.5 33.5t140.5 93.5v-242q-85 -45 -204 -66z" />
    <glyph glyph-name="sterling" unicode="&#xa3;" horiz-adv-x="1296" 
d="M844 0h-762v188h164v486h-164v188h164v232q0 204 138 340.5t347 136.5t346 -136t137 -341h-202q0 119 -82 204q-84 84 -199 84t-199 -84q-81 -84 -81 -204v-232h467v-188h-467v-486h385q52 -7 110.5 48.5t57.5 134.5h210q0 -155 -104 -262q-109 -109 -266 -109z" />
    <glyph glyph-name="currency" unicode="&#xa4;" horiz-adv-x="1431" 
d="M123 1067l119 119l139 -142q150 111 334 111q186 0 334 -111l141 142l119 -119l-142 -141q123 -150 123 -334t-123 -334l142 -139l-119 -119l-139 139q-147 -110 -336 -110q-187 0 -336 110l-137 -139l-119 119l137 137q-121 157 -121 336q0 180 123 336zM319 592
q-5 -100 51 -194t150.5 -150t194.5 -51q100 -5 194 51t150 150t51 194q5 100 -51 194t-150 150t-194 51q-100 5 -194.5 -51t-150.5 -150t-51 -194z" />
    <glyph glyph-name="yen" unicode="&#xa5;" horiz-adv-x="1306" 
d="M332 1057l-301 479h248l370 -635h8l373 635h246l-301 -479h221v-160h-322l-75 -119h397v-160h-440v-618h-205v618h-440v160h395l-74 119h-321v160h221z" />
    <glyph glyph-name="brokenbar" unicode="&#xa6;" horiz-adv-x="659" 
d="M414 489v-839h-168v839h168zM246 1536h168v-838h-168v838z" />
    <glyph glyph-name="section" unicode="&#xa7;" horiz-adv-x="1060" 
d="M958 469q0 -98 -51.5 -180t-138.5 -125l4 -2q57 -44 89 -112.5t32 -151.5q0 -152 -103.5 -248t-259.5 -96q-136 0 -237 77q-59 44 -91 116.5t-32 150.5v77h209v-73q0 -67 44 -113.5t107 -46.5t106.5 46.5t43.5 113.5q0 37 -14.5 70.5t-38.5 52.5l-404 366
q-57 44 -89 112.5t-32 151.5q0 97 52.5 179t138.5 124l-4 5q-57 44 -89 112.5t-32 151.5q0 152 103 248t259 96q135 0 240 -78q58 -44 89.5 -116t31.5 -150v-78h-209v74q0 67 -44.5 113t-107.5 46t-106 -46t-43 -113q0 -37 14.5 -70.5t38.5 -52.5l404 -367q56 -43 88 -112
t32 -152zM315 651q0 -72 54 -123l227 -206q69 0 109 39t40 112t-53 123l-227 207q-69 0 -109.5 -39.5t-40.5 -112.5z" />
    <glyph glyph-name="dieresis" unicode="&#xa8;" horiz-adv-x="839" 
d="M717 1479q0 -42 -29.5 -71.5t-71.5 -29.5q-43 0 -71.5 29t-28.5 72q0 42 29 71t71 29q41 0 71 -29.5t30 -70.5zM324 1479q0 -42 -29.5 -71.5t-71.5 -29.5q-43 0 -71.5 29t-28.5 72q0 42 29 71t71 29q41 0 71 -29.5t30 -70.5z" />
    <glyph glyph-name="copyright" unicode="&#xa9;" horiz-adv-x="1419" 
d="M1337 594q0 -169 -84.5 -314t-229.5 -230t-314 -85q-168 0 -312.5 85t-229.5 230t-85 314q0 168 85 312.5t229.5 229.5t312.5 85q169 0 314 -85t229.5 -229.5t84.5 -312.5zM1264 594q0 148 -74 275.5t-202 202.5t-279 75q-148 0 -275.5 -75t-202.5 -202.5t-75 -275.5
q0 -149 75 -277t202.5 -203t275.5 -75q113 0 216 44.5t177 119t118 177t44 214.5zM408 594q0 -127 88 -215q90 -90 213 -90q90 0 162 48t114 134h127q-42 -134 -151 -213q-115 -86 -252 -86q-172 0 -297 124t-125 298q0 149 104 274q58 70 144 108t174 38q137 0 250 -84
t153 -213h-127q-42 83 -114.5 131.5t-161.5 48.5q-125 0 -213 -88t-88 -215z" />
    <glyph glyph-name="ordfeminine" unicode="&#xaa;" horiz-adv-x="831" 
d="M729 961h-102v102l-4 2q-89 -123 -236 -123q-131 0 -217 92q-88 91 -88 223q-3 36 7.5 78.5t36 84t61.5 76t88.5 55.5t111.5 20q147 0 236 -123l4 2v102h102v-591zM408 1036q41 -4 92 22t90 80.5t37 118.5q5 40 -21 91.5t-80.5 91t-117.5 37.5q-40 5 -92 -21.5t-91 -81
t-37 -117.5q-2 -64 37.5 -118.5t90.5 -80.5t92 -22z" />
    <glyph glyph-name="guillemotleft" unicode="&#xab;" horiz-adv-x="958" 
d="M455 424v-242l-353 340v144l353 338v-242l-179 -164v-8zM856 424v-242l-352 340v144l352 338v-242l-178 -164v-8z" />
    <glyph glyph-name="logicalnot" unicode="&#xac;" horiz-adv-x="944" 
d="M821 672v-310h-168v154h-530v156h698z" />
    <glyph glyph-name="registered" unicode="&#xae;" horiz-adv-x="653" 
d="M571 1327q5 -47 -23.5 -104t-88.5 -100.5t-131 -41.5q-101 0 -172 74q-74 71 -74 172q-2 71 41.5 131.5t100.5 89t104 23.5q45 5 101.5 -23.5t100 -89t41.5 -131.5zM543 1327q5 41 -20 91t-78.5 88t-116.5 36q-41 5 -91.5 -20t-89 -78.5t-36.5 -116.5q-4 -41 20.5 -91.5
t78 -89t118.5 -36.5q41 -4 91 20.5t88 78t36 118.5zM459 1389q0 -31 -19.5 -59t-48.5 -38l62 -123h-45l-58 119h-96v-117h-39v316h141q43 0 73 -28.5t30 -69.5zM418 1389q0 26 -18 43.5t-44 17.5h-102v-125h102q26 0 44 19t18 45z" />
    <glyph glyph-name="overscore" unicode="&#xaf;" horiz-adv-x="628" 
d="M123 1536h383v-135h-383v135z" />
    <glyph glyph-name="degree" unicode="&#xb0;" horiz-adv-x="630" 
d="M412 1364q0 39 -28 67.5t-69 28.5q-38 0 -67 -29t-29 -67q0 -41 28.5 -68.5t67.5 -27.5q41 0 69 27.5t28 68.5zM528 1364q4 -40 -21 -88t-77.5 -84.5t-114.5 -34.5q-39 -5 -88.5 19t-88 75.5t-36.5 112.5q-5 40 20.5 88.5t78 84.5t114.5 34q67 7 140.5 -54t72.5 -153z
" />
    <glyph glyph-name="plusminus" unicode="&#xb1;" horiz-adv-x="1390" 
d="M102 0v156h1186v-156h-1186zM102 690v156h512v340h168v-340h508v-156h-508v-340h-168v340h-512z" />
    <glyph glyph-name="uni00B2" unicode="&#xb2;" horiz-adv-x="679" 
d="M492 1083l-250 -219v-2h333v-94h-473v100l318 287q32 27 52 66t20 79q0 66 -45.5 112t-108.5 46q-66 0 -110 -45t-44 -113v-32h-102v32q0 112 71.5 182t184.5 70q81 2 144.5 -40t92 -100t23.5 -112q0 -124 -106 -217z" />
    <glyph glyph-name="uni00B3" unicode="&#xb3;" horiz-adv-x="702" 
d="M166 1190l252 250l-279 2v94h422v-98l-174 -168l2 -4q89 -6 160 -74q72 -72 72 -182q1 -61 -26.5 -113.5t-69.5 -84t-89 -48t-86 -12.5q-54 -5 -116 23t-108.5 91.5t-43.5 143.5h102q0 -67 49 -115.5t117 -48.5q66 0 115 49t49 115t-48.5 113.5t-115.5 47.5
q-31 0 -64 -13.5t-53 -33.5z" />
    <glyph glyph-name="acute" unicode="&#xb4;" horiz-adv-x="755" 
d="M184 1460l387 131v-149l-387 -94v112z" />
    <glyph glyph-name="mu" unicode="&#xb5;" 
d="M328 90v-502h-205v1598h205v-711q-4 -61 22.5 -122t71 -105.5t105.5 -71t122 -22.5q82 -5 159 40t122.5 122t40.5 159v711h205v-717q0 -222 -151 -363t-376 -141q-93 0 -179 33t-142 92z" />
    <glyph glyph-name="paragraph" unicode="&#xb6;" horiz-adv-x="1224" 
d="M51 1137q-3 63 21 130t72 127.5t131.5 100.5t187.5 41h639v-1536h-176v1348h-144v-1348h-176v737h-143q-175 0 -293.5 114.5t-118.5 285.5zM264 1137q-4 -41 18.5 -90t72 -86t108.5 -35h143v422h-143q-59 2 -108.5 -35t-72 -86t-18.5 -90z" />
    <glyph glyph-name="middot" unicode="&#xb7;" horiz-adv-x="499" 
d="M72 594q0 51 38 89t89 38t89 -38t38 -89t-38 -89t-89 -38t-89 38t-38 89z" />
    <glyph glyph-name="cedilla" unicode="&#xb8;" horiz-adv-x="714" 
d="M299 -193l-78 11l33 182h74l-23 -117q24 17 59 17.5t68 -13t56 -47t22 -78.5q0 -63 -44 -105t-110 -42t-108.5 41t-42.5 104h76q0 -31 22 -53t53 -22t53.5 22t22.5 53t-22.5 53.5t-53.5 22.5q-38 0 -57 -29z" />
    <glyph glyph-name="uni00B9" unicode="&#xb9;" horiz-adv-x="448" 
d="M223 768v674h-121v94h224v-768h-103z" />
    <glyph glyph-name="ordmasculine" unicode="&#xba;" horiz-adv-x="815" 
d="M408 1036q41 -4 92 22t90 80.5t37 118.5q5 40 -21 91.5t-80.5 91t-117.5 37.5q-40 5 -92 -21.5t-91 -81t-37 -117.5q-2 -64 37.5 -118.5t90.5 -80.5t92 -22zM408 942q-47 0 -100.5 18.5t-105.5 54t-86 99t-34 143.5q0 70 35.5 140.5t111.5 120.5q80 53 179 53
q71 0 144 -33.5t126 -105.5q55 -76 55 -175q3 -47 -17 -100t-59 -101t-104.5 -80.5t-144.5 -33.5z" />
    <glyph glyph-name="guillemotright" unicode="&#xbb;" horiz-adv-x="958" 
d="M856 666v-144l-352 -340v242l178 166v8l-178 164v242zM455 666v-144l-353 -340v242l179 166v8l-179 164v242z" />
    <glyph glyph-name="onequarter" unicode="&#xbc;" horiz-adv-x="1378" 
d="M1016 1536l-641 -1536h-92l639 1536h94zM223 768v674h-121v94h224v-768h-103zM1137 160h-369v100l369 508h102v-514h98v-94h-98v-160h-102v160zM885 256v-2h252v344l-2 2z" />
    <glyph glyph-name="onehalf" unicode="&#xbd;" horiz-adv-x="1470" 
d="M1016 1536l-641 -1536h-92l639 1536h94zM1282 315l-250 -219v-2h334v-94h-473v100l317 287q32 27 52 66t20 79q0 66 -45.5 112t-108.5 46q-66 0 -109.5 -45t-43.5 -113v-32h-103v32q0 112 71.5 182t184.5 70q61 1 114 -23t85 -62.5t49 -82.5t13 -84q0 -123 -107 -217z
M223 768v674h-121v94h224v-768h-103z" />
    <glyph glyph-name="threequarters" unicode="&#xbe;" horiz-adv-x="1574" 
d="M1333 160h-368v100l368 508h103v-514h98v-94h-98v-160h-103v160zM166 1190l252 250l-279 2v94h422v-98l-174 -168l2 -4q89 -6 160 -74q72 -72 72 -182q1 -61 -26.5 -113.5t-69.5 -84t-89 -48t-86 -12.5q-54 -5 -116 23t-108.5 91.5t-43.5 143.5h102q0 -67 49 -115.5
t117 -48.5q66 0 115 49t49 115t-48.5 113.5t-115.5 47.5q-31 0 -64 -13.5t-53 -33.5zM1212 1536l-641 -1536h-92l639 1536h94zM1081 256v-2h252v344l-2 2z" />
    <glyph glyph-name="questiondown" unicode="&#xbf;" horiz-adv-x="1241" 
d="M520 1186h205v-369h-102q-136 0 -232 -96q-96 -101 -96 -236q0 -137 96 -233q94 -98 232 -98q139 0 233 98q94 94 94 233h209q0 -143 -71 -262.5t-194.5 -188.5t-270.5 -69q-198 0 -355 127q-89 70 -137.5 176.5t-48.5 216.5q0 89 31 174.5t86.5 154.5t139 116t181.5 59
v197zM752 1427q0 -54 -37.5 -91.5t-91.5 -37.5q-51 0 -88 37.5t-37 91.5q0 49 38 87t87 38q54 0 91.5 -37t37.5 -88z" />
    <glyph glyph-name="Agrave" unicode="&#xc0;" horiz-adv-x="1366" 
d="M877 1599l-388 95v149l388 -131v-113zM1335 0h-219l-108 319h-650l-106 -319h-221l542 1536h220zM688 1274h-8l-258 -766h522z" />
    <glyph glyph-name="Aacute" unicode="&#xc1;" horiz-adv-x="1366" 
d="M489 1712l388 131v-149l-388 -95v113zM1335 0h-219l-108 319h-650l-106 -319h-221l542 1536h220zM688 1274h-8l-258 -766h522z" />
    <glyph glyph-name="Acircumflex" unicode="&#xc2;" horiz-adv-x="1366" 
d="M618 1858h134l194 -240h-125l-135 121h-4l-135 -121h-127zM1335 0h-219l-108 319h-650l-106 -319h-221l542 1536h220zM688 1274h-8l-258 -766h522z" />
    <glyph glyph-name="Atilde" unicode="&#xc3;" horiz-adv-x="1366" 
d="M1335 0h-219l-108 319h-650l-106 -319h-221l542 1536h220zM688 1274h-8l-258 -766h522zM582 1817q32 0 62 -15.5t73 -54.5q39 -39 63 -39q26 0 44 17.5t18 43.5h104q7 -49 -44 -107.5t-118 -55.5q-59 0 -133 69q-42 39 -65 39q-27 0 -45.5 -17.5t-18.5 -43.5h-104
q0 67 49 115.5t115 48.5z" />
    <glyph glyph-name="Adieresis" unicode="&#xc4;" horiz-adv-x="1366" 
d="M981 1718q0 -42 -29 -71t-71 -29q-43 0 -72 28.5t-29 71.5q0 42 29.5 71.5t71.5 29.5q41 0 70.5 -30t29.5 -71zM588 1718q0 -42 -29.5 -71t-71.5 -29q-43 0 -71.5 28.5t-28.5 71.5q0 42 29 71.5t71 29.5q41 0 71 -30t30 -71zM1335 0h-219l-108 319h-650l-106 -319h-221
l542 1536h220zM688 1274h-8l-258 -766h522z" />
    <glyph glyph-name="Aring" unicode="&#xc5;" horiz-adv-x="1366" 
d="M1335 0h-219l-108 319h-650l-106 -319h-221l542 1536h220zM688 1274h-8l-258 -766h522zM778 1792q0 38 -28 66t-66 28t-66 -28t-28 -66q0 -41 27.5 -67.5t66.5 -26.5t66.5 26.5t27.5 67.5zM893 1792q4 -39 -20.5 -86.5t-76 -83t-112.5 -33.5q-61 -2 -112.5 33.5t-76 83
t-20.5 86.5q-7 63 56 133.5t153 69.5q39 4 87.5 -20t86 -74.5t35.5 -108.5z" />
    <glyph glyph-name="AE" unicode="&#xc6;" horiz-adv-x="2078" 
d="M2007 188v-188h-946v319h-596l-213 -319h-252l1036 1536h971v-188h-741v-486h600v-188h-600v-486h741zM1061 1204h-6l-465 -696h471v696z" />
    <glyph glyph-name="Ccedilla" unicode="&#xc7;" horiz-adv-x="1400" 
d="M842 -193l-78 11l27 155q-195 24 -360 137t-262 287.5t-97 370.5q-2 158 66 307.5t180.5 259t266 174.5t314.5 62q209 0 395 -101v-231q-80 68 -183.5 105.5t-211.5 37.5q-165 0 -306.5 -83t-224.5 -224.5t-83 -306.5t83 -306.5t224.5 -224.5t306.5 -83q108 0 211.5 37.5
t183.5 105.5v-231q-186 -101 -395 -101l-35 2l-16 -84q24 17 59 17.5t68 -13t56 -47t22 -78.5q0 -63 -44 -105t-110 -42t-108.5 41t-42.5 104h75q0 -31 22.5 -53t53.5 -22t53.5 22t22.5 53t-22.5 53.5t-53.5 22.5q-38 0 -57 -29z" />
    <glyph glyph-name="Egrave" unicode="&#xc8;" horiz-adv-x="1140" 
d="M797 1599l-387 95v149l387 -131v-113zM328 674v-486h741v-188h-946v1536h946v-188h-741v-486h641v-188h-641z" />
    <glyph glyph-name="Eacute" unicode="&#xc9;" horiz-adv-x="1140" 
d="M410 1712l387 131v-149l-387 -95v113zM328 674v-486h741v-188h-946v1536h946v-188h-741v-486h641v-188h-641z" />
    <glyph glyph-name="Ecircumflex" unicode="&#xca;" horiz-adv-x="1140" 
d="M563 1858h133l195 -240h-125l-135 121h-4l-135 -121h-127zM328 674v-486h741v-188h-946v1536h946v-188h-741v-486h641v-188h-641z" />
    <glyph glyph-name="Edieresis" unicode="&#xcb;" horiz-adv-x="1140" 
d="M893 1718q0 -42 -29 -71t-71 -29q-43 0 -72 28.5t-29 71.5q0 42 29.5 71.5t71.5 29.5q41 0 70.5 -30t29.5 -71zM500 1718q0 -42 -29.5 -71t-71.5 -29q-43 0 -71.5 28.5t-28.5 71.5q0 42 29 71.5t71 29.5q41 0 71 -30t30 -71zM328 674v-486h741v-188h-946v1536h946v-188
h-741v-486h641v-188h-641z" />
    <glyph glyph-name="Igrave" unicode="&#xcc;" horiz-adv-x="452" 
d="M328 0h-205v1536h205v-1536zM420 1599l-387 95v149l387 -131v-113z" />
    <glyph glyph-name="Iacute" unicode="&#xcd;" horiz-adv-x="450" 
d="M328 0h-205v1536h205v-1536zM33 1712l387 131v-149l-387 -95v113z" />
    <glyph glyph-name="Icircumflex" unicode="&#xce;" horiz-adv-x="452" 
d="M328 0h-205v1536h205v-1536zM162 1858h133l194 -240h-124l-136 121h-4l-135 -121h-127z" />
    <glyph glyph-name="Idieresis" unicode="&#xcf;" horiz-adv-x="450" 
d="M328 0h-205v1536h205v-1536zM522 1718q0 -42 -29 -71t-71 -29q-43 0 -71.5 28.5t-28.5 71.5q0 42 29 71.5t71 29.5q41 0 70.5 -30t29.5 -71zM129 1718q0 -42 -29 -71t-71 -29q-43 0 -72 28.5t-29 71.5q0 42 29.5 71.5t71.5 29.5q41 0 70.5 -30t29.5 -71z" />
    <glyph glyph-name="Eth" unicode="&#xd0;" horiz-adv-x="1413" 
d="M164 674h-123v188h123v674h397q159 2 304.5 -57.5t250.5 -162.5t166 -246.5t59 -301.5q2 -158 -59 -301.5t-166 -246.5t-250.5 -162.5t-304.5 -57.5h-397v674zM1128 768q0 159 -75 292t-205.5 210.5t-286.5 77.5h-192v-486h325v-188h-325v-486h192q156 0 286.5 77.5
t205.5 210.5t75 292z" />
    <glyph glyph-name="Ntilde" unicode="&#xd1;" horiz-adv-x="1335" 
d="M567 1817q32 0 62 -15.5t73 -54.5q39 -39 64 -39q26 0 43.5 17.5t17.5 43.5h105q7 -49 -44 -107.5t-118 -55.5q-59 0 -133 69q-42 39 -66 39q-26 0 -44.5 -17.5t-18.5 -43.5h-105q0 67 49 115.5t115 48.5zM1008 1536h204v-1536h-204l-674 1128l-6 -6v-1122h-205v1536h205
l671 -1128l9 6v1122z" />
    <glyph glyph-name="Ograve" unicode="&#xd2;" horiz-adv-x="1798" 
d="M1092 1599l-387 95v149l387 -131v-113zM1726 768q3 -158 -65 -307.5t-181.5 -259t-267 -174.5t-313.5 -62q-161 -3 -314.5 62t-266 174.5t-180.5 259t-66 307.5q-2 158 66 307.5t180.5 259t266 174.5t314.5 62q160 3 313.5 -62t267 -174.5t181.5 -259t65 -307.5zM285 768
q0 -165 83 -306.5t224.5 -224.5t306.5 -83t306.5 83t224.5 224.5t83 306.5t-83 306.5t-224.5 224.5t-306.5 83t-306.5 -83t-224.5 -224.5t-83 -306.5z" />
    <glyph glyph-name="Oacute" unicode="&#xd3;" horiz-adv-x="1798" 
d="M705 1712l387 131v-149l-387 -95v113zM1726 768q3 -158 -65 -307.5t-181.5 -259t-267 -174.5t-313.5 -62q-161 -3 -314.5 62t-266 174.5t-180.5 259t-66 307.5q-2 158 66 307.5t180.5 259t266 174.5t314.5 62q160 3 313.5 -62t267 -174.5t181.5 -259t65 -307.5zM285 768
q0 -165 83 -306.5t224.5 -224.5t306.5 -83t306.5 83t224.5 224.5t83 306.5t-83 306.5t-224.5 224.5t-306.5 83t-306.5 -83t-224.5 -224.5t-83 -306.5z" />
    <glyph glyph-name="Ocircumflex" unicode="&#xd4;" horiz-adv-x="1798" 
d="M834 1858h133l194 -240h-125l-135 121h-4l-135 -121h-127zM1726 768q3 -158 -65 -307.5t-181.5 -259t-267 -174.5t-313.5 -62q-161 -3 -314.5 62t-266 174.5t-180.5 259t-66 307.5q-2 158 66 307.5t180.5 259t266 174.5t314.5 62q160 3 313.5 -62t267 -174.5t181.5 -259
t65 -307.5zM285 768q0 -165 83 -306.5t224.5 -224.5t306.5 -83t306.5 83t224.5 224.5t83 306.5t-83 306.5t-224.5 224.5t-306.5 83t-306.5 -83t-224.5 -224.5t-83 -306.5z" />
    <glyph glyph-name="Otilde" unicode="&#xd5;" horiz-adv-x="1798" 
d="M799 1817q32 0 62 -15.5t73 -54.5q39 -39 63 -39q26 0 44 17.5t18 43.5h104q7 -49 -44 -107.5t-118 -55.5q-59 0 -133 69q-42 39 -65 39q-27 0 -45.5 -17.5t-18.5 -43.5h-104q0 67 49 115.5t115 48.5zM1726 768q3 -158 -65 -307.5t-181.5 -259t-267 -174.5t-313.5 -62
q-161 -3 -314.5 62t-266 174.5t-180.5 259t-66 307.5q-2 158 66 307.5t180.5 259t266 174.5t314.5 62q160 3 313.5 -62t267 -174.5t181.5 -259t65 -307.5zM285 768q0 -165 83 -306.5t224.5 -224.5t306.5 -83t306.5 83t224.5 224.5t83 306.5t-83 306.5t-224.5 224.5
t-306.5 83t-306.5 -83t-224.5 -224.5t-83 -306.5z" />
    <glyph glyph-name="Odieresis" unicode="&#xd6;" horiz-adv-x="1798" 
d="M1196 1718q0 -42 -29 -71t-71 -29q-43 0 -72 28.5t-29 71.5q0 42 29.5 71.5t71.5 29.5q41 0 70.5 -30t29.5 -71zM803 1718q0 -42 -29.5 -71t-71.5 -29q-43 0 -71.5 28.5t-28.5 71.5q0 42 29 71.5t71 29.5q41 0 71 -30t30 -71zM1726 768q3 -158 -65 -307.5t-181.5 -259
t-267 -174.5t-313.5 -62q-161 -3 -314.5 62t-266 174.5t-180.5 259t-66 307.5q-2 158 66 307.5t180.5 259t266 174.5t314.5 62q160 3 313.5 -62t267 -174.5t181.5 -259t65 -307.5zM285 768q0 -165 83 -306.5t224.5 -224.5t306.5 -83t306.5 83t224.5 224.5t83 306.5
t-83 306.5t-224.5 224.5t-306.5 83t-306.5 -83t-224.5 -224.5t-83 -306.5z" />
    <glyph glyph-name="multiply" unicode="&#xd7;" horiz-adv-x="1349" 
d="M557 594l-475 473l119 119l473 -475l475 475l119 -119l-475 -475l475 -473l-119 -119l-475 475l-473 -475l-119 119z" />
    <glyph glyph-name="Oslash" unicode="&#xd8;" horiz-adv-x="1818" 
d="M395 141l-143 -141l-123 121l141 139q-89 106 -138.5 238t-49.5 270q-2 158 66 307.5t180.5 259t266 174.5t314.5 62q139 0 273.5 -46.5t240.5 -131.5l148 143l123 -121l-146 -143q89 -106 139 -237.5t50 -266.5q2 -126 -41 -249t-122 -222.5t-182.5 -175.5t-229 -117
t-253.5 -39q-139 0 -272 45.5t-242 130.5zM295 768q0 -202 121 -367l868 852q-167 129 -375 129q-165 0 -306.5 -83t-224.5 -224.5t-83 -306.5zM1524 768q0 195 -119 362l-868 -851q163 -125 372 -125q165 0 307 83t225 224.5t83 306.5z" />
    <glyph glyph-name="Ugrave" unicode="&#xd9;" horiz-adv-x="1411" 
d="M899 1599l-387 95v149l387 -131v-113zM328 1536v-1004q0 -155 111 -266.5t266 -111.5q43 -2 92.5 10.5t99.5 43.5t91 74.5t67 108.5t28 141v1004h205v-997q0 -162 -76.5 -294t-209.5 -206t-295 -74q-163 0 -296.5 74t-210.5 206t-77 294v997h205z" />
    <glyph glyph-name="Uacute" unicode="&#xda;" horiz-adv-x="1411" 
d="M512 1712l387 131v-149l-387 -95v113zM328 1536v-1004q0 -155 111 -266.5t266 -111.5q43 -2 92.5 10.5t99.5 43.5t91 74.5t67 108.5t28 141v1004h205v-997q0 -162 -76.5 -294t-209.5 -206t-295 -74q-163 0 -296.5 74t-210.5 206t-77 294v997h205z" />
    <glyph glyph-name="Ucircumflex" unicode="&#xdb;" horiz-adv-x="1411" 
d="M641 1858h133l195 -240h-125l-135 121h-4l-136 -121h-127zM328 1536v-1004q0 -155 111 -266.5t266 -111.5q43 -2 92.5 10.5t99.5 43.5t91 74.5t67 108.5t28 141v1004h205v-997q0 -162 -76.5 -294t-209.5 -206t-295 -74q-163 0 -296.5 74t-210.5 206t-77 294v997h205z" />
    <glyph glyph-name="Udieresis" unicode="&#xdc;" horiz-adv-x="1411" 
d="M1001 1718q0 -42 -29 -71t-71 -29q-43 0 -71.5 28.5t-28.5 71.5q0 42 29 71.5t71 29.5q41 0 70.5 -30t29.5 -71zM608 1718q0 -42 -29 -71t-71 -29q-43 0 -71.5 28.5t-28.5 71.5q0 42 29 71.5t71 29.5q41 0 70.5 -30t29.5 -71zM328 1536v-1004q0 -155 111 -266.5
t266 -111.5q43 -2 92.5 10.5t99.5 43.5t91 74.5t67 108.5t28 141v1004h205v-997q0 -162 -76.5 -294t-209.5 -206t-295 -74q-163 0 -296.5 74t-210.5 206t-77 294v997h205z" />
    <glyph glyph-name="Yacute" unicode="&#xdd;" horiz-adv-x="1245" 
d="M430 1712l387 131v-149l-387 -95v113zM520 694l-489 842h248l339 -618h9l342 618h245l-489 -842v-694h-205v694z" />
    <glyph glyph-name="Thorn" unicode="&#xde;" horiz-adv-x="1198" 
d="M1126 928q0 -97 -39 -181.5t-108 -140.5q-112 -94 -268 -94h-383v-512h-205v1536h205v-193h383q51 2 106 -11.5t110 -46t98.5 -80t71.5 -120t29 -157.5zM913 928q4 48 -19.5 100t-76 90.5t-119.5 36.5h-370v-455h370q67 -3 120 36.5t76 92.5t19 99z" />
    <glyph glyph-name="germandbls" unicode="&#xdf;" horiz-adv-x="1171" 
d="M1090 469q0 -200 -134 -334.5t-333 -134.5h-224v188h213q113 0 189 82t76 199q0 121 -88 202.5t-177 73.5h-213v189h146q63 -2 117 38t79.5 92t20.5 93q5 42 -20.5 95t-79.5 92.5t-117 37.5q-63 2 -117 -37.5t-79.5 -92.5t-20.5 -95v-1157h-205v1157q0 176 122 295
t300 119q187 0 315 -123q52 -51 83.5 -128t31.5 -163q0 -84 -51.5 -164.5t-128.5 -126.5v-2q49 -16 97.5 -45t96 -75.5t76 -118t25.5 -156.5z" />
    <glyph glyph-name="agrave" unicode="&#xe0;" horiz-adv-x="1499" 
d="M924 1348l-387 94v149l387 -131v-112zM1376 0h-205v205l-8 4q-173 -244 -471 -244q-172 0 -313 85t-219 228.5t-78 315.5q0 128 46.5 243t126.5 199.5t194 134.5t243 50q297 0 473 -244l6 4v205h205v-1186zM733 154q116 0 217 59.5t161 161t60 219.5q0 155 -108 287
q-60 71 -150.5 111t-179.5 40q-154 0 -276 -100q-72 -59 -117 -147t-45 -191q0 -161 108 -287q60 -73 149.5 -113t180.5 -40z" />
    <glyph glyph-name="aacute" unicode="&#xe1;" horiz-adv-x="1499" 
d="M537 1460l387 131v-149l-387 -94v112zM1376 0h-205v205l-8 4q-173 -244 -471 -244q-172 0 -313 85t-219 228.5t-78 315.5q0 128 46.5 243t126.5 199.5t194 134.5t243 50q297 0 473 -244l6 4v205h205v-1186zM733 154q116 0 217 59.5t161 161t60 219.5q0 155 -108 287
q-60 71 -150.5 111t-179.5 40q-154 0 -276 -100q-72 -59 -117 -147t-45 -191q0 -161 108 -287q60 -73 149.5 -113t180.5 -40z" />
    <glyph glyph-name="acircumflex" unicode="&#xe2;" horiz-adv-x="1499" 
d="M666 1616h133l194 -240h-125l-135 121h-4l-135 -121h-127zM1376 0h-205v205l-8 4q-173 -244 -471 -244q-172 0 -313 85t-219 228.5t-78 315.5q0 128 46.5 243t126.5 199.5t194 134.5t243 50q297 0 473 -244l6 4v205h205v-1186zM733 154q116 0 217 59.5t161 161t60 219.5
q0 155 -108 287q-60 71 -150.5 111t-179.5 40q-154 0 -276 -100q-72 -59 -117 -147t-45 -191q0 -161 108 -287q60 -73 149.5 -113t180.5 -40z" />
    <glyph glyph-name="atilde" unicode="&#xe3;" horiz-adv-x="1499" 
d="M1376 0h-205v205l-8 4q-173 -244 -471 -244q-172 0 -313 85t-219 228.5t-78 315.5q0 128 46.5 243t126.5 199.5t194 134.5t243 50q297 0 473 -244l6 4v205h205v-1186zM733 154q116 0 217 59.5t161 161t60 219.5q0 155 -108 287q-60 71 -150.5 111t-179.5 40
q-154 0 -276 -100q-72 -59 -117 -147t-45 -191q0 -161 108 -287q60 -73 149.5 -113t180.5 -40zM633 1561q32 0 62 -15.5t73 -54.5q39 -39 63 -39q26 0 44 17.5t18 43.5h104q7 -49 -43.5 -107.5t-117.5 -55.5q-60 0 -134 69q-42 39 -65 39q-27 0 -45.5 -17.5t-18.5 -43.5
h-104q0 67 49 115.5t115 48.5z" />
    <glyph glyph-name="adieresis" unicode="&#xe4;" horiz-adv-x="1499" 
d="M1028 1479q0 -43 -29 -72t-71 -29q-43 0 -72 29t-29 72q0 41 29.5 70.5t71.5 29.5q41 0 70.5 -29.5t29.5 -70.5zM635 1479q0 -43 -29.5 -72t-70.5 -29q-43 0 -72 29t-29 72q0 41 29 70.5t72 29.5q41 0 70.5 -29.5t29.5 -70.5zM1376 0h-205v205l-8 4q-173 -244 -471 -244
q-172 0 -313 85t-219 228.5t-78 315.5q0 128 46.5 243t126.5 199.5t194 134.5t243 50q297 0 473 -244l6 4v205h205v-1186zM733 154q116 0 217 59.5t161 161t60 219.5q0 155 -108 287q-60 71 -150.5 111t-179.5 40q-154 0 -276 -100q-72 -59 -117 -147t-45 -191
q0 -161 108 -287q60 -73 149.5 -113t180.5 -40z" />
    <glyph glyph-name="aring" unicode="&#xe5;" horiz-adv-x="1499" 
d="M1376 0h-205v205l-8 4q-173 -244 -471 -244q-172 0 -313 85t-219 228.5t-78 315.5q0 128 46.5 243t126.5 199.5t194 134.5t243 50q297 0 473 -244l6 4v205h205v-1186zM733 154q116 0 217 59.5t161 161t60 219.5q0 155 -108 287q-60 71 -150.5 111t-179.5 40
q-154 0 -276 -100q-72 -59 -117 -147t-45 -191q0 -161 108 -287q60 -73 149.5 -113t180.5 -40zM827 1473q0 38 -28 66t-66 28t-66 -28t-28 -66q0 -41 27.5 -68t66.5 -27t66.5 27t27.5 68zM942 1473q4 -39 -20.5 -86.5t-76 -83t-112.5 -33.5q-61 -2 -112.5 33.5t-76 83
t-20.5 86.5q-7 63 56 133t153 69q39 4 87.5 -20t86 -74t35.5 -108z" />
    <glyph glyph-name="ae" unicode="&#xe6;" horiz-adv-x="2537" 
d="M1804 154q82 -7 193.5 48.5t169.5 149.5h231q-73 -171 -235 -278q-165 -109 -359 -109q-118 0 -232 48.5t-196 133.5v-147h-205v205l-8 4q-173 -244 -471 -244q-172 0 -313 85t-219 228.5t-78 315.5q0 128 46.5 243t126.5 199.5t194 134.5t243 50q297 0 473 -244l6 4v205
h205v-150q82 86 196 135.5t232 49.5q127 0 246.5 -50t208.5 -133.5t143 -200t54 -243.5q0 -32 -9 -94h-1067q35 -148 154 -246q118 -100 270 -100zM733 154q116 0 217 59.5t161 161t60 219.5q0 155 -108 287q-60 71 -150.5 111t-179.5 40q-154 0 -276 -100
q-72 -59 -117 -147t-45 -191q0 -161 108 -287q60 -73 149.5 -113t180.5 -40zM1804 1032q-153 0 -272 -98q-117 -99 -152 -246h850q-13 53 -44 109t-81.5 110.5t-129 89.5t-171.5 35z" />
    <glyph glyph-name="ccedilla" unicode="&#xe7;" horiz-adv-x="1122" 
d="M676 -193l-78 11l27 157q-148 22 -272.5 110t-197.5 223t-73 286q0 127 53.5 243.5t142 200t208 133.5t247.5 50q161 0 307 -76v-240q-60 60 -140.5 93.5t-166.5 33.5q-154 0 -276 -100q-72 -59 -117 -147t-45 -191q0 -161 108 -287q60 -73 149.5 -113t180.5 -40
q86 0 166.5 33.5t140.5 93.5v-242q-68 -33 -151 -53.5t-156 -20.5l-35 2l-16 -84q24 17 59 17.5t68 -13t56 -47t22 -78.5q0 -63 -44 -105t-110 -42t-108.5 41t-42.5 104h75q0 -31 22.5 -53t53.5 -22t53.5 22t22.5 53t-22.5 53.5t-53.5 22.5q-38 0 -57 -29z" />
    <glyph glyph-name="egrave" unicode="&#xe8;" horiz-adv-x="1466" 
d="M926 1348l-387 94v149l387 -131v-112zM733 154q82 -7 193.5 48.5t169.5 149.5h231q-73 -171 -235 -278q-165 -109 -359 -109q-127 0 -246.5 50t-208.5 134t-142.5 201t-53.5 244t53.5 243.5t142.5 200t208.5 133.5t246.5 50t246.5 -50t208.5 -133.5t142.5 -200
t53.5 -243.5q0 -39 -8 -94h-1067q35 -148 154 -246q118 -100 270 -100zM733 1032q-153 0 -272 -98q-117 -99 -152 -246h850q-13 53 -44 109t-81.5 110.5t-129 89.5t-171.5 35z" />
    <glyph glyph-name="eacute" unicode="&#xe9;" horiz-adv-x="1466" 
d="M539 1460l387 131v-149l-387 -94v112zM733 154q82 -7 193.5 48.5t169.5 149.5h231q-73 -171 -235 -278q-165 -109 -359 -109q-127 0 -246.5 50t-208.5 134t-142.5 201t-53.5 244t53.5 243.5t142.5 200t208.5 133.5t246.5 50t246.5 -50t208.5 -133.5t142.5 -200
t53.5 -243.5q0 -39 -8 -94h-1067q35 -148 154 -246q118 -100 270 -100zM733 1032q-153 0 -272 -98q-117 -99 -152 -246h850q-13 53 -44 109t-81.5 110.5t-129 89.5t-171.5 35z" />
    <glyph glyph-name="ecircumflex" unicode="&#xea;" horiz-adv-x="1466" 
d="M668 1616h133l194 -240h-125l-135 121h-4l-135 -121h-127zM733 154q82 -7 193.5 48.5t169.5 149.5h231q-73 -171 -235 -278q-165 -109 -359 -109q-127 0 -246.5 50t-208.5 134t-142.5 201t-53.5 244t53.5 243.5t142.5 200t208.5 133.5t246.5 50t246.5 -50t208.5 -133.5
t142.5 -200t53.5 -243.5q0 -39 -8 -94h-1067q35 -148 154 -246q118 -100 270 -100zM733 1032q-153 0 -272 -98q-117 -99 -152 -246h850q-13 53 -44 109t-81.5 110.5t-129 89.5t-171.5 35z" />
    <glyph glyph-name="edieresis" unicode="&#xeb;" horiz-adv-x="1466" 
d="M1030 1479q0 -43 -29 -72t-71 -29q-43 0 -72 29t-29 72q0 41 29.5 70.5t71.5 29.5q41 0 70.5 -29.5t29.5 -70.5zM637 1479q0 -43 -29.5 -72t-70.5 -29q-43 0 -72 29t-29 72q0 41 29 70.5t72 29.5q41 0 70.5 -29.5t29.5 -70.5zM733 154q82 -7 193.5 48.5t169.5 149.5h231
q-73 -171 -235 -278q-165 -109 -359 -109q-127 0 -246.5 50t-208.5 134t-142.5 201t-53.5 244t53.5 243.5t142.5 200t208.5 133.5t246.5 50t246.5 -50t208.5 -133.5t142.5 -200t53.5 -243.5q0 -39 -8 -94h-1067q35 -148 154 -246q118 -100 270 -100zM733 1032
q-153 0 -272 -98q-117 -99 -152 -246h850q-13 53 -44 109t-81.5 110.5t-129 89.5t-171.5 35z" />
    <glyph glyph-name="igrave" unicode="&#xec;" horiz-adv-x="450" 
d="M123 0v1186h205v-1186h-205zM418 1348l-387 94v149l387 -131v-112z" />
    <glyph glyph-name="iacute" unicode="&#xed;" horiz-adv-x="450" 
d="M123 0v1186h205v-1186h-205zM31 1460l387 131v-149l-387 -94v112z" />
    <glyph glyph-name="icircumflex" unicode="&#xee;" horiz-adv-x="450" 
d="M123 0v1186h205v-1186h-205zM162 1616h133l194 -240h-124l-136 121h-4l-135 -121h-127z" />
    <glyph glyph-name="idieresis" unicode="&#xef;" horiz-adv-x="450" 
d="M123 0v1186h205v-1186h-205zM514 1479q0 -43 -29 -72t-71 -29q-43 0 -72 29t-29 72q0 41 29.5 70.5t71.5 29.5q41 0 70.5 -29.5t29.5 -70.5zM137 1479q0 -43 -29.5 -72t-70.5 -29q-43 0 -71.5 29t-28.5 72q0 42 29 71t71 29q41 0 70.5 -29.5t29.5 -70.5z" />
    <glyph glyph-name="eth" unicode="&#xf0;" horiz-adv-x="1343" 
d="M582 1184l-76 76l110 106q-94 78 -301 231h312l129 -98l102 98l76 -75l-94 -90q161 -130 249.5 -245t131.5 -249q41 -140 41 -358q0 -115 -41 -235.5t-136 -217.5q-71 -73 -181.5 -117.5t-231.5 -44.5q-118 0 -226.5 45t-188.5 121.5t-127.5 183.5t-47.5 224
q0 116 47.5 223t124.5 183t177.5 121.5t203.5 45.5q198 0 366 -149l5 4q-13 53 -96 141.5t-210 189.5zM1049 539q0 127 -95 243q-54 64 -130.5 98.5t-151.5 34.5q-129 0 -244 -94q-64 -54 -98.5 -130.5t-34.5 -151.5q0 -130 96 -244q52 -64 129 -98.5t152 -34.5
q66 0 132 27.5t120 75.5t89 120t36 154z" />
    <glyph glyph-name="ntilde" unicode="&#xf1;" 
d="M328 711v-711h-205v1186h205v-160l6 -4q132 199 379 199q120 0 225 -59.5t171.5 -173.5t66.5 -257v-731h-205v711q5 82 -40.5 159t-122.5 122t-159 40q-61 4 -122 -22.5t-105.5 -71t-71 -105.5t-22.5 -122zM567 1561q32 0 62 -15.5t73 -54.5q39 -39 64 -39
q26 0 43.5 17.5t17.5 43.5h105q7 -49 -44 -107.5t-118 -55.5q-59 0 -133 69q-42 39 -66 39q-26 0 -44.5 -17.5t-18.5 -43.5h-105q0 67 49 115.5t115 48.5z" />
    <glyph glyph-name="ograve" unicode="&#xf2;" horiz-adv-x="1466" 
d="M926 1348l-387 94v149l387 -131v-112zM733 154q116 0 217 59.5t161 161t60 219.5q0 155 -108 287q-60 71 -150.5 111t-179.5 40q-154 0 -276 -100q-72 -59 -117 -147t-45 -191q0 -161 108 -287q60 -73 149.5 -113t180.5 -40zM733 -35q-190 0 -358 107q-102 64 -170 157
q-123 174 -123 365q0 127 53.5 243.5t142 200t208 133.5t247.5 50q173 0 323 -84t239 -229t89 -314q0 -127 -53 -244t-141 -201t-208 -134t-249 -50z" />
    <glyph glyph-name="oacute" unicode="&#xf3;" horiz-adv-x="1466" 
d="M539 1460l387 131v-149l-387 -94v112zM733 154q116 0 217 59.5t161 161t60 219.5q0 155 -108 287q-60 71 -150.5 111t-179.5 40q-154 0 -276 -100q-72 -59 -117 -147t-45 -191q0 -161 108 -287q60 -73 149.5 -113t180.5 -40zM733 -35q-190 0 -358 107q-102 64 -170 157
q-123 174 -123 365q0 127 53.5 243.5t142 200t208 133.5t247.5 50q173 0 323 -84t239 -229t89 -314q0 -127 -53 -244t-141 -201t-208 -134t-249 -50z" />
    <glyph glyph-name="ocircumflex" unicode="&#xf4;" horiz-adv-x="1466" 
d="M668 1616h133l194 -240h-125l-135 121h-4l-135 -121h-127zM733 154q116 0 217 59.5t161 161t60 219.5q0 155 -108 287q-60 71 -150.5 111t-179.5 40q-154 0 -276 -100q-72 -59 -117 -147t-45 -191q0 -161 108 -287q60 -73 149.5 -113t180.5 -40zM733 -35q-190 0 -358 107
q-102 64 -170 157q-123 174 -123 365q0 127 53.5 243.5t142 200t208 133.5t247.5 50q173 0 323 -84t239 -229t89 -314q0 -127 -53 -244t-141 -201t-208 -134t-249 -50z" />
    <glyph glyph-name="otilde" unicode="&#xf5;" horiz-adv-x="1466" 
d="M633 1561q32 0 62 -15.5t73 -54.5q39 -39 63 -39q26 0 44 17.5t18 43.5h104q7 -49 -43.5 -107.5t-117.5 -55.5q-60 0 -134 69q-42 39 -65 39q-27 0 -45.5 -17.5t-18.5 -43.5h-104q0 67 49 115.5t115 48.5zM733 154q116 0 217 59.5t161 161t60 219.5q0 155 -108 287
q-60 71 -150.5 111t-179.5 40q-154 0 -276 -100q-72 -59 -117 -147t-45 -191q0 -161 108 -287q60 -73 149.5 -113t180.5 -40zM733 -35q-190 0 -358 107q-102 64 -170 157q-123 174 -123 365q0 127 53.5 243.5t142 200t208 133.5t247.5 50q173 0 323 -84t239 -229t89 -314
q0 -127 -53 -244t-141 -201t-208 -134t-249 -50z" />
    <glyph glyph-name="odieresis" unicode="&#xf6;" horiz-adv-x="1466" 
d="M1022 1479q0 -43 -29 -72t-71 -29q-43 0 -72 29t-29 72q0 41 29.5 70.5t71.5 29.5q41 0 70.5 -29.5t29.5 -70.5zM629 1479q0 -42 -29.5 -71.5t-71.5 -29.5q-43 0 -71.5 29t-28.5 72q0 42 29 71t71 29q41 0 71 -29.5t30 -70.5zM733 154q116 0 217 59.5t161 161t60 219.5
q0 155 -108 287q-60 71 -150.5 111t-179.5 40q-154 0 -276 -100q-72 -59 -117 -147t-45 -191q0 -161 108 -287q60 -73 149.5 -113t180.5 -40zM733 -35q-190 0 -358 107q-102 64 -170 157q-123 174 -123 365q0 127 53.5 243.5t142 200t208 133.5t247.5 50q173 0 323 -84
t239 -229t89 -314q0 -127 -53 -244t-141 -201t-208 -134t-249 -50z" />
    <glyph glyph-name="divide" unicode="&#xf7;" horiz-adv-x="1390" 
d="M578 1081q0 50 34.5 85.5t83.5 35.5t84 -35.5t35 -85.5q0 -49 -34.5 -83.5t-84.5 -34.5t-84 34.5t-34 83.5zM1288 672v-156h-1186v156h1186zM578 102q0 50 34.5 85.5t83.5 35.5t84 -35.5t35 -85.5q0 -49 -34.5 -83.5t-84.5 -34.5t-84 34t-34 84z" />
    <glyph glyph-name="oslash" unicode="&#xf8;" horiz-adv-x="1482" 
d="M360 84l-81 -84l-125 125l77 78q-67 80 -104 182t-37 209q0 127 53.5 243.5t142 200t208 133.5t247.5 50q99 0 198 -31.5t179 -87.5l84 84l125 -125l-78 -78q68 -80 106 -182t38 -207q0 -169 -89.5 -314.5t-239.5 -230t-323 -84.5q-215 0 -381 119zM741 154
q116 0 217.5 59.5t161.5 161t60 219.5q0 126 -76 242l-602 -611q109 -71 239 -71zM303 594q0 -62 20.5 -127.5t53.5 -116.5l602 611q-50 32 -114 51.5t-124 19.5q-154 0 -276 -100q-72 -59 -117 -147t-45 -191z" />
    <glyph glyph-name="ugrave" unicode="&#xf9;" 
d="M844 1348l-387 94v149l387 -131v-112zM123 469v717h205v-711q-4 -61 22.5 -122t71 -105.5t105.5 -71t122 -22.5q82 -5 159 40t122.5 122t40.5 159v711h205v-717q0 -222 -151 -363t-376 -141q-147 0 -266.5 62.5t-189.5 178.5t-70 263z" />
    <glyph glyph-name="uacute" unicode="&#xfa;" 
d="M457 1460l387 131v-149l-387 -94v112zM123 469v717h205v-711q-4 -61 22.5 -122t71 -105.5t105.5 -71t122 -22.5q82 -5 159 40t122.5 122t40.5 159v711h205v-717q0 -222 -151 -363t-376 -141q-147 0 -266.5 62.5t-189.5 178.5t-70 263z" />
    <glyph glyph-name="ucircumflex" unicode="&#xfb;" 
d="M586 1616h133l194 -240h-125l-135 121h-4l-135 -121h-127zM123 469v717h205v-711q-4 -61 22.5 -122t71 -105.5t105.5 -71t122 -22.5q82 -5 159 40t122.5 122t40.5 159v711h205v-717q0 -222 -151 -363t-376 -141q-147 0 -266.5 62.5t-189.5 178.5t-70 263z" />
    <glyph glyph-name="udieresis" unicode="&#xfc;" 
d="M946 1479q0 -43 -29 -72t-71 -29q-43 0 -72 29t-29 72q0 41 29.5 70.5t71.5 29.5q41 0 70.5 -29.5t29.5 -70.5zM553 1479q0 -43 -29.5 -72t-70.5 -29q-43 0 -72 29t-29 72q0 41 29 70.5t72 29.5q41 0 70.5 -29.5t29.5 -70.5zM123 469v717h205v-711q-4 -61 22.5 -122
t71 -105.5t105.5 -71t122 -22.5q82 -5 159 40t122.5 122t40.5 159v711h205v-717q0 -222 -151 -363t-376 -141q-147 0 -266.5 62.5t-189.5 178.5t-70 263z" />
    <glyph glyph-name="yacute" unicode="&#xfd;" horiz-adv-x="1175" 
d="M395 1460l387 131v-149l-387 -94v112zM918 1186h227l-613 -1598h-217l164 422l-448 1176h225l326 -907h8z" />
    <glyph glyph-name="thorn" unicode="&#xfe;" horiz-adv-x="1499" 
d="M123 1597h205v-616l8 -4q173 244 471 244q172 0 313 -85t219 -228.5t78 -315.5q0 -128 -46.5 -243t-126.5 -199.5t-194 -134.5t-243 -50q-297 0 -473 244l-6 -4v-617h-205v2009zM766 1032q-116 0 -217 -59.5t-161 -161t-60 -219.5q0 -156 108 -285q60 -73 150 -113
t180 -40q154 0 278 102q71 58 115.5 145.5t44.5 190.5q0 160 -106 289q-61 72 -151.5 111.5t-180.5 39.5z" />
    <glyph glyph-name="ydieresis" unicode="&#xff;" horiz-adv-x="1175" 
d="M885 1479q0 -42 -29.5 -71.5t-71.5 -29.5q-43 0 -71.5 29t-28.5 72q0 42 29 71t71 29q41 0 71 -29.5t30 -70.5zM492 1479q0 -42 -29.5 -71.5t-71.5 -29.5q-43 0 -71.5 29t-28.5 72q0 42 29 71t71 29q41 0 71 -29.5t30 -70.5zM918 1186h227l-613 -1598h-217l164 422
l-448 1176h225l326 -907h8z" />
    <glyph glyph-name="Amacron" unicode="&#x100;" horiz-adv-x="1366" 
d="M492 1778h382v-136h-382v136zM1335 0h-219l-108 319h-650l-106 -319h-221l542 1536h220zM688 1274h-8l-258 -766h522z" />
    <glyph glyph-name="amacron" unicode="&#x101;" horiz-adv-x="1499" 
d="M539 1536h383v-135h-383v135zM1376 0h-205v205l-8 4q-173 -244 -471 -244q-172 0 -313 85t-219 228.5t-78 315.5q0 128 46.5 243t126.5 199.5t194 134.5t243 50q297 0 473 -244l6 4v205h205v-1186zM733 154q116 0 217 59.5t161 161t60 219.5q0 155 -108 287
q-60 71 -150.5 111t-179.5 40q-154 0 -276 -100q-72 -59 -117 -147t-45 -191q0 -161 108 -287q60 -73 149.5 -113t180.5 -40z" />
    <glyph glyph-name="Aogonek" unicode="&#x104;" horiz-adv-x="1366" 
d="M1100 45l-92 274h-650l-106 -319h-221l542 1536h220l542 -1536h-125q-49 0 -83.5 -38.5t-34.5 -90.5q0 -54 37.5 -92.5t91.5 -38.5q53 0 94 41v-117q-61 -49 -141 -49q-43 -5 -94.5 20.5t-90.5 80.5t-37 120q0 72 41 129t107 80zM688 1274h-8l-258 -766h522z" />
    <glyph glyph-name="aogonek" unicode="&#x105;" horiz-adv-x="1499" 
d="M1171 47v158l-8 4q-173 -244 -471 -244q-172 0 -313 85t-219 228.5t-78 315.5q0 128 46.5 243t126.5 199.5t194 134.5t243 50q297 0 473 -244l6 4v205h205v-1186h-110q-46 0 -79.5 -39t-33.5 -90q0 -54 37.5 -92.5t91.5 -38.5q53 0 94 41v-117q-61 -49 -141 -49
q-69 -8 -145.5 58t-75.5 163q0 73 44 132t113 79zM733 154q116 0 217 59.5t161 161t60 219.5q0 155 -108 287q-60 71 -150.5 111t-179.5 40q-154 0 -276 -100q-72 -59 -117 -147t-45 -191q0 -161 108 -287q60 -73 149.5 -113t180.5 -40z" />
    <glyph glyph-name="Cacute" unicode="&#x106;" horiz-adv-x="1400" 
d="M705 1712l387 131v-149l-387 -95v113zM285 768q0 -165 83 -306.5t224.5 -224.5t306.5 -83q108 0 211.5 37.5t183.5 105.5v-231q-186 -101 -395 -101q-161 -3 -314.5 62t-266 174.5t-180.5 259t-66 307.5q-2 158 66 307.5t180.5 259t266 174.5t314.5 62q209 0 395 -101
v-231q-80 68 -183.5 105.5t-211.5 37.5q-165 0 -306.5 -83t-224.5 -224.5t-83 -306.5z" />
    <glyph glyph-name="cacute" unicode="&#x107;" horiz-adv-x="1122" 
d="M539 1460l387 131v-149l-387 -94v112zM733 -35q-190 0 -358 107q-102 64 -170 157q-123 174 -123 365q0 127 53.5 243.5t142 200t208 133.5t247.5 50q161 0 307 -76v-240q-60 60 -140.5 93.5t-166.5 33.5q-154 0 -276 -100q-72 -59 -117 -147t-45 -191q0 -161 108 -287
q60 -73 149.5 -113t180.5 -40q86 0 166.5 33.5t140.5 93.5v-242q-68 -33 -151 -53.5t-156 -20.5z" />
    <glyph glyph-name="Ccaron" unicode="&#x10c;" horiz-adv-x="1400" 
d="M285 768q0 -165 83 -306.5t224.5 -224.5t306.5 -83q108 0 211.5 37.5t183.5 105.5v-231q-186 -101 -395 -101q-161 -3 -314.5 62t-266 174.5t-180.5 259t-66 307.5q-2 158 66 307.5t180.5 259t266 174.5t314.5 62q209 0 395 -101v-231q-80 68 -183.5 105.5t-211.5 37.5
q-165 0 -306.5 -83t-224.5 -224.5t-83 -306.5zM1036 1858h125l-194 -240h-133l-199 240h127l135 -121h4z" />
    <glyph glyph-name="ccaron" unicode="&#x10d;" horiz-adv-x="1122" 
d="M870 1616h125l-194 -240h-133l-199 240h127l135 -121h4zM733 -35q-190 0 -358 107q-102 64 -170 157q-123 174 -123 365q0 127 53.5 243.5t142 200t208 133.5t247.5 50q161 0 307 -76v-240q-60 60 -140.5 93.5t-166.5 33.5q-154 0 -276 -100q-72 -59 -117 -147t-45 -191
q0 -161 108 -287q60 -73 149.5 -113t180.5 -40q86 0 166.5 33.5t140.5 93.5v-242q-68 -33 -151 -53.5t-156 -20.5z" />
    <glyph glyph-name="Dcaron" unicode="&#x10e;" horiz-adv-x="1372" 
d="M766 1858h125l-195 -240h-133l-198 240h127l135 -121h4zM1300 768q2 -158 -59 -301.5t-166 -246.5t-250.5 -162.5t-304.5 -57.5h-397v1536h397q159 2 304.5 -57.5t250.5 -162.5t166 -246.5t59 -301.5zM1087 768q0 159 -75 292t-205.5 210.5t-286.5 77.5h-192v-1160h192
q156 0 286.5 77.5t205.5 210.5t75 292z" />
    <glyph glyph-name="dcaron" unicode="&#x10f;" horiz-adv-x="1714" 
d="M1454 1223l86 374h146l-121 -374h-111zM1376 0h-205v205l-8 4q-173 -244 -471 -244q-172 0 -313 85t-219 228.5t-78 315.5q0 128 46.5 243t126.5 199.5t194 134.5t243 50q297 0 473 -244l6 4v616h205v-1597zM733 154q116 0 217 59.5t161 161t60 219.5q0 155 -108 287
q-60 71 -150.5 111t-179.5 40q-154 0 -276 -100q-72 -59 -117 -147t-45 -191q0 -161 108 -287q60 -73 149.5 -113t180.5 -40z" />
    <glyph glyph-name="Emacron" unicode="&#x112;" horiz-adv-x="1140" 
d="M416 1778h383v-136h-383v136zM328 674v-486h741v-188h-946v1536h946v-188h-741v-486h641v-188h-641z" />
    <glyph glyph-name="emacron" unicode="&#x113;" horiz-adv-x="1466" 
d="M539 1536h383v-135h-383v135zM733 154q82 -7 193.5 48.5t169.5 149.5h231q-73 -171 -235 -278q-165 -109 -359 -109q-127 0 -246.5 50t-208.5 134t-142.5 201t-53.5 244t53.5 243.5t142.5 200t208.5 133.5t246.5 50t246.5 -50t208.5 -133.5t142.5 -200t53.5 -243.5
q0 -39 -8 -94h-1067q35 -148 154 -246q118 -100 270 -100zM733 1032q-153 0 -272 -98q-117 -99 -152 -246h850q-13 53 -44 109t-81.5 110.5t-129 89.5t-171.5 35z" />
    <glyph glyph-name="Edotaccent" unicode="&#x116;" horiz-adv-x="1140" 
d="M741 1726q0 -54 -39.5 -93.5t-93.5 -39.5t-92.5 39t-38.5 94q0 54 38.5 93t92.5 39t93.5 -39t39.5 -93zM328 674v-486h741v-188h-946v1536h946v-188h-741v-486h641v-188h-641z" />
    <glyph glyph-name="edotaccent" unicode="&#x117;" horiz-adv-x="1466" 
d="M866 1495q0 -54 -39.5 -93.5t-93.5 -39.5t-92.5 39t-38.5 94q0 54 38.5 92.5t92.5 38.5t93.5 -38.5t39.5 -92.5zM733 154q82 -7 193.5 48.5t169.5 149.5h231q-73 -171 -235 -278q-165 -109 -359 -109q-127 0 -246.5 50t-208.5 134t-142.5 201t-53.5 244t53.5 243.5
t142.5 200t208.5 133.5t246.5 50t246.5 -50t208.5 -133.5t142.5 -200t53.5 -243.5q0 -39 -8 -94h-1067q35 -148 154 -246q118 -100 270 -100zM733 1032q-153 0 -272 -98q-117 -99 -152 -246h850q-13 53 -44 109t-81.5 110.5t-129 89.5t-171.5 35z" />
    <glyph glyph-name="Eogonek" unicode="&#x118;" horiz-adv-x="1140" 
d="M328 674v-486h741v-188h-104q-49 0 -84 -38.5t-35 -90.5q0 -54 37.5 -92.5t91.5 -38.5q53 0 94 41v-117q-61 -49 -141 -49q-69 -8 -145.5 58t-75.5 163q0 47 19 90.5t52 73.5h-655v1536h946v-188h-741v-486h600v-188h-600z" />
    <glyph glyph-name="eogonek" unicode="&#x119;" horiz-adv-x="1449" 
d="M733 154q82 -7 193.5 48.5t169.5 149.5h231q-49 -115 -141.5 -203.5t-210.5 -136.5q-39 -18 -65.5 -56.5t-26.5 -80.5q0 -54 39.5 -94.5t93.5 -40.5q53 0 94 41v-117q-61 -49 -141 -49q-42 -5 -95 21.5t-93 82.5t-38 121q0 69 37 127l-47 -2q-127 0 -246.5 50t-208.5 134
t-142.5 201t-53.5 244t53.5 243.5t142.5 200t208.5 133.5t246.5 50t246.5 -50t208.5 -133.5t142.5 -200t53.5 -243.5q0 -39 -8 -94h-1067q35 -148 154 -246q118 -100 270 -100zM733 1032q-153 0 -272 -98q-117 -99 -152 -246h850q-13 53 -44 109t-81.5 110.5t-129 89.5
t-171.5 35z" />
    <glyph glyph-name="Ecaron" unicode="&#x11a;" horiz-adv-x="1140" 
d="M766 1858h125l-195 -240h-133l-198 240h127l135 -121h4zM328 674v-486h741v-188h-946v1536h946v-188h-741v-486h641v-188h-641z" />
    <glyph glyph-name="ecaron" unicode="&#x11b;" horiz-adv-x="1466" 
d="M870 1616h125l-194 -240h-133l-199 240h127l135 -121h4zM733 154q82 -7 193.5 48.5t169.5 149.5h231q-73 -171 -235 -278q-165 -109 -359 -109q-127 0 -246.5 50t-208.5 134t-142.5 201t-53.5 244t53.5 243.5t142.5 200t208.5 133.5t246.5 50t246.5 -50t208.5 -133.5
t142.5 -200t53.5 -243.5q0 -39 -8 -94h-1067q35 -148 154 -246q118 -100 270 -100zM733 1032q-153 0 -272 -98q-117 -99 -152 -246h850q-13 53 -44 109t-81.5 110.5t-129 89.5t-171.5 35z" />
    <glyph glyph-name="uni0122" unicode="&#x122;" horiz-adv-x="1798" 
d="M881 -438h-84l77 166q-33 8 -55 35t-22 63q0 43 29.5 73.5t72.5 30.5t72.5 -30.5t29.5 -73.5q0 -20 -8 -39zM1505 674h-614v188h829q6 -46 6 -94q3 -158 -65 -307.5t-181.5 -259t-267 -174.5t-313.5 -62q-161 -3 -314.5 62t-266 174.5t-180.5 259t-66 307.5
q-2 158 66 307.5t180.5 259t266 174.5t314.5 62q208 0 408 -109q99 -54 190 -145t148 -207h-236q-49 97 -198 186.5t-312 85.5q-165 0 -306.5 -83t-224.5 -224.5t-83 -306.5t83 -306.5t224.5 -224.5t306.5 -83q226 0 399 149.5t207 370.5z" />
    <glyph glyph-name="uni0123" unicode="&#x123;" horiz-adv-x="1441" 
d="M727 1665h84l-78 -166q33 -8 55.5 -35t22.5 -63q0 -43 -30 -74t-72 -31q-43 0 -73 31t-30 74q0 20 8 39zM82 621q0 163 76 300.5t211.5 218.5t300.5 81q303 0 440 -224l4 2v187h205v-1096q0 -269 -165 -402.5t-456 -133.5q-236 0 -398 112.5t-187 292.5h209
q25 -99 128.5 -158t247.5 -59q214 0 315 86t101 262v162l-4 2q-155 -236 -440 -236q-68 0 -135.5 15.5t-147.5 59.5t-147 114q-71 74 -114.5 184.5t-43.5 229.5zM295 621q0 -149 96 -261q57 -68 139 -110.5t179 -42.5q147 0 262 96q67 57 109 139t42 179q0 167 -123 289
t-290 122q-148 0 -269 -100q-69 -57 -107 -142t-38 -169z" />
    <glyph glyph-name="Imacron" unicode="&#x12a;" horiz-adv-x="450" 
d="M328 0h-205v1536h205v-1536zM33 1778h385v-136h-385v136z" />
    <glyph glyph-name="imacron" unicode="&#x12b;" horiz-adv-x="450" 
d="M123 0v1186h205v-1186h-205zM35 1536h381v-135h-381v135z" />
    <glyph glyph-name="Iogonek" unicode="&#x12e;" horiz-adv-x="450" 
d="M190 -129q0 -54 37.5 -92.5t91.5 -38.5h9v-119q-27 -6 -56 -6q-31 -4 -69.5 11t-73 43t-57 73t-21.5 94q0 47 19.5 90.5t52.5 73.5v1536h205v-1536h-9q-54 0 -91.5 -37.5t-37.5 -91.5z" />
    <glyph glyph-name="iogonek" unicode="&#x12f;" horiz-adv-x="450" 
d="M190 -129q0 -54 37.5 -92.5t91.5 -38.5h9v-119q-27 -6 -56 -6q-31 -4 -69.5 11t-73 43t-57 73t-21.5 94q0 47 19.5 90.5t52.5 73.5v1186h205v-1186h-9q-54 0 -91.5 -37.5t-37.5 -91.5zM94 1501q0 54 38.5 92.5t92.5 38.5t92.5 -38.5t38.5 -92.5t-38.5 -92.5t-92.5 -38.5
t-92.5 38.5t-38.5 92.5z" />
    <glyph glyph-name="dotlessi" unicode="&#x131;" horiz-adv-x="450" 
d="M123 0v1186h205v-1186h-205z" />
    <glyph glyph-name="uni0136" unicode="&#x136;" horiz-adv-x="1208" 
d="M569 -403h-84l78 165q-33 8 -55.5 35.5t-22.5 63.5q0 43 30 73.5t73 30.5t72.5 -30.5t29.5 -73.5q0 -20 -8 -39zM328 0h-205v1536h205v-674h164l446 674h246l-508 -768l508 -768h-246l-446 674h-164v-674z" />
    <glyph glyph-name="uni0137" unicode="&#x137;" horiz-adv-x="1075" 
d="M510 -403h-84l78 165q-33 8 -55.5 35.5t-22.5 63.5q0 43 29.5 73.5t72.5 30.5t73 -30.5t30 -73.5q0 -20 -8 -39zM473 500h-145v-500h-205v1597h205v-909h145l330 498h246l-392 -592l394 -594h-248z" />
    <glyph glyph-name="Lacute" unicode="&#x139;" horiz-adv-x="1116" 
d="M442 1712l387 131v-149l-387 -95v113zM328 188h727v-188h-932v1536h205v-1348z" />
    <glyph glyph-name="lacute" unicode="&#x13a;" horiz-adv-x="487" 
d="M55 1753l387 131v-149l-387 -95v113zM123 1597h205v-1321q0 -37 24 -62.5t60 -25.5h39v-188h-68q-104 0 -182 78t-78 182v1337z" />
    <glyph glyph-name="uni013B" unicode="&#x13b;" horiz-adv-x="1085" 
d="M578 -403h-84l77 165q-33 8 -55 35.5t-22 63.5q0 43 29.5 73.5t72.5 30.5t72.5 -30.5t29.5 -73.5q0 -20 -8 -39zM328 188h727v-188h-932v1536h205v-1348z" />
    <glyph glyph-name="uni013C" unicode="&#x13c;" horiz-adv-x="487" 
d="M207 -403h-84l78 165q-33 8 -55.5 35.5t-22.5 63.5q0 43 29.5 73.5t72.5 30.5t73 -30.5t30 -73.5q0 -18 -9 -39zM123 1597h205v-1321q0 -37 24 -62.5t60 -25.5h39v-188h-68q-104 0 -182 78t-78 182v1337z" />
    <glyph glyph-name="Lcaron" unicode="&#x13d;" horiz-adv-x="1085" 
d="M823 1223l86 374h146l-121 -374h-111zM328 188h727v-188h-932v1536h205v-1348z" />
    <glyph glyph-name="lcaron" unicode="&#x13e;" horiz-adv-x="636" 
d="M406 1223l86 374h145l-121 -374h-110zM123 1597h205v-1321q0 -37 24 -62.5t60 -25.5h39v-188h-68q-104 0 -182 78t-78 182v1337z" />
    <glyph glyph-name="Lslash" unicode="&#x141;" horiz-adv-x="1126" 
d="M369 188h727v-188h-932v659l-123 -26v184l123 27v753h205v-702l440 109v-189l-440 -104v-523z" />
    <glyph glyph-name="lslash" unicode="&#x142;" horiz-adv-x="532" 
d="M164 1597h205v-702l123 31v-185l-123 -30v-435q0 -37 24 -62.5t60 -25.5h39v-188h-68q-104 0 -182 78t-78 182v399l-123 -28v184l123 29v753z" />
    <glyph glyph-name="Nacute" unicode="&#x143;" horiz-adv-x="1335" 
d="M473 1712l387 131v-149l-387 -95v113zM1008 1536h204v-1536h-204l-674 1128l-6 -6v-1122h-205v1536h205l671 -1128l9 6v1122z" />
    <glyph glyph-name="nacute" unicode="&#x144;" 
d="M455 1460l387 131v-149l-387 -94v112zM328 711v-711h-205v1186h205v-160l6 -4q132 199 379 199q120 0 225 -59.5t171.5 -173.5t66.5 -257v-731h-205v711q5 82 -40.5 159t-122.5 122t-159 40q-61 4 -122 -22.5t-105.5 -71t-71 -105.5t-22.5 -122z" />
    <glyph glyph-name="uni0145" unicode="&#x145;" horiz-adv-x="1335" 
d="M649 -403h-84l78 165q-33 8 -55.5 35.5t-22.5 63.5q0 43 30 73.5t73 30.5t72.5 -30.5t29.5 -73.5q0 -20 -8 -39zM1008 1536h204v-1536h-204l-674 1128l-6 -6v-1122h-205v1536h205l671 -1128l9 6v1122z" />
    <glyph glyph-name="uni0146" unicode="&#x146;" 
d="M631 -403h-84l78 165q-33 8 -55.5 35.5t-22.5 63.5q0 43 29.5 73.5t72.5 30.5t73 -30.5t30 -73.5q0 -18 -9 -39zM328 711v-711h-205v1186h205v-160l6 -4q132 199 379 199q120 0 225 -59.5t171.5 -173.5t66.5 -257v-731h-205v711q5 82 -40.5 159t-122.5 122t-159 40
q-61 4 -122 -22.5t-105.5 -71t-71 -105.5t-22.5 -122z" />
    <glyph glyph-name="Ncaron" unicode="&#x147;" horiz-adv-x="1335" 
d="M807 1858h125l-195 -240h-133l-198 240h126l136 -121h4zM1008 1536h204v-1536h-204l-674 1128l-6 -6v-1122h-205v1536h205l671 -1128l9 6v1122z" />
    <glyph glyph-name="ncaron" unicode="&#x148;" 
d="M786 1616h125l-194 -240h-133l-199 240h127l135 -121h4zM328 711v-711h-205v1186h205v-160l6 -4q132 199 379 199q120 0 225 -59.5t171.5 -173.5t66.5 -257v-731h-205v711q5 82 -40.5 159t-122.5 122t-159 40q-61 4 -122 -22.5t-105.5 -71t-71 -105.5t-22.5 -122z" />
    <glyph glyph-name="Omacron" unicode="&#x14c;" horiz-adv-x="1798" 
d="M707 1778h383v-136h-383v136zM1726 768q3 -158 -65 -307.5t-181.5 -259t-267 -174.5t-313.5 -62q-161 -3 -314.5 62t-266 174.5t-180.5 259t-66 307.5q-2 158 66 307.5t180.5 259t266 174.5t314.5 62q160 3 313.5 -62t267 -174.5t181.5 -259t65 -307.5zM285 768
q0 -165 83 -306.5t224.5 -224.5t306.5 -83t306.5 83t224.5 224.5t83 306.5t-83 306.5t-224.5 224.5t-306.5 83t-306.5 -83t-224.5 -224.5t-83 -306.5z" />
    <glyph glyph-name="omacron" unicode="&#x14d;" horiz-adv-x="1466" 
d="M541 1536h383v-135h-383v135zM733 154q116 0 217 59.5t161 161t60 219.5q0 155 -108 287q-60 71 -150.5 111t-179.5 40q-154 0 -276 -100q-72 -59 -117 -147t-45 -191q0 -161 108 -287q60 -73 149.5 -113t180.5 -40zM733 -35q-190 0 -358 107q-102 64 -170 157
q-123 174 -123 365q0 127 53.5 243.5t142 200t208 133.5t247.5 50q173 0 323 -84t239 -229t89 -314q0 -127 -53 -244t-141 -201t-208 -134t-249 -50z" />
    <glyph glyph-name="Ohungarumlaut" unicode="&#x150;" horiz-adv-x="1798" 
d="M950 1853l-143 -231h-154l144 231h153zM1196 1853l-143 -231h-154l143 231h154zM1726 768q3 -158 -65 -307.5t-181.5 -259t-267 -174.5t-313.5 -62q-161 -3 -314.5 62t-266 174.5t-180.5 259t-66 307.5q-2 158 66 307.5t180.5 259t266 174.5t314.5 62q160 3 313.5 -62
t267 -174.5t181.5 -259t65 -307.5zM285 768q0 -165 83 -306.5t224.5 -224.5t306.5 -83t306.5 83t224.5 224.5t83 306.5t-83 306.5t-224.5 224.5t-306.5 83t-306.5 -83t-224.5 -224.5t-83 -306.5z" />
    <glyph glyph-name="ohungarumlaut" unicode="&#x151;" horiz-adv-x="1466" 
d="M797 1542l-144 -231h-153l143 231h154zM1042 1542l-143 -231h-154l144 231h153zM733 154q116 0 217 59.5t161 161t60 219.5q0 155 -108 287q-60 71 -150.5 111t-179.5 40q-154 0 -276 -100q-72 -59 -117 -147t-45 -191q0 -161 108 -287q60 -73 149.5 -113t180.5 -40z
M733 -35q-190 0 -358 107q-102 64 -170 157q-123 174 -123 365q0 127 53.5 243.5t142 200t208 133.5t247.5 50q173 0 323 -84t239 -229t89 -314q0 -127 -53 -244t-141 -201t-208 -134t-249 -50z" />
    <glyph glyph-name="OE" unicode="&#x152;" horiz-adv-x="2531" 
d="M1718 674v-486h742v-188h-947v272q-114 -150 -291.5 -232t-322.5 -75q-161 -3 -314.5 62t-266 174.5t-180.5 259t-66 307.5q-2 158 66 307.5t180.5 259t266 174.5t314.5 62q97 3 196.5 -26t179 -77.5t140.5 -101.5t98 -104v274h947v-188h-742v-486h641v-188h-641z
M285 768q0 -165 83 -306.5t224.5 -224.5t306.5 -83t306.5 83t224.5 224.5t83 306.5t-83 306.5t-224.5 224.5t-306.5 83t-306.5 -83t-224.5 -224.5t-83 -306.5z" />
    <glyph glyph-name="oe" unicode="&#x153;" horiz-adv-x="2543" 
d="M1810 154q82 -7 193.5 48.5t169.5 149.5h231q-73 -171 -235 -278q-165 -109 -359 -109q-163 0 -307 83t-231 224q-24 -50 -76.5 -103.5t-122 -100.5t-160.5 -76t-180 -27q-190 0 -358 107q-102 64 -170 157q-123 174 -123 365q0 127 53.5 243.5t142 200t208 133.5
t247.5 50q164 0 309 -84t230 -226q87 142 231 226t307 84q127 0 246.5 -50t208.5 -133.5t143 -200t54 -243.5q0 -39 -8 -94h-1068q35 -148 154 -246q118 -100 270 -100zM733 154q116 0 217 59.5t161 161t60 219.5q0 155 -108 287q-60 71 -150.5 111t-179.5 40
q-154 0 -276 -100q-72 -59 -117 -147t-45 -191q0 -161 108 -287q60 -73 149.5 -113t180.5 -40zM1810 1032q-153 0 -272 -98q-117 -99 -152 -246h850q-13 53 -44 109t-81.5 110.5t-129 89.5t-171.5 35z" />
    <glyph glyph-name="Racute" unicode="&#x154;" horiz-adv-x="1218" 
d="M389 1712l387 131v-149l-387 -95v113zM1147 1047q0 -162 -92 -288.5t-242 -176.5l274 -582h-227l-262 557h-270v-557h-205v1536h534q134 0 246.5 -65t178 -177.5t65.5 -246.5zM934 1047q0 72 -29.5 133t-73.5 97.5t-93.5 55.5t-92.5 15h-317v-603h317q149 0 240 134
q49 73 49 168z" />
    <glyph glyph-name="racute" unicode="&#x155;" horiz-adv-x="727" 
d="M205 1460l387 131v-149l-387 -94v112zM686 1008h-49q-136 0 -223 -93q-86 -92 -86 -225v-690h-205v1186h205v-164l6 -4q28 60 87 109t122.5 73.5t113.5 20.5h29v-213z" />
    <glyph glyph-name="uni0156" unicode="&#x156;" horiz-adv-x="1218" 
d="M559 -403h-84l78 165q-33 8 -55.5 35.5t-22.5 63.5q0 43 30 73.5t73 30.5t72.5 -30.5t29.5 -73.5q0 -20 -8 -39zM1147 1047q0 -162 -92 -288.5t-242 -176.5l274 -582h-227l-262 557h-270v-557h-205v1536h534q134 0 246.5 -65t178 -177.5t65.5 -246.5zM934 1047
q0 72 -29.5 133t-73.5 97.5t-93.5 55.5t-92.5 15h-317v-603h317q149 0 240 134q49 73 49 168z" />
    <glyph glyph-name="uni0157" unicode="&#x157;" horiz-adv-x="727" 
d="M385 -403h-84l78 165q-33 8 -55.5 35.5t-22.5 63.5q0 43 29.5 73.5t72.5 30.5t73 -30.5t30 -73.5q0 -20 -8 -39zM686 1008h-49q-136 0 -223 -93q-86 -92 -86 -225v-690h-205v1186h205v-164l6 -4q28 60 87 109t122.5 73.5t113.5 20.5h29v-213z" />
    <glyph glyph-name="Rcaron" unicode="&#x158;" horiz-adv-x="1218" 
d="M735 1858h125l-194 -240h-134l-198 240h127l135 -121h4zM1147 1047q0 -162 -92 -288.5t-242 -176.5l274 -582h-227l-262 557h-270v-557h-205v1536h534q134 0 246.5 -65t178 -177.5t65.5 -246.5zM934 1047q0 72 -29.5 133t-73.5 97.5t-93.5 55.5t-92.5 15h-317v-603h317
q149 0 240 134q49 73 49 168z" />
    <glyph glyph-name="rcaron" unicode="&#x159;" horiz-adv-x="727" 
d="M541 1616h125l-195 -240h-133l-199 240h127l135 -121h5zM686 1008h-49q-136 0 -223 -93q-86 -92 -86 -225v-690h-205v1186h205v-164l6 -4q28 60 87 109t122.5 73.5t113.5 20.5h29v-213z" />
    <glyph glyph-name="Sacute" unicode="&#x15a;" horiz-adv-x="1243" 
d="M426 1712l387 131v-149l-387 -95v113zM340 1141q0 -108 104 -168q58 -34 218 -72q167 -43 237 -70q125 -49 193.5 -143.5t68.5 -251.5q4 -63 -16.5 -128.5t-66 -126.5t-109 -109t-154 -77t-194.5 -30q-154 0 -275 57t-192.5 172t-71.5 273h211q-8 -123 82.5 -220
t245.5 -93q83 -2 159 32t124 100.5t44 149.5q0 113 -74 174q-44 34 -88 52q-51 20 -221 61q-179 43 -243 78q-76 40 -115 88q-80 100 -80 252q0 130 66.5 229t178 150t249.5 51q215 0 353 -121.5t138 -339.5h-211q0 130 -76.5 201t-203.5 71q-114 0 -197 -65
q-84 -69 -84 -176z" />
    <glyph glyph-name="sacute" unicode="&#x15b;" horiz-adv-x="1107" 
d="M360 1460l388 131v-149l-388 -94v112zM82 360h215q0 -100 71 -155t187 -55q111 0 184.5 52t73.5 138q0 67 -49 113q-49 43 -229 84q-180 37 -240 65q-94 47 -134 101t-46 169q0 149 119.5 249t320.5 100q123 0 221 -41t157.5 -126t59.5 -202h-211q0 89 -62.5 136.5
t-164.5 47.5q-96 0 -161.5 -47t-65.5 -117q0 -77 88 -118q44 -23 207 -58q170 -38 221 -65q49 -27 77.5 -49t53 -55t36 -78t15.5 -109q0 -168 -124.5 -271.5t-346.5 -103.5q-228 0 -350.5 106t-122.5 289z" />
    <glyph glyph-name="Scaron" unicode="&#x160;" horiz-adv-x="1243" 
d="M758 1858h125l-195 -240h-133l-199 240h127l135 -121h5zM340 1141q0 -108 104 -168q58 -34 218 -72q167 -43 237 -70q125 -49 193.5 -143.5t68.5 -251.5q4 -63 -16.5 -128.5t-66 -126.5t-109 -109t-154 -77t-194.5 -30q-154 0 -275 57t-192.5 172t-71.5 273h211
q-8 -123 82.5 -220t245.5 -93q83 -2 159 32t124 100.5t44 149.5q0 113 -74 174q-44 34 -88 52q-51 20 -221 61q-179 43 -243 78q-76 40 -115 88q-80 100 -80 252q0 130 66.5 229t178 150t249.5 51q215 0 353 -121.5t138 -339.5h-211q0 130 -76.5 201t-203.5 71
q-114 0 -197 -65q-84 -69 -84 -176z" />
    <glyph glyph-name="scaron" unicode="&#x161;" horiz-adv-x="1107" 
d="M692 1616h125l-194 -240h-134l-198 240h127l135 -121h4zM82 360h215q0 -100 71 -155t187 -55q111 0 184.5 52t73.5 138q0 67 -49 113q-49 43 -229 84q-180 37 -240 65q-94 47 -134 101t-46 169q0 149 119.5 249t320.5 100q123 0 221 -41t157.5 -126t59.5 -202h-211
q0 89 -62.5 136.5t-164.5 47.5q-96 0 -161.5 -47t-65.5 -117q0 -77 88 -118q44 -23 207 -58q170 -38 221 -65q49 -27 77.5 -49t53 -55t36 -78t15.5 -109q0 -168 -124.5 -271.5t-346.5 -103.5q-228 0 -350.5 106t-122.5 289z" />
    <glyph glyph-name="Tcaron" unicode="&#x164;" horiz-adv-x="1089" 
d="M682 1858h125l-195 -240h-133l-198 240h127l135 -121h4zM1059 1536v-188h-412v-1348h-205v1348h-411v188h1028z" />
    <glyph glyph-name="tcaron" unicode="&#x165;" horiz-adv-x="823" 
d="M571 1223l86 374h146l-121 -374h-111zM346 1454v-268h174v-189h-174v-997h-205v997h-100v189h100v268h205z" />
    <glyph glyph-name="Umacron" unicode="&#x16a;" horiz-adv-x="1411" 
d="M514 1778h383v-136h-383v136zM328 1536v-1004q0 -155 111 -266.5t266 -111.5q43 -2 92.5 10.5t99.5 43.5t91 74.5t67 108.5t28 141v1004h205v-997q0 -162 -76.5 -294t-209.5 -206t-295 -74q-163 0 -296.5 74t-210.5 206t-77 294v997h205z" />
    <glyph glyph-name="umacron" unicode="&#x16b;" 
d="M457 1536h383v-135h-383v135zM123 469v717h205v-711q-4 -61 22.5 -122t71 -105.5t105.5 -71t122 -22.5q82 -5 159 40t122.5 122t40.5 159v711h205v-717q0 -222 -151 -363t-376 -141q-147 0 -266.5 62.5t-189.5 178.5t-70 263z" />
    <glyph glyph-name="Uring" unicode="&#x16e;" horiz-adv-x="1411" 
d="M328 1536v-1004q0 -155 111 -266.5t266 -111.5q43 -2 92.5 10.5t99.5 43.5t91 74.5t67 108.5t28 141v1004h205v-997q0 -162 -76.5 -294t-209.5 -206t-295 -74q-163 0 -296.5 74t-210.5 206t-77 294v997h205zM807 1792q0 38 -28 66t-66 28t-66.5 -28t-28.5 -66
q0 -40 28 -67t67 -27t66.5 26.5t27.5 67.5zM922 1792q4 -39 -20.5 -86.5t-76 -83t-112.5 -33.5q-61 -2 -112.5 33.5t-76 83t-20.5 86.5q-7 63 56 133.5t153 69.5q39 4 87.5 -20t86 -74.5t35.5 -108.5z" />
    <glyph glyph-name="uring" unicode="&#x16f;" 
d="M123 469v717h205v-711q-4 -61 22.5 -122t71 -105.5t105.5 -71t122 -22.5q82 -5 159 40t122.5 122t40.5 159v711h205v-717q0 -222 -151 -363t-376 -141q-147 0 -266.5 62.5t-189.5 178.5t-70 263zM743 1473q0 38 -28 66t-66 28t-66 -28t-28 -66q0 -41 27.5 -68t66.5 -27
t66.5 27t27.5 68zM858 1473q4 -39 -20.5 -86.5t-76 -83t-112.5 -33.5q-61 -2 -112.5 33.5t-76 83t-20.5 86.5q-7 63 56 133t153 69q39 4 87.5 -20t86 -74t35.5 -108z" />
    <glyph glyph-name="Uhungarumlaut" unicode="&#x170;" horiz-adv-x="1411" 
d="M758 1853l-144 -231h-153l143 231h154zM1004 1853l-144 -231h-153l143 231h154zM328 1536v-1004q0 -155 111 -266.5t266 -111.5q43 -2 92.5 10.5t99.5 43.5t91 74.5t67 108.5t28 141v1004h205v-997q0 -162 -76.5 -294t-209.5 -206t-295 -74q-163 0 -296.5 74t-210.5 206
t-77 294v997h205z" />
    <glyph glyph-name="uhungarumlaut" unicode="&#x171;" 
d="M700 1542l-143 -231h-154l144 231h153zM946 1542l-143 -231h-154l144 231h153zM123 469v717h205v-711q-4 -61 22.5 -122t71 -105.5t105.5 -71t122 -22.5q82 -5 159 40t122.5 122t40.5 159v711h205v-717q0 -222 -151 -363t-376 -141q-147 0 -266.5 62.5t-189.5 178.5
t-70 263z" />
    <glyph glyph-name="Uogonek" unicode="&#x172;" horiz-adv-x="1411" 
d="M328 1536v-1004q0 -155 111 -266.5t266 -111.5q43 -2 92.5 10.5t99.5 43.5t91 74.5t67 108.5t28 141v1004h205v-997q7 -180 -110 -340t-279 -203q-30 -13 -50 -47.5t-20 -71.5q0 -54 39 -95.5t90 -41.5q54 0 95 41v-117q-61 -49 -142 -49q-69 -8 -145.5 58t-75.5 163
q0 73 39 129h-22q-163 0 -296.5 74t-210.5 206t-77 294v997h205z" />
    <glyph glyph-name="uogonek" unicode="&#x173;" 
d="M123 469v717h205v-711q-4 -61 22.5 -122t71 -105.5t105.5 -71t122 -22.5q82 -5 159 40t122.5 122t40.5 159v711h205v-717q0 -152 -76 -272t-205 -181q-35 -13 -58.5 -52t-23.5 -81q0 -55 39.5 -99t89.5 -44q53 0 94 41v-117q-61 -49 -141 -49q-69 -8 -145.5 58t-75.5 163
q0 74 39 133l-64 -4q-147 0 -266.5 62.5t-189.5 178.5t-70 263z" />
    <glyph glyph-name="Ydieresis" unicode="&#x178;" horiz-adv-x="1245" 
d="M920 1718q0 -42 -29.5 -71t-71.5 -29q-43 0 -71.5 28.5t-28.5 71.5q0 42 29 71.5t71 29.5q41 0 71 -30t30 -71zM526 1718q0 -42 -29 -71t-71 -29q-43 0 -71.5 28.5t-28.5 71.5q0 42 29 71.5t71 29.5q41 0 70.5 -30t29.5 -71zM520 694l-489 842h248l339 -618h9l342 618
h245l-489 -842v-694h-205v694z" />
    <glyph glyph-name="Zacute" unicode="&#x179;" horiz-adv-x="1146" 
d="M379 1712l387 131v-149l-387 -95v113zM61 1348v188h1024v-201l-778 -1140l4 -7h774v-188h-1024v201l781 1140l-4 7h-777z" />
    <glyph glyph-name="zacute" unicode="&#x17a;" horiz-adv-x="1083" 
d="M348 1460l387 131v-149l-387 -94v112zM1018 1186v-201l-696 -792l2 -5h694v-188h-952v201l696 792l-2 4h-694v189h952z" />
    <glyph glyph-name="Zdotaccent" unicode="&#x17b;" horiz-adv-x="1146" 
d="M705 1726q0 -54 -40 -93.5t-94 -39.5t-92.5 39t-38.5 94q0 54 38.5 93t92.5 39t94 -39t40 -93zM61 1348v188h1024v-201l-778 -1140l4 -7h774v-188h-1024v201l781 1140l-4 7h-777z" />
    <glyph glyph-name="zdotaccent" unicode="&#x17c;" horiz-adv-x="1083" 
d="M674 1495q0 -54 -39.5 -93.5t-93.5 -39.5t-92.5 39t-38.5 94q0 54 38.5 92.5t92.5 38.5t93.5 -38.5t39.5 -92.5zM1018 1186v-201l-696 -792l2 -5h694v-188h-952v201l696 792l-2 4h-694v189h952z" />
    <glyph glyph-name="Zcaron" unicode="&#x17d;" horiz-adv-x="1146" 
d="M713 1858h125l-195 -240h-133l-199 240h127l135 -121h5zM61 1348v188h1024v-201l-778 -1140l4 -7h774v-188h-1024v201l781 1140l-4 7h-777z" />
    <glyph glyph-name="zcaron" unicode="&#x17e;" horiz-adv-x="1083" 
d="M680 1616h125l-195 -240h-133l-198 240h127l135 -121h4zM1018 1186v-201l-696 -792l2 -5h694v-188h-952v201l696 792l-2 4h-694v189h952z" />
    <glyph glyph-name="florin" unicode="&#x192;" horiz-adv-x="845" 
d="M246 -115l116 1112h-100l21 189h100l14 131q12 114 103 199q87 81 207 81h98l-21 -188h-69q-41 0 -75.5 -33t-39.5 -76l-12 -114h174l-21 -189h-174l-118 -1128q-12 -114 -103 -199q-88 -82 -207 -82h-98l20 189h70q41 0 75.5 32.5t39.5 75.5z" />
    <glyph glyph-name="circumflex" unicode="&#x2c6;" horiz-adv-x="935" 
d="M403 1632h134l194 -239h-125l-135 120h-4l-135 -120h-127z" />
    <glyph glyph-name="caron" unicode="&#x2c7;" horiz-adv-x="935" 
d="M606 1632h125l-194 -239h-134l-198 239h127l135 -121h4z" />
    <glyph glyph-name="breve" unicode="&#x2d8;" horiz-adv-x="811" 
d="M205 1536h131q24 -47 72 -47t69 47h129q-12 -72 -69 -119t-129 -47q-74 0 -132 47t-71 119z" />
    <glyph glyph-name="dotaccent" unicode="&#x2d9;" horiz-adv-x="509" 
d="M387 1495q0 -54 -39.5 -93.5t-93.5 -39.5t-92.5 39t-38.5 94q0 54 38.5 92.5t92.5 38.5t93.5 -38.5t39.5 -92.5z" />
    <glyph glyph-name="ring" unicode="&#x2da;" horiz-adv-x="827" 
d="M508 1473q0 38 -28 66t-66 28t-66.5 -28t-28.5 -66q0 -41 28 -68t67 -27t66.5 27t27.5 68zM623 1473q4 -39 -20.5 -86.5t-76 -83t-112.5 -33.5q-61 -2 -112.5 33.5t-76 83t-20.5 86.5q-7 63 56 133t153 69q39 4 87.5 -20t86 -74t35.5 -108z" />
    <glyph glyph-name="ogonek" unicode="&#x2db;" horiz-adv-x="608" 
d="M262 -129q0 -54 37.5 -92.5t91.5 -38.5q53 0 94 41v-117q-61 -49 -141 -49q-69 -8 -145.5 58t-75.5 163q-4 31 11 69.5t43 73t73 57t94 21.5q25 0 49 -6v-51h-2q-54 0 -91.5 -37.5t-37.5 -91.5z" />
    <glyph glyph-name="tilde" unicode="&#x2dc;" horiz-adv-x="937" 
d="M369 1561q32 0 62 -15.5t73 -54.5q39 -39 63 -39q26 0 44 17.5t18 43.5h104q7 -49 -44 -107.5t-118 -55.5q-59 0 -133 69q-42 39 -65 39q-27 0 -45.5 -17.5t-18.5 -43.5h-104q0 67 49 115.5t115 48.5z" />
    <glyph glyph-name="hungarumlaut" unicode="&#x2dd;" horiz-adv-x="788" 
d="M420 1542l-144 -231h-153l143 231h154zM666 1542l-144 -231h-153l143 231h154z" />
    <glyph glyph-name="pi" unicode="&#x3c0;" horiz-adv-x="1286" 
d="M803 223v774h-318v-997h-204v997h-232v189h1188v-189h-229v-774q0 -31 21.5 -51t53.5 -20q39 0 62 10v-189q-36 -8 -62 -8q-85 -2 -153 37.5t-100.5 99.5t-26.5 121z" />
    <glyph glyph-name="endash" unicode="&#x2013;" horiz-adv-x="1236" 
d="M92 516v156h1053v-156h-1053z" />
    <glyph glyph-name="emdash" unicode="&#x2014;" horiz-adv-x="1789" 
d="M92 516v156h1606v-156h-1606z" />
    <glyph glyph-name="quoteleft" unicode="&#x2018;" horiz-adv-x="417" 
d="M252 1597h104l-96 -206q41 -7 68.5 -42.5t27.5 -80.5q0 -54 -36.5 -91.5t-90.5 -37.5t-90.5 37.5t-36.5 91.5q0 23 11 49z" />
    <glyph glyph-name="quoteright" unicode="&#x2019;" horiz-adv-x="417" 
d="M166 1139h-105l97 207q-41 7 -69 42.5t-28 79.5q0 54 36.5 91.5t90.5 37.5t90.5 -37.5t36.5 -91.5q0 -26 -10 -49z" />
    <glyph glyph-name="quotesinglbase" unicode="&#x201a;" horiz-adv-x="458" 
d="M207 -221h-105l97 207q-41 7 -69 43t-28 80q0 54 36.5 91.5t90.5 37.5t90.5 -37.5t36.5 -91.5q0 -27 -10 -50z" />
    <glyph glyph-name="quotedblleft" unicode="&#x201c;" horiz-adv-x="720" 
d="M252 1597h104l-96 -206q41 -7 68.5 -42.5t27.5 -80.5q0 -54 -36.5 -91.5t-90.5 -37.5t-90.5 37.5t-36.5 91.5q0 23 11 49zM555 1597h104l-96 -206q41 -7 68.5 -42.5t27.5 -80.5q0 -54 -36.5 -91.5t-90.5 -37.5t-90 37.5t-36 91.5q0 26 10 49z" />
    <glyph glyph-name="quotedblright" unicode="&#x201d;" horiz-adv-x="720" 
d="M469 1139h-104l96 207q-41 7 -68.5 42.5t-27.5 79.5q0 54 36.5 91.5t90.5 37.5t90 -37.5t36 -91.5q0 -26 -10 -49zM166 1139h-105l97 207q-41 7 -69 42.5t-28 79.5q0 54 36.5 91.5t90.5 37.5t90.5 -37.5t36.5 -91.5q0 -26 -10 -49z" />
    <glyph glyph-name="quotedblbase" unicode="&#x201e;" horiz-adv-x="720" 
d="M469 -221h-104l96 207q-41 7 -68.5 42.5t-27.5 80.5q0 54 36.5 91.5t90.5 37.5t90 -37.5t36 -91.5q0 -27 -10 -50zM166 -221h-105l97 207q-41 7 -69 43t-28 80q0 54 36.5 91.5t90.5 37.5t90.5 -37.5t36.5 -91.5q0 -27 -10 -50z" />
    <glyph glyph-name="dagger" unicode="&#x2020;" horiz-adv-x="1105" 
d="M123 1077v109h375v350h118v-350h367v-109h-367v-1253h-118v1253h-375z" />
    <glyph glyph-name="daggerdbl" unicode="&#x2021;" horiz-adv-x="1105" 
d="M498 -176v350h-375v109h375v794h-375v109h375v350h118v-350h367v-109h-367v-794h367v-109h-367v-350h-118z" />
    <glyph glyph-name="bullet" unicode="&#x2022;" horiz-adv-x="849" 
d="M426 375q-49 -1 -94 21.5t-73 57t-43 72.5t-11 68q-4 30 11 68t43 72.5t73 57t94 21.5q63 2 117.5 -37t80.5 -90.5t21 -91.5q5 -40 -21 -91.5t-80.5 -90.5t-117.5 -37z" />
    <glyph glyph-name="ellipsis" unicode="&#x2026;" horiz-adv-x="1781" 
d="M72 111q0 51 38 89t89 38t89 -38t38 -89t-38 -89t-89 -38t-89 38t-38 89zM764 111q0 51 38 89t89 38t89 -38t38 -89t-38 -89t-89 -38t-89 38t-38 89zM1456 111q0 51 38 89t89 38t89 -38t38 -89t-38 -89t-89 -38t-89 38t-38 89z" />
    <glyph glyph-name="perthousand" unicode="&#x2030;" horiz-adv-x="2672" 
d="M877 1180q0 -160 -118.5 -277t-279.5 -117q-137 0 -256 97q-59 48 -100 126.5t-41 170.5q0 138 100 256q54 64 135 99.5t162 35.5q161 0 279.5 -116.5t118.5 -274.5zM1726 358q0 -160 -118 -276.5t-279 -116.5q-138 0 -256 96q-59 48 -100 126.5t-41 170.5q0 138 100 256
q54 64 135 100t162 36q161 0 279 -117t118 -275zM1323 1536h193l-1033 -1536h-192zM715 1180q0 98 -69 166.5t-167 68.5q-42 5 -96.5 -22.5t-97 -85.5t-41.5 -127q0 -104 74 -171t161 -67q75 -9 157.5 62t78.5 176zM1565 358q0 98 -69 167t-167 69q-30 4 -70.5 -12.5
t-77.5 -46.5t-62.5 -77.5t-24.5 -99.5q0 -104 74 -170.5t161 -66.5q75 -9 157.5 61.5t78.5 175.5zM2591 358q0 -160 -118.5 -276.5t-279.5 -116.5q-138 0 -256 96q-59 48 -100 126.5t-41 170.5q0 138 100 256q54 64 135 100t162 36q161 0 279.5 -117t118.5 -275zM2429 358
q0 98 -69 167t-167 69q-30 4 -70.5 -12.5t-77.5 -46.5t-62.5 -77.5t-24.5 -99.5q0 -104 74 -170.5t161 -66.5q75 -9 157.5 61.5t78.5 175.5z" />
    <glyph glyph-name="guilsinglleft" unicode="&#x2039;" horiz-adv-x="557" 
d="M455 424v-242l-353 340v144l353 338v-242l-179 -164v-8z" />
    <glyph glyph-name="guilsinglright" unicode="&#x203a;" horiz-adv-x="557" 
d="M455 666v-144l-353 -340v242l179 166v8l-179 164v242z" />
    <glyph glyph-name="fraction" unicode="&#x2044;" horiz-adv-x="1060" 
d="M897 1536l-641 -1536h-92l639 1536h94z" />
    <glyph glyph-name="Euro" unicode="&#x20ac;" horiz-adv-x="1337" 
d="M809 709l-55 -160h-357v-55q-3 -51 17.5 -108t60.5 -109t108 -87t150 -36q49 -3 104 17t106 60t85.5 109t36.5 154v10h190v-10q0 -146 -68.5 -267t-188.5 -191.5t-265 -70.5q-196 0 -348 127q-85 71 -131.5 180t-46.5 222v55h-135v160h135v118h-135v160h135v55
q0 197 127 351q69 86 177 132t222 46q145 0 265 -70t188.5 -191.5t68.5 -267.5v-12h-190v12q0 138 -96 242q-98 98 -236 98q-49 3 -105 -17t-108 -60t-87 -109t-36 -154v-55h508l-59 -160h-449v-118h412z" />
    <glyph glyph-name="uni2113" unicode="&#x2113;" horiz-adv-x="847" 
d="M717 313l90 -86q-67 -138 -151 -200t-191 -62q-85 -4 -157.5 45.5t-111 130.5t-34.5 170v68q-19 -19 -36.5 -36t-28 -27t-11.5 -11l-45 129q56 56 121 129v535q0 229 79 351t210 122q117 0 186.5 -99.5t69.5 -261.5q0 -121 -78 -280q-74 -153 -293 -414v-160
q0 -229 166 -229q59 0 110.5 42.5t104.5 143.5zM342 1071v-336q211 295 211 486q0 90 -26.5 141t-65.5 51q-21 0 -41 -17t-38 -54t-29 -107t-11 -164z" />
    <glyph glyph-name="trademark" unicode="&#x2122;" horiz-adv-x="741" 
d="M623 1536h36v-307h-36v223l-99 -223h-37l-100 223v-223h-37v307h37l119 -256zM324 1536v-35h-103v-272h-37v272h-102v35h242z" />
    <glyph glyph-name="Omega" unicode="&#x2126;" horiz-adv-x="1804" 
d="M1722 788q0 -102 -43 -217.5t-127 -218.5q-89 -109 -168 -155l7 -9h276v-188h-571v188q111 31 208 122.5t153.5 215t51.5 242.5q0 123 -48.5 236.5t-130 196t-194 132t-233.5 49.5t-233.5 -49.5t-194 -132t-130 -196t-48.5 -236.5q0 -174 98 -330q47 -77 130.5 -146
t187.5 -104v-188h-574v188h279l6 9q-82 49 -160.5 142t-131 215.5t-48.5 233.5q-1 162 65.5 309t177.5 251t262 164.5t314 58.5q227 0 422 -109q193 -108 295 -286q102 -182 102 -388z" />
    <glyph glyph-name="estimated" unicode="&#x212e;" horiz-adv-x="1589" 
d="M1528 639v-18h-1186q-10 0 -10 -9v-358q0 -21 14 -41q89 -92 206.5 -143.5t244.5 -51.5q135 0 259.5 58.5t211.5 159.5h106q-101 -118 -254 -186t-325 -68q-148 0 -283.5 52.5t-234.5 140.5t-157.5 210t-58.5 254q0 133 59 254.5t157.5 210t234 141.5t283.5 53
q197 0 366 -89t268 -241t99 -329zM1260 668v360q0 16 -19 45q-89 86 -206 135t-238 49q-127 0 -244 -50.5t-205 -141.5q-16 -16 -16 -45v-352q3 -13 10 -13h907q8 0 11 13z" />
    <glyph glyph-name="partialdiff" unicode="&#x2202;" horiz-adv-x="1349" 
d="M1268 694q0 -340 -156 -534.5t-440 -194.5q-161 0 -295.5 72.5t-214.5 205.5t-80 298q0 155 69.5 285t196.5 208t285 78q261 0 403 -207l6 4q0 60 -13.5 120.5t-47.5 123.5t-84 110.5t-130 78t-179 30.5q-69 0 -153 -25t-150 -67v211q57 32 145.5 55t157.5 23
q126 0 227 -26.5t187.5 -89.5t144 -162t89.5 -249.5t32 -347.5zM1049 541q2 44 -11 93.5t-43 99.5t-73 90.5t-108.5 66.5t-141.5 27q-135 0 -246 -93q-63 -52 -97 -129t-34 -155q0 -155 111 -267t266 -112q96 -5 186 49t143 144.5t48 185.5z" />
    <glyph glyph-name="increment" unicode="&#x2206;" horiz-adv-x="1212" 
d="M1171 0h-1130l479 1536h170zM602 1257l-328 -1087h664l-332 1087h-4z" />
    <glyph glyph-name="product" unicode="&#x220f;" horiz-adv-x="1286" 
d="M1237 1536v-188h-229v-1348h-205v1348h-318v-1348h-204v1348h-232v188h1188z" />
    <glyph glyph-name="summation" unicode="&#x2211;" horiz-adv-x="1138" 
d="M315 193v-5h742v-188h-1006v201l547 567l-547 567v201h1006v-188h-742v-5l578 -575z" />
    <glyph glyph-name="minus" unicode="&#x2212;" horiz-adv-x="1390" 
d="M1288 678v-168h-1186v168h1186z" />
    <glyph glyph-name="radical" unicode="&#x221a;" horiz-adv-x="1069" 
d="M197 582h200l140 -355h6l284 1309h181l-338 -1536h-238l-133 365h-8l-45 -140h-185z" />
    <glyph glyph-name="infinity" unicode="&#x221e;" horiz-adv-x="1458" 
d="M729 682q57 98 150.5 158.5t160.5 54.5q121 6 222 -89t94 -212q0 -126 -92 -215q-94 -88 -224 -88q-66 -5 -158.5 56t-152.5 159q-60 -98 -152.5 -159t-158.5 -56q-130 0 -221 88q-95 89 -95 215q-7 117 94 212t222 89q67 6 160.5 -54.5t150.5 -158.5zM1219 594
q0 74 -53.5 125t-129.5 51q-115 0 -217 -176q108 -178 217 -178q76 0 129.5 50.5t53.5 127.5zM240 594q0 -77 53 -127.5t129 -50.5q109 0 217 178q-102 176 -217 176q-76 0 -129 -51t-53 -125z" />
    <glyph glyph-name="integral" unicode="&#x222b;" horiz-adv-x="634" 
d="M215 -115v1432q0 115 84 199q81 81 197 81h98v-188h-70q-41 0 -72.5 -33t-31.5 -76v-1431q0 -117 -82 -199t-199 -82h-98v189h70q41 0 72.5 32.5t31.5 75.5z" />
    <glyph glyph-name="approxequal" unicode="&#x2248;" horiz-adv-x="1392" 
d="M102 340v162q167 67 328 76q180 10 266 -76q73 -73 219 -76q82 -1 185.5 20.5t189.5 55.5v-162q-168 -68 -325 -76q-178 -13 -267 76q-73 73 -219 78q-80 3 -184 -20t-193 -58zM102 686v162q167 67 328 76q180 10 266 -76q85 -85 258 -76q171 9 336 76v-162
q-169 -68 -340 -76q-168 -8 -252 76q-87 87 -258 78q-167 -9 -338 -78z" />
    <glyph glyph-name="notequal" unicode="&#x2260;" horiz-adv-x="1390" 
d="M1288 848v-156h-393l-203 -192h596v-156h-762l-194 -184h-197l195 184h-228v156h394l204 192h-598v156h762l197 184h194l-194 -184h227z" />
    <glyph glyph-name="lessequal" unicode="&#x2264;" horiz-adv-x="864" 
d="M82 0v156h700v-156h-700zM782 530v-180l-700 336v162l700 338v-180l-506 -236v-4z" />
    <glyph glyph-name="greaterequal" unicode="&#x2265;" horiz-adv-x="864" 
d="M82 0v156h700v-156h-700zM782 848v-162l-700 -336v180l506 236v4l-506 236v180z" />
    <glyph glyph-name="lozenge" unicode="&#x25ca;" horiz-adv-x="1140" 
d="M82 768l401 768h174l402 -768l-402 -768h-174zM575 1358h-6l-301 -590l301 -592h4l299 592z" />
    <glyph glyph-name="uniF8FF" unicode="&#xf8ff;" horiz-adv-x="1024" 
 />
    <glyph glyph-name="uniFB00" unicode="&#xfb00;" horiz-adv-x="1138" 
d="M913 1300v-114h174v-189h-174v-997h-204v997h-363v-997h-205v997h-100v189h100v131q0 115 84 199q81 81 197 81h98v-188h-69q-41 0 -73 -33t-32 -76v-114h363v131q0 115 84 199q81 81 196 81h98v-188h-69q-41 0 -73 -33t-32 -76z" />
    <glyph glyph-name="uniFB01" unicode="&#xfb01;" horiz-adv-x="1062" 
d="M346 1300v-114h594v-1186h-205v997h-389v-997h-205v997h-100v189h100v131q0 115 84 199q81 81 197 81h98v-188h-69q-41 0 -73 -33t-32 -76zM707 1501q0 54 38.5 92.5t92.5 38.5t92.5 -38.5t38.5 -92.5t-38.5 -92.5t-92.5 -38.5t-92.5 38.5t-38.5 92.5z" />
    <glyph glyph-name="uniFB02" unicode="&#xfb02;" horiz-adv-x="1101" 
d="M346 1300v-114h174v-189h-174v-997h-205v997h-100v189h100v131q0 115 84 199q81 81 197 81h520v-1321q0 -37 24 -62.5t60 -25.5h39v-188h-68q-104 0 -182 78t-78 182v1149h-286q-41 0 -73 -33t-32 -76z" />
    <glyph glyph-name="uniFB03" unicode="&#xfb03;" horiz-adv-x="1630" 
d="M913 1300v-114h594v-1186h-204v997h-390v-997h-204v997h-363v-997h-205v997h-100v189h100v131q0 115 84 199q81 81 197 81h98v-188h-69q-41 0 -73 -33t-32 -76v-114h363v131q0 115 84 199q81 81 196 81h98v-188h-69q-41 0 -73 -33t-32 -76zM1274 1501q0 54 38.5 92.5
t92.5 38.5t92.5 -38.5t38.5 -92.5t-38.5 -92.5t-92.5 -38.5t-92.5 38.5t-38.5 92.5z" />
    <glyph glyph-name="uniFB04" unicode="&#xfb04;" horiz-adv-x="1669" 
d="M989 1597h520v-1321q0 -37 24 -62.5t60 -25.5h39v-188h-67q-105 0 -183 78q-77 77 -77 182v1149h-287q-41 0 -73 -33t-32 -76v-114h174v-189h-174v-997h-204v997h-363v-997h-205v997h-100v189h100v131q0 115 84 199q81 81 197 81h98v-188h-69q-41 0 -73 -33t-32 -76v-114
h363v131q0 115 84 199q81 81 196 81z" />
    <glyph glyph-name="uniFB05" unicode="&#xfb05;" horiz-adv-x="1101" 
d="M887 1454v-268h174v-189h-174v-997h-205v997h-336v-997h-205v997h-100v189h100v268h205v-268h336v268h205z" />
    <glyph glyph-name="uniFB06" unicode="&#xfb06;" horiz-adv-x="1128" 
d="M346 1300v-114h363v268h204v-268h174v-189h-174v-997h-204v997h-363v-997h-205v997h-100v189h100v131q0 115 84 199q81 81 197 81h98v-188h-69q-41 0 -73 -33t-32 -76z" />
    <glyph glyph-name="null" horiz-adv-x="0" 
 />
    <glyph glyph-name="glyph220" horiz-adv-x="1419" 
d="M1065 717q0 -123 -86 -209q-89 -86 -211 -86h-199v-250h-114v842h313q122 0 211 -86q86 -89 86 -211zM948 717q0 78 -52.5 131t-127.5 53h-199v-366h199q61 -5 121 46.5t59 135.5zM1337 594q0 -169 -84.5 -314t-229.5 -230t-314 -85q-168 0 -312.5 85t-229.5 230t-85 314
q0 168 85 312.5t229.5 229.5t312.5 85q169 0 314 -85t229.5 -229.5t84.5 -312.5zM1264 594q0 148 -74 275.5t-202 202.5t-279 75q-148 0 -275.5 -75t-202.5 -202.5t-75 -275.5q0 -149 75 -277t202.5 -203t275.5 -75q113 0 216 44.5t177 119t118 177t44 214.5z" />
    </font>
</defs>
</svg>
