<?xml version="1.0" standalone="no"?>
<!DOCTYPE svg PUBLIC "-//W3C//DTD SVG 1.1//EN" "http://www.w3.org/Graphics/SVG/1.1/DTD/svg11.dtd" >
<svg xmlns="http://www.w3.org/2000/svg" xmlns:xlink="http://www.w3.org/1999/xlink" version="1.1">
<metadata>
Created by FontForge 20201107 at Wed Nov 27 21:16:30 2024
 By 
 Copyright (c)2016 Talbot Type. All Rights Reserved
</metadata>
<defs>
<font id="Korto-Bold" horiz-adv-x="536" >
  <font-face 
    font-family="Korto Bold"
    font-weight="700"
    font-stretch="normal"
    units-per-em="2048"
    panose-1="2 11 8 3 3 6 0 2 0 4"
    ascent="1638"
    descent="-410"
    x-height="1186"
    cap-height="1536"
    bbox="-29 -487 2646 1995.11"
    underline-thickness="102"
    underline-position="-358"
    unicode-range="U+0020-FB07"
  />
<missing-glyph horiz-adv-x="552" 
 />
    <glyph glyph-name=".notdef" horiz-adv-x="552" 
 />
    <glyph glyph-name=".null" horiz-adv-x="0" 
 />
    <glyph glyph-name="nonmarkingreturn" horiz-adv-x="681" 
 />
    <glyph glyph-name="space" unicode=" " horiz-adv-x="552" 
 />
    <glyph glyph-name="exclam" unicode="!" horiz-adv-x="548" 
d="M424 1536l-41 -1118h-219l-41 1118h301zM274 -16q-63 0 -110 47t-47 110t47 110.5t110 47.5t110.5 -47.5t47.5 -110.5t-47.5 -110t-110.5 -47z" />
    <glyph glyph-name="quotedbl" unicode="&#x22;" horiz-adv-x="612" 
d="M252 1536v-559h-150v559h150zM362 977v559h148v-559h-148z" />
    <glyph glyph-name="numbersign" unicode="#" horiz-adv-x="1269" 
d="M719 662l45 210h-211l-43 -210h209zM1229 872h-328l-45 -210h373v-138h-402l-110 -524h-142l115 524h-211l-112 -524h-138l111 524h-299v138h328l45 210h-373v140h401l111 524h141l-110 -524h209l110 524h141l-110 -524h295v-140z" />
    <glyph glyph-name="dollar" unicode="$" horiz-adv-x="1230" 
d="M754 -18v-134h-279v132q-185 39 -289 170t-104 305v30h297v-30q0 -91 70 -158q70 -70 161 -70q71 -8 152 60.5t80 167.5q0 128 -113 186q-52 25 -201 61q-160 37 -213 66q-200 92 -200 354q0 157 102 277q99 114 258 155v132h279v-136q129 -32 227 -133q56 -57 85.5 -136
t29.5 -159v-30h-297v30q7 56 -50.5 122t-138.5 65q-56 8 -123.5 -49.5t-64.5 -137.5q0 -97 88 -143q46 -27 176 -57q121 -32 197 -56q70 -26 127.5 -72t87.5 -104q51 -102 51 -235q0 -58 -13 -115.5t-43.5 -114.5t-75 -104t-112.5 -84t-151 -55z" />
    <glyph glyph-name="percent" unicode="%" horiz-adv-x="1863" 
d="M877 1180q0 -160 -118.5 -277t-279.5 -117q-137 0 -256 97q-59 48 -100 126.5t-41 170.5q0 138 100 256q54 64 135 99.5t162 35.5q161 0 279.5 -116.5t118.5 -274.5zM1782 360q0 -160 -118.5 -276.5t-279.5 -116.5q-138 0 -256 96q-59 48 -100 126.5t-41 170.5
q0 138 100 256q54 64 135 100t162 36q161 0 279.5 -117t118.5 -275zM1323 1536h248l-1032 -1536h-248zM657 1180q7 56 -46 117.5t-132 60.5q-70 0 -124 -53.5t-54 -124.5q-7 -55 47.5 -118.5t130.5 -62.5q73 0 125.5 53.5t52.5 127.5zM1563 360q7 56 -46.5 118t-132.5 61
q-70 0 -124 -54t-54 -125q-7 -55 47.5 -118t130.5 -62q73 0 126 53t53 127z" />
    <glyph glyph-name="ampersand" unicode="&#x26;" horiz-adv-x="1245" 
d="M586 901h200v103h304v-97h96v-278h-96v-197q0 -215 -142.5 -341t-367.5 -126q-218 0 -358 126.5t-140 340.5q0 114 53.5 199t153.5 137q-100 52 -153.5 137t-53.5 199q0 214 140 340.5t358 126.5q227 0 368.5 -125t141.5 -340h-304q0 86 -57 142.5t-143 56.5
t-143.5 -57.5t-57.5 -143.5q0 -85 58 -143t143 -60zM786 432v203h-200q-85 -2 -143 -60t-58 -143q0 -86 57.5 -143.5t143.5 -57.5t143 57.5t57 143.5z" />
    <glyph glyph-name="quotesingle" unicode="'" horiz-adv-x="354" 
d="M252 977h-150v559h150v-559z" />
    <glyph glyph-name="parenleft" unicode="(" horiz-adv-x="690" 
d="M373 588q0 -277 65.5 -531.5t190.5 -441.5h-201q-86 155 -150.5 341.5t-89.5 350.5q-24 163 -24 281q0 307 115 639q67 194 149 344h201q-127 -192 -191 -451q-65 -263 -65 -532z" />
    <glyph glyph-name="parenright" unicode=")" horiz-adv-x="690" 
d="M317 588q0 277 -63 532q-63 254 -193 451h201q87 -159 151 -345.5t89 -351.5q24 -166 24 -286q0 -308 -112 -631q-60 -174 -152 -342h-201q125 187 190.5 441.5t65.5 531.5z" />
    <glyph glyph-name="asterisk" unicode="*" horiz-adv-x="718" 
d="M313 1268v18l-16 -8l-102 -90l-72 125l129 43l18 10l-16 8l-131 45l72 125l104 -90l14 -8v16l-26 135h145l-26 -135v-16l14 8l104 90l72 -125l-131 -45l-14 -8l16 -10l129 -43l-72 -125l-102 90l-16 8v-18l26 -133h-145z" />
    <glyph glyph-name="plus" unicode="+" horiz-adv-x="1392" 
d="M102 496v192h492v498h209v-498h487v-192h-487v-496h-209v496h-492z" />
    <glyph glyph-name="comma" unicode="," horiz-adv-x="561" 
d="M203 -258h-131l123 246q-54 12 -88.5 55t-34.5 98q0 66 45.5 112t111.5 46t112 -46t46 -112q0 -35 -22 -84z" />
    <glyph glyph-name="hyphen" unicode="-" horiz-adv-x="952" 
d="M143 496v192h666v-192h-666z" />
    <glyph glyph-name="period" unicode="." horiz-adv-x="561" 
d="M229 -16q-63 0 -110 47t-47 110t47 110.5t110 47.5t110.5 -47.5t47.5 -110.5t-47.5 -110t-110.5 -47z" />
    <glyph glyph-name="slash" unicode="/" horiz-adv-x="1048" 
d="M287 0h-164l639 1536h164z" />
    <glyph glyph-name="zero" unicode="0" horiz-adv-x="1316" 
d="M1210 1036v-538q0 -159 -75 -282t-200 -187t-276 -64q-113 0 -213.5 38t-176 106t-119.5 169t-44 220v538q0 159 75.5 282.5t201 188t276.5 64.5t276 -64.5t200 -187.5t75 -283zM920 492v550q2 58 -25 111t-68 86.5t-86.5 51.5t-81.5 14q-51 5 -112 -26t-106.5 -95.5
t-43.5 -141.5v-550q0 -105 78 -183t184 -78q107 0 185 78q76 76 76 183z" />
    <glyph glyph-name="one" unicode="1" horiz-adv-x="815" 
d="M381 1270h-279v266h570v-1536h-291v1270z" />
    <glyph glyph-name="two" unicode="2" horiz-adv-x="1228" 
d="M381 973h-299v100q0 228 148 363t382 135q271 -10 397.5 -139t137.5 -359q6 -68 -41.5 -177.5t-114.5 -172.5l-461 -453l2 -4h568v-266h-967v266l643 654q68 77 68 153q4 47 -21.5 100.5t-82.5 93.5t-128 38q-47 4 -100.5 -21.5t-93 -82.5t-37.5 -128v-100z" />
    <glyph glyph-name="three" unicode="3" horiz-adv-x="1232" 
d="M438 629l-188 200l409 437l-2 4h-462v266h839v-262l-282 -299l2 -8q170 -38 283.5 -174t113.5 -326q0 -233 -148 -367.5t-391 -134.5q-233 0 -383.5 138.5t-150.5 363.5h299q0 -98 68.5 -167t166.5 -69q33 -4 74 12.5t77.5 46.5t61 77.5t23.5 99.5q4 33 -12.5 73
t-46.5 76t-77.5 59.5t-99.5 22.5q-49 0 -96 -19t-78 -50z" />
    <glyph glyph-name="four" unicode="4" horiz-adv-x="1282" 
d="M754 279h-688v266l688 991h290v-991h173v-266h-173v-279h-290v279zM754 1090h-13l-354 -545h367v545z" />
    <glyph glyph-name="five" unicode="5" horiz-adv-x="1269" 
d="M428 645l-268 47l141 844h731v-266h-495l-41 -303q112 36 214.5 34t190.5 -45t152.5 -110t100.5 -162t34 -201q0 -241 -152.5 -379.5t-404.5 -138.5q-241 0 -397 142.5t-156 375.5h299q-1 -58 25 -109.5t65.5 -82.5t83.5 -47.5t80 -12.5q106 0 180 73t74 179
q2 75 -42.5 136.5t-103.5 90t-108 23.5q-57 0 -111.5 -23.5t-91.5 -64.5z" />
    <glyph glyph-name="six" unicode="6" horiz-adv-x="1277" 
d="M610 1536h322l-316 -532l39 2q145 0 268.5 -66.5t198 -187t74.5 -267.5q0 -113 -44 -210.5t-118.5 -165t-177 -106t-217.5 -38.5q-152 0 -279 65t-202.5 185t-75.5 270q0 73 18 153.5t52 139.5zM893 485q2 75 -42.5 137.5t-103.5 92t-108 24.5q-49 5 -108 -24.5
t-103.5 -92t-42.5 -137.5q0 -106 74 -180t180 -74t180 74t74 180z" />
    <glyph glyph-name="seven" unicode="7" horiz-adv-x="1138" 
d="M246 0l528 1270h-721v266h1024v-266l-516 -1270h-315z" />
    <glyph glyph-name="eight" unicode="8" horiz-adv-x="1273" 
d="M965 883q114 -64 170.5 -162.5t56.5 -253.5q0 -146 -74 -261.5t-200 -178t-281 -62.5t-281 62.5t-200 178t-74 261.5q0 137 50 235t175 181q-61 48 -98 129.5t-37 158.5q-3 67 24.5 135t82 128t148 98t210.5 39q195 0 330 -112t135 -288q0 -75 -38.5 -157t-98.5 -131z
M889 483q4 36 -12.5 79.5t-47.5 83t-82.5 65t-109.5 24.5q-58 1 -109.5 -24.5t-82.5 -65t-47.5 -83t-12.5 -79.5q0 -106 73 -179t179 -73t179 73t73 179zM475 1143q0 -67 47.5 -114.5t114.5 -47.5t114.5 47.5t47.5 114.5t-47.5 114.5t-114.5 47.5t-114.5 -47.5t-47.5 -114.5
z" />
    <glyph glyph-name="nine" unicode="9" horiz-adv-x="1277" 
d="M668 0h-322l316 532l-39 -2q-145 0 -268.5 66.5t-198 187t-74.5 267.5q0 113 44 210.5t118.5 165t177 106t217.5 38.5q152 0 279 -65t202.5 -185t75.5 -270q0 -73 -18 -153.5t-52 -139.5zM385 1051q-2 -75 42.5 -137.5t103.5 -92t108 -24.5q49 -5 108 24.5t103.5 92
t42.5 137.5q0 106 -74 180t-180 74t-180 -74t-74 -180z" />
    <glyph glyph-name="colon" unicode=":" horiz-adv-x="561" 
d="M387 141q0 -63 -47.5 -110t-110.5 -47t-110 47t-47 110t47 110.5t110 47.5t110.5 -47.5t47.5 -110.5zM72 1044q0 63 47 110.5t110 47.5t110.5 -47.5t47.5 -110.5t-47.5 -110t-110.5 -47t-110 47t-47 110z" />
    <glyph glyph-name="semicolon" unicode=";" horiz-adv-x="561" 
d="M72 1044q0 63 47 110.5t110 47.5t110.5 -47.5t47.5 -110.5t-47.5 -110t-110.5 -47t-110 47t-47 110zM203 -258h-131l123 246q-54 12 -88.5 55t-34.5 98q0 66 45.5 112t111.5 46t112 -46t46 -112q0 -35 -22 -84z" />
    <glyph glyph-name="less" unicode="&#x3c;" horiz-adv-x="862" 
d="M82 696l698 490v-256l-497 -332v-10l497 -332v-256l-698 487v209z" />
    <glyph glyph-name="equal" unicode="=" horiz-adv-x="1390" 
d="M102 324v192h1186v-192h-1186zM1288 864v-192h-1186v192h1186z" />
    <glyph glyph-name="greater" unicode="&#x3e;" horiz-adv-x="862" 
d="M580 598l-498 332v256l698 -490v-209l-698 -487v256l498 332v10z" />
    <glyph glyph-name="question" unicode="?" horiz-adv-x="1255" 
d="M623 1573q100 0 206.5 -34.5t196.5 -115.5q67 -62 107.5 -157.5t40.5 -202.5q0 -192 -118.5 -322.5t-287.5 -142.5v-186h-291v407h146q105 0 176 70t71 174t-71.5 175t-175.5 71t-175 -71t-71 -175h-295q0 224 153 367t388 143zM446 158q-7 53 47 115t130 59
q33 4 74 -16.5t72.5 -63.5t29.5 -94q0 -72 -52 -123t-124 -51t-124.5 51t-52.5 123z" />
    <glyph glyph-name="at" unicode="@" horiz-adv-x="1792" 
d="M1446 690v78q0 149 -76 278.5t-205 206t-278 76.5q-150 0 -278.5 -76.5t-203.5 -206t-75 -278.5t75 -278.5t203.5 -206t278.5 -76.5q125 0 250 61l108 -219q-168 -84 -358 -84q-159 -3 -309 62t-259 174.5t-174 259t-63 307.5q-2 158 63 307.5t174 259t259 174.5t309 62
q158 3 307.5 -62t259 -174.5t174.5 -259t62 -307.5v-78q4 -81 -42 -158t-123.5 -123t-158.5 -42q-63 0 -122.5 24.5t-100.5 67.5q-116 -90 -256 -90q-146 0 -262 98q-67 54 -104.5 136.5t-37.5 164.5q0 142 101 262q47 57 128 97t175 40q60 4 127 -20t128.5 -71.5
t102.5 -128.5t43 -179v-86q-2 -22 26.5 -51.5t51.5 -22.5q32 0 56 25t24 57zM1042 768q0 63 -46 110.5t-109 47.5t-109.5 -47.5t-46.5 -110.5t46.5 -110.5t109.5 -47.5t109 47.5t46 110.5z" />
    <glyph glyph-name="A" unicode="A" horiz-adv-x="1384" 
d="M1354 0h-316l-80 279h-534l-78 -279h-315l504 1536h315zM702 1180h-20l-182 -635h383z" />
    <glyph glyph-name="B" unicode="B" horiz-adv-x="1261" 
d="M1180 440q0 -204 -136 -322t-356 -118h-565v1536h551q207 0 342 -119t135 -311q9 -94 -58.5 -189.5t-154.5 -115.5v-8q69 -18 125 -66.5t82 -105.5q35 -84 35 -181zM877 455q7 59 -47.5 123t-135.5 63h-280v-375h280q75 0 129 55.5t54 133.5zM674 1270h-260v-363h260
q52 -7 113.5 48.5t60.5 131.5q0 72 -53 127.5t-121 55.5z" />
    <glyph glyph-name="C" unicode="C" horiz-adv-x="1406" 
d="M911 231q110 0 209.5 40t171.5 112v-336q-185 -82 -381 -82q-174 0 -329.5 61.5t-267 168t-177 256t-65.5 317.5t65.5 317.5t177 256t267 168t329.5 61.5q196 0 381 -82v-338q-72 72 -172.5 113t-208.5 41q-146 0 -269.5 -72t-195 -195.5t-71.5 -269.5
q0 -147 71.5 -270.5t195 -195t269.5 -71.5z" />
    <glyph glyph-name="D" unicode="D" horiz-adv-x="1390" 
d="M123 0v1536h428q163 0 305.5 -58.5t244 -160t160 -244t58.5 -305.5t-58.5 -305.5t-160 -244t-244 -160t-305.5 -58.5h-428zM1016 768q0 134 -62 249.5t-169.5 184t-233.5 68.5h-137v-1004h137q126 0 233.5 68.5t169.5 184t62 249.5z" />
    <glyph glyph-name="E" unicode="E" horiz-adv-x="1155" 
d="M414 635v-369h669v-266h-960v1536h960v-266h-669v-369h528v-266h-528z" />
    <glyph glyph-name="F" unicode="F" horiz-adv-x="1089" 
d="M1059 1536v-266h-645v-369h506v-266h-506v-635h-291v1536h936z" />
    <glyph glyph-name="G" unicode="G" horiz-adv-x="1810" 
d="M1421 635h-510v266h818q10 -85 10 -135q2 -111 -27 -216.5t-82.5 -194t-130.5 -162t-168.5 -124.5t-199 -78t-220.5 -26q-174 0 -329.5 61.5t-267 168t-177 256t-65.5 317.5t65.5 317.5t177 256t267 168t329.5 61.5q257 0 461 -131q206 -134 299 -346h-340
q-35 74 -159.5 144t-260.5 67q-146 0 -269.5 -72t-195 -195.5t-71.5 -269.5q0 -147 71.5 -270.5t195 -195t269.5 -71.5q188 0 328 113q142 115 182 291z" />
    <glyph glyph-name="H" unicode="H" horiz-adv-x="1325" 
d="M1202 1536v-1536h-291v635h-497v-635h-291v1536h291v-635h497v635h291z" />
    <glyph glyph-name="I" unicode="I" 
d="M414 0h-291v1536h291v-1536z" />
    <glyph glyph-name="J" unicode="J" horiz-adv-x="784" 
d="M195 0h-134v266h134q52 -7 114.5 46.5t61.5 129.5v1094h291v-1090q0 -213 -124.5 -329.5t-342.5 -116.5z" />
    <glyph glyph-name="K" unicode="K" horiz-adv-x="1320" 
d="M123 0v1536h291v-635h112l420 635h344l-510 -768l510 -768h-344l-420 635h-112v-635h-291z" />
    <glyph glyph-name="L" unicode="L" horiz-adv-x="1099" 
d="M414 266h655v-266h-946v1536h291v-1270z" />
    <glyph glyph-name="M" unicode="M" horiz-adv-x="1781" 
d="M1106 1536h369l276 -1536h-315l-138 1071h-20l-225 -1071h-324l-225 1071h-21l-137 -1071h-315l278 1536h369l207 -1059h16z" />
    <glyph glyph-name="N" unicode="N" horiz-adv-x="1345" 
d="M932 1536h291v-1536h-291l-508 907l-12 -4l2 -903h-291v1536h291l508 -909l12 4z" />
    <glyph glyph-name="O" unicode="O" horiz-adv-x="1822" 
d="M1448 768q0 146 -71.5 269.5t-195 195.5t-270.5 72q-146 0 -269.5 -72t-195 -195.5t-71.5 -269.5q0 -147 71.5 -270.5t195 -195t269.5 -71.5q147 0 270.5 71.5t195 195t71.5 270.5zM1751 768q0 -134 -45.5 -268t-142.5 -248q-105 -120 -230 -184q-206 -103 -422 -103
q-174 0 -329.5 61.5t-267 168t-177 256t-65.5 317.5t65.5 317.5t177 256t267 168t329.5 61.5q150 0 312.5 -56t300.5 -186q101 -98 164 -248t63 -313z" />
    <glyph glyph-name="P" unicode="P" horiz-adv-x="1251" 
d="M1180 1012q0 -146 -72 -266.5t-197.5 -189.5t-275.5 -69h-221v-487h-291v1536h512q150 0 275.5 -68.5t197.5 -189t72 -266.5zM877 1012q4 36 -13.5 80.5t-49 85t-82 67t-105.5 25.5h-213v-516h213q55 -1 105.5 25.5t82 67t49 85t13.5 80.5z" />
    <glyph glyph-name="Q" unicode="Q" horiz-adv-x="1832" 
d="M1751 768q0 -109 -38.5 -239t-115.5 -234l144 -141l-207 -205l-152 147q-207 -131 -471 -131q-174 0 -329.5 61.5t-267 168t-177 256t-65.5 317.5t65.5 317.5t177 256t267 168t329.5 61.5q150 0 312.5 -56t300.5 -186q101 -98 164 -248t63 -313zM1448 768
q0 146 -71.5 269.5t-195 195.5t-270.5 72q-146 0 -269.5 -72t-195 -195.5t-71.5 -269.5q0 -147 71.5 -270.5t195 -195t269.5 -71.5q147 0 270.5 71.5t195 195t71.5 270.5z" />
    <glyph glyph-name="R" unicode="R" horiz-adv-x="1280" 
d="M1208 1012q0 -138 -75 -264q-42 -68 -109.5 -124t-138.5 -87l268 -537h-324l-243 487h-172v-487h-291v1536h541q229 0 386.5 -151t157.5 -373zM905 1012q4 36 -13.5 80.5t-49 85t-82 67t-105.5 25.5h-241v-516h241q55 -1 105.5 25.5t82 67t49 85t13.5 80.5z" />
    <glyph glyph-name="S" unicode="S" horiz-adv-x="1304" 
d="M426 1122q0 -104 121 -153q63 -24 153 -43q37 -8 79.5 -18t45.5 -11q102 -25 171 -57t121 -82.5t77.5 -125t28.5 -177.5q0 -149 -81.5 -262.5t-211 -170.5t-283.5 -57q-118 0 -220 33.5t-179 97.5t-121.5 164t-44.5 225h297q-10 -93 67.5 -177t200.5 -83q48 -5 110.5 22
t111 84t46.5 124q0 83 -51 137q-30 30 -80 53q-59 24 -213 57q-155 34 -223 62t-115 67q-52 42 -83 116.5t-31 174.5q0 126 74 230.5t194.5 161.5t259.5 57q143 0 261.5 -58t189 -169t67.5 -252h-297q1 55 -20.5 99.5t-55.5 70.5t-72.5 38.5t-72.5 10.5q-41 4 -92.5 -18.5
t-91 -69t-37.5 -101.5z" />
    <glyph glyph-name="T" unicode="T" horiz-adv-x="1126" 
d="M1096 1536v-266h-387v-1270h-291v1270h-387v266h1065z" />
    <glyph glyph-name="U" unicode="U" horiz-adv-x="1421" 
d="M1008 1536h290v-993q0 -237 -137 -396q-76 -90 -196 -136t-254 -46q-261 0 -424.5 155.5t-163.5 422.5v993h291v-1010q0 -123 86 -209t211 -86t211 86t86 209v1010z" />
    <glyph glyph-name="V" unicode="V" horiz-adv-x="1323" 
d="M977 1536h315l-483 -1536h-295l-483 1536h315l307 -1083h17z" />
    <glyph glyph-name="W" unicode="W" horiz-adv-x="1830" 
d="M1485 1536h315l-289 -1536h-368l-217 1065h-17l-219 -1065h-368l-291 1536h315l150 -1077h20l238 1077h323l238 -1077h20z" />
    <glyph glyph-name="X" unicode="X" horiz-adv-x="1267" 
d="M1237 1536l-416 -768l416 -768h-348l-246 526h-16l-248 -526h-348l415 768l-415 768h348l248 -528h16l246 528h348z" />
    <glyph glyph-name="Y" unicode="Y" horiz-adv-x="1284" 
d="M653 940l256 596h344l-462 -891v-645h-291v645l-469 891h344l262 -596h16z" />
    <glyph glyph-name="Z" unicode="Z" horiz-adv-x="1165" 
d="M408 266h696v-266h-1043v266l701 1000v4h-701v266h1043v-266l-696 -1000v-4z" />
    <glyph glyph-name="bracketleft" unicode="[" horiz-adv-x="643" 
d="M373 1343v-1501h209v-192h-418v1886h418v-193h-209z" />
    <glyph glyph-name="backslash" unicode="\" horiz-adv-x="1048" 
d="M123 1536h164l639 -1536h-164z" />
    <glyph glyph-name="bracketright" unicode="]" horiz-adv-x="643" 
d="M61 -350v192h209v1501h-209v193h418v-1886h-418z" />
    <glyph glyph-name="asciicircum" unicode="^" horiz-adv-x="1224" 
d="M123 768l385 768h209l385 -768h-236l-250 537h-4l-254 -537h-235z" />
    <glyph glyph-name="underscore" unicode="_" horiz-adv-x="1062" 
d="M0 -238v52h1186v-52h-1186z" />
    <glyph glyph-name="grave" unicode="`" horiz-adv-x="755" 
d="M571 1315l-387 94v186l387 -133v-147z" />
    <glyph glyph-name="a" unicode="a" horiz-adv-x="1529" 
d="M1106 594q0 128 -86 235q-48 60 -123.5 92.5t-153.5 32.5q-56 2 -116 -19.5t-114.5 -64t-90.5 -115t-37 -161.5q0 -43 11.5 -90t39.5 -96t67.5 -88t102 -64t137.5 -25q96 -5 182.5 47t136 138t44.5 178zM1407 0h-291v174l-10 4q-66 -95 -197 -157t-227 -56
q-128 0 -239.5 48t-190.5 131.5t-124.5 200.5t-45.5 249t45.5 248t124.5 199.5t190.5 131.5t239.5 48q97 6 227.5 -55t196.5 -156l10 4v172h291v-1186z" />
    <glyph glyph-name="b" unicode="b" horiz-adv-x="1503" 
d="M424 594q-5 -92 44 -178t135.5 -138t182.5 -47q135 0 240 91q51 44 85 115t34 157q0 42 -12 88t-39.5 95t-67.5 88t-102.5 64t-137.5 25q-45 0 -93.5 -13t-96.5 -41.5t-86 -69.5t-62 -102.5t-24 -133.5zM424 178l-10 -4v-174h-291v1597h291v-583l10 -4q66 95 196.5 156
t227.5 55q128 0 239.5 -48t190.5 -131.5t124.5 -199.5t45.5 -248t-45.5 -249t-124.5 -200.5t-190.5 -131.5t-239.5 -48q-96 -6 -227 56t-197 157z" />
    <glyph glyph-name="c" unicode="c" horiz-adv-x="1099" 
d="M754 1221q136 0 264 -43v-308q-104 84 -264 84q-156 0 -261.5 -102.5t-105.5 -257.5q0 -157 107 -258q105 -105 260 -105q160 0 264 84v-309q-125 -41 -264 -41q-189 0 -343 81.5t-241.5 226t-87.5 321.5t87.5 321t241.5 225t343 81z" />
    <glyph glyph-name="d" unicode="d" horiz-adv-x="1529" 
d="M1106 594q0 128 -86 235q-48 60 -123.5 92.5t-153.5 32.5q-56 2 -116 -19.5t-114.5 -64t-90.5 -115t-37 -161.5q0 -43 11.5 -90t39.5 -96t67.5 -88t102 -64t137.5 -25q96 -5 182.5 47t136 138t44.5 178zM1407 0h-291v174l-10 4q-66 -95 -197 -157t-227 -56
q-128 0 -239.5 48t-190.5 131.5t-124.5 200.5t-45.5 249t45.5 248t124.5 199.5t190.5 131.5t239.5 48q97 6 227.5 -55t196.5 -156l10 4v583h291v-1597z" />
    <glyph glyph-name="e" unicode="e" horiz-adv-x="1462" 
d="M1380 594q0 -58 -16 -133h-971q24 -93 123 -164q97 -72 217 -72q98 -3 183 40t106 91h307q-61 -184 -221.5 -287.5t-374.5 -103.5q-181 0 -330.5 83t-235 227.5t-85.5 318.5q0 175 86 319t236.5 226t332.5 82q127 2 246 -47t207 -133t140 -201.5t50 -245.5zM393 713h688
q-10 58 -49.5 108t-91.5 79.5t-106 45t-97 12.5q-57 5 -130.5 -23t-136.5 -88.5t-77 -133.5z" />
    <glyph glyph-name="f" unicode="f" horiz-adv-x="698" 
d="M446 1292v-106h162v-234h-162v-952h-290v952h-107v234h107v143q-2 69 28.5 124t78.5 86t100.5 45.5t99.5 12.5h145v-233h-90q-26 0 -49 -23t-23 -49z" />
    <glyph glyph-name="g" unicode="g" horiz-adv-x="1466" 
d="M709 -446q-250 0 -410 112t-190 293h301q19 -65 103 -110.5t196 -45.5q164 0 254 68.5t90 204.5v133l-11 4q-141 -190 -383 -190q-169 0 -301 77.5t-204 213.5t-72 307q0 263 160.5 431.5t416.5 168.5q226 0 383 -213l11 4v174h290v-1129q0 -214 -145 -350
q-83 -76 -212.5 -114.5t-276.5 -38.5zM1053 621q2 47 -18 102t-59 107t-106.5 87.5t-150.5 36.5q-39 2 -83 -10t-88 -40t-80 -67t-59 -95.5t-24 -120.5q0 -132 100 -232q97 -100 234 -100q49 -3 105.5 18t107.5 61.5t85.5 107t35.5 145.5z" />
    <glyph glyph-name="h" unicode="h" horiz-adv-x="1341" 
d="M414 698v-698h-291v1597h291v-559l12 -4q54 85 153.5 138.5t180.5 48.5q206 0 332.5 -137t126.5 -361v-723h-291v698q0 109 -74 183q-76 73 -182 73q-109 0 -183.5 -73.5t-74.5 -182.5z" />
    <glyph glyph-name="i" unicode="i" 
d="M123 0v1186h291v-1186h-291zM92 1458q-7 53 46.5 115t129.5 59q33 4 74 -16.5t72.5 -63.5t29.5 -94q0 -72 -52 -123t-124 -51t-124 51t-52 123z" />
    <glyph glyph-name="j" unicode="j" horiz-adv-x="589" 
d="M145 1458q-7 53 47 115t130 59q33 4 74 -16.5t72.5 -63.5t29.5 -94q0 -72 -52 -123t-124 -51t-124.5 51t-52.5 123zM176 -106v1292h291v-1329q2 -69 -28.5 -124.5t-78.5 -86t-100.5 -45.5t-99.5 -13h-123v234h67q26 0 49 23t23 49z" />
    <glyph glyph-name="k" unicode="k" horiz-adv-x="1171" 
d="M123 0v1597h291v-870h86l303 459h344l-393 -592l393 -594h-342l-305 461h-86v-461h-291z" />
    <glyph glyph-name="l" unicode="l" horiz-adv-x="561" 
d="M123 1597h291v-1292q0 -26 22.5 -49t48.5 -23h39v-233h-106q-135 -4 -220 78t-75 178v1341z" />
    <glyph glyph-name="m" unicode="m" horiz-adv-x="1945" 
d="M414 748v-748h-291v1186h291v-162l10 -4q118 201 301 201q107 0 194 -55.5t138 -149.5q50 90 148 151.5t171 53.5q189 0 318 -118.5t129 -316.5v-786h-291v748q4 41 -19.5 88.5t-74.5 83.5t-113 34q-40 4 -88 -19t-84.5 -74t-34.5 -113v-748h-291v748q4 41 -19 88.5
t-74 83.5t-113 34q-40 4 -88 -19t-84.5 -74t-34.5 -113z" />
    <glyph glyph-name="n" unicode="n" horiz-adv-x="1345" 
d="M414 696v-696h-291v1186h291v-170l10 -4q47 98 154 156t204 53q120 0 220 -59.5t160.5 -171.5t60.5 -255v-735h-291v696q1 58 -25.5 110t-67 84.5t-85 50t-80.5 13.5q-109 0 -185 -73q-75 -75 -75 -185z" />
    <glyph glyph-name="o" unicode="o" horiz-adv-x="1495" 
d="M1413 592q0 -174 -91 -319t-243.5 -226.5t-330.5 -81.5q-132 0 -254 48.5t-212.5 131t-145 200t-54.5 247.5q-3 170 90 317t247.5 231t328.5 81q131 2 254 -47.5t213.5 -134t144.5 -202t53 -245.5zM385 592q0 -151 106 -256t257 -105q43 0 90 12t96 40.5t87.5 69
t63.5 102.5t25 137q3 55 -18.5 115.5t-63.5 115.5t-116 92t-164 39q-42 2 -89.5 -10t-95.5 -41t-87 -71t-64 -104.5t-27 -135.5z" />
    <glyph glyph-name="p" unicode="p" horiz-adv-x="1529" 
d="M424 592q0 -129 86 -236q48 -60 123 -92.5t153 -32.5q44 -2 92 11t95 42t85 70.5t62 103.5t25 134q0 43 -12 89.5t-39.5 96t-67.5 88t-102.5 63.5t-137.5 25q-96 5 -182.5 -47t-135.5 -137.5t-44 -177.5zM123 1186h291v-174l10 -4q66 95 197 157t227 56q128 0 239.5 -48
t190.5 -131.5t124.5 -200.5t45.5 -249t-45.5 -248t-124.5 -199.5t-190.5 -131.5t-239.5 -48q-97 -6 -227.5 55t-196.5 156l-10 -4v-584h-291v1598z" />
    <glyph glyph-name="q" unicode="q" horiz-adv-x="1529" 
d="M1106 592q5 92 -44.5 177.5t-136 137.5t-182.5 47q-136 0 -237 -88q-51 -44 -86 -116t-35 -158q0 -53 20 -112t60 -116.5t112.5 -95t165.5 -37.5q45 0 93.5 13t97 42t86.5 70t62 102.5t24 133.5zM1106 1008l10 4v174h291v-1598h-291v584l-10 4q-66 -95 -196.5 -156
t-227.5 -55q-128 0 -239.5 48t-190.5 131.5t-124.5 199.5t-45.5 248t45.5 249t124.5 200.5t190.5 131.5t239.5 48q96 6 227 -56t197 -157z" />
    <glyph glyph-name="r" unicode="r" horiz-adv-x="819" 
d="M414 0h-291v1186h291v-172l8 -6q55 112 126.5 162.5t170.5 50.5h45v-295h-88q-35 4 -80.5 -12.5t-86.5 -47.5t-68.5 -81t-26.5 -105v-680z" />
    <glyph glyph-name="s" unicode="s" horiz-adv-x="1155" 
d="M82 373h299q0 -81 53.5 -128.5t140.5 -47.5q84 0 139.5 43.5t55.5 107.5q0 80 -82 119q-42 19 -211 47q-162 24 -229 66q-85 54 -112 120t-27 148q0 52 14.5 102.5t49.5 101.5t87 89t133.5 62t181.5 24q219 0 341 -104t122 -298h-299q0 77 -44.5 121.5t-119.5 44.5
q-71 0 -117 -40t-46 -97q0 -72 82 -106q44 -20 165 -41q110 -19 172 -37q54 -18 91.5 -39t73.5 -56.5t55.5 -92.5t21.5 -134q0 -59 -17 -113.5t-55.5 -104.5t-95 -87.5t-141.5 -59.5t-189 -22q-252 9 -367 109t-126 303z" />
    <glyph glyph-name="t" unicode="t" horiz-adv-x="661" 
d="M158 0v952h-107v234h107v268h291v-268h161v-234h-161v-952h-291z" />
    <glyph glyph-name="u" unicode="u" horiz-adv-x="1347" 
d="M934 479v707h291v-715q0 -229 -156 -367.5t-395 -138.5t-395 138.5t-156 367.5v715h291v-707q-3 -77 43.5 -138t106.5 -88t110 -22q50 -5 110 22t106.5 88t43.5 138z" />
    <glyph glyph-name="v" unicode="v" horiz-adv-x="1208" 
d="M877 1186h301l-430 -1186h-287l-430 1186h301l268 -791h12z" />
    <glyph glyph-name="w" unicode="w" horiz-adv-x="1810" 
d="M406 0l-375 1186h301l209 -740h12l211 740h280l216 -740h12l207 740h301l-377 -1186h-289l-203 711h-12l-205 -711h-288z" />
    <glyph glyph-name="x" unicode="x" horiz-adv-x="1208" 
d="M31 0l401 594l-401 592h346l221 -357h12l221 357h347l-400 -592l400 -594h-347l-221 358h-12l-221 -358h-346z" />
    <glyph glyph-name="y" unicode="y" horiz-adv-x="1212" 
d="M881 1186h301l-600 -1596h-316l183 437l-418 1159h301l268 -772h12z" />
    <glyph glyph-name="z" unicode="z" horiz-adv-x="1118" 
d="M1040 1186v-258l-573 -662l4 -8h569v-258h-962v258l575 662l-4 8h-571v258h962z" />
    <glyph glyph-name="braceleft" unicode="{" horiz-adv-x="784" 
d="M723 -158v-192h-70q-121 -6 -221 94t-94 221v420q0 42 -30 72t-72 30h-72v209h72q41 0 71.5 32t30.5 75v418q-4 80 41 155.5t120 120t154 39.5h70v-193h-70q-42 0 -74 -38.5t-32 -83.5v-418q0 -68 -31 -117.5t-108 -85.5v-12q139 -67 139 -203v-420q0 -45 32 -84t74 -39
h70z" />
    <glyph glyph-name="bar" unicode="|" horiz-adv-x="700" 
d="M455 1536v-1886h-209v1886h209z" />
    <glyph glyph-name="braceright" unicode="}" horiz-adv-x="784" 
d="M131 -350h-70v192h70q42 0 74.5 39t32.5 84v420q0 136 139 203v12q-77 36 -108 85.5t-31 117.5v418q0 45 -32.5 83.5t-74.5 38.5h-70v193h70q77 0 148 -36.5t119 -110.5t48 -168v-418q0 -43 31 -75t72 -32h72v-209h-72q-43 0 -73 -30.5t-30 -71.5v-420q6 -121 -94 -221
t-221 -94z" />
    <glyph glyph-name="asciitilde" unicode="~" horiz-adv-x="1210" 
d="M526 547q-25 42 -71 55.5t-88 -10.5q-26 -13 -43 -43t-17 -60h-184q3 87 48.5 159t104.5 102q64 36 139.5 39t150 -35t120.5 -115q25 -42 72 -54.5t88 11.5q26 13 42.5 42t16.5 60h182q0 -78 -41 -148.5t-110 -111.5q-86 -47 -170.5 -38t-150.5 51t-89 96z" />
    <glyph glyph-name="uni00A0" unicode="&#xa0;" horiz-adv-x="1024" 
 />
    <glyph glyph-name="exclamdown" unicode="&#xa1;" horiz-adv-x="548" 
d="M123 0l41 1118h219l41 -1118h-301zM274 1552q63 0 110.5 -47t47.5 -110t-47.5 -110.5t-110.5 -47.5t-110 47.5t-47 110.5t47 110t110 47z" />
    <glyph glyph-name="cent" unicode="&#xa2;" horiz-adv-x="1099" 
d="M895 -25v-149h-283v151q-236 41 -383 211t-147 406q0 234 147 404.5t383 211.5v152h283v-150q65 -12 123 -30v-312q-104 84 -264 84q-155 0 -260 -102t-105 -258t105 -258q105 -105 260 -105q160 0 264 84v-309q-67 -21 -123 -31z" />
    <glyph glyph-name="sterling" unicode="&#xa3;" horiz-adv-x="1329" 
d="M956 416h291q0 -192 -118.5 -304t-319.5 -112h-727v266h166v369h-166v266h166v203q0 140 66.5 247t179.5 162.5t254 55.5t253.5 -55.5t179 -162.5t66.5 -247h-291q4 45 -18.5 92.5t-73.5 81.5t-116 31q-93 0 -151 -56.5t-58 -148.5v-203h405v-266h-405v-369h270
q71 0 109 40t38 110z" />
    <glyph glyph-name="currency" unicode="&#xa4;" horiz-adv-x="1437" 
d="M162 594q0 170 96 313l-133 135l147 148l134 -135q143 98 315 98q170 0 313 -98l133 133l148 -148l-133 -133q98 -143 98 -313q0 -172 -98 -315l133 -132l-148 -149l-133 133q-140 -96 -313 -96q-172 0 -315 96l-136 -135l-147 147l135 136q-96 143 -96 315zM367 594
q-5 -88 46 -172.5t135.5 -135.5t172.5 -46q88 -5 172.5 46t135.5 135.5t46 172.5q5 88 -46 172.5t-135.5 135.5t-172.5 46q-88 5 -172.5 -46t-135.5 -135.5t-46 -172.5z" />
    <glyph glyph-name="yen" unicode="&#xa5;" horiz-adv-x="1314" 
d="M803 610v-610h-291v610h-367v174h342l-65 105h-277v174h179l-293 473h334l284 -541h17l295 541h323l-285 -473h170v-174h-276l-64 -105h340v-174h-366z" />
    <glyph glyph-name="brokenbar" unicode="&#xa6;" horiz-adv-x="700" 
d="M455 489v-839h-209v839h209zM246 1536h209v-838h-209v838z" />
    <glyph glyph-name="section" unicode="&#xa7;" horiz-adv-x="1167" 
d="M975 1149h-283v78q0 45 -30.5 76.5t-77.5 31.5t-79 -31.5t-32 -76.5t33 -78l414 -412q124 -131 124 -268q0 -105 -51 -184t-143 -121h2q125 -119 125 -266q0 -141 -92 -236q-53 -53 -133 -80.5t-166 -27.5q-169 0 -281 93.5t-112 250.5v77h282v-77q0 -45 31 -77t78 -32
t78.5 32t31.5 77t-32 77l-414 412q-125 132 -125 268q0 104 51 182.5t141 120.5v3q-125 119 -125 266q0 140 95 235q52 53 131.5 81t165.5 28q169 0 281 -93.5t112 -250.5v-78zM729 549l-217 215q-44 -2 -76.5 -34t-32.5 -75q0 -50 35 -80l215 -215q44 0 77.5 33t33.5 76
q0 50 -35 80z" />
    <glyph glyph-name="dieresis" unicode="&#xa8;" horiz-adv-x="860" 
d="M360 1479q0 -47 -35.5 -83t-82.5 -36q-50 0 -84.5 35t-34.5 84t34.5 83.5t84.5 34.5q48 0 83 -34.5t35 -83.5zM737 1479q0 -47 -36 -83t-83 -36q-49 0 -83.5 34.5t-34.5 84.5q0 49 34 83.5t84 34.5q48 0 83.5 -34.5t35.5 -83.5z" />
    <glyph glyph-name="copyright" unicode="&#xa9;" horiz-adv-x="1419" 
d="M1337 594q0 -169 -84.5 -314t-229.5 -230t-314 -85q-168 0 -312.5 85t-229.5 230t-85 314q0 168 85 312.5t229.5 229.5t312.5 85q169 0 314 -85t229.5 -229.5t84.5 -312.5zM1260 594q0 149 -73.5 277t-200.5 203t-277 75q-149 0 -275.5 -75t-200 -203t-73.5 -277
q0 -148 73.5 -276.5t200 -204.5t275.5 -76t276.5 76t201 204.5t73.5 276.5zM709 864q-102 6 -186.5 -80.5t-78.5 -189.5q-1 -118 89 -199t176 -73q73 0 137 41t100 108h166q-10 -46 -44.5 -98t-86 -98t-124 -75.5t-148.5 -27.5q-152 0 -267 96q-68 56 -110.5 141t-42.5 185
q0 170 125 295t295 125q137 0 250 -84t153 -213h-168q-32 66 -97 106.5t-138 40.5z" />
    <glyph glyph-name="ordfeminine" unicode="&#xaa;" horiz-adv-x="866" 
d="M594 1257q5 58 -47 120t-135 61q-74 0 -126.5 -53.5t-52.5 -127.5q0 -75 52 -128.5t127 -53.5q61 -5 123 48t59 134zM743 961h-145v86l-4 2q-34 -46 -91.5 -76.5t-121.5 -30.5q-131 0 -215 90t-84 225q0 144 89 229t210 85q55 0 114 -27t99 -80l4 2v86h145v-591z" />
    <glyph glyph-name="guillemotleft" unicode="&#xab;" horiz-adv-x="1030" 
d="M475 453v-295l-352 342v188l352 340v-295l-153 -133v-12zM907 453v-295l-352 342v188l352 340v-295l-153 -133v-12z" />
    <glyph glyph-name="logicalnot" unicode="&#xac;" horiz-adv-x="1003" 
d="M860 688v-346h-209v154h-508v192h717z" />
    <glyph glyph-name="registered" unicode="&#xae;" horiz-adv-x="653" 
d="M571 1327q5 -47 -23.5 -104t-88.5 -100.5t-131 -41.5q-101 0 -172 74q-74 71 -74 172q-2 71 41.5 131.5t100.5 89t104 23.5q45 5 101.5 -23.5t100 -89t41.5 -131.5zM541 1327q2 63 -35.5 116.5t-87.5 78.5t-90 20q-68 8 -143.5 -56.5t-71.5 -158.5q-4 -96 71 -160
t144 -57q41 -4 90.5 20.5t87 78t35.5 118.5zM397 1296l62 -122h-64l-57 116h-66v-116h-57v313h141q42 0 73.5 -29.5t31.5 -68.5q0 -28 -18.5 -53.5t-45.5 -39.5zM272 1432v-86h84q19 0 31 12t12 31q0 18 -12.5 30.5t-30.5 12.5h-84z" />
    <glyph glyph-name="overscore" unicode="&#xaf;" horiz-adv-x="792" 
d="M205 1536h383v-160h-383v160z" />
    <glyph glyph-name="degree" unicode="&#xb0;" horiz-adv-x="630" 
d="M401 1364q0 36 -25 61t-61 25q-35 0 -60.5 -25.5t-25.5 -60.5q0 -36 25 -61t61 -25q37 0 61.5 24.5t24.5 61.5zM528 1364q4 -40 -21 -88t-77.5 -84.5t-114.5 -34.5q-39 -5 -88.5 19t-88 75.5t-36.5 112.5q-5 40 20.5 88.5t78 84.5t114.5 34q67 7 140.5 -54t72.5 -153z
" />
    <glyph glyph-name="plusminus" unicode="&#xb1;" horiz-adv-x="1392" 
d="M594 350v320h-492v196h492v320h209v-320h487v-196h-487v-320h-209zM102 0v197h1188v-197h-1188z" />
    <glyph glyph-name="uni00B2" unicode="&#xb2;" horiz-adv-x="696" 
d="M231 1253h-149v52q0 111 73.5 179t190.5 68q120 0 194 -66.5t74 -180.5q0 -46 -24 -97t-53 -80l-232 -225l2 -2h283v-133h-484v133l322 326q35 41 35 78q0 49 -33.5 81.5t-83.5 32.5t-82.5 -32.5t-32.5 -81.5v-52z" />
    <glyph glyph-name="uni00B3" unicode="&#xb3;" horiz-adv-x="700" 
d="M262 1083l-94 101l205 217l-2 2h-232v133h420v-131l-141 -150l2 -4q91 -18 147.5 -96.5t50.5 -153.5q8 -93 -66.5 -172.5t-203.5 -76.5q-40 -3 -86.5 12t-87.5 44.5t-67.5 80.5t-24.5 112h149q0 -49 33.5 -82.5t83.5 -33.5t84.5 33.5t34.5 82.5t-34.5 83t-84.5 34
q-51 0 -86 -35z" />
    <glyph glyph-name="acute" unicode="&#xb4;" horiz-adv-x="755" 
d="M184 1462l387 133v-186l-387 -94v147z" />
    <glyph glyph-name="mu" unicode="&#xb5;" horiz-adv-x="1345" 
d="M123 -412v1598h291v-686q0 -109 74.5 -182.5t183.5 -73.5q106 0 182 73q74 74 74 183v686h291v-723q0 -196 -105 -336q-59 -79 -154.5 -120.5t-199.5 -41.5q-112 0 -199.5 38.5t-134.5 107.5l-12 -5v-518h-291z" />
    <glyph glyph-name="paragraph" unicode="&#xb6;" horiz-adv-x="1241" 
d="M51 1118q0 179 129 298.5t312 119.5h626v-1536h-209v1270h-137v-1270h-209v696h-71q-182 0 -311.5 122t-129.5 300zM354 1118q0 -63 41 -109t97 -46h71v307h-71q-56 0 -97 -45.5t-41 -106.5z" />
    <glyph glyph-name="middot" unicode="&#xb7;" horiz-adv-x="561" 
d="M229 436q-63 0 -110 47.5t-47 110.5t47 110.5t110 47.5t110.5 -47.5t47.5 -110.5t-47.5 -110.5t-110.5 -47.5z" />
    <glyph glyph-name="cedilla" unicode="&#xb8;" horiz-adv-x="747" 
d="M311 -182l-80 14l27 168h86l-12 -84q84 26 147.5 -18.5t63.5 -126.5q0 -71 -47 -113.5t-123 -42.5q-73 0 -120.5 43.5t-47.5 112.5h92q0 -31 22.5 -53.5t53.5 -22.5q32 0 54 22t22 54q0 30 -22.5 51.5t-53.5 21.5q-42 0 -62 -26z" />
    <glyph glyph-name="uni00B9" unicode="&#xb9;" horiz-adv-x="468" 
d="M221 1403h-139v133h285v-768h-146v635z" />
    <glyph glyph-name="ordmasculine" unicode="&#xba;" horiz-adv-x="829" 
d="M748 1257q0 -115 -82 -206q-46 -51 -114 -79t-136 -28q-119 0 -217 76q-56 42 -86.5 105.5t-30.5 131.5q-2 39 9.5 81.5t39.5 83.5t67 74.5t96 54.5t122 22q127 6 233 -93.5t99 -222.5zM233 1257q0 -73 54.5 -126.5t128.5 -53.5t127 53.5t53 126.5q0 75 -53 129t-127 54
q-42 1 -78.5 -17.5t-59.5 -47t-35 -60.5t-10 -58z" />
    <glyph glyph-name="guillemotright" unicode="&#xbb;" horiz-adv-x="1030" 
d="M907 688v-188l-352 -342v295l154 135v12l-154 133v295zM475 688v-188l-352 -342v295l153 135v12l-153 133v295z" />
    <glyph glyph-name="onequarter" unicode="&#xbc;" horiz-adv-x="1312" 
d="M377 0h-127l639 1536h129zM221 1403h-139v133h285v-768h-146v635zM1040 139h-344v133l344 496h146v-496h86v-133h-86v-139h-146v139zM1040 545h-6l-176 -273h182v273z" />
    <glyph glyph-name="onehalf" unicode="&#xbd;" horiz-adv-x="1404" 
d="M377 0h-127l639 1536h129zM221 1403h-139v133h285v-768h-146v635zM940 485h-149v52q0 111 73.5 179t190.5 68q120 0 194 -66.5t74 -180.5q0 -46 -24.5 -97t-53.5 -80l-231 -225l2 -2h282v-133h-483v133l322 326q34 40 34 78q0 49 -33 81.5t-83 32.5t-82.5 -32.5
t-32.5 -81.5v-52z" />
    <glyph glyph-name="threequarters" unicode="&#xbe;" horiz-adv-x="1474" 
d="M539 0h-127l639 1536h129zM262 1083l-94 101l205 217l-2 2h-232v133h420v-131l-141 -150l2 -4q91 -18 147.5 -96.5t50.5 -153.5q8 -93 -66.5 -172.5t-203.5 -76.5q-40 -3 -86.5 12t-87.5 44.5t-67.5 80.5t-24.5 112h149q0 -49 33.5 -82.5t83.5 -33.5t84.5 33.5t34.5 82.5
t-34.5 83t-84.5 34q-51 0 -86 -35zM1202 139h-344v133l344 496h146v-496h86v-133h-86v-139h-146v139zM1202 545h-6l-176 -273h182v273z" />
    <glyph glyph-name="questiondown" unicode="&#xbf;" horiz-adv-x="1255" 
d="M633 -35q-101 0 -207.5 34.5t-194.5 115.5q-67 62 -108 157.5t-41 202.5q0 192 118 322.5t287 142.5v186h291v-407h-145q-105 0 -176.5 -70t-71.5 -174t72 -175t176 -71t175 71t71 175h295q0 -224 -153 -367t-388 -143zM809 1380q7 -53 -46.5 -115t-129.5 -59
q-33 -4 -74 16.5t-72.5 63.5t-29.5 94q0 72 52 123t124 51t124 -51t52 -123z" />
    <glyph glyph-name="Agrave" unicode="&#xc0;" horiz-adv-x="1384" 
d="M885 1599l-387 95v186l387 -133v-148zM1354 0h-316l-80 279h-534l-78 -279h-315l504 1536h315zM702 1180h-20l-182 -635h383z" />
    <glyph glyph-name="Aacute" unicode="&#xc1;" horiz-adv-x="1384" 
d="M498 1747l387 133v-186l-387 -95v148zM1354 0h-316l-80 279h-534l-78 -279h-315l504 1536h315zM702 1180h-20l-182 -635h383z" />
    <glyph glyph-name="Acircumflex" unicode="&#xc2;" horiz-adv-x="1384" 
d="M436 1618l178 242h156l178 -242h-151l-101 96h-8l-100 -96h-152zM1354 0h-316l-80 279h-534l-78 -279h-315l504 1536h315zM702 1180h-20l-182 -635h383z" />
    <glyph glyph-name="Atilde" unicode="&#xc3;" horiz-adv-x="1384" 
d="M596 1837q29 0 57.5 -15t73.5 -53q44 -38 64 -38t34.5 17t14.5 42h129q0 -79 -51.5 -131.5t-126.5 -52.5q-29 0 -58.5 15.5t-73.5 53.5q-46 37 -63 37q-21 0 -36 -17.5t-15 -41.5h-129q0 79 52 131.5t128 52.5zM1354 0h-316l-80 279h-534l-78 -279h-315l504 1536h315z
M702 1180h-20l-182 -635h383z" />
    <glyph glyph-name="Adieresis" unicode="&#xc4;" horiz-adv-x="1384" 
d="M621 1731q0 -47 -36 -83t-83 -36q-50 0 -84.5 35t-34.5 84t34.5 83.5t84.5 34.5q48 0 83.5 -34.5t35.5 -83.5zM997 1731q0 -47 -35.5 -83t-82.5 -36q-49 0 -84 35t-35 84t34.5 83.5t84.5 34.5q48 0 83 -34.5t35 -83.5zM1354 0h-316l-80 279h-534l-78 -279h-315l504 1536
h315zM702 1180h-20l-182 -635h383z" />
    <glyph glyph-name="Aring" unicode="&#xc5;" horiz-adv-x="1384" 
d="M1354 0h-316l-80 279h-534l-78 -279h-315l504 1536h315zM702 1180h-20l-182 -635h383zM772 1794q0 32 -24 55t-56 23t-56 -23t-24 -55q0 -35 23.5 -58.5t56.5 -23.5t56.5 23.5t23.5 58.5zM901 1794q7 -63 -56.5 -135.5t-152.5 -69.5q-39 -4 -87.5 19.5t-86 74.5
t-35.5 111q-4 38 20.5 85t76.5 82.5t112 33.5q60 2 112 -33.5t76.5 -82.5t20.5 -85z" />
    <glyph glyph-name="AE" unicode="&#xc6;" horiz-adv-x="2062" 
d="M1991 0h-961v279h-487l-168 -279h-355l977 1536h994v-266h-670v-369h528v-266h-528v-369h670v-266zM1030 1069h-8l-317 -524h325v524z" />
    <glyph glyph-name="Ccedilla" unicode="&#xc7;" horiz-adv-x="1406" 
d="M850 -182l-80 14l23 141q-158 17 -295.5 90t-231.5 180.5t-146 244.5t-48 280q0 168 65.5 317.5t177 256t267 168t329.5 61.5q196 0 381 -82v-338q-72 72 -172.5 113t-208.5 41q-146 0 -269.5 -72t-195 -195.5t-71.5 -269.5q0 -147 71.5 -270.5t195 -195t269.5 -71.5
q110 0 209.5 40t171.5 112v-336q-185 -82 -381 -82l-34 2l-7 -51q84 26 147.5 -18.5t63.5 -126.5q0 -71 -47 -113.5t-123 -42.5q-73 0 -120.5 43.5t-47.5 112.5h93q0 -31 22 -53.5t53 -22.5q32 0 54 22t22 54q0 30 -22.5 51.5t-53.5 21.5q-41 0 -61 -26z" />
    <glyph glyph-name="Egrave" unicode="&#xc8;" horiz-adv-x="1155" 
d="M807 1599l-387 95v186l387 -133v-148zM414 635v-369h669v-266h-960v1536h960v-266h-669v-369h528v-266h-528z" />
    <glyph glyph-name="Eacute" unicode="&#xc9;" horiz-adv-x="1155" 
d="M414 635v-369h669v-266h-960v1536h960v-266h-669v-369h528v-266h-528zM420 1747l387 133v-186l-387 -95v148z" />
    <glyph glyph-name="Ecircumflex" unicode="&#xca;" horiz-adv-x="1155" 
d="M352 1618l178 242h156l178 -242h-151l-101 96h-8l-100 -96h-152zM414 635v-369h669v-266h-960v1536h960v-266h-669v-369h528v-266h-528z" />
    <glyph glyph-name="Edieresis" unicode="&#xcb;" horiz-adv-x="1155" 
d="M520 1731q0 -47 -36 -83t-83 -36q-49 0 -83.5 34.5t-34.5 84.5q0 49 34.5 83.5t83.5 34.5q48 0 83.5 -34.5t35.5 -83.5zM897 1731q0 -47 -36 -83t-83 -36q-50 0 -84.5 35t-34.5 84t34.5 83.5t84.5 34.5q48 0 83.5 -34.5t35.5 -83.5zM414 635v-369h669v-266h-960v1536h960
v-266h-669v-369h528v-266h-528z" />
    <glyph glyph-name="Igrave" unicode="&#xcc;" 
d="M414 0h-291v1536h291v-1536zM463 1599l-387 95v186l387 -133v-148z" />
    <glyph glyph-name="Iacute" unicode="&#xcd;" 
d="M414 0h-291v1536h291v-1536zM76 1747l387 133v-186l-387 -95v148z" />
    <glyph glyph-name="Icircumflex" unicode="&#xce;" 
d="M414 0h-291v1536h291v-1536zM12 1618l178 242h156l178 -242h-151l-101 96h-8l-100 -96h-152z" />
    <glyph glyph-name="Idieresis" unicode="&#xcf;" 
d="M414 0h-291v1536h291v-1536zM211 1731q0 -47 -36 -83t-83 -36q-50 0 -84.5 35t-34.5 84t34.5 83.5t84.5 34.5q48 0 83.5 -34.5t35.5 -83.5zM563 1731q0 -47 -36 -83t-83 -36q-49 0 -83.5 34.5t-34.5 84.5q0 49 34 83.5t84 34.5q48 0 83.5 -34.5t35.5 -83.5z" />
    <glyph glyph-name="Eth" unicode="&#xd0;" horiz-adv-x="1431" 
d="M164 901v635h428q163 0 305.5 -58.5t244 -160t160 -244t58.5 -305.5t-58.5 -305.5t-160 -244t-244 -160t-305.5 -58.5h-428v635h-123v266h123zM1057 768q0 134 -62 249.5t-169.5 184t-233.5 68.5h-137v-369h319v-266h-319v-369h137q126 0 233.5 68.5t169.5 184t62 249.5z
" />
    <glyph glyph-name="Ntilde" unicode="&#xd1;" horiz-adv-x="1345" 
d="M578 1837q29 0 57.5 -15t73.5 -53q44 -38 63 -38q20 0 34.5 17t14.5 42h129q0 -79 -51.5 -131.5t-126.5 -52.5q-29 0 -57.5 15t-73.5 54q-46 37 -63 37q-21 0 -36.5 -17.5t-15.5 -41.5h-129q0 79 52.5 131.5t128.5 52.5zM932 1536h291v-1536h-291l-508 907l-12 -4l2 -903
h-291v1536h291l508 -909l12 4z" />
    <glyph glyph-name="Ograve" unicode="&#xd2;" horiz-adv-x="1822" 
d="M1104 1599l-387 95v186l387 -133v-148zM1448 768q0 146 -71.5 269.5t-195 195.5t-270.5 72q-146 0 -269.5 -72t-195 -195.5t-71.5 -269.5q0 -147 71.5 -270.5t195 -195t269.5 -71.5q147 0 270.5 71.5t195 195t71.5 270.5zM1751 768q0 -134 -45.5 -268t-142.5 -248
q-105 -120 -230 -184q-206 -103 -422 -103q-174 0 -329.5 61.5t-267 168t-177 256t-65.5 317.5t65.5 317.5t177 256t267 168t329.5 61.5q150 0 312.5 -56t300.5 -186q101 -98 164 -248t63 -313z" />
    <glyph glyph-name="Oacute" unicode="&#xd3;" horiz-adv-x="1822" 
d="M717 1747l387 133v-186l-387 -95v148zM1448 768q0 146 -71.5 269.5t-195 195.5t-270.5 72q-146 0 -269.5 -72t-195 -195.5t-71.5 -269.5q0 -147 71.5 -270.5t195 -195t269.5 -71.5q147 0 270.5 71.5t195 195t71.5 270.5zM1751 768q0 -134 -45.5 -268t-142.5 -248
q-105 -120 -230 -184q-206 -103 -422 -103q-174 0 -329.5 61.5t-267 168t-177 256t-65.5 317.5t65.5 317.5t177 256t267 168t329.5 61.5q150 0 312.5 -56t300.5 -186q101 -98 164 -248t63 -313z" />
    <glyph glyph-name="Ocircumflex" unicode="&#xd4;" horiz-adv-x="1822" 
d="M655 1618l179 242h155l178 -242h-151l-101 96h-8l-100 -96h-152zM1448 768q0 146 -71.5 269.5t-195 195.5t-270.5 72q-146 0 -269.5 -72t-195 -195.5t-71.5 -269.5q0 -147 71.5 -270.5t195 -195t269.5 -71.5q147 0 270.5 71.5t195 195t71.5 270.5zM1751 768
q0 -134 -45.5 -268t-142.5 -248q-105 -120 -230 -184q-206 -103 -422 -103q-174 0 -329.5 61.5t-267 168t-177 256t-65.5 317.5t65.5 317.5t177 256t267 168t329.5 61.5q150 0 312.5 -56t300.5 -186q101 -98 164 -248t63 -313z" />
    <glyph glyph-name="Otilde" unicode="&#xd5;" horiz-adv-x="1822" 
d="M815 1837q29 0 57.5 -15t73.5 -53q44 -38 64 -38t34.5 17t14.5 42h129q0 -79 -51.5 -131.5t-126.5 -52.5q-29 0 -57.5 15t-73.5 54q-46 37 -64 37q-21 0 -36 -17.5t-15 -41.5h-129q0 79 52 131.5t128 52.5zM1448 768q0 146 -71.5 269.5t-195 195.5t-270.5 72
q-146 0 -269.5 -72t-195 -195.5t-71.5 -269.5q0 -147 71.5 -270.5t195 -195t269.5 -71.5q147 0 270.5 71.5t195 195t71.5 270.5zM1751 768q0 -134 -45.5 -268t-142.5 -248q-105 -120 -230 -184q-206 -103 -422 -103q-174 0 -329.5 61.5t-267 168t-177 256t-65.5 317.5
t65.5 317.5t177 256t267 168t329.5 61.5q150 0 312.5 -56t300.5 -186q101 -98 164 -248t63 -313z" />
    <glyph glyph-name="Odieresis" unicode="&#xd6;" horiz-adv-x="1822" 
d="M842 1731q0 -47 -36 -83t-83 -36q-49 0 -84 35t-35 84t34.5 83.5t84.5 34.5q48 0 83.5 -34.5t35.5 -83.5zM1219 1731q0 -47 -36 -83t-83 -36q-50 0 -84.5 35t-34.5 84t34.5 83.5t84.5 34.5q48 0 83.5 -34.5t35.5 -83.5zM1448 768q0 146 -71.5 269.5t-195 195.5t-270.5 72
q-146 0 -269.5 -72t-195 -195.5t-71.5 -269.5q0 -147 71.5 -270.5t195 -195t269.5 -71.5q147 0 270.5 71.5t195 195t71.5 270.5zM1751 768q0 -134 -45.5 -268t-142.5 -248q-105 -120 -230 -184q-206 -103 -422 -103q-174 0 -329.5 61.5t-267 168t-177 256t-65.5 317.5
t65.5 317.5t177 256t267 168t329.5 61.5q150 0 312.5 -56t300.5 -186q101 -98 164 -248t63 -313z" />
    <glyph glyph-name="multiply" unicode="&#xd7;" horiz-adv-x="1355" 
d="M229 -4l-147 147l450 451l-448 448l147 148l449 -449l446 447l148 -148l-447 -446l447 -447l-148 -149l-446 448z" />
    <glyph glyph-name="Oslash" unicode="&#xd8;" horiz-adv-x="1843" 
d="M1761 768q0 -134 -45.5 -268t-142.5 -248q-105 -120 -230 -184q-206 -103 -421 -103q-142 0 -274.5 41.5t-237.5 116.5l-162 -158l-148 148l156 151q-82 100 -128 232t-46 272q0 168 65.5 317.5t177.5 256t267.5 168t329.5 61.5q140 0 273 -41t239 -117l161 158l148 -148
l-158 -153q85 -103 130.5 -232t45.5 -270zM1458 768q0 162 -86 295l-758 -739q134 -93 308 -93q147 0 270.5 71.5t194.5 195t71 270.5zM385 768q0 -161 84 -295l758 739q-140 93 -305 93q-146 0 -269.5 -72t-195.5 -195.5t-72 -269.5z" />
    <glyph glyph-name="Ugrave" unicode="&#xd9;" horiz-adv-x="1421" 
d="M905 1599l-387 95v186l387 -133v-148zM1008 1536h290v-993q0 -237 -137 -396q-76 -90 -196 -136t-254 -46q-261 0 -424.5 155.5t-163.5 422.5v993h291v-1010q0 -123 86 -209t211 -86t211 86t86 209v1010z" />
    <glyph glyph-name="Uacute" unicode="&#xda;" horiz-adv-x="1421" 
d="M518 1747l387 133v-186l-387 -95v148zM1008 1536h290v-993q0 -237 -137 -396q-76 -90 -196 -136t-254 -46q-261 0 -424.5 155.5t-163.5 422.5v993h291v-1010q0 -123 86 -209t211 -86t211 86t86 209v1010z" />
    <glyph glyph-name="Ucircumflex" unicode="&#xdb;" horiz-adv-x="1421" 
d="M455 1618l178 242h155l179 -242h-152l-100 96h-8l-101 -96h-151zM1008 1536h290v-993q0 -237 -137 -396q-76 -90 -196 -136t-254 -46q-261 0 -424.5 155.5t-163.5 422.5v993h291v-1010q0 -123 86 -209t211 -86t211 86t86 209v1010z" />
    <glyph glyph-name="Udieresis" unicode="&#xdc;" horiz-adv-x="1421" 
d="M641 1731q0 -47 -36 -83t-83 -36q-50 0 -84.5 35t-34.5 84t34.5 83.5t84.5 34.5q48 0 83.5 -34.5t35.5 -83.5zM1018 1731q0 -47 -36 -83t-83 -36q-49 0 -84 35t-35 84t34.5 83.5t84.5 34.5q48 0 83.5 -34.5t35.5 -83.5zM1008 1536h290v-993q0 -237 -137 -396
q-76 -90 -196 -136t-254 -46q-261 0 -424.5 155.5t-163.5 422.5v993h291v-1010q0 -123 86 -209t211 -86t211 86t86 209v1010z" />
    <glyph glyph-name="Yacute" unicode="&#xdd;" horiz-adv-x="1284" 
d="M451 1747l383 133v-186l-383 -95v148zM653 940l256 596h344l-462 -891v-645h-291v645l-469 891h344l262 -596h16z" />
    <glyph glyph-name="Thorn" unicode="&#xde;" horiz-adv-x="1218" 
d="M1147 915q0 -150 -96 -268q-56 -69 -143 -113.5t-187 -44.5h-307v-489h-291v1536h291v-190h307q174 0 300 -128t126 -303zM414 1079v-323h276q62 0 106 47.5t44 114.5t-44 114t-106 47h-276z" />
    <glyph glyph-name="germandbls" unicode="&#xdf;" horiz-adv-x="1253" 
d="M1171 471q0 -133 -69.5 -241.5t-187 -169t-255.5 -60.5h-141v266h141q39 -5 87.5 20t86 79.5t35.5 119.5q2 61 -35.5 115t-86.5 80.5t-87 21.5h-141v267h51q66 0 115 49.5t49 116.5t-49 116t-115 49q-65 0 -110 -48.5t-45 -116.5v-1135h-291v1137q0 115 62 216t165 159.5
t219 58.5q194 0 330.5 -118.5t136.5 -299.5q0 -153 -133 -274q108 -40 191 -161.5t77 -246.5z" />
    <glyph glyph-name="agrave" unicode="&#xe0;" horiz-adv-x="1529" 
d="M924 1315l-387 94v186l387 -133v-147zM1106 594q0 128 -86 235q-48 60 -123.5 92.5t-153.5 32.5q-56 2 -116 -19.5t-114.5 -64t-90.5 -115t-37 -161.5q0 -43 11.5 -90t39.5 -96t67.5 -88t102 -64t137.5 -25q96 -5 182.5 47t136 138t44.5 178zM1407 0h-291v174l-10 4
q-66 -95 -197 -157t-227 -56q-128 0 -239.5 48t-190.5 131.5t-124.5 200.5t-45.5 249t45.5 248t124.5 199.5t190.5 131.5t239.5 48q97 6 227.5 -55t196.5 -156l10 4v172h291v-1186z" />
    <glyph glyph-name="aacute" unicode="&#xe1;" horiz-adv-x="1529" 
d="M1106 594q0 128 -86 235q-48 60 -123.5 92.5t-153.5 32.5q-56 2 -116 -19.5t-114.5 -64t-90.5 -115t-37 -161.5q0 -43 11.5 -90t39.5 -96t67.5 -88t102 -64t137.5 -25q96 -5 182.5 47t136 138t44.5 178zM1407 0h-291v174l-10 4q-66 -95 -197 -157t-227 -56
q-128 0 -239.5 48t-190.5 131.5t-124.5 200.5t-45.5 249t45.5 248t124.5 199.5t190.5 131.5t239.5 48q97 6 227.5 -55t196.5 -156l10 4v172h291v-1186zM551 1462l387 133v-186l-387 -94v147z" />
    <glyph glyph-name="acircumflex" unicode="&#xe2;" horiz-adv-x="1529" 
d="M475 1372l178 242h156l178 -242h-151l-101 96h-8l-100 -96h-152zM1106 594q0 128 -86 235q-48 60 -123.5 92.5t-153.5 32.5q-56 2 -116 -19.5t-114.5 -64t-90.5 -115t-37 -161.5q0 -43 11.5 -90t39.5 -96t67.5 -88t102 -64t137.5 -25q96 -5 182.5 47t136 138t44.5 178z
M1407 0h-291v174l-10 4q-66 -95 -197 -157t-227 -56q-128 0 -239.5 48t-190.5 131.5t-124.5 200.5t-45.5 249t45.5 248t124.5 199.5t190.5 131.5t239.5 48q97 6 227.5 -55t196.5 -156l10 4v172h291v-1186z" />
    <glyph glyph-name="atilde" unicode="&#xe3;" horiz-adv-x="1529" 
d="M1106 594q0 128 -86 235q-48 60 -123.5 92.5t-153.5 32.5q-56 2 -116 -19.5t-114.5 -64t-90.5 -115t-37 -161.5q0 -43 11.5 -90t39.5 -96t67.5 -88t102 -64t137.5 -25q96 -5 182.5 47t136 138t44.5 178zM1407 0h-291v174l-10 4q-66 -95 -197 -157t-227 -56
q-128 0 -239.5 48t-190.5 131.5t-124.5 200.5t-45.5 249t45.5 248t124.5 199.5t190.5 131.5t239.5 48q97 6 227.5 -55t196.5 -156l10 4v172h291v-1186zM651 1561q29 0 57.5 -15t73.5 -53q45 -39 64 -39q20 0 34.5 17t14.5 42h129q0 -79 -51.5 -131.5t-126.5 -52.5
q-29 0 -57.5 15.5t-73.5 54.5q-46 37 -64 37q-20 0 -35.5 -17.5t-15.5 -42.5h-129q0 79 52 132t128 53z" />
    <glyph glyph-name="adieresis" unicode="&#xe4;" horiz-adv-x="1529" 
d="M674 1479q0 -47 -36 -83t-83 -36q-49 0 -84 35t-35 84t34.5 83.5t84.5 34.5q48 0 83.5 -34.5t35.5 -83.5zM1051 1479q0 -47 -36 -83t-83 -36q-50 0 -84.5 35t-34.5 84t34.5 83.5t84.5 34.5q48 0 83.5 -34.5t35.5 -83.5zM1106 594q0 128 -86 235q-48 60 -123.5 92.5
t-153.5 32.5q-56 2 -116 -19.5t-114.5 -64t-90.5 -115t-37 -161.5q0 -43 11.5 -90t39.5 -96t67.5 -88t102 -64t137.5 -25q96 -5 182.5 47t136 138t44.5 178zM1407 0h-291v174l-10 4q-66 -95 -197 -157t-227 -56q-128 0 -239.5 48t-190.5 131.5t-124.5 200.5t-45.5 249
t45.5 248t124.5 199.5t190.5 131.5t239.5 48q97 6 227.5 -55t196.5 -156l10 4v172h291v-1186z" />
    <glyph glyph-name="aring" unicode="&#xe5;" horiz-adv-x="1529" 
d="M1106 594q0 128 -86 235q-48 60 -123.5 92.5t-153.5 32.5q-56 2 -116 -19.5t-114.5 -64t-90.5 -115t-37 -161.5q0 -43 11.5 -90t39.5 -96t67.5 -88t102 -64t137.5 -25q96 -5 182.5 47t136 138t44.5 178zM1407 0h-291v174l-10 4q-66 -95 -197 -157t-227 -56
q-128 0 -239.5 48t-190.5 131.5t-124.5 200.5t-45.5 249t45.5 248t124.5 199.5t190.5 131.5t239.5 48q97 6 227.5 -55t196.5 -156l10 4v172h291v-1186zM823 1475q0 32 -23.5 54.5t-56.5 22.5q-32 0 -55.5 -22.5t-23.5 -54.5q0 -35 23 -58.5t56 -23.5t56.5 23.5t23.5 58.5z
M952 1475q7 -63 -56.5 -135.5t-152.5 -69.5q-28 -3 -64 11t-69 39.5t-54.5 67t-20.5 87.5q-4 38 20.5 85t76 82t111.5 33q60 2 112 -33t76.5 -82t20.5 -85z" />
    <glyph glyph-name="ae" unicode="&#xe6;" horiz-adv-x="2564" 
d="M2482 594q0 -58 -16 -133h-971q24 -93 123 -164q97 -72 217 -72q98 -3 183 40t106 91h307q-61 -184 -221.5 -287.5t-374.5 -103.5q-124 0 -235 45t-193 127v-137h-291v174l-10 4q-66 -95 -197 -157t-227 -56q-128 0 -239.5 48t-190.5 131.5t-124.5 200.5t-45.5 249
t45.5 248t124.5 199.5t190.5 131.5t239.5 48q97 6 227.5 -55t196.5 -156l10 4v172h291v-137q83 81 196 126.5t236 45.5q127 2 246 -47t207 -133t140 -201.5t50 -245.5zM1106 594q0 128 -86 235q-48 60 -123.5 92.5t-153.5 32.5q-56 2 -116 -19.5t-114.5 -64t-90.5 -115
t-37 -161.5q0 -43 11.5 -90t39.5 -96t67.5 -88t102 -64t137.5 -25q96 -5 182.5 47t136 138t44.5 178zM1495 713h688q-10 58 -49.5 108t-91.5 79.5t-106 45t-97 12.5q-57 5 -130.5 -23t-136.5 -88.5t-77 -133.5z" />
    <glyph glyph-name="ccedilla" unicode="&#xe7;" horiz-adv-x="1099" 
d="M692 -182l-80 14l23 143q-243 34 -398 206.5t-155 412.5q0 177 87.5 321t241.5 225t343 81q136 0 264 -43v-308q-104 84 -264 84q-156 0 -261.5 -102.5t-105.5 -257.5q0 -157 107 -258q105 -105 260 -105q160 0 264 84v-309q-125 -41 -264 -41h-35l-6 -49
q84 26 147.5 -18.5t63.5 -126.5q0 -71 -47 -113.5t-123 -42.5q-73 0 -120.5 43.5t-47.5 112.5h92q0 -31 22.5 -53.5t53.5 -22.5q32 0 53.5 22t21.5 54q0 31 -22 52t-53 21q-42 0 -62 -26z" />
    <glyph glyph-name="egrave" unicode="&#xe8;" horiz-adv-x="1462" 
d="M932 1315l-387 94v186l387 -133v-147zM1380 594q0 -58 -16 -133h-971q24 -93 123 -164q97 -72 217 -72q98 -3 183 40t106 91h307q-61 -184 -221.5 -287.5t-374.5 -103.5q-181 0 -330.5 83t-235 227.5t-85.5 318.5q0 175 86 319t236.5 226t332.5 82q127 2 246 -47
t207 -133t140 -201.5t50 -245.5zM393 713h688q-10 58 -49.5 108t-91.5 79.5t-106 45t-97 12.5q-57 5 -130.5 -23t-136.5 -88.5t-77 -133.5z" />
    <glyph glyph-name="eacute" unicode="&#xe9;" horiz-adv-x="1462" 
d="M543 1462l387 133v-186l-387 -94v147zM1380 594q0 -58 -16 -133h-971q24 -93 123 -164q97 -72 217 -72q98 -3 183 40t106 91h307q-61 -184 -221.5 -287.5t-374.5 -103.5q-181 0 -330.5 83t-235 227.5t-85.5 318.5q0 175 86 319t236.5 226t332.5 82q127 2 246 -47
t207 -133t140 -201.5t50 -245.5zM393 713h688q-10 58 -49.5 108t-91.5 79.5t-106 45t-97 12.5q-57 5 -130.5 -23t-136.5 -88.5t-77 -133.5z" />
    <glyph glyph-name="ecircumflex" unicode="&#xea;" horiz-adv-x="1462" 
d="M481 1372l178 242h156l178 -242h-151l-101 96h-8l-100 -96h-152zM1380 594q0 -58 -16 -133h-971q24 -93 123 -164q97 -72 217 -72q98 -3 183 40t106 91h307q-61 -184 -221.5 -287.5t-374.5 -103.5q-181 0 -330.5 83t-235 227.5t-85.5 318.5q0 175 86 319t236.5 226
t332.5 82q127 2 246 -47t207 -133t140 -201.5t50 -245.5zM393 713h688q-10 58 -49.5 108t-91.5 79.5t-106 45t-97 12.5q-57 5 -130.5 -23t-136.5 -88.5t-77 -133.5z" />
    <glyph glyph-name="edieresis" unicode="&#xeb;" horiz-adv-x="1462" 
d="M668 1479q0 -47 -36 -83t-83 -36q-49 0 -84 35t-35 84t34.5 83.5t84.5 34.5q48 0 83.5 -34.5t35.5 -83.5zM1044 1479q0 -47 -35.5 -83t-82.5 -36q-50 0 -84.5 35t-34.5 84t34.5 83.5t84.5 34.5q48 0 83 -34.5t35 -83.5zM1380 594q0 -58 -16 -133h-971q24 -93 123 -164
q97 -72 217 -72q98 -3 183 40t106 91h307q-61 -184 -221.5 -287.5t-374.5 -103.5q-181 0 -330.5 83t-235 227.5t-85.5 318.5q0 175 86 319t236.5 226t332.5 82q127 2 246 -47t207 -133t140 -201.5t50 -245.5zM393 713h688q-10 58 -49.5 108t-91.5 79.5t-106 45t-97 12.5
q-57 5 -130.5 -23t-136.5 -88.5t-77 -133.5z" />
    <glyph glyph-name="igrave" unicode="&#xec;" 
d="M463 1315l-387 94v186l387 -133v-147zM123 0v1186h291v-1186h-291z" />
    <glyph glyph-name="iacute" unicode="&#xed;" 
d="M76 1462l383 133v-186l-383 -94v147zM123 0v1186h291v-1186h-291z" />
    <glyph glyph-name="icircumflex" unicode="&#xee;" 
d="M123 0v1186h291v-1186h-291zM12 1372l178 242h156l178 -242h-151l-101 96h-8l-100 -96h-152z" />
    <glyph glyph-name="idieresis" unicode="&#xef;" 
d="M123 0v1186h291v-1186h-291zM209 1479q0 -47 -36 -83t-83 -36q-50 0 -84.5 35t-34.5 84t34.5 83.5t84.5 34.5q48 0 83.5 -34.5t35.5 -83.5zM563 1479q0 -47 -36 -83t-83 -36q-49 0 -83.5 34.5t-34.5 84.5q0 49 34 83.5t84 34.5q48 0 83.5 -34.5t35.5 -83.5z" />
    <glyph glyph-name="eth" unicode="&#xf0;" horiz-adv-x="1437" 
d="M952 1597l70 -81l-88 -74q202 -200 309 -363q113 -181 113 -426q0 -156 -47.5 -286t-132 -217.5t-202 -136t-255.5 -48.5q-177 0 -321.5 75t-230 215.5t-85.5 319.5q0 255 192 424q64 56 150.5 84.5t171.5 28.5q134 0 226.5 -40.5t166.5 -115.5l6 5q0 34 -41 90
q-52 63 -229 213l-109 -93l-67 80l96 84q-175 153 -291 262h416l86 -81zM1053 565q0 122 -80 219q-42 48 -108 81.5t-146 33.5q-85 4 -164.5 -43t-126.5 -126.5t-43 -164.5q-4 -85 43 -164.5t126.5 -126.5t164.5 -43q139 0 236.5 98t97.5 236z" />
    <glyph glyph-name="ntilde" unicode="&#xf1;" horiz-adv-x="1345" 
d="M414 696v-696h-291v1186h291v-170l10 -4q47 98 154 156t204 53q120 0 220 -59.5t160.5 -171.5t60.5 -255v-735h-291v696q1 58 -25.5 110t-67 84.5t-85 50t-80.5 13.5q-109 0 -185 -73q-75 -75 -75 -185zM578 1561q29 0 57.5 -15t73.5 -53q45 -39 63 -39q20 0 34.5 17
t14.5 42h129q0 -79 -51.5 -131.5t-126.5 -52.5q-29 0 -57.5 15.5t-73.5 54.5q-46 37 -63 37q-21 0 -36.5 -18t-15.5 -42h-129q0 79 52.5 132t128.5 53z" />
    <glyph glyph-name="ograve" unicode="&#xf2;" horiz-adv-x="1495" 
d="M940 1315l-387 94v186l387 -133v-147zM1413 592q0 -174 -91 -319t-243.5 -226.5t-330.5 -81.5q-132 0 -254 48.5t-212.5 131t-145 200t-54.5 247.5q-3 170 90 317t247.5 231t328.5 81q131 2 254 -47.5t213.5 -134t144.5 -202t53 -245.5zM385 592q0 -151 106 -256
t257 -105q43 0 90 12t96 40.5t87.5 69t63.5 102.5t25 137q3 55 -18.5 115.5t-63.5 115.5t-116 92t-164 39q-42 2 -89.5 -10t-95.5 -41t-87 -71t-64 -104.5t-27 -135.5z" />
    <glyph glyph-name="oacute" unicode="&#xf3;" horiz-adv-x="1495" 
d="M553 1462l387 133v-186l-387 -94v147zM1413 592q0 -174 -91 -319t-243.5 -226.5t-330.5 -81.5q-132 0 -254 48.5t-212.5 131t-145 200t-54.5 247.5q-3 170 90 317t247.5 231t328.5 81q131 2 254 -47.5t213.5 -134t144.5 -202t53 -245.5zM385 592q0 -151 106 -256
t257 -105q43 0 90 12t96 40.5t87.5 69t63.5 102.5t25 137q3 55 -18.5 115.5t-63.5 115.5t-116 92t-164 39q-42 2 -89.5 -10t-95.5 -41t-87 -71t-64 -104.5t-27 -135.5z" />
    <glyph glyph-name="ocircumflex" unicode="&#xf4;" horiz-adv-x="1495" 
d="M1413 592q0 -174 -91 -319t-243.5 -226.5t-330.5 -81.5q-132 0 -254 48.5t-212.5 131t-145 200t-54.5 247.5q-3 170 90 317t247.5 231t328.5 81q131 2 254 -47.5t213.5 -134t144.5 -202t53 -245.5zM385 592q0 -151 106 -256t257 -105q43 0 90 12t96 40.5t87.5 69
t63.5 102.5t25 137q3 55 -18.5 115.5t-63.5 115.5t-116 92t-164 39q-42 2 -89.5 -10t-95.5 -41t-87 -71t-64 -104.5t-27 -135.5zM492 1372l178 242h155l179 -242h-152l-100 96h-9l-100 -96h-151z" />
    <glyph glyph-name="otilde" unicode="&#xf5;" horiz-adv-x="1495" 
d="M651 1561q29 0 57.5 -15t73.5 -53q45 -39 64 -39q20 0 34.5 17t14.5 42h129q0 -79 -51.5 -131.5t-126.5 -52.5q-29 0 -57.5 15.5t-73.5 54.5q-46 37 -64 37q-20 0 -35.5 -17.5t-15.5 -42.5h-129q0 79 52 132t128 53zM1413 592q0 -174 -91 -319t-243.5 -226.5
t-330.5 -81.5q-132 0 -254 48.5t-212.5 131t-145 200t-54.5 247.5q-3 170 90 317t247.5 231t328.5 81q131 2 254 -47.5t213.5 -134t144.5 -202t53 -245.5zM385 592q0 -151 106 -256t257 -105q43 0 90 12t96 40.5t87.5 69t63.5 102.5t25 137q3 55 -18.5 115.5t-63.5 115.5
t-116 92t-164 39q-42 2 -89.5 -10t-95.5 -41t-87 -71t-64 -104.5t-27 -135.5z" />
    <glyph glyph-name="odieresis" unicode="&#xf6;" horiz-adv-x="1495" 
d="M678 1479q0 -47 -36 -83t-83 -36q-49 0 -84 35t-35 84t34.5 83.5t84.5 34.5q48 0 83.5 -34.5t35.5 -83.5zM1055 1479q0 -47 -36 -83t-83 -36q-50 0 -84.5 35t-34.5 84t34.5 83.5t84.5 34.5q48 0 83.5 -34.5t35.5 -83.5zM1413 592q0 -174 -91 -319t-243.5 -226.5
t-330.5 -81.5q-132 0 -254 48.5t-212.5 131t-145 200t-54.5 247.5q-3 170 90 317t247.5 231t328.5 81q131 2 254 -47.5t213.5 -134t144.5 -202t53 -245.5zM385 592q0 -151 106 -256t257 -105q43 0 90 12t96 40.5t87.5 69t63.5 102.5t25 137q3 55 -18.5 115.5t-63.5 115.5
t-116 92t-164 39q-42 2 -89.5 -10t-95.5 -41t-87 -71t-64 -104.5t-27 -135.5z" />
    <glyph glyph-name="divide" unicode="&#xf7;" horiz-adv-x="1390" 
d="M836 123q0 -57 -41 -98t-101 -41q-56 0 -96.5 41t-40.5 98t40.5 98t96.5 41q60 0 101 -41t41 -98zM557 1061q0 59 40.5 100t96.5 41q60 0 101 -40.5t41 -100.5q0 -56 -41.5 -96.5t-100.5 -40.5q-56 0 -96.5 41t-40.5 96zM102 496v192h1186v-192h-1186z" />
    <glyph glyph-name="oslash" unicode="&#xf8;" horiz-adv-x="1527" 
d="M1430 592q0 -131 -53.5 -248t-144 -199.5t-213 -131t-255.5 -48.5q-105 0 -206.5 30t-180.5 85l-121 -115l-147 148l114 108q-60 75 -92.5 171.5t-32.5 199.5q-3 170 90 317t247.5 231t328.5 81q208 0 387 -117l121 117l147 -148l-116 -110q127 -165 127 -371zM401 592
q0 -91 37 -164l504 479q-89 47 -178 47q-42 2 -89.5 -10t-95.5 -41t-87 -71t-64 -104.5t-27 -135.5zM1126 592q0 90 -39 164l-503 -480q80 -45 180 -45q43 0 90 12t96 40.5t87.5 69t63.5 102.5t25 137z" />
    <glyph glyph-name="ugrave" unicode="&#xf9;" horiz-adv-x="1347" 
d="M868 1315l-387 94v186l387 -133v-147zM934 479v707h291v-715q0 -229 -156 -367.5t-395 -138.5t-395 138.5t-156 367.5v715h291v-707q-3 -77 43.5 -138t106.5 -88t110 -22q50 -5 110 22t106.5 88t43.5 138z" />
    <glyph glyph-name="uacute" unicode="&#xfa;" horiz-adv-x="1347" 
d="M481 1462l387 133v-186l-387 -94v147zM934 479v707h291v-715q0 -229 -156 -367.5t-395 -138.5t-395 138.5t-156 367.5v715h291v-707q-3 -77 43.5 -138t106.5 -88t110 -22q50 -5 110 22t106.5 88t43.5 138z" />
    <glyph glyph-name="ucircumflex" unicode="&#xfb;" horiz-adv-x="1347" 
d="M418 1372l178 242h156l178 -242h-152l-100 96h-8l-101 -96h-151zM934 479v707h291v-715q0 -229 -156 -367.5t-395 -138.5t-395 138.5t-156 367.5v715h291v-707q-3 -77 43.5 -138t106.5 -88t110 -22q50 -5 110 22t106.5 88t43.5 138z" />
    <glyph glyph-name="udieresis" unicode="&#xfc;" horiz-adv-x="1347" 
d="M604 1479q0 -47 -36 -83t-83 -36q-49 0 -83.5 34.5t-34.5 84.5q0 49 34.5 83.5t83.5 34.5q48 0 83.5 -34.5t35.5 -83.5zM981 1479q0 -47 -36 -83t-83 -36q-50 0 -84.5 35t-34.5 84t34.5 83.5t84.5 34.5q48 0 83.5 -34.5t35.5 -83.5zM934 479v707h291v-715
q0 -229 -156 -367.5t-395 -138.5t-395 138.5t-156 367.5v715h291v-707q-3 -77 43.5 -138t106.5 -88t110 -22q50 -5 110 22t106.5 88t43.5 138z" />
    <glyph glyph-name="yacute" unicode="&#xfd;" horiz-adv-x="1212" 
d="M412 1462l387 133v-186l-387 -94v147zM881 1186h301l-600 -1596h-316l183 437l-418 1159h301l268 -772h12z" />
    <glyph glyph-name="thorn" unicode="&#xfe;" horiz-adv-x="1529" 
d="M424 592q0 -129 86 -236q48 -60 123 -92.5t153 -32.5q44 -2 92 11t95 42t85 70.5t62 103.5t25 134q0 43 -12 89.5t-39.5 96t-67.5 88t-102.5 63.5t-137.5 25q-96 5 -182.5 -47t-135.5 -137.5t-44 -177.5zM123 1597h291v-585l10 -4q66 95 197 157t227 56q128 0 239.5 -48
t190.5 -131.5t124.5 -200.5t45.5 -249t-45.5 -248t-124.5 -199.5t-190.5 -131.5t-239.5 -48q-97 -6 -227.5 55t-196.5 156l-10 -4v-584h-291v2009z" />
    <glyph glyph-name="ydieresis" unicode="&#xff;" horiz-adv-x="1212" 
d="M881 1186h301l-600 -1596h-316l183 437l-418 1159h301l268 -772h12zM537 1479q0 -47 -36 -83t-83 -36q-50 0 -84.5 35t-34.5 84t34.5 83.5t84.5 34.5q48 0 83.5 -34.5t35.5 -83.5zM913 1479q0 -47 -35.5 -83t-82.5 -36q-49 0 -84 35t-35 84t34.5 83.5t84.5 34.5
q48 0 83 -34.5t35 -83.5z" />
    <glyph glyph-name="Amacron" unicode="&#x100;" horiz-adv-x="1384" 
d="M502 1802h383v-160h-383v160zM1354 0h-316l-80 279h-534l-78 -279h-315l504 1536h315zM702 1180h-20l-182 -635h383z" />
    <glyph glyph-name="amacron" unicode="&#x101;" horiz-adv-x="1529" 
d="M553 1536h383v-160h-383v160zM1106 594q0 128 -86 235q-48 60 -123.5 92.5t-153.5 32.5q-56 2 -116 -19.5t-114.5 -64t-90.5 -115t-37 -161.5q0 -43 11.5 -90t39.5 -96t67.5 -88t102 -64t137.5 -25q96 -5 182.5 47t136 138t44.5 178zM1407 0h-291v174l-10 4
q-66 -95 -197 -157t-227 -56q-128 0 -239.5 48t-190.5 131.5t-124.5 200.5t-45.5 249t45.5 248t124.5 199.5t190.5 131.5t239.5 48q97 6 227.5 -55t196.5 -156l10 4v172h291v-1186z" />
    <glyph glyph-name="Aogonek" unicode="&#x104;" horiz-adv-x="1384" 
d="M1038 0l-80 279h-534l-78 -279h-315l504 1536h315l504 -1536h-121q-43 0 -74 -35.5t-31 -83.5q0 -49 35 -84t84 -35q41 0 82 35v-129q-65 -53 -141 -53q-31 -4 -69.5 11t-73 43t-57 73t-21.5 94q0 47 19 90.5t52 73.5zM702 1180h-20l-182 -635h383z" />
    <glyph glyph-name="aogonek" unicode="&#x105;" horiz-adv-x="1529" 
d="M1206 -119q0 -49 35 -84t84 -35q41 0 82 35v-129q-65 -53 -141 -53q-69 -8 -146 58t-76 163q0 47 19.5 90.5t52.5 73.5v174l-10 4q-66 -95 -197 -157t-227 -56q-128 0 -239.5 48t-190.5 131.5t-124.5 200.5t-45.5 249t45.5 248t124.5 199.5t190.5 131.5t239.5 48
q97 6 227.5 -55t196.5 -156l10 4v172h291v-1186h-92q-44 0 -76.5 -36t-32.5 -83zM1106 594q0 128 -86 235q-48 60 -123.5 92.5t-153.5 32.5q-56 2 -116 -19.5t-114.5 -64t-90.5 -115t-37 -161.5q0 -43 11.5 -90t39.5 -96t67.5 -88t102 -64t137.5 -25q96 -5 182.5 47t136 138
t44.5 178z" />
    <glyph glyph-name="Cacute" unicode="&#x106;" horiz-adv-x="1406" 
d="M719 1747l387 133v-186l-387 -95v148zM911 231q110 0 209.5 40t171.5 112v-336q-185 -82 -381 -82q-174 0 -329.5 61.5t-267 168t-177 256t-65.5 317.5t65.5 317.5t177 256t267 168t329.5 61.5q196 0 381 -82v-338q-72 72 -172.5 113t-208.5 41q-146 0 -269.5 -72
t-195 -195.5t-71.5 -269.5q0 -147 71.5 -270.5t195 -195t269.5 -71.5z" />
    <glyph glyph-name="cacute" unicode="&#x107;" horiz-adv-x="1099" 
d="M549 1462l387 133v-186l-387 -94v147zM754 1221q136 0 264 -43v-308q-104 84 -264 84q-156 0 -261.5 -102.5t-105.5 -257.5q0 -157 107 -258q105 -105 260 -105q160 0 264 84v-309q-125 -41 -264 -41q-189 0 -343 81.5t-241.5 226t-87.5 321.5t87.5 321t241.5 225t343 81
z" />
    <glyph glyph-name="Ccaron" unicode="&#x10c;" horiz-adv-x="1406" 
d="M911 231q110 0 209.5 40t171.5 112v-336q-185 -82 -381 -82q-174 0 -329.5 61.5t-267 168t-177 256t-65.5 317.5t65.5 317.5t177 256t267 168t329.5 61.5q196 0 381 -82v-338q-72 72 -172.5 113t-208.5 41q-146 0 -269.5 -72t-195 -195.5t-71.5 -269.5
q0 -147 71.5 -270.5t195 -195t269.5 -71.5zM1167 1860l-178 -242h-155l-179 242h152l100 -97h8l101 97h151z" />
    <glyph glyph-name="ccaron" unicode="&#x10d;" horiz-adv-x="1099" 
d="M1010 1614l-179 -242h-155l-178 242h151l101 -96h8l100 96h152zM754 1221q136 0 264 -43v-308q-104 84 -264 84q-156 0 -261.5 -102.5t-105.5 -257.5q0 -157 107 -258q105 -105 260 -105q160 0 264 84v-309q-125 -41 -264 -41q-189 0 -343 81.5t-241.5 226t-87.5 321.5
t87.5 321t241.5 225t343 81z" />
    <glyph glyph-name="Dcaron" unicode="&#x10e;" horiz-adv-x="1390" 
d="M911 1860l-178 -242h-155l-179 242h152l100 -97h8l101 97h151zM123 0v1536h428q163 0 305.5 -58.5t244 -160t160 -244t58.5 -305.5t-58.5 -305.5t-160 -244t-244 -160t-305.5 -58.5h-428zM1016 768q0 134 -62 249.5t-169.5 184t-233.5 68.5h-137v-1004h137
q126 0 233.5 68.5t169.5 184t62 249.5z" />
    <glyph glyph-name="dcaron" unicode="&#x10f;" horiz-adv-x="1753" 
d="M1485 1219l86 378h182l-121 -378h-147zM1106 594q0 128 -86 235q-48 60 -123.5 92.5t-153.5 32.5q-56 2 -116 -19.5t-114.5 -64t-90.5 -115t-37 -161.5q0 -43 11.5 -90t39.5 -96t67.5 -88t102 -64t137.5 -25q96 -5 182.5 47t136 138t44.5 178zM1407 0h-291v174l-10 4
q-66 -95 -197 -157t-227 -56q-128 0 -239.5 48t-190.5 131.5t-124.5 200.5t-45.5 249t45.5 248t124.5 199.5t190.5 131.5t239.5 48q97 6 227.5 -55t196.5 -156l10 4v583h291v-1597z" />
    <glyph glyph-name="Emacron" unicode="&#x112;" horiz-adv-x="1155" 
d="M436 1802h383v-160h-383v160zM414 635v-369h669v-266h-960v1536h960v-266h-669v-369h528v-266h-528z" />
    <glyph glyph-name="emacron" unicode="&#x113;" horiz-adv-x="1462" 
d="M545 1536h383v-160h-383v160zM1380 594q0 -58 -16 -133h-971q24 -93 123 -164q97 -72 217 -72q98 -3 183 40t106 91h307q-61 -184 -221.5 -287.5t-374.5 -103.5q-181 0 -330.5 83t-235 227.5t-85.5 318.5q0 175 86 319t236.5 226t332.5 82q127 2 246 -47t207 -133
t140 -201.5t50 -245.5zM393 713h688q-10 58 -49.5 108t-91.5 79.5t-106 45t-97 12.5q-57 5 -130.5 -23t-136.5 -88.5t-77 -133.5z" />
    <glyph glyph-name="Edotaccent" unicode="&#x116;" horiz-adv-x="1155" 
d="M643 1593q-63 0 -110.5 47.5t-47.5 110.5t47.5 110.5t110.5 47.5t110.5 -47.5t47.5 -110.5t-47.5 -110.5t-110.5 -47.5zM414 635v-369h669v-266h-960v1536h960v-266h-669v-369h528v-266h-528z" />
    <glyph glyph-name="edotaccent" unicode="&#x117;" horiz-adv-x="1462" 
d="M737 1335q-63 0 -110 47.5t-47 110.5t47 110.5t110 47.5t110.5 -47.5t47.5 -110.5t-47.5 -110.5t-110.5 -47.5zM1380 594q0 -58 -16 -133h-971q24 -93 123 -164q97 -72 217 -72q98 -3 183 40t106 91h307q-61 -184 -221.5 -287.5t-374.5 -103.5q-181 0 -330.5 83
t-235 227.5t-85.5 318.5q0 175 86 319t236.5 226t332.5 82q127 2 246 -47t207 -133t140 -201.5t50 -245.5zM393 713h688q-10 58 -49.5 108t-91.5 79.5t-106 45t-97 12.5q-57 5 -130.5 -23t-136.5 -88.5t-77 -133.5z" />
    <glyph glyph-name="Eogonek" unicode="&#x118;" horiz-adv-x="1155" 
d="M414 635v-369h669v-266h-96q-42 0 -73 -35.5t-31 -83.5q0 -50 34.5 -84.5t83.5 -34.5q41 0 82 35v-129q-65 -53 -141 -53q-69 -8 -145.5 58t-75.5 163q0 47 19.5 90.5t52.5 73.5h-670v1536h960v-266h-669v-369h528v-266h-528z" />
    <glyph glyph-name="eogonek" unicode="&#x119;" horiz-adv-x="1462" 
d="M1380 594q0 -58 -16 -133h-971q24 -93 123 -164q97 -72 217 -72q98 -3 183 40t106 91h307q-37 -115 -115 -200.5t-184 -130.5q-31 -19 -51.5 -57t-20.5 -79q0 -50 36 -88.5t83 -38.5q41 0 82 35v-129q-65 -53 -141 -53q-43 -5 -94.5 22t-90 83.5t-36.5 123.5q0 69 37 127
q-50 -6 -101 -6q-181 0 -330.5 83t-235 227.5t-85.5 318.5q0 175 86 319t236.5 226t332.5 82q127 2 246 -47t207 -133t140 -201.5t50 -245.5zM393 713h688q-10 58 -49.5 108t-91.5 79.5t-106 45t-97 12.5q-57 5 -130.5 -23t-136.5 -88.5t-77 -133.5z" />
    <glyph glyph-name="Ecaron" unicode="&#x11a;" horiz-adv-x="1155" 
d="M891 1860l-178 -242h-156l-178 242h151l101 -97h8l100 97h152zM414 635v-369h669v-266h-960v1536h960v-266h-669v-369h528v-266h-528z" />
    <glyph glyph-name="ecaron" unicode="&#x11b;" horiz-adv-x="1462" 
d="M993 1614l-178 -242h-156l-178 242h152l100 -96h8l101 96h151zM1380 594q0 -58 -16 -133h-971q24 -93 123 -164q97 -72 217 -72q98 -3 183 40t106 91h307q-61 -184 -221.5 -287.5t-374.5 -103.5q-181 0 -330.5 83t-235 227.5t-85.5 318.5q0 175 86 319t236.5 226
t332.5 82q127 2 246 -47t207 -133t140 -201.5t50 -245.5zM393 713h688q-10 58 -49.5 108t-91.5 79.5t-106 45t-97 12.5q-57 5 -130.5 -23t-136.5 -88.5t-77 -133.5z" />
    <glyph glyph-name="uni0122" unicode="&#x122;" horiz-adv-x="1810" 
d="M893 -487h-100l92 184q-38 8 -65 41t-27 74q0 50 34.5 84t83.5 34q50 0 84.5 -34.5t34.5 -83.5q0 -27 -16 -64zM1421 635h-510v266h818q10 -85 10 -135q2 -111 -27 -216.5t-82.5 -194t-130.5 -162t-168.5 -124.5t-199 -78t-220.5 -26q-174 0 -329.5 61.5t-267 168
t-177 256t-65.5 317.5t65.5 317.5t177 256t267 168t329.5 61.5q257 0 461 -131q206 -134 299 -346h-340q-35 74 -159.5 144t-260.5 67q-146 0 -269.5 -72t-195 -195.5t-71.5 -269.5q0 -147 71.5 -270.5t195 -195t269.5 -71.5q188 0 328 113q142 115 182 291z" />
    <glyph glyph-name="uni0123" unicode="&#x123;" horiz-adv-x="1466" 
d="M737 1704h101l-93 -184q39 -8 66 -41t27 -74q0 -49 -35 -84t-84 -35t-84 35t-35 84q0 26 16 63zM709 -446q-250 0 -410 112t-190 293h301q19 -65 103 -110.5t196 -45.5q164 0 254 68.5t90 204.5v133l-11 4q-141 -190 -383 -190q-169 0 -301 77.5t-204 213.5t-72 307
q0 263 160.5 431.5t416.5 168.5q226 0 383 -213l11 4v174h290v-1129q0 -214 -145 -350q-83 -76 -212.5 -114.5t-276.5 -38.5zM1053 621q2 47 -18 102t-59 107t-106.5 87.5t-150.5 36.5q-39 2 -83 -10t-88 -40t-80 -67t-59 -95.5t-24 -120.5q0 -132 100 -232
q97 -100 234 -100q49 -3 105.5 18t107.5 61.5t85.5 107t35.5 145.5z" />
    <glyph glyph-name="Imacron" unicode="&#x12a;" 
d="M414 0h-291v1536h291v-1536zM78 1802h383v-160h-383v160z" />
    <glyph glyph-name="imacron" unicode="&#x12b;" 
d="M123 0v1186h291v-1186h-291zM78 1536h383v-160h-383v160z" />
    <glyph glyph-name="Iogonek" unicode="&#x12e;" 
d="M195 0h-72v1536h291v-1536h-11q-49 0 -83.5 -34.5t-34.5 -84.5t34.5 -84.5t83.5 -34.5v-139q-21 -8 -59 -8q-69 -8 -145.5 58t-75.5 163q0 47 19.5 90.5t52.5 73.5z" />
    <glyph glyph-name="iogonek" unicode="&#x12f;" 
d="M285 -119q0 -50 34.5 -84.5t83.5 -34.5v-139q-21 -8 -59 -8q-69 -8 -145.5 58t-75.5 163q0 47 19.5 90.5t52.5 73.5h-72v1186h291v-1186h-11q-49 0 -83.5 -34.5t-34.5 -84.5zM92 1458q-7 53 46.5 115t129.5 59q33 4 74 -16.5t72.5 -63.5t29.5 -94q0 -72 -52 -123
t-124 -51t-124 51t-52 123z" />
    <glyph glyph-name="dotlessi" unicode="&#x131;" 
d="M123 0v1186h291v-1186h-291z" />
    <glyph glyph-name="uni0136" unicode="&#x136;" horiz-adv-x="1320" 
d="M629 -453h-101l93 185q-39 8 -66 40.5t-27 73.5q0 50 35 84.5t84 34.5t84 -34.5t35 -84.5q0 -26 -16 -63zM123 0v1536h291v-635h112l420 635h344l-510 -768l510 -768h-344l-420 635h-112v-635h-291z" />
    <glyph glyph-name="uni0137" unicode="&#x137;" horiz-adv-x="1171" 
d="M414 0h-291v1597h291v-839l8 -8l348 436h375l-506 -592l508 -594h-375l-350 438l-8 -8v-430zM561 -453h-100l92 185q-39 8 -65.5 40.5t-26.5 73.5q0 50 34.5 84.5t84.5 34.5q49 0 83.5 -34.5t34.5 -84.5q0 -26 -16 -63z" />
    <glyph glyph-name="Lacute" unicode="&#x139;" horiz-adv-x="1099" 
d="M442 1747l387 133v-186l-387 -95v148zM414 266h655v-266h-946v1536h291v-1270z" />
    <glyph glyph-name="lacute" unicode="&#x13a;" horiz-adv-x="561" 
d="M104 1788l388 133v-186l-388 -95v148zM123 1597h291v-1292q0 -26 22.5 -49t48.5 -23h39v-233h-106q-135 -4 -220 78t-75 178v1341z" />
    <glyph glyph-name="uni013B" unicode="&#x13b;" horiz-adv-x="1099" 
d="M569 -453h-100l92 185q-39 8 -65.5 40.5t-26.5 73.5q0 50 34.5 84.5t84.5 34.5t84.5 -34.5t34.5 -84.5q0 -24 -17 -63zM414 266h655v-266h-946v1536h291v-1270z" />
    <glyph glyph-name="uni013C" unicode="&#x13c;" horiz-adv-x="561" 
d="M250 -453h-100l92 185q-39 8 -65.5 40.5t-26.5 73.5q0 50 34.5 84.5t83.5 34.5q50 0 84.5 -34.5t34.5 -84.5q0 -26 -16 -63zM123 1597h291v-1292q0 -26 22.5 -49t48.5 -23h39v-233h-106q-135 -4 -220 78t-75 178v1341z" />
    <glyph glyph-name="Lcaron" unicode="&#x13d;" horiz-adv-x="1099" 
d="M801 1219l86 378h182l-121 -378h-147zM414 266h655v-266h-946v1536h291v-1270z" />
    <glyph glyph-name="lcaron" unicode="&#x13e;" horiz-adv-x="759" 
d="M492 1219l86 378h182l-121 -378h-147zM123 1597h291v-1292q0 -26 22.5 -49t48.5 -23h39v-233h-106q-135 -4 -220 78t-75 178v1341z" />
    <glyph glyph-name="Lslash" unicode="&#x141;" horiz-adv-x="1138" 
d="M453 649v-370h655v-279h-946v590l-121 -25v266l121 27v678h291v-621l366 78v-266z" />
    <glyph glyph-name="lslash" unicode="&#x142;" horiz-adv-x="612" 
d="M162 1597h291v-649l110 25v-266l-110 -25v-377q0 -26 22.5 -49t48.5 -23h39v-233h-106q-135 -4 -220 78t-75 178v365l-121 -25v266l121 25v710z" />
    <glyph glyph-name="Nacute" unicode="&#x143;" horiz-adv-x="1345" 
d="M479 1747l387 133v-186l-387 -95v148zM932 1536h291v-1536h-291l-508 907l-12 -4l2 -903h-291v1536h291l508 -909l12 4z" />
    <glyph glyph-name="nacute" unicode="&#x144;" horiz-adv-x="1345" 
d="M481 1462l387 133v-186l-387 -94v147zM414 696v-696h-291v1186h291v-170l10 -4q47 98 154 156t204 53q120 0 220 -59.5t160.5 -171.5t60.5 -255v-735h-291v696q1 58 -25.5 110t-67 84.5t-85 50t-80.5 13.5q-109 0 -185 -73q-75 -75 -75 -185z" />
    <glyph glyph-name="uni0145" unicode="&#x145;" horiz-adv-x="1345" 
d="M653 -453h-100l92 185q-39 8 -65.5 40.5t-26.5 73.5q0 50 34.5 84.5t84.5 34.5t84.5 -34.5t34.5 -84.5q0 -24 -17 -63zM932 1536h291v-1536h-291l-508 907l-12 -4l2 -903h-291v1536h291l508 -909l12 4z" />
    <glyph glyph-name="uni0146" unicode="&#x146;" horiz-adv-x="1345" 
d="M655 -453h-100l92 185q-39 8 -65.5 40.5t-26.5 73.5q0 50 34.5 84.5t84.5 34.5t84.5 -34.5t34.5 -84.5q0 -24 -17 -63zM414 696v-696h-291v1186h291v-170l10 -4q47 98 154 156t204 53q120 0 220 -59.5t160.5 -171.5t60.5 -255v-735h-291v696q1 58 -25.5 110t-67 84.5
t-85 50t-80.5 13.5q-109 0 -185 -73q-75 -75 -75 -185z" />
    <glyph glyph-name="Ncaron" unicode="&#x147;" horiz-adv-x="1345" 
d="M928 1860l-178 -242h-156l-178 242h151l101 -97h8l100 97h152zM932 1536h291v-1536h-291l-508 907l-12 -4l2 -903h-291v1536h291l508 -909l12 4z" />
    <glyph glyph-name="ncaron" unicode="&#x148;" horiz-adv-x="1345" 
d="M930 1614l-178 -242h-156l-178 242h151l101 -96h8l100 96h152zM414 696v-696h-291v1186h291v-170l10 -4q47 98 154 156t204 53q120 0 220 -59.5t160.5 -171.5t60.5 -255v-735h-291v696q1 58 -25.5 110t-67 84.5t-85 50t-80.5 13.5q-109 0 -185 -73q-75 -75 -75 -185z" />
    <glyph glyph-name="Omacron" unicode="&#x14c;" horiz-adv-x="1822" 
d="M721 1802h383v-160h-383v160zM1448 768q0 146 -71.5 269.5t-195 195.5t-270.5 72q-146 0 -269.5 -72t-195 -195.5t-71.5 -269.5q0 -147 71.5 -270.5t195 -195t269.5 -71.5q147 0 270.5 71.5t195 195t71.5 270.5zM1751 768q0 -134 -45.5 -268t-142.5 -248
q-105 -120 -230 -184q-206 -103 -422 -103q-174 0 -329.5 61.5t-267 168t-177 256t-65.5 317.5t65.5 317.5t177 256t267 168t329.5 61.5q150 0 312.5 -56t300.5 -186q101 -98 164 -248t63 -313z" />
    <glyph glyph-name="omacron" unicode="&#x14d;" horiz-adv-x="1495" 
d="M555 1536h383v-160h-383v160zM1413 592q0 -174 -91 -319t-243.5 -226.5t-330.5 -81.5q-132 0 -254 48.5t-212.5 131t-145 200t-54.5 247.5q-3 170 90 317t247.5 231t328.5 81q131 2 254 -47.5t213.5 -134t144.5 -202t53 -245.5zM385 592q0 -151 106 -256t257 -105
q43 0 90 12t96 40.5t87.5 69t63.5 102.5t25 137q3 55 -18.5 115.5t-63.5 115.5t-116 92t-164 39q-42 2 -89.5 -10t-95.5 -41t-87 -71t-64 -104.5t-27 -135.5z" />
    <glyph glyph-name="Ohungarumlaut" unicode="&#x150;" horiz-adv-x="1822" 
d="M649 1622l150 242h172l-150 -242h-172zM909 1622l150 242h172l-150 -242h-172zM1448 768q0 146 -71.5 269.5t-195 195.5t-270.5 72q-146 0 -269.5 -72t-195 -195.5t-71.5 -269.5q0 -147 71.5 -270.5t195 -195t269.5 -71.5q147 0 270.5 71.5t195 195t71.5 270.5zM1751 768
q0 -134 -45.5 -268t-142.5 -248q-105 -120 -230 -184q-206 -103 -422 -103q-174 0 -329.5 61.5t-267 168t-177 256t-65.5 317.5t65.5 317.5t177 256t267 168t329.5 61.5q150 0 312.5 -56t300.5 -186q101 -98 164 -248t63 -313z" />
    <glyph glyph-name="ohungarumlaut" unicode="&#x151;" horiz-adv-x="1486" 
d="M506 1294l149 242h172l-149 -242h-172zM766 1294l149 242h172l-149 -242h-172zM1405 594q0 -173 -90.5 -318.5t-242.5 -228t-329 -82.5q-175 0 -327 82.5t-243 228t-91 318.5q0 172 91 317t243 227.5t327 82.5q150 6 312 -74.5t237 -198.5q113 -157 113 -354zM387 592
q-5 -90 45.5 -174t135.5 -133.5t175 -44.5q67 -4 134 25t117 78t80 115.5t26 133.5q0 146 -105.5 251t-251.5 105q-53 3 -112.5 -18t-114 -63t-91.5 -114.5t-38 -160.5z" />
    <glyph glyph-name="OE" unicode="&#x152;" horiz-adv-x="2484" 
d="M1743 635v-369h670v-266h-961v178q-105 -101 -246 -157t-295 -56q-174 0 -329.5 61.5t-267 168t-177 256t-65.5 317.5t65.5 317.5t177 256t267 168t329.5 61.5q153 0 294 -57t247 -158v180h961v-266h-670v-369h528v-266h-528zM1448 768q0 146 -71.5 269.5t-195 195.5
t-270.5 72q-146 0 -269.5 -72t-195 -195.5t-71.5 -269.5q0 -147 71.5 -270.5t195 -195t269.5 -71.5q147 0 270.5 71.5t195 195t71.5 270.5z" />
    <glyph glyph-name="oe" unicode="&#x153;" horiz-adv-x="2490" 
d="M2408 594q0 -58 -16 -133h-971q24 -93 123 -164q97 -72 217 -72q98 -3 183 40t106 91h307q-61 -184 -221.5 -287.5t-374.5 -103.5q-76 -3 -167 22t-186 85.5t-151 144.5q-87 -123 -239.5 -190t-269.5 -62q-132 0 -254 48.5t-212.5 131t-145 200t-54.5 247.5
q-3 170 90 317t247.5 231t328.5 81q152 0 286.5 -67.5t222.5 -186.5q86 118 220 186t288 68q127 2 246 -47t207 -133t140 -201.5t50 -245.5zM385 592q0 -151 106 -256t257 -105q43 0 90 12t96 40.5t87.5 69t63.5 102.5t25 137q3 55 -18.5 115.5t-63.5 115.5t-116 92t-164 39
q-42 2 -89.5 -10t-95.5 -41t-87 -71t-64 -104.5t-27 -135.5zM1421 713h688q-10 58 -49.5 108t-91.5 79.5t-106 45t-97 12.5q-57 5 -130.5 -23t-136.5 -88.5t-77 -133.5z" />
    <glyph glyph-name="Racute" unicode="&#x154;" horiz-adv-x="1280" 
d="M416 1747l387 133v-186l-387 -95v148zM1208 1012q0 -138 -75 -264q-42 -68 -109.5 -124t-138.5 -87l268 -537h-324l-243 487h-172v-487h-291v1536h541q229 0 386.5 -151t157.5 -373zM905 1012q4 36 -13.5 80.5t-49 85t-82 67t-105.5 25.5h-241v-516h241q55 -1 105.5 25.5
t82 67t49 85t13.5 80.5z" />
    <glyph glyph-name="racute" unicode="&#x155;" horiz-adv-x="829" 
d="M238 1462l387 133v-186l-387 -94v147zM414 0h-291v1186h291v-172l8 -6q55 112 126.5 162.5t170.5 50.5h45v-295h-88q-35 4 -80.5 -12.5t-86.5 -47.5t-68.5 -81t-26.5 -105v-680z" />
    <glyph glyph-name="uni0156" unicode="&#x156;" horiz-adv-x="1280" 
d="M588 -453h-101l93 185q-39 8 -66 40.5t-27 73.5q0 50 34.5 84.5t84.5 34.5t84.5 -34.5t34.5 -84.5q0 -26 -16 -63zM1208 1012q0 -138 -75 -264q-42 -68 -109.5 -124t-138.5 -87l268 -537h-324l-243 487h-172v-487h-291v1536h541q229 0 386.5 -151t157.5 -373zM905 1012
q4 36 -13.5 80.5t-49 85t-82 67t-105.5 25.5h-241v-516h241q55 -1 105.5 25.5t82 67t49 85t13.5 80.5z" />
    <glyph glyph-name="uni0157" unicode="&#x157;" horiz-adv-x="829" 
d="M395 -453h-100l92 185q-39 8 -65.5 40.5t-26.5 73.5q0 50 34.5 84.5t84.5 34.5q49 0 83.5 -34.5t34.5 -84.5q0 -26 -16 -63zM414 0h-291v1186h291v-172l8 -6q55 112 126.5 162.5t170.5 50.5h45v-295h-88q-35 4 -80.5 -12.5t-86.5 -47.5t-68.5 -81t-26.5 -105v-680z" />
    <glyph glyph-name="Rcaron" unicode="&#x158;" horiz-adv-x="1280" 
d="M883 1860l-178 -242h-156l-178 242h151l101 -97h8l100 97h152zM1208 1012q0 -138 -75 -264q-42 -68 -109.5 -124t-138.5 -87l268 -537h-324l-243 487h-172v-487h-291v1536h541q229 0 386.5 -151t157.5 -373zM905 1012q4 36 -13.5 80.5t-49 85t-82 67t-105.5 25.5h-241
v-516h241q55 -1 105.5 25.5t82 67t49 85t13.5 80.5z" />
    <glyph glyph-name="rcaron" unicode="&#x159;" horiz-adv-x="829" 
d="M688 1614l-178 -242h-156l-178 242h152l100 -96h8l101 96h151zM414 0h-291v1186h291v-172l8 -6q55 112 126.5 162.5t170.5 50.5h45v-295h-88q-35 4 -80.5 -12.5t-86.5 -47.5t-68.5 -81t-26.5 -105v-680z" />
    <glyph glyph-name="Sacute" unicode="&#x15a;" horiz-adv-x="1304" 
d="M455 1747l387 133v-186l-387 -95v148zM426 1122q0 -104 121 -153q63 -24 153 -43q37 -8 79.5 -18t45.5 -11q102 -25 171 -57t121 -82.5t77.5 -125t28.5 -177.5q0 -149 -81.5 -262.5t-211 -170.5t-283.5 -57q-118 0 -220 33.5t-179 97.5t-121.5 164t-44.5 225h297
q-10 -93 67.5 -177t200.5 -83q48 -5 110.5 22t111 84t46.5 124q0 83 -51 137q-30 30 -80 53q-59 24 -213 57q-155 34 -223 62t-115 67q-52 42 -83 116.5t-31 174.5q0 126 74 230.5t194.5 161.5t259.5 57q143 0 261.5 -58t189 -169t67.5 -252h-297q1 55 -20.5 99.5
t-55.5 70.5t-72.5 38.5t-72.5 10.5q-41 4 -92.5 -18.5t-91 -69t-37.5 -101.5z" />
    <glyph glyph-name="sacute" unicode="&#x15b;" horiz-adv-x="1155" 
d="M381 1462l387 133v-186l-387 -94v147zM82 373h299q0 -81 53.5 -128.5t140.5 -47.5q84 0 139.5 43.5t55.5 107.5q0 80 -82 119q-42 19 -211 47q-162 24 -229 66q-85 54 -112 120t-27 148q0 52 14.5 102.5t49.5 101.5t87 89t133.5 62t181.5 24q219 0 341 -104t122 -298
h-299q0 77 -44.5 121.5t-119.5 44.5q-71 0 -117 -40t-46 -97q0 -72 82 -106q44 -20 165 -41q110 -19 172 -37q54 -18 91.5 -39t73.5 -56.5t55.5 -92.5t21.5 -134q0 -59 -17 -113.5t-55.5 -104.5t-95 -87.5t-141.5 -59.5t-189 -22q-252 9 -367 109t-126 303z" />
    <glyph glyph-name="Scaron" unicode="&#x160;" horiz-adv-x="1304" 
d="M903 1860l-178 -242h-156l-178 242h152l100 -97h8l101 97h151zM426 1122q0 -104 121 -153q63 -24 153 -43q37 -8 79.5 -18t45.5 -11q102 -25 171 -57t121 -82.5t77.5 -125t28.5 -177.5q0 -149 -81.5 -262.5t-211 -170.5t-283.5 -57q-118 0 -220 33.5t-179 97.5
t-121.5 164t-44.5 225h297q-10 -93 67.5 -177t200.5 -83q48 -5 110.5 22t111 84t46.5 124q0 83 -51 137q-30 30 -80 53q-59 24 -213 57q-155 34 -223 62t-115 67q-52 42 -83 116.5t-31 174.5q0 126 74 230.5t194.5 161.5t259.5 57q143 0 261.5 -58t189 -169t67.5 -252h-297
q1 55 -20.5 99.5t-55.5 70.5t-72.5 38.5t-72.5 10.5q-41 4 -92.5 -18.5t-91 -69t-37.5 -101.5z" />
    <glyph glyph-name="scaron" unicode="&#x161;" horiz-adv-x="1155" 
d="M829 1614l-178 -242h-155l-179 242h152l100 -96h9l100 96h151zM82 373h299q0 -81 53.5 -128.5t140.5 -47.5q84 0 139.5 43.5t55.5 107.5q0 80 -82 119q-42 19 -211 47q-162 24 -229 66q-85 54 -112 120t-27 148q0 52 14.5 102.5t49.5 101.5t87 89t133.5 62t181.5 24
q219 0 341 -104t122 -298h-299q0 77 -44.5 121.5t-119.5 44.5q-71 0 -117 -40t-46 -97q0 -72 82 -106q44 -20 165 -41q110 -19 172 -37q54 -18 91.5 -39t73.5 -56.5t55.5 -92.5t21.5 -134q0 -59 -17 -113.5t-55.5 -104.5t-95 -87.5t-141.5 -59.5t-189 -22q-252 9 -367 109
t-126 303z" />
    <glyph glyph-name="Tcaron" unicode="&#x164;" horiz-adv-x="1126" 
d="M819 1860l-178 -242h-156l-178 242h152l100 -97h8l101 97h151zM1096 1536v-266h-387v-1270h-291v1270h-387v266h1065z" />
    <glyph glyph-name="tcaron" unicode="&#x165;" horiz-adv-x="952" 
d="M664 1219l86 378h182l-121 -378h-147zM158 0v952h-107v234h107v268h291v-268h161v-234h-161v-952h-291z" />
    <glyph glyph-name="Umacron" unicode="&#x16a;" horiz-adv-x="1421" 
d="M518 1802h383v-160h-383v160zM1008 1536h290v-993q0 -237 -137 -396q-76 -90 -196 -136t-254 -46q-261 0 -424.5 155.5t-163.5 422.5v993h291v-1010q0 -123 86 -209t211 -86t211 86t86 209v1010z" />
    <glyph glyph-name="umacron" unicode="&#x16b;" horiz-adv-x="1347" 
d="M481 1536h385v-160h-385v160zM934 479v707h291v-715q0 -229 -156 -367.5t-395 -138.5t-395 138.5t-156 367.5v715h291v-707q-3 -77 43.5 -138t106.5 -88t110 -22q50 -5 110 22t106.5 88t43.5 138z" />
    <glyph glyph-name="Uring" unicode="&#x16e;" horiz-adv-x="1421" 
d="M1008 1536h290v-993q0 -237 -137 -396q-76 -90 -196 -136t-254 -46q-261 0 -424.5 155.5t-163.5 422.5v993h291v-1010q0 -123 86 -209t211 -86t211 86t86 209v1010zM793 1794q0 32 -24 55t-56 23t-56 -23t-24 -55q0 -35 23.5 -58.5t56.5 -23.5t56.5 23.5t23.5 58.5z
M922 1794q7 -63 -56.5 -135.5t-152.5 -69.5q-39 -4 -87.5 19.5t-86 74.5t-35.5 111q-4 38 20.5 85t76.5 82.5t112 33.5q60 2 112 -33.5t76.5 -82.5t20.5 -85z" />
    <glyph glyph-name="uring" unicode="&#x16f;" horiz-adv-x="1347" 
d="M934 479v707h291v-715q0 -229 -156 -367.5t-395 -138.5t-395 138.5t-156 367.5v715h291v-707q-3 -77 43.5 -138t106.5 -88t110 -22q50 -5 110 22t106.5 88t43.5 138zM754 1475q0 32 -23.5 54.5t-56.5 22.5t-56.5 -22.5t-23.5 -54.5q0 -35 23.5 -58.5t56.5 -23.5
t56.5 23.5t23.5 58.5zM883 1475q7 -63 -56.5 -135.5t-152.5 -69.5q-39 -4 -87.5 19.5t-86 74.5t-35.5 111q-4 38 20.5 85t76.5 82t112 33q60 2 112 -33t76.5 -82t20.5 -85z" />
    <glyph glyph-name="Uhungarumlaut" unicode="&#x170;" horiz-adv-x="1421" 
d="M467 1622l149 242h172l-149 -242h-172zM727 1622l150 242h172l-150 -242h-172zM1008 1536h290v-993q0 -237 -137 -396q-76 -90 -196 -136t-254 -46q-261 0 -424.5 155.5t-163.5 422.5v993h291v-1010q0 -123 86 -209t211 -86t211 86t86 209v1010z" />
    <glyph glyph-name="uhungarumlaut" unicode="&#x171;" horiz-adv-x="1347" 
d="M416 1294l149 242h172l-149 -242h-172zM676 1294l149 242h172l-149 -242h-172zM934 479v707h291v-715q0 -229 -156 -367.5t-395 -138.5t-395 138.5t-156 367.5v715h291v-707q-3 -77 43.5 -138t106.5 -88t110 -22q50 -5 110 22t106.5 88t43.5 138z" />
    <glyph glyph-name="Uogonek" unicode="&#x172;" horiz-adv-x="1421" 
d="M1008 1536h290v-993q0 -206 -100.5 -348t-275.5 -199q-31 -13 -53.5 -45.5t-22.5 -69.5q0 -49 35 -84t84 -35q41 0 82 35v-129q-65 -53 -142 -53q-69 -8 -145.5 58t-75.5 163q0 76 41 129h-14q-261 0 -424.5 155.5t-163.5 422.5v993h291v-1010q0 -123 86 -209t211 -86
t211 86t86 209v1010z" />
    <glyph glyph-name="uogonek" unicode="&#x173;" horiz-adv-x="1347" 
d="M737 -156q0 62 35 127q-46 -6 -98 -6q-239 0 -395 138.5t-156 367.5v715h291v-707q-3 -77 43.5 -138t106.5 -88t110 -22q50 -5 110 22t106.5 88t43.5 138v707h291v-715q0 -145 -65.5 -258.5t-182.5 -175.5q-34 -19 -56 -63.5t-22 -84.5q0 -50 36 -88.5t83 -38.5
q41 0 82 35v-129q-65 -53 -142 -53q-69 -8 -145.5 60.5t-75.5 168.5z" />
    <glyph glyph-name="Ydieresis" unicode="&#x178;" horiz-adv-x="1284" 
d="M573 1731q0 -47 -35.5 -83t-82.5 -36q-49 0 -84 35t-35 84t34.5 83.5t84.5 34.5q48 0 83 -34.5t35 -83.5zM950 1731q0 -47 -36 -83t-83 -36q-49 0 -83.5 34.5t-34.5 84.5q0 49 34.5 83.5t83.5 34.5q48 0 83.5 -34.5t35.5 -83.5zM653 940l256 596h344l-462 -891v-645h-291
v645l-469 891h344l262 -596h16z" />
    <glyph glyph-name="Zacute" unicode="&#x179;" horiz-adv-x="1165" 
d="M389 1747l387 133v-186l-387 -95v148zM408 266h696v-266h-1043v266l701 1000v4h-701v266h1043v-266l-696 -1000v-4z" />
    <glyph glyph-name="zacute" unicode="&#x17a;" horiz-adv-x="1118" 
d="M367 1462l387 133v-186l-387 -94v147zM1040 1186v-258l-573 -662l4 -8h569v-258h-962v258l575 662l-4 8h-571v258h962z" />
    <glyph glyph-name="Zdotaccent" unicode="&#x17b;" horiz-adv-x="1165" 
d="M582 1593q-63 0 -110.5 47.5t-47.5 110.5t47.5 110.5t110.5 47.5t110 -47.5t47 -110.5t-47 -110.5t-110 -47.5zM408 266h696v-266h-1043v266l701 1000v4h-701v266h1043v-266l-696 -1000v-4z" />
    <glyph glyph-name="zdotaccent" unicode="&#x17c;" horiz-adv-x="1118" 
d="M559 1335q-63 0 -110.5 47.5t-47.5 110.5t47.5 110.5t110.5 47.5t110.5 -47.5t47.5 -110.5t-47.5 -110.5t-110.5 -47.5zM1040 1186v-258l-573 -662l4 -8h569v-258h-962v258l575 662l-4 8h-571v258h962z" />
    <glyph glyph-name="Zcaron" unicode="&#x17d;" horiz-adv-x="1165" 
d="M838 1860l-179 -242h-155l-178 242h151l101 -97h8l100 97h152zM408 266h696v-266h-1043v266l701 1000v4h-701v266h1043v-266l-696 -1000v-4z" />
    <glyph glyph-name="zcaron" unicode="&#x17e;" horiz-adv-x="1118" 
d="M815 1614l-178 -242h-156l-178 242h152l100 -96h8l101 96h151zM1040 1186v-258l-573 -662l4 -8h569v-258h-962v258l575 662l-4 8h-571v258h962z" />
    <glyph glyph-name="florin" unicode="&#x192;" horiz-adv-x="907" 
d="M236 -102l110 1063h-106l24 225h107l12 125q4 81 54.5 149.5t123 104.5t144.5 32h161l-24 -225h-82q-32 0 -57.5 -24.5t-30.5 -57.5l-10 -104h161l-24 -225h-162l-113 -1084q-6 -122 -107.5 -207.5t-213.5 -79.5h-162l25 226h81q32 0 58 24.5t31 57.5z" />
    <glyph glyph-name="circumflex" unicode="&#x2c6;" horiz-adv-x="921" 
d="M205 1372l178 242h156l178 -242h-152l-100 96h-8l-101 -96h-151z" />
    <glyph glyph-name="caron" unicode="&#x2c7;" horiz-adv-x="921" 
d="M717 1614l-178 -242h-156l-178 242h151l101 -96h8l100 96h152z" />
    <glyph glyph-name="breve" unicode="&#x2d8;" horiz-adv-x="856" 
d="M502 1573h149q-17 -86 -79 -140.5t-142 -54.5q-82 0 -144 54.5t-81 140.5h153q4 -26 26 -45t46 -19t46 19t26 45z" />
    <glyph glyph-name="dotaccent" unicode="&#x2d9;" horiz-adv-x="561" 
d="M281 1335q-63 0 -110.5 47.5t-47.5 110.5t47.5 110.5t110.5 47.5t110 -47.5t47 -110.5t-47 -110.5t-110 -47.5z" />
    <glyph glyph-name="ring" unicode="&#x2da;" horiz-adv-x="827" 
d="M494 1475q0 32 -23.5 54.5t-56.5 22.5t-56.5 -22.5t-23.5 -54.5q0 -35 23.5 -58.5t56.5 -23.5t56.5 23.5t23.5 58.5zM623 1475q7 -63 -56.5 -135.5t-152.5 -69.5q-39 -4 -87.5 19.5t-86 74.5t-35.5 111q-4 38 20.5 85t76.5 82t112 33q60 2 112 -33t76.5 -82t20.5 -85z
" />
    <glyph glyph-name="ogonek" unicode="&#x2db;" horiz-adv-x="608" 
d="M285 -119q0 -50 34.5 -84.5t83.5 -34.5q41 0 82 35v-129q-65 -53 -141 -53q-69 -8 -145.5 58t-75.5 163q-4 31 11 69.5t43 73t73 57t94 21.5q26 0 59 -8v-49q-49 0 -83.5 -34.5t-34.5 -84.5z" />
    <glyph glyph-name="tilde" unicode="&#x2dc;" horiz-adv-x="962" 
d="M385 1561q29 0 57.5 -15t73.5 -53q45 -39 64 -39q20 0 34.5 17t14.5 42h129q0 -79 -51.5 -131.5t-126.5 -52.5q-29 0 -57.5 15.5t-73.5 54.5q-46 37 -64 37q-20 0 -35.5 -17.5t-15.5 -42.5h-129q0 79 52 132t128 53z" />
    <glyph glyph-name="hungarumlaut" unicode="&#x2dd;" horiz-adv-x="991" 
d="M205 1294l149 242h172l-149 -242h-172zM465 1294l149 242h172l-149 -242h-172z" />
    <glyph glyph-name="pi" unicode="&#x3c0;" horiz-adv-x="1310" 
d="M1249 1186v-266h-192v-680q0 -28 14.5 -46t42.5 -18q29 0 53 8v-219l-63 -6q-171 0 -248.5 68t-77.5 229v664h-246v-920h-278v920h-193v266h1188z" />
    <glyph glyph-name="endash" unicode="&#x2013;" horiz-adv-x="1284" 
d="M92 496v192h1100v-192h-1100z" />
    <glyph glyph-name="emdash" unicode="&#x2014;" horiz-adv-x="1884" 
d="M92 498v192h1700v-192h-1700z" />
    <glyph glyph-name="quoteleft" unicode="&#x2018;" horiz-adv-x="479" 
d="M287 1597h131l-123 -245q54 -12 88.5 -55t34.5 -99q0 -66 -46 -112t-112 -46t-112 46t-46 112q0 33 23 84z" />
    <glyph glyph-name="quoteright" unicode="&#x2019;" horiz-adv-x="479" 
d="M193 1040h-132l123 246q-54 12 -88.5 55t-34.5 99q0 66 46 111.5t112 45.5t112 -45.5t46 -111.5q0 -33 -23 -84z" />
    <glyph glyph-name="quotesinglbase" unicode="&#x201a;" horiz-adv-x="479" 
d="M233 -258h-131l123 246q-54 12 -88.5 55t-34.5 98q0 66 46 112t112 46t112 -46t46 -112q0 -33 -23 -84z" />
    <glyph glyph-name="quotedblleft" unicode="&#x201c;" horiz-adv-x="856" 
d="M664 1597h131l-123 -245q54 -12 88.5 -55t34.5 -99q0 -66 -46 -112t-112 -46t-112 46t-46 112q0 33 23 84zM287 1597h131l-123 -245q54 -12 88.5 -55t34.5 -99q0 -66 -46 -112t-112 -46t-112 46t-46 112q0 33 23 84z" />
    <glyph glyph-name="quotedblright" unicode="&#x201d;" horiz-adv-x="856" 
d="M193 1040h-132l123 246q-54 12 -88.5 55t-34.5 99q0 66 46 111.5t112 45.5t112 -45.5t46 -111.5q0 -33 -23 -84zM569 1040h-131l123 246q-54 12 -88.5 55t-34.5 99q0 66 46 111.5t112 45.5t112 -45.5t46 -111.5q0 -33 -23 -84z" />
    <glyph glyph-name="quotedblbase" unicode="&#x201e;" horiz-adv-x="856" 
d="M193 -258h-132l123 246q-54 12 -88.5 55t-34.5 98q0 66 46 112t112 46t112 -46t46 -112q0 -33 -23 -84zM569 -258h-131l123 246q-54 12 -88.5 55t-34.5 98q0 66 46 112t112 46t112 -46t46 -112q0 -33 -23 -84z" />
    <glyph glyph-name="dagger" unicode="&#x2020;" horiz-adv-x="1105" 
d="M123 1059v127h360v350h148v-350h352v-127h-352v-1235h-148v1235h-360z" />
    <glyph glyph-name="daggerdbl" unicode="&#x2021;" horiz-adv-x="1105" 
d="M483 -176v350h-360v127h360v758h-360v127h360v350h148v-350h352v-127h-352v-758h352v-127h-352v-350h-148z" />
    <glyph glyph-name="bullet" unicode="&#x2022;" horiz-adv-x="899" 
d="M451 350q-100 0 -172 72q-74 71 -74 172t74 172q72 72 172 72t172 -72q71 -71 71 -172t-71 -172q-72 -72 -172 -72z" />
    <glyph glyph-name="ellipsis" unicode="&#x2026;" horiz-adv-x="2037" 
d="M1653 141q0 64 46 111t111 47q63 0 109.5 -47.5t46.5 -110.5t-46.5 -110t-109.5 -47q-65 0 -111 46.5t-46 110.5zM862 141q0 63 47.5 110.5t110.5 47.5t110.5 -47.5t47.5 -110.5t-47.5 -110t-110.5 -47t-110.5 47t-47.5 110zM72 141q0 63 47 110.5t110 47.5t110.5 -47.5
t47.5 -110.5t-47.5 -110t-110.5 -47t-110 47t-47 110z" />
    <glyph glyph-name="perthousand" unicode="&#x2030;" horiz-adv-x="2727" 
d="M877 1180q0 -160 -118.5 -277t-279.5 -117q-137 0 -256 97q-59 48 -100 126.5t-41 170.5q0 138 100 256q54 64 135 99.5t162 35.5q161 0 279.5 -116.5t118.5 -274.5zM657 1180q7 56 -46 117.5t-132 60.5q-70 0 -124 -53.5t-54 -124.5q-7 -55 47.5 -118.5t130.5 -62.5
q73 0 125.5 53.5t52.5 127.5zM1782 360q0 -160 -118.5 -276.5t-279.5 -116.5q-138 0 -256 96q-59 48 -100 126.5t-41 170.5q0 138 100 256q54 64 135 100t162 36q161 0 279.5 -117t118.5 -275zM1563 360q7 56 -46.5 118t-132.5 61q-70 0 -124 -54t-54 -125q-7 -55 47.5 -118
t130.5 -62q73 0 126 53t53 127zM2646 360q0 -160 -118 -276.5t-279 -116.5q-138 0 -256 96q-59 48 -100.5 127t-41.5 170q0 136 101 256q54 64 135 100t162 36q161 0 279 -117t118 -275zM2427 360q7 56 -46 118t-132 61q-70 0 -124 -54t-54 -125q-7 -55 47.5 -118t130.5 -62
q73 0 125.5 53t52.5 127zM1323 1536h248l-1032 -1536h-248z" />
    <glyph glyph-name="guilsinglleft" unicode="&#x2039;" horiz-adv-x="598" 
d="M475 453v-295l-352 342v188l352 340v-295l-153 -133v-12z" />
    <glyph glyph-name="guilsinglright" unicode="&#x203a;" horiz-adv-x="598" 
d="M475 688v-188l-352 -342v295l153 135v12l-153 133v295z" />
    <glyph glyph-name="fraction" unicode="&#x2044;" horiz-adv-x="1013" 
d="M250 0h-127l639 1536h129z" />
    <glyph glyph-name="Euro" unicode="&#x20ac;" horiz-adv-x="1384" 
d="M1012 498h291q0 -204 -136 -357q-75 -85 -186.5 -130.5t-226.5 -45.5q-150 0 -275.5 67.5t-200.5 190.5t-75 275v43h-131v176h131v102h-131v176h131v41q0 152 75 275.5t200.5 191.5t275.5 68q147 0 273 -69.5t201 -194.5t75 -277h-291q5 51 -24.5 115.5t-93 113.5
t-140.5 46q-51 5 -111.5 -26t-105.5 -95.5t-43 -141.5v-47h393l-66 -176h-327v-102h297l-62 -176h-235v-49q-5 -36 12.5 -81.5t50 -86.5t85.5 -68t112 -25q77 -2 140.5 46t93 110t24.5 111z" />
    <glyph glyph-name="uni2113" unicode="&#x2113;" horiz-adv-x="899" 
d="M764 340l94 -100q-61 -137 -151.5 -206t-196.5 -69q-103 -4 -178 46.5t-110 128.5t-36 171v25l-90 -78l-55 135q118 115 145 146v532q0 224 86 362t236 138q109 0 171 -92t62 -269q5 -132 -76.5 -319.5t-240.5 -374.5v-119q1 -109 39 -171t102 -62q45 0 96.5 42.5
t102.5 133.5zM424 1036v-276q82 116 131 244t49 227q0 79 -19.5 115t-66.5 36q-94 0 -94 -346z" />
    <glyph glyph-name="trademark" unicode="&#x2122;" horiz-adv-x="743" 
d="M604 1536h58v-307h-58v168h-2l-65 -168h-58l-67 168h-2v-168h-58v307h58l96 -231h4zM82 1481v55h240v-55h-91v-252h-57v252h-92z" />
    <glyph glyph-name="Omega" unicode="&#x2126;" horiz-adv-x="1818" 
d="M1737 809q0 -267 -244 -535l6 -8h182v-266h-579v266q144 59 239 197q93 140 93 305q0 140 -71 261t-192 192t-262 71q-140 0 -261 -71t-192 -192t-71 -261q0 -168 94 -305q91 -138 240 -197v-266h-582v266h185l6 8q-246 264 -246 535q0 212 104 386.5t295 274.5
q192 101 428 101q126 3 248.5 -30t227.5 -100t185.5 -158.5t125 -214.5t41.5 -259z" />
    <glyph glyph-name="estimated" unicode="&#x212e;" horiz-adv-x="1589" 
d="M1528 639v-18h-1186q-10 0 -10 -9v-358q0 -21 14 -41q89 -92 206.5 -143.5t244.5 -51.5q135 0 259.5 58.5t211.5 159.5h106q-101 -118 -254 -186t-325 -68q-148 0 -283.5 52.5t-234.5 140.5t-157.5 210t-58.5 254q0 133 59 254.5t157.5 210t234 141.5t283.5 53
q197 0 366 -89t268 -241t99 -329zM1260 668v360q0 16 -19 45q-89 86 -206 135t-238 49q-127 0 -244 -50.5t-205 -141.5q-16 -16 -16 -45v-352q3 -13 10 -13h907q8 0 11 13z" />
    <glyph glyph-name="partialdiff" unicode="&#x2202;" horiz-adv-x="1425" 
d="M1343 694q0 -209 -80.5 -375.5t-224.5 -260t-325 -93.5q-175 0 -318 75t-228 215.5t-85 319.5q0 145 71 269t192.5 196t264.5 72q137 0 249 -49.5t177 -144.5l6 4q0 186 -115.5 291.5t-301.5 105.5q-71 0 -158.5 -27.5t-147.5 -70.5v270q64 33 156 55q108 23 170 23
q336 0 517 -213.5t181 -661.5zM1040 571q0 39 -11 81.5t-36.5 87t-62 79.5t-93 57.5t-124.5 22.5q-136 0 -232 -96t-96 -232q0 -135 96 -231t232 -96q39 0 81.5 11.5t86.5 37t79 62.5t57.5 93t22.5 123z" />
    <glyph glyph-name="increment" unicode="&#x2206;" horiz-adv-x="1212" 
d="M1171 0h-1130l461 1536h209zM600 1163l-276 -954h565l-281 954h-8z" />
    <glyph glyph-name="product" unicode="&#x220f;" horiz-adv-x="1310" 
d="M1249 1536v-266h-192v-1270h-279v1270h-246v-1270h-278v1270h-193v266h1188z" />
    <glyph glyph-name="summation" unicode="&#x2211;" horiz-adv-x="1138" 
d="M440 266h617v-266h-1006v266l490 502l-490 502v266h1006v-266h-617l-2 -8l498 -494l-498 -498z" />
    <glyph glyph-name="minus" unicode="&#x2212;" horiz-adv-x="1390" 
d="M102 494v196h1186v-196h-1186z" />
    <glyph glyph-name="radical" unicode="&#x221a;" horiz-adv-x="1069" 
d="M223 631h207l137 -350h8l205 1255h228l-271 -1536h-270l-135 358h-8l-48 -147h-215z" />
    <glyph glyph-name="infinity" unicode="&#x221e;" horiz-adv-x="1470" 
d="M735 711q127 196 293 196q127 6 237 -93.5t103 -219.5q7 -123 -102 -222t-238 -93q-167 0 -293 190q-126 -190 -293 -190q-129 -6 -238 93t-102 222q-7 120 103 219.5t237 93.5q166 0 293 -196zM1210 592q3 81 -60.5 136t-121.5 48q-56 0 -108.5 -43t-110.5 -143
q48 -83 104.5 -130.5t114.5 -47.5q75 0 128.5 52.5t53.5 127.5zM662 590q-106 186 -220 186q-58 7 -121.5 -48t-60.5 -136q0 -75 53.5 -127.5t128.5 -52.5q58 0 115.5 48t104.5 130z" />
    <glyph glyph-name="integral" unicode="&#x222b;" horiz-adv-x="778" 
d="M244 -104v1415q-2 59 17.5 109t51.5 83t72 55.5t78.5 31.5t71.5 7h161v-225h-82q-32 0 -55.5 -24.5t-23.5 -57.5v-1415q2 -73 -28 -132t-76 -92t-95.5 -49.5t-91.5 -13.5h-162v226h82q32 0 56 25t24 57z" />
    <glyph glyph-name="approxequal" unicode="&#x2248;" horiz-adv-x="1390" 
d="M102 322v196q86 34 189.5 55.5t185.5 20.5q142 -3 219 -76q71 -71 219 -76q79 -3 182.5 19t190.5 57v-196q-163 -67 -323 -76q-181 -10 -267 76q-76 72 -219 75q-81 1 -187 -20.5t-190 -54.5zM102 668v198q89 35 192 58t183 20q142 -5 219 -78q84 -84 256 -75
q174 9 336 75v-198q-163 -67 -323 -76q-181 -10 -267 76q-74 74 -219 77q-83 2 -189 -20t-188 -57z" />
    <glyph glyph-name="notequal" unicode="&#x2260;" horiz-adv-x="1390" 
d="M1288 864v-192h-414l-165 -156h579v-192h-784l-185 -172h-196l184 172h-205v192h410l168 156h-578v192h785l186 174h195l-187 -174h207z" />
    <glyph glyph-name="lessequal" unicode="&#x2264;" horiz-adv-x="864" 
d="M82 0v193h700v-193h-700zM82 662v210l700 314v-228l-458 -186v-8l458 -186v-228z" />
    <glyph glyph-name="greaterequal" unicode="&#x2265;" horiz-adv-x="864" 
d="M82 0v193h700v-193h-700zM82 958v228l700 -314v-210l-700 -312v228l459 186v8z" />
    <glyph glyph-name="lozenge" unicode="&#x25ca;" horiz-adv-x="1140" 
d="M676 1536l383 -768l-383 -768h-209l-385 768l385 768h209zM567 1298l-252 -530l252 -530h8l250 530l-250 530h-8z" />
    <glyph glyph-name="uniF8FF" unicode="&#xf8ff;" horiz-adv-x="1024" 
 />
    <glyph glyph-name="uniFB00" unicode="&#xfb00;" horiz-adv-x="1337" 
d="M1085 1292v-106h162v-234h-162v-952h-290v952h-349v-952h-290v952h-107v234h107v143q-2 69 28.5 124t78.5 86t100.5 45.5t99.5 12.5h145v-233h-90q-26 0 -49 -23t-23 -49v-106h349v147q-2 69 28.5 123.5t78.5 84.5t100.5 44t99.5 12h145v-233h-90q-26 0 -49 -23t-23 -49z
" />
    <glyph glyph-name="uniFB01" unicode="&#xfb01;" horiz-adv-x="1228" 
d="M446 1292v-106h660v-1186h-291v952h-369v-952h-290v952h-107v234h107v143q-2 69 28.5 124t78.5 86t100.5 45.5t99.5 12.5h145v-233h-90q-26 0 -49 -23t-23 -49zM784 1458q-7 53 47 115t130 59q33 4 74 -16.5t72.5 -63.5t29.5 -94q0 -72 -52 -123t-124 -51t-124.5 51
t-52.5 123z" />
    <glyph glyph-name="uniFB02" unicode="&#xfb02;" horiz-adv-x="1253" 
d="M463 1597h643v-1292q0 -26 23 -49t49 -23h39v-233h-107q-135 -4 -220 78t-75 178v1108h-297q-26 0 -49 -23t-23 -49v-106h162v-234h-162v-952h-290v952h-107v234h107v143q-2 69 28.5 124t78.5 86t100.5 45.5t99.5 12.5z" />
    <glyph glyph-name="uniFB03" unicode="&#xfb03;" horiz-adv-x="1867" 
d="M1085 1292v-106h660v-1186h-291v952h-369v-952h-290v952h-349v-952h-290v952h-107v234h107v143q-2 69 28.5 124t78.5 86t100.5 45.5t99.5 12.5h145v-233h-90q-26 0 -49 -23t-23 -49v-106h349v147q-2 69 28.5 123.5t78.5 84.5t100.5 44t99.5 12h145v-233h-90
q-26 0 -49 -23t-23 -49zM1423 1458q-7 53 46.5 115t129.5 59q54 7 117 -46t60 -128q0 -72 -52.5 -123t-124.5 -51t-124 51t-52 123z" />
    <glyph glyph-name="uniFB04" unicode="&#xfb04;" horiz-adv-x="1892" 
d="M1102 1597h643v-1292q0 -26 23 -49t49 -23h38v-233h-106q-135 -4 -220 78t-75 178v1108h-297q-26 0 -49 -23t-23 -49v-106h162v-234h-162v-952h-290v952h-349v-952h-290v952h-107v234h107v143q-2 69 28.5 124t78.5 86t100.5 45.5t99.5 12.5h145v-233h-90q-26 0 -49 -23
t-23 -49v-106h349v147q-2 69 28.5 123.5t78.5 84.5t100.5 44t99.5 12z" />
    <glyph glyph-name="uniFB05" unicode="&#xfb05;" horiz-adv-x="1275" 
d="M772 0v952h-323v-952h-291v952h-107v234h107v268h291v-268h323v268h291v-268h162v-234h-162v-952h-291z" />
    <glyph glyph-name="uniFB06" unicode="&#xfb06;" horiz-adv-x="1298" 
d="M795 0v952h-349v-952h-290v952h-107v234h107v143q-2 69 28.5 124t78.5 86t100.5 45.5t99.5 12.5h145v-233h-90q-26 0 -49 -23t-23 -49v-106h349v268h290v-268h162v-234h-162v-952h-290z" />
    <glyph glyph-name="uniFB07" unicode="&#xfb07;" horiz-adv-x="1419" 
d="M1085 698q7 -121 -94 -221t-223 -94h-180v-211h-154v842h334q130 0 225 -92q92 -92 92 -224zM928 698q0 68 -47 116t-113 48h-180v-327h180q66 0 113 48t47 115zM1260 594q0 149 -73.5 277t-200.5 203t-277 75q-149 0 -275.5 -75t-200 -203t-73.5 -277
q0 -148 73.5 -276.5t200 -204.5t275.5 -76t276.5 76t201 204.5t73.5 276.5zM1337 594q0 -169 -84.5 -314t-229.5 -230t-314 -85q-168 0 -312.5 85t-229.5 230t-85 314q0 168 85 312.5t229.5 229.5t312.5 85q169 0 314 -85t229.5 -229.5t84.5 -312.5z" />
    <glyph glyph-name="null" horiz-adv-x="0" 
 />
    </font>
</defs>
</svg>
