<?xml version="1.0" standalone="no"?>
<!DOCTYPE svg PUBLIC "-//W3C//DTD SVG 1.1//EN" "http://www.w3.org/Graphics/SVG/1.1/DTD/svg11.dtd" >
<svg xmlns="http://www.w3.org/2000/svg" xmlns:xlink="http://www.w3.org/1999/xlink" version="1.1">
<metadata>
Created by FontForge 20201107 at Wed Nov 27 21:16:30 2024
 By 
 Copyright (c)2016 Talbot Type. All Rights Reserved
</metadata>
<defs>
<font id="Korto-Light" horiz-adv-x="331" >
  <font-face 
    font-family="Korto Light"
    font-weight="265"
    font-stretch="normal"
    units-per-em="2048"
    panose-1="2 11 3 3 3 6 0 2 0 4"
    ascent="1638"
    descent="-410"
    x-height="1186"
    cap-height="1536"
    bbox="-72 -446 2519 1966.11"
    underline-thickness="102"
    underline-position="-358"
    unicode-range="U+0020-FB06"
  />
<missing-glyph horiz-adv-x="552" 
 />
    <glyph glyph-name=".notdef" horiz-adv-x="552" 
 />
    <glyph glyph-name=".null" horiz-adv-x="0" 
 />
    <glyph glyph-name="nonmarkingreturn" horiz-adv-x="681" 
 />
    <glyph glyph-name="space" unicode=" " horiz-adv-x="552" 
 />
    <glyph glyph-name="exclam" unicode="!" 
d="M209 1536l-10 -1186h-66l-10 1186h86zM94 55q0 26 23 49t49 23t49 -23t23 -49t-23 -48.5t-49 -22.5t-49 22.5t-23 48.5z" />
    <glyph glyph-name="quotedbl" unicode="&#x22;" horiz-adv-x="389" 
d="M168 1536v-379h-66v379h66zM225 1157v379h62v-379h-62z" />
    <glyph glyph-name="numbersign" unicode="#" horiz-adv-x="1269" 
d="M729 645l51 246h-241l-54 -246h244zM1229 891h-361l-51 -246h412v-86h-430l-119 -559h-88l119 559h-244l-119 -559h-86l117 559h-338v86h358l50 246h-408v86h428l117 559h90l-119 -559h242l119 559h90l-121 -559h342v-86z" />
    <glyph glyph-name="dollar" unicode="$" horiz-adv-x="1069" 
d="M215 1171q0 -147 102 -227q57 -46 213 -86q159 -41 211 -61q118 -47 182 -136t64 -249q0 -177 -117 -303q-118 -127 -295 -142v-135h-86v135q-177 15 -292 148q-115 130 -115 327h86q0 -150 88 -264q49 -63 124 -97t152 -34q92 -5 179 47t139 139t47 179
q0 87 -26.5 148.5t-86.5 107.5q-64 48 -211 88q-103 28 -188 53q-36 11 -76 33q-74 39 -116 94q-68 84 -68 235q0 158 104 271q103 112 260 127v121h86v-121q170 -18 265.5 -140t95.5 -288h-86q0 89 -37.5 168t-111.5 129.5t-169 50.5q-54 0 -112.5 -21t-104.5 -67
q-100 -97 -100 -230z" />
    <glyph glyph-name="percent" unicode="%" horiz-adv-x="1697" 
d="M872 1180q4 -73 -29 -147.5t-88.5 -129.5t-130 -88t-147.5 -29q-97 -6 -191.5 50.5t-151.5 151t-52 192.5q-4 73 29.5 146.5t89 128t129.5 87.5t147 29q141 0 258 -96q65 -54 101 -134t36 -161zM1616 358q4 -73 -29 -147.5t-88.5 -129.5t-130 -87.5t-147.5 -28.5
q-97 -6 -191.5 50t-152 150.5t-52.5 192.5q-5 97 52.5 190.5t152 150t191.5 51.5q140 0 258 -97q65 -54 101 -134t36 -161zM1319 1536h90l-1032 -1536h-90zM795 1180q6 63 -29.5 136.5t-113.5 129t-175 53.5q-69 0 -139.5 -34.5t-122.5 -108.5q-55 -79 -55 -176
q0 -130 96 -226t221 -96q38 0 79.5 11t84.5 36.5t77 62t55.5 91.5t21.5 121zM1538 358q5 46 -16 101.5t-60 105t-103 82t-138 31.5q-69 0 -140 -34.5t-123 -108.5q-55 -79 -55 -177q0 -129 96 -225t222 -96q38 0 79.5 11t84.5 36.5t76.5 61.5t55 91t21.5 121z" />
    <glyph glyph-name="ampersand" unicode="&#x26;" horiz-adv-x="1183" 
d="M172 1147q0 -41 11 -85t37.5 -89.5t64 -81.5t96 -59t129.5 -23h338v170h86v-170h168v-82h-168v-340q0 -185 -120 -304.5t-304 -119.5q-186 0 -307 121t-121 303q0 115 67 220.5t173 156.5v4q-106 51 -173 156.5t-67 222.5q0 160 102 283q57 68 144.5 104.5t181.5 36.5
q184 0 304 -121t120 -303h-86q0 140 -96 244q-98 98 -242 98q-146 0 -240 -98q-98 -101 -98 -244zM848 727h-338q-104 -2 -183 -52.5t-117 -126t-38 -161.5q0 -144 98 -242q93 -100 240 -100q145 0 242 100q96 101 96 242v340z" />
    <glyph glyph-name="quotesingle" unicode="'" horiz-adv-x="270" 
d="M168 1536v-379h-66v379h66z" />
    <glyph glyph-name="parenleft" unicode="(" horiz-adv-x="571" 
d="M254 592q0 -275 65.5 -529.5t190.5 -447.5h-80q-122 196 -194 463t-72 514q0 249 72 516q71 265 192 463h82q-125 -193 -190.5 -448t-65.5 -531z" />
    <glyph glyph-name="parenright" unicode=")" horiz-adv-x="571" 
d="M317 592q0 276 -65.5 531t-190.5 448h82q126 -207 195 -463q70 -259 70 -516q0 -255 -70 -514t-197 -463h-80q125 193 190.5 447.5t65.5 529.5z" />
    <glyph glyph-name="asterisk" unicode="*" horiz-adv-x="765" 
d="M354 1423l-14 174h86l-10 -174l143 99l43 -76l-153 -76l153 -76l-43 -75l-143 98l10 -174h-86l12 174l-145 -98l-43 75l160 76l-160 76l43 76z" />
    <glyph glyph-name="plus" unicode="+" horiz-adv-x="1392" 
d="M102 553v82h551v551h86v-551h551v-82h-551v-553h-86v553h-551z" />
    <glyph glyph-name="comma" unicode="," horiz-adv-x="389" 
d="M131 -176h-59l55 160q-23 5 -39 23.5t-16 43.5q0 30 22 50t49 20q28 0 50 -20t22 -50q0 -13 -12 -43z" />
    <glyph glyph-name="hyphen" unicode="-" horiz-adv-x="950" 
d="M143 553v82h664v-82h-664z" />
    <glyph glyph-name="period" unicode="." horiz-adv-x="389" 
d="M72 55q0 26 22.5 49t48.5 23t49 -23t23 -49t-23 -48.5t-49 -22.5t-48.5 22.5t-22.5 48.5z" />
    <glyph glyph-name="slash" unicode="/" horiz-adv-x="985" 
d="M223 0h-100l639 1536h100z" />
    <glyph glyph-name="zero" unicode="0" horiz-adv-x="1220" 
d="M1114 1069v-602q0 -136 -68 -251.5t-184 -183t-252 -67.5t-252 67.5t-184 183t-68 251.5v602q0 136 68 251.5t184 183t252 67.5t252 -67.5t184 -183t68 -251.5zM1028 465v606q5 105 -54.5 204.5t-159 159t-204.5 54.5q-106 5 -205.5 -54.5t-158.5 -159t-53 -204.5v-606
q-6 -106 53 -206t158.5 -159t205.5 -53q79 -4 157.5 30.5t136.5 92.5t93 137t31 158z" />
    <glyph glyph-name="one" unicode="1" horiz-adv-x="505" 
d="M297 0v1454h-215v82h301v-1536h-86z" />
    <glyph glyph-name="two" unicode="2" horiz-adv-x="1167" 
d="M899 674l-629 -592h766v-82h-889v82l697 657q151 145 151 336q0 182 -114 299q-118 115 -299 115q-182 0 -297 -115q-117 -117 -117 -299v-67h-86v67q0 215 142 355.5t358 140.5q217 0 368 -148q61 -60 98 -152.5t37 -195.5q0 -111 -50 -218t-136 -183z" />
    <glyph glyph-name="three" unicode="3" horiz-adv-x="1208" 
d="M1036 485q0 162 -106 291q-60 73 -149.5 113.5t-180.5 40.5q-162 0 -295 -121l-16 -14l-56 65l650 594h-701v82h826v-82l-484 -448q35 6 76 6q141 0 262.5 -71.5t192.5 -193t71 -262.5q0 -139 -71 -259t-192.5 -190.5t-262.5 -70.5q-140 0 -260.5 70.5t-191 190.5
t-70.5 259h86q0 -181 128.5 -309.5t307.5 -128.5q160 0 287 109q71 60 110 149t39 180z" />
    <glyph glyph-name="four" unicode="4" horiz-adv-x="1245" 
d="M848 375h-782v82l782 1079h86v-1079h246v-82h-246v-375h-86v375zM848 457v934l-674 -934h674z" />
    <glyph glyph-name="five" unicode="5" horiz-adv-x="1212" 
d="M1040 489q0 160 -106 289q-60 72 -150.5 112t-181.5 40q-218 0 -346 -166l-82 12l133 760h668v-82h-592l-102 -561q137 119 321 119q144 0 265.5 -71t192 -191.5t70.5 -260.5q0 -106 -42.5 -203t-113.5 -167t-168.5 -112t-203.5 -42t-203.5 41.5t-167.5 111.5
t-111.5 167.5t-41.5 203.5h86q0 -182 128.5 -312t309.5 -130t309.5 129.5t128.5 312.5z" />
    <glyph glyph-name="six" unicode="6" horiz-adv-x="1210" 
d="M1040 489q0 181 -127.5 311t-306.5 130q-159 0 -287 -107q-71 -61 -110 -152t-39 -182q-4 -84 32 -167t97 -144.5t143 -98t164 -32.5q160 0 287 109q70 60 108.5 150t38.5 183zM1128 489q0 -106 -42 -203.5t-112 -167.5t-166.5 -111.5t-201.5 -41.5q-106 0 -203.5 41.5
t-167.5 111.5t-111.5 167.5t-41.5 203.5q0 157 92 293l502 754h108l-378 -567q87 43 200 43q91 0 191.5 -38t187.5 -126q64 -65 103.5 -161.5t39.5 -197.5z" />
    <glyph glyph-name="seven" unicode="7" horiz-adv-x="1105" 
d="M342 0l604 1454h-893v82h991v-82l-604 -1454h-98z" />
    <glyph glyph-name="eight" unicode="8" horiz-adv-x="1110" 
d="M172 1192q-5 94 50 185t146.5 145.5t186.5 48.5q95 6 186.5 -48.5t146.5 -145.5t50 -185q0 -101 -55 -191.5t-142 -138.5q45 -15 94.5 -53.5t94 -93t72.5 -129.5t26 -152q0 -126 -64.5 -234t-173.5 -171.5t-235 -63.5t-235 63.5t-173.5 171.5t-64.5 234q-6 67 25 150.5
t101.5 162.5t162.5 115q-89 50 -144 139.5t-55 190.5zM555 47q45 -2 95 11.5t100.5 45t91.5 76.5t67.5 111.5t28.5 142.5q0 133 -94 248q-52 64 -131.5 99.5t-157.5 35.5q-155 0 -269 -114t-114 -269q-2 -45 11.5 -95.5t44.5 -101.5t75 -92.5t110 -68.5t142 -29zM555 899
q125 0 209 84t84 209q0 126 -84 213q-84 84 -209 84t-209 -84q-84 -87 -84 -213q0 -125 84 -209t209 -84z" />
    <glyph glyph-name="nine" unicode="9" horiz-adv-x="1210" 
d="M170 1047q0 -181 127.5 -311t306.5 -130q160 0 287 109q71 59 110 150t39 182q4 84 -32 167t-97 144.5t-143 98t-164 32.5q-160 0 -285 -107q-72 -61 -110.5 -151t-38.5 -184zM82 1047q0 106 42 203.5t112 167.5t166.5 111.5t201.5 41.5q106 0 203.5 -41.5t167.5 -111.5
t111.5 -167.5t41.5 -203.5q0 -157 -92 -293l-501 -754h-109l379 567q-87 -43 -201 -43q-91 0 -191.5 38t-185.5 126q-65 65 -105 161t-40 198z" />
    <glyph glyph-name="colon" unicode=":" horiz-adv-x="389" 
d="M72 55q0 26 22.5 49t48.5 23t49 -23t23 -49t-23 -48.5t-49 -22.5t-48.5 22.5t-22.5 48.5zM72 1130q0 26 22.5 49t48.5 23t49 -23t23 -49t-23 -48.5t-49 -22.5t-48.5 22.5t-22.5 48.5z" />
    <glyph glyph-name="semicolon" unicode=";" horiz-adv-x="389" 
d="M72 1130q0 26 22.5 49t48.5 23t49 -23t23 -49t-23 -48.5t-49 -22.5t-48.5 22.5t-22.5 48.5zM131 -176h-59l55 160q-23 5 -39 23.5t-16 43.5q0 30 22 50t49 20q28 0 50 -20t22 -50q0 -13 -12 -43z" />
    <glyph glyph-name="less" unicode="&#x3c;" horiz-adv-x="864" 
d="M782 104v-104l-700 551v86l700 549v-105l-614 -487z" />
    <glyph glyph-name="equal" unicode="=" horiz-adv-x="1390" 
d="M1288 379h-1186v82h1186v-82zM102 809h1186v-82h-1186v82z" />
    <glyph glyph-name="greater" unicode="&#x3e;" horiz-adv-x="864" 
d="M782 637v-86l-700 -551v104l614 490l-614 487v105z" />
    <glyph glyph-name="question" unicode="?" horiz-adv-x="1212" 
d="M561 362v246h49q175 5 302.5 135t127.5 308q0 182 -127.5 310t-308.5 128q-79 4 -159 -30t-140 -91.5t-97.5 -135.5t-37.5 -157h-88q5 134 77.5 248.5t191 181t253.5 66.5q141 0 262.5 -70.5t192.5 -190.5t71 -259q0 -133 -65.5 -251.5t-177 -192t-240.5 -81.5v-164h-86z
M532 55q0 26 23 49t49 23t49 -23t23 -49t-23 -48.5t-49 -22.5t-49 22.5t-23 48.5z" />
    <glyph glyph-name="at" unicode="@" horiz-adv-x="1794" 
d="M1692 768v-233q2 -68 -37.5 -122t-89.5 -77t-92 -19q-87 0 -151.5 59.5t-64.5 143.5v2q-60 -97 -156 -151t-212 -54q-92 0 -177 35.5t-146.5 96t-98.5 144t-37 175.5t37 175.5t98.5 144t146.5 96t177 35.5q161 0 297 -109q74 -61 114.5 -153.5t40.5 -188.5v-233
q0 -56 38.5 -96t93.5 -40t94 40t39 96v233q1 142 -56.5 276t-154.5 232t-230.5 156.5t-275.5 56.5q-142 2 -275.5 -56.5t-230.5 -156.5t-154.5 -232t-56.5 -276q-2 -144 55.5 -278t155 -231.5t231 -155t275.5 -56.5q148 0 321 84l37 -82q-168 -84 -358 -84
q-128 -2 -251.5 39t-223.5 117t-176 176t-117 222t-39 249q-2 127 39 249t117 222t176 176t223.5 117t251.5 39q158 3 307.5 -62t259 -174.5t174.5 -259t62 -307.5zM1255 768q5 91 -47.5 179t-140 141.5t-178.5 48.5q-92 5 -180 -48.5t-141 -141.5t-48 -179q-5 -92 48 -180
t141 -141t180 -48q91 -5 178.5 48t140 141t47.5 180z" />
    <glyph glyph-name="A" unicode="A" horiz-adv-x="1298" 
d="M1268 0h-92l-138 375h-776l-139 -375h-92l571 1536h98zM1008 457l-357 973l-360 -973h717z" />
    <glyph glyph-name="B" unicode="B" horiz-adv-x="1171" 
d="M1090 412q0 -152 -101 -271q-57 -67 -142.5 -104t-172.5 -37h-551v1536h520q59 4 127 -20t130 -71.5t104 -128.5t43 -179q0 -229 -218 -349q113 -38 187 -139.5t74 -236.5zM999 412q0 39 -11 81.5t-36.5 86.5t-62 79t-92.5 57.5t-123 22.5h-465v-657h465q135 0 231 96
q94 94 94 234zM209 1454v-633h434q72 -1 135.5 31t102.5 80.5t59.5 103.5t15.5 101q0 71 -33.5 141.5t-105.5 122.5q-77 53 -174 53h-434z" />
    <glyph glyph-name="C" unicode="C" horiz-adv-x="1388" 
d="M162 768q-1 -142 56.5 -276t154.5 -232t230.5 -156.5t275.5 -56.5q107 0 214.5 35.5t196.5 97.5v-102q-189 -113 -411 -113q-128 -2 -251.5 39t-223.5 117t-176 176t-117 222t-39 249q-2 127 39 249t117 222t176 176t223.5 117t251.5 39q222 0 411 -113v-104
q-194 135 -411 135q-142 2 -275.5 -56.5t-230.5 -156.5t-154.5 -232t-56.5 -276z" />
    <glyph glyph-name="D" unicode="D" horiz-adv-x="1325" 
d="M123 0v1536h358q153 3 296.5 -59t248.5 -166.5t167 -247.5t60 -295q2 -152 -60 -295t-167 -247.5t-248.5 -166.5t-296.5 -59h-358zM1163 768q0 136 -55.5 262.5t-147.5 219.5t-218 148.5t-261 55.5h-272v-1372h272q98 0 197 30.5t195.5 98.5t162.5 164q127 186 127 393z
" />
    <glyph glyph-name="E" unicode="E" horiz-adv-x="1095" 
d="M209 727v-645h815v-82h-901v1536h901v-82h-815v-645h674v-82h-674z" />
    <glyph glyph-name="F" unicode="F" horiz-adv-x="1030" 
d="M209 727v-727h-86v1536h876v-82h-790v-645h649v-82h-649z" />
    <glyph glyph-name="G" unicode="G" horiz-adv-x="1757" 
d="M1595 727h-716v82h804l3 -41q2 -127 -39.5 -249t-118 -222t-176.5 -176t-223 -117t-250 -39q-128 -2 -251.5 39t-223.5 117t-176 176t-117 222t-39 249q-2 127 39 249t117 222t176 176t223.5 117t251.5 39q253 0 463 -150t296 -383h-96q-79 196 -262.5 323.5
t-400.5 127.5q-142 2 -275.5 -56.5t-230.5 -156.5t-154.5 -232t-56.5 -276q-1 -142 56.5 -276t154.5 -232t230.5 -156.5t275.5 -56.5q183 -3 346 89.5t263 251t107 339.5z" />
    <glyph glyph-name="H" unicode="H" horiz-adv-x="1216" 
d="M1094 1536v-1536h-86v727h-799v-727h-86v1536h86v-727h799v727h86z" />
    <glyph glyph-name="I" unicode="I" 
d="M209 0h-86v1536h86v-1536z" />
    <glyph glyph-name="J" unicode="J" horiz-adv-x="649" 
d="M125 0h-84v82h84q124 -6 222.5 94t92.5 225v1135h86v-1130q0 -51 -12.5 -104.5t-43 -108.5t-75 -97t-114.5 -69t-156 -27z" />
    <glyph glyph-name="K" unicode="K" horiz-adv-x="1110" 
d="M209 1536v-727h256l510 727h104l-538 -768l538 -768h-104l-510 727h-256v-727h-86v1536h86z" />
    <glyph glyph-name="L" unicode="L" horiz-adv-x="1046" 
d="M209 82h807v-82h-893v1536h86v-1454z" />
    <glyph glyph-name="M" unicode="M" horiz-adv-x="1699" 
d="M848 129h4l369 1407h116l332 -1536h-92l-297 1403h-4l-367 -1403h-118l-367 1403h-4l-297 -1403h-92l331 1536h117z" />
    <glyph glyph-name="N" unicode="N" horiz-adv-x="1249" 
d="M1040 1536h86v-1536h-86l-831 1370v-1370h-86v1536h86l831 -1370v1370z" />
    <glyph glyph-name="O" unicode="O" horiz-adv-x="1757" 
d="M1595 768q1 142 -56.5 276t-154.5 232t-230 156.5t-275 56.5q-142 2 -275.5 -56.5t-230.5 -156.5t-154.5 -232t-56.5 -276q-1 -142 56.5 -276t154.5 -232t230.5 -156.5t275.5 -56.5q142 -2 275 56.5t230 156.5t154.5 232t56.5 276zM1686 768q2 -127 -39.5 -249t-118 -222
t-176.5 -176t-223 -117t-250 -39q-128 -2 -251.5 39t-223.5 117t-176 176t-117 222t-39 249q-2 127 39 249t117 222t176 176t223.5 117t251.5 39q127 2 250 -39t223 -117t176.5 -176t118 -222t39.5 -249z" />
    <glyph glyph-name="P" unicode="P" horiz-adv-x="1138" 
d="M1067 1063q0 -122 -64.5 -235t-177.5 -173q-113 -61 -235 -61h-381v-594h-86v1536h467q128 0 238 -63t174.5 -172t64.5 -238zM977 1063q0 162 -113.5 276.5t-273.5 114.5h-381v-778h381q46 0 96 13t102.5 43.5t94 73.5t68 110t26.5 147z" />
    <glyph glyph-name="Q" unicode="Q" horiz-adv-x="1757" 
d="M1686 768q0 -151 -57.5 -293.5t-158.5 -249.5l216 -215l-62 -61l-215 215q-109 -100 -262 -151t-268 -48q-128 -2 -251.5 39t-223.5 117t-176 176t-117 222t-39 249q-2 127 39 249t117 222t176 176t223.5 117t251.5 39q127 2 250 -39t223 -117t176.5 -176t118 -222
t39.5 -249zM1595 768q1 142 -56.5 276t-154.5 232t-230 156.5t-275 56.5q-142 2 -275.5 -56.5t-230.5 -156.5t-154.5 -232t-56.5 -276q-1 -142 56.5 -276t154.5 -232t230.5 -156.5t275.5 -56.5q142 -2 275 56.5t230 157t154.5 232t56.5 275.5z" />
    <glyph glyph-name="R" unicode="R" horiz-adv-x="1167" 
d="M1096 1063q0 -173 -118 -306.5t-288 -158.5l301 -598h-98l-295 594h-389v-594h-86v1536h495q128 0 238 -63t175 -172t65 -238zM1006 1063q0 162 -114 276.5t-274 114.5h-409v-778h409q46 0 96 13t103 43.5t94.5 73.5t68 110t26.5 147z" />
    <glyph glyph-name="S" unicode="S" horiz-adv-x="1150" 
d="M215 1171q0 -168 135 -241q69 -39 232 -78q166 -39 215 -55q110 -41 176 -105q96 -93 96 -280q0 -120 -65.5 -226.5t-182.5 -162.5q-119 -58 -248 -58q-183 0 -323 111q-81 63 -124.5 161t-43.5 205h86q-3 -64 21.5 -131t72 -126t129.5 -98t182 -40q97 0 178.5 36.5
t129.5 90.5q98 108 98 238q0 194 -156 274q-67 34 -239 78q-166 38 -222 61q-117 37 -179.5 134t-57.5 212q0 109 60.5 201.5t163.5 145.5t224 53q86 4 169.5 -29.5t145.5 -91.5t98 -140t32 -169h-86q0 148 -105 250q-107 98 -254 98q-144 0 -251 -94t-107 -224z" />
    <glyph glyph-name="T" unicode="T" horiz-adv-x="1042" 
d="M1012 1536v-82h-447v-1454h-86v1454h-448v82h981z" />
    <glyph glyph-name="U" unicode="U" horiz-adv-x="1415" 
d="M1165 1536h86v-1008q0 -153 -75.5 -282.5t-205 -205t-282.5 -75.5t-283 75.5t-206 205t-76 282.5v1008h86v-1008q0 -173 117 -315q66 -79 164 -122.5t198 -43.5q129 0 239 64.5t174 175t64 241.5v1008z" />
    <glyph glyph-name="V" unicode="V" horiz-adv-x="1198" 
d="M123 1536l477 -1415l475 1415h92l-518 -1536h-98l-520 1536h92z" />
    <glyph glyph-name="W" unicode="W" horiz-adv-x="1699" 
d="M1337 0h-116l-369 1407h-4l-369 -1407h-117l-331 1536h92l297 -1403h4l367 1403h118l367 -1403h4l297 1403h92z" />
    <glyph glyph-name="X" unicode="X" horiz-adv-x="1155" 
d="M135 1536l443 -702l442 702h104l-489 -768l489 -768h-104l-442 702l-443 -702h-104l489 768l-489 768h104z" />
    <glyph glyph-name="Y" unicode="Y" horiz-adv-x="1167" 
d="M133 1536l451 -700l450 700h103l-510 -786v-750h-86v750l-510 786h102z" />
    <glyph glyph-name="Z" unicode="Z" horiz-adv-x="1093" 
d="M49 1454v82h995v-82l-890 -1372h890v-82h-995v82l893 1372h-893z" />
    <glyph glyph-name="bracketleft" unicode="[" horiz-adv-x="522" 
d="M250 1454v-1722h211v-82h-297v1886h297v-82h-211z" />
    <glyph glyph-name="backslash" unicode="\" horiz-adv-x="985" 
d="M123 1536h100l639 -1536h-100z" />
    <glyph glyph-name="bracketright" unicode="]" horiz-adv-x="522" 
d="M61 -350v82h211v1722h-211v82h297v-1886h-297z" />
    <glyph glyph-name="asciicircum" unicode="^" horiz-adv-x="1222" 
d="M123 768l442 768h94l441 -768h-107l-381 668l-385 -668h-104z" />
    <glyph glyph-name="underscore" unicode="_" horiz-adv-x="1062" 
d="M0 -238v52h1186v-52h-1186z" />
    <glyph glyph-name="grave" unicode="`" horiz-adv-x="759" 
d="M184 1497v94l391 -135v-55z" />
    <glyph glyph-name="a" unicode="a" horiz-adv-x="1464" 
d="M1255 594q0 145 -73.5 271t-198.5 200t-270 74q-108 0 -208.5 -44t-173 -117.5t-116 -174t-43.5 -209.5t43.5 -210t116 -174.5t173 -118t208.5 -44.5q145 0 270 74.5t198.5 201t73.5 271.5zM1255 1186h86v-1186h-86v297q-79 -155 -221.5 -243.5t-320.5 -88.5
q-117 -4 -232.5 44t-204.5 132t-143 204t-51 249q0 109 46 230t153 225q79 76 195 124t237 48q178 0 320.5 -88.5t221.5 -243.5v297z" />
    <glyph glyph-name="b" unicode="b" horiz-adv-x="1464" 
d="M209 594q0 -109 43.5 -210t117 -174.5t174 -118t208.5 -44.5q145 0 269.5 74.5t197.5 201t73 271.5t-73 271t-197.5 200t-269.5 74q-195 0 -355 -133q-89 -74 -138.5 -186.5t-49.5 -225.5zM209 0h-86v1597h86v-708q79 155 222 243.5t321 88.5q180 1 335.5 -99.5
t219.5 -228.5q75 -143 75 -299q0 -155 -74 -293.5t-192 -218.5q-176 -117 -364 -117q-178 0 -321 88.5t-222 243.5v-297z" />
    <glyph glyph-name="c" unicode="c" horiz-adv-x="1110" 
d="M713 1221q164 0 315 -84v-105q-149 107 -315 107q-108 0 -208.5 -44t-173 -117.5t-116 -174t-43.5 -209.5t43.5 -210t116 -174.5t173 -118t208.5 -44.5q168 0 315 105v-103q-151 -84 -315 -84q-117 -4 -232.5 44t-204.5 132t-143 204t-51 249q0 109 46 230t153 225
q79 76 195 124t237 48z" />
    <glyph glyph-name="d" unicode="d" horiz-adv-x="1464" 
d="M1255 594q0 145 -73.5 271t-198.5 200t-270 74q-108 0 -208.5 -44t-173 -117.5t-116 -174t-43.5 -209.5t43.5 -210t116 -174.5t173 -118t208.5 -44.5q145 0 270 74.5t198.5 201t73.5 271.5zM1255 1597h86v-1597h-86v297q-79 -155 -221.5 -243.5t-320.5 -88.5
q-117 -4 -232.5 44t-204.5 132t-143 204t-51 249q0 109 46 230t153 225q79 76 195 124t237 48q178 0 320.5 -88.5t221.5 -243.5v708z" />
    <glyph glyph-name="e" unicode="e" horiz-adv-x="1427" 
d="M1346 594l-3 -41h-1169q11 -138 86.5 -254t195.5 -184t257 -68q148 0 277.5 80.5t199.5 210.5h100q-76 -169 -231 -270q-158 -103 -346 -103q-117 -4 -232.5 44t-204.5 132t-143 204t-51 249q0 109 46 230t153 225q79 76 195 124t237 48q127 0 244 -50.5t202 -134.5
t136 -200t51 -242zM713 1139q-102 0 -198 -40.5t-167.5 -108.5t-118.5 -161t-55 -194h1079q-15 183 -145 330q-74 83 -181 128.5t-214 45.5z" />
    <glyph glyph-name="f" unicode="f" horiz-adv-x="473" 
d="M227 1386v-200h195v-82h-195v-1104h-86v1104h-100v82h100v200q-4 43 18.5 91.5t73.5 85t115 34.5h74v-81h-74q-49 0 -85 -39t-36 -91z" />
    <glyph glyph-name="g" unicode="g" horiz-adv-x="1419" 
d="M82 621q0 105 43.5 220t146.5 214q76 74 187 120t229 46q160 0 309 -88q147 -88 207 -218v271h92v-1084q0 -271 -164.5 -409.5t-451.5 -138.5q-194 0 -354 96q-91 54 -149.5 137.5t-72.5 171.5h89q7 -49 42 -103t93.5 -103.5t151 -82.5t200.5 -35q284 0 422 150
q51 54 76.5 138.5t25.5 178.5v224q-59 -126 -209 -215q-152 -93 -307 -93q-121 0 -233 48.5t-193.5 129.5t-130.5 192.5t-49 232.5zM172 621q0 -137 71 -257.5t190.5 -192t254.5 -71.5t254.5 71.5t190.5 192t71 257.5q0 103 -42 198.5t-112 165.5t-165 112t-197 42t-197 -42
t-165 -112t-112 -165.5t-42 -198.5z" />
    <glyph glyph-name="h" unicode="h" horiz-adv-x="1257" 
d="M1135 725v-725h-86v723q0 169 -125 292.5t-295 123.5t-295 -123.5t-125 -292.5v-723h-86v1597h86v-628q60 118 171 185t249 67q135 0 251.5 -66.5t185.5 -181.5t69 -248z" />
    <glyph glyph-name="i" unicode="i" 
d="M123 0v1186h86v-1186h-86zM102 1569q0 25 19.5 44t44.5 19t44 -19t19 -44t-19 -44.5t-44 -19.5t-44.5 19.5t-19.5 44.5z" />
    <glyph glyph-name="j" unicode="j" horiz-adv-x="391" 
d="M180 -201v1387h86v-1387q5 -71 -53 -142.5t-152 -68.5h-77v82h77q50 0 84.5 37.5t34.5 91.5zM160 1569q0 25 19 44t44 19t44.5 -19t19.5 -44t-19.5 -44.5t-44.5 -19.5t-44 19.5t-19 44.5z" />
    <glyph glyph-name="k" unicode="k" horiz-adv-x="989" 
d="M209 1597v-962h264l385 551h105l-414 -592l416 -594h-105l-387 553h-264v-553h-86v1597h86z" />
    <glyph glyph-name="l" unicode="l" horiz-adv-x="378" 
d="M123 1597h86v-1394q0 -49 33 -85t77 -36h31v-82h-31q-42 -4 -87 18.5t-78 72t-31 112.5v1394z" />
    <glyph glyph-name="m" unicode="m" horiz-adv-x="1775" 
d="M1653 838v-838h-86v821q0 131 -92 226q-95 92 -226 92t-223 -92q-94 -94 -94 -226v-821h-86v821q0 132 -94 226q-95 92 -226 92t-223 -92q-94 -94 -94 -226v-821h-86v1186h86v-154q51 88 133 138.5t184 50.5q123 0 224 -64.5t149 -171.5q37 78 100.5 135t128 81t121.5 20
q135 0 260 -93q60 -46 102 -123t42 -167z" />
    <glyph glyph-name="n" unicode="n" horiz-adv-x="1257" 
d="M1135 725v-725h-86v723q0 169 -125 292.5t-295 123.5t-295 -123.5t-125 -292.5v-723h-86v1186h86v-217q60 118 171 185t249 67q135 0 251.5 -66.5t185.5 -181.5t69 -248z" />
    <glyph glyph-name="o" unicode="o" horiz-adv-x="1427" 
d="M1255 594q0 145 -73.5 271t-198.5 200t-270 74q-108 0 -208.5 -44t-173 -117.5t-116 -174t-43.5 -209.5t43.5 -210t116 -174.5t173 -118t208.5 -44.5q145 0 270 74.5t198.5 201t73.5 271.5zM1346 594q0 -169 -86 -314t-232 -230t-315 -85q-117 -4 -232.5 44t-204.5 132
t-143 204t-51 249q0 109 46 230t153 225q79 76 195 124t237 48q127 0 244 -50.5t202 -134.5t136 -200t51 -242z" />
    <glyph glyph-name="p" unicode="p" horiz-adv-x="1464" 
d="M209 592q0 -109 43.5 -209.5t117 -174t174 -117.5t208.5 -44q145 0 269.5 74t197.5 200t73 271t-73 271.5t-197.5 201t-269.5 74.5q-108 0 -208.5 -44.5t-174 -118t-117 -174.5t-43.5 -210zM209 -412h-86v1598h86v-297q79 155 222 243.5t321 88.5q117 4 232.5 -44
t204 -132t142.5 -203.5t51 -249.5q0 -109 -45.5 -229.5t-150.5 -223.5q-79 -77 -196 -125.5t-238 -48.5q-178 0 -321 88.5t-222 243.5v-709z" />
    <glyph glyph-name="q" unicode="q" horiz-adv-x="1464" 
d="M1255 592q0 145 -73.5 271.5t-198.5 201t-270 74.5q-108 0 -208.5 -44.5t-173 -118t-116 -174.5t-43.5 -210t43.5 -209.5t116 -174t173 -117.5t208.5 -44q191 0 354 135q90 74 139 185.5t49 224.5zM1255 1186h86v-1598h-86v709q-79 -155 -221.5 -243.5t-320.5 -88.5
q-181 -1 -336 100t-217 230q-78 140 -78 297q0 155 74.5 293.5t193.5 218.5q173 117 363 117q178 0 320.5 -88.5t221.5 -243.5v297z" />
    <glyph glyph-name="r" unicode="r" horiz-adv-x="589" 
d="M559 1221v-91h-29q-58 4 -118 -25t-105.5 -75.5t-73.5 -107.5t-24 -119v-803h-86v1186h86v-156q44 82 132.5 136.5t188.5 54.5h29z" />
    <glyph glyph-name="s" unicode="s" horiz-adv-x="1013" 
d="M82 346h88q0 -124 92.5 -211.5t243.5 -87.5q42 -3 98.5 14t111 49.5t91.5 90t35 125.5q0 126 -97 194q-57 40 -247 74q-188 34 -252 76q-121 81 -121 239q-6 79 49 153.5t146 118.5t186 40q96 5 186 -40.5t144 -124.5t49 -167h-88q0 135 -131 209q-74 41 -160 41
q-82 0 -154 -37t-102 -86q-35 -58 -35 -107q0 -131 127 -184q43 -19 86 -29q39 -9 154 -30q107 -23 162 -47t98 -58q90 -79 90 -235q0 -154 -123 -257.5t-303 -103.5q-181 0 -302.5 107t-121.5 274z" />
    <glyph glyph-name="t" unicode="t" horiz-adv-x="462" 
d="M227 1454v-268h195v-82h-195v-1104h-86v1104h-100v82h100v268h86z" />
    <glyph glyph-name="u" unicode="u" horiz-adv-x="1257" 
d="M123 461v725h86v-719q0 -170 125 -295t295 -125t295 125t125 295v719h86v-725q0 -133 -69 -248t-185.5 -181.5t-251.5 -66.5t-251.5 66.5t-185.5 181.5t-69 248z" />
    <glyph glyph-name="v" unicode="v" horiz-adv-x="1126" 
d="M123 1186l442 -1088l441 1088h90l-484 -1186h-96l-485 1186h92z" />
    <glyph glyph-name="w" unicode="w" horiz-adv-x="1699" 
d="M797 1186h106l332 -1080l342 1080h92l-383 -1186h-102l-334 1071l-334 -1071h-102l-383 1186h92l342 -1080z" />
    <glyph glyph-name="x" unicode="x" horiz-adv-x="1103" 
d="M137 1186l416 -529l416 529h104l-463 -592l463 -594h-104l-416 530l-418 -530h-104l465 594l-463 592h104z" />
    <glyph glyph-name="y" unicode="y" horiz-adv-x="1126" 
d="M123 1186l442 -1088l441 1088h90l-652 -1598h-88l164 406l-489 1192h92z" />
    <glyph glyph-name="z" unicode="z" horiz-adv-x="1034" 
d="M981 1186v-82l-819 -1022h819v-82h-928v82l819 1022h-819v82h928z" />
    <glyph glyph-name="braceleft" unicode="{" horiz-adv-x="657" 
d="M289 594q80 -47 107.5 -96t27.5 -121v-469q0 -74 50 -125t122 -51v-84q-53 -5 -112.5 23.5t-104 92t-41.5 144.5v469q0 69 -52.5 121.5t-121.5 52.5v86q33 -4 73.5 16.5t71.5 63.5t29 94v467q-2 61 23.5 113.5t66 83.5t85 47.5t83.5 13.5v-82q-72 0 -122 -51t-50 -125
v-467q0 -71 -29 -121.5t-106 -95.5z" />
    <glyph glyph-name="bar" unicode="|" horiz-adv-x="577" 
d="M332 1536v-1886h-86v1886h86z" />
    <glyph glyph-name="braceright" unicode="}" horiz-adv-x="657" 
d="M369 594q-78 45 -107 95.5t-29 121.5v467q0 74 -50 125t-122 51v82q39 3 83.5 -13.5t85 -47.5t66 -83.5t23.5 -113.5v-467q-4 -33 16.5 -73.5t64 -71.5t94.5 -29v-86q-69 0 -122 -52.5t-53 -121.5v-469q3 -81 -41.5 -144.5t-104 -92t-112.5 -23.5v84q72 0 122 51t50 125
v469q0 72 28 121t108 96z" />
    <glyph glyph-name="asciitilde" unicode="~" horiz-adv-x="1054" 
d="M209 512h-86q0 97 67 164t164 67q66 0 122.5 -35.5t86.5 -93.5q19 -39 56.5 -64.5t80.5 -25.5q57 0 101.5 45t44.5 105h86q0 -97 -67.5 -164.5t-164.5 -67.5q-67 0 -124.5 36t-83.5 93q-19 41 -56.5 66t-81.5 25q-60 0 -102.5 -44t-42.5 -106z" />
    <glyph glyph-name="uni00A0" unicode="&#xa0;" horiz-adv-x="1024" 
 />
    <glyph glyph-name="exclamdown" unicode="&#xa1;" 
d="M123 0l10 1186h66l10 -1186h-86zM94 1481q0 26 23 48.5t49 22.5t49 -22.5t23 -48.5t-23 -49t-49 -23t-49 23t-23 49z" />
    <glyph glyph-name="cent" unicode="&#xa2;" horiz-adv-x="1110" 
d="M756 -33v-141h-86v141q-160 11 -295 98t-214 227.5t-79 301.5q0 160 79 300t214 227t295 98v143h86v-143q132 -9 272 -82v-105q-149 107 -315 107q-108 0 -208.5 -44t-173 -117.5t-116 -174t-43.5 -209.5t43.5 -210t116 -174.5t173 -118t208.5 -44.5q168 0 315 105v-103
q-136 -73 -272 -82z" />
    <glyph glyph-name="sterling" unicode="&#xa3;" horiz-adv-x="1280" 
d="M848 0h-766v82h164v645h-164v82h164v289q0 225 182 372q59 49 139 75t156 26q196 0 335.5 -139t139.5 -334h-86q0 139 -96 256q-55 64 -135 99.5t-158 35.5q-137 0 -246 -90q-64 -53 -104.5 -131t-40.5 -170v-289h586v-82h-586v-645h516q51 -6 112.5 28t107 100t44.5 140
h86q0 -53 -20.5 -111t-60 -113t-110 -90.5t-159.5 -35.5z" />
    <glyph glyph-name="currency" unicode="&#xa4;" horiz-adv-x="1433" 
d="M154 594q0 97 36.5 193t100.5 169l-168 168l61 62l168 -168q72 63 169 99t196 36t194 -36t168 -99l170 170l62 -62l-170 -168q65 -77 102 -172t37 -192q0 -98 -37.5 -194t-101.5 -171l170 -168l-62 -61l-170 168q-152 -133 -362 -133q-102 0 -197.5 35t-167.5 98
l-170 -168l-59 61l168 168q-64 75 -100.5 171t-36.5 194zM244 594q0 -174 116 -311q64 -79 161.5 -122.5t195.5 -43.5q126 0 235 64t173.5 174t64.5 239q0 171 -115 313q-66 77 -163.5 120.5t-194.5 43.5q-126 0 -235 -64t-173.5 -174t-64.5 -239z" />
    <glyph glyph-name="yen" unicode="&#xa5;" horiz-adv-x="1208" 
d="M1100 1016v-86h-332l-121 -180h453v-86h-453v-664h-86v664h-452v86h452l-123 180h-329v86h272l-350 520h104l469 -700l469 700h105l-351 -520h273z" />
    <glyph glyph-name="brokenbar" unicode="&#xa6;" horiz-adv-x="577" 
d="M332 489v-839h-86v839h86zM246 1536h86v-838h-86v838z" />
    <glyph glyph-name="section" unicode="&#xa7;" horiz-adv-x="925" 
d="M102 627q0 102 58 185t151 120l-71 57q-53 40 -86 105.5t-33 144.5q0 143 100 236q104 96 242 96t242 -96q98 -94 98 -236v-78h-86v74q0 102 -76 178t-178 76q-100 0 -176 -76t-76 -178q0 -45 27 -95t65 -83l402 -312q118 -95 118 -247q7 -79 -52 -176.5t-159 -133.5
l74 -57q119 -94 119 -246q0 -142 -100 -235q-104 -96 -242 -96q-139 0 -240 96q-100 93 -100 235v78h86v-74q0 -100 78 -178q76 -76 176 -76t176 76t76 178q9 28 -26.5 92.5t-65.5 84.5l-402 315q-119 94 -119 246zM641 680l-248 190q-28 -3 -63 -23.5t-66 -52.5t-51.5 -78
t-19.5 -93q0 -45 26.5 -92.5t65.5 -81.5l245 -197q85 19 144 91.5t59 158.5q0 45 -27 95t-65 83z" />
    <glyph glyph-name="dieresis" unicode="&#xa8;" horiz-adv-x="741" 
d="M254 1483q0 -26 -20 -46t-46 -20t-45.5 20t-19.5 46t19.5 45.5t45.5 19.5t46 -19.5t20 -45.5zM618 1483q0 -27 -18.5 -46.5t-44.5 -19.5t-46 20t-20 46t20 45.5t46 19.5t44.5 -19.5t18.5 -45.5z" />
    <glyph glyph-name="copyright" unicode="&#xa9;" horiz-adv-x="1419" 
d="M1337 594q0 -169 -84.5 -314t-229.5 -230t-314 -85q-168 0 -312.5 85t-229.5 230t-85 314q0 168 85 312.5t229.5 229.5t312.5 85q169 0 314 -85t229.5 -229.5t84.5 -312.5zM1276 594q0 153 -76.5 283.5t-207 207t-283.5 76.5q-152 0 -282.5 -76.5t-207 -207t-76.5 -283.5
q0 -203 140 -373q77 -94 193 -145t233 -51q153 0 283.5 77t207 208t76.5 284zM360 594q0 -143 105 -248q101 -104 244 -104q51 -4 114.5 20t124 80t86.5 129h76q-42 -133 -152 -213q-115 -86 -249 -86q-152 0 -267 96q-68 56 -110.5 141t-42.5 185q0 170 125 295t295 125
q74 2 146.5 -27.5t124 -75.5t86 -97.5t44.5 -96.5h-76q-26 79 -119 155t-206 72q-86 5 -170 -46t-134.5 -135t-44.5 -169z" />
    <glyph glyph-name="ordfeminine" unicode="&#xaa;" horiz-adv-x="813" 
d="M668 1257q0 110 -80 193q-80 80 -191 80q-110 0 -190 -80q-80 -83 -80 -193q0 -112 80 -192q79 -82 190 -82q112 0 191 82q80 80 80 192zM668 1552h43v-591h-43v147q-39 -76 -111.5 -121t-159.5 -45q-121 -6 -221 94t-94 221q0 131 94 222q92 92 221 92q87 0 159.5 -45
t111.5 -121v147z" />
    <glyph glyph-name="guillemotleft" unicode="&#xab;" horiz-adv-x="763" 
d="M434 332v-119l-352 340v82l352 338v-119l-268 -260zM682 332v-119l-352 340v82l352 338v-119l-268 -260z" />
    <glyph glyph-name="logicalnot" unicode="&#xac;" horiz-adv-x="909" 
d="M786 629v-211h-86v129h-577v82h663z" />
    <glyph glyph-name="registered" unicode="&#xae;" horiz-adv-x="653" 
d="M571 1327q5 -47 -23.5 -104t-88.5 -100.5t-131 -41.5q-101 0 -172 74q-74 71 -74 172q-2 71 41.5 131.5t100.5 89t104 23.5q45 5 101.5 -23.5t100 -89t41.5 -131.5zM543 1327q5 41 -20 91t-78.5 88t-116.5 36q-41 5 -91.5 -20t-89 -78.5t-36.5 -116.5q-4 -41 20.5 -91.5
t78 -89t118.5 -36.5q41 -4 91 20.5t88 78t36 118.5zM459 1389q0 -31 -19.5 -59t-48.5 -38l62 -121l-31 -2l-60 119h-118v-117h-29v316h141q42 0 72.5 -29.5t30.5 -68.5zM428 1389q0 27 -21 49t-51 22h-112v-145h112q31 0 51.5 21.5t20.5 52.5z" />
    <glyph glyph-name="overscore" unicode="&#xaf;" horiz-adv-x="628" 
d="M123 1536h383v-80h-383v80z" />
    <glyph glyph-name="degree" unicode="&#xb0;" horiz-adv-x="622" 
d="M440 1366q0 52 -38 90.5t-91 38.5q-51 0 -90 -39t-39 -90q0 -53 38.5 -91t90.5 -38q54 0 91.5 37.5t37.5 91.5zM520 1366q5 -38 -19.5 -86t-76.5 -84.5t-113 -34.5q-39 -4 -87.5 19.5t-86 74.5t-35.5 111q-5 38 19.5 86t76.5 84.5t113 34.5q39 4 87.5 -19.5t86 -74.5
t35.5 -111z" />
    <glyph glyph-name="plusminus" unicode="&#xb1;" horiz-adv-x="1392" 
d="M102 0v82h1188v-82h-1188zM102 727v82h551v377h86v-377h551v-82h-551v-377h-86v377h-551z" />
    <glyph glyph-name="uni00B2" unicode="&#xb2;" horiz-adv-x="665" 
d="M492 1104l-316 -295h383v-41h-444v41l348 328q76 70 76 168q0 91 -58 148.5t-149 57.5q-43 4 -90.5 -18.5t-83 -73t-33.5 -114.5v-33h-43v33q-3 77 40.5 137.5t101 87.5t108.5 22q51 5 109.5 -22t102 -87.5t40.5 -137.5q0 -56 -25 -109t-67 -92z" />
    <glyph glyph-name="uni00B3" unicode="&#xb3;" horiz-adv-x="688" 
d="M561 1012q4 30 -11 68t-42.5 73t-72 58t-93.5 22q-78 0 -147 -59l-9 -9l-26 33l323 297h-350v41h414v-41l-242 -223l37 2q58 1 111.5 -25.5t87 -67t52 -86.5t13.5 -83q5 -36 -13.5 -81.5t-52 -86t-87 -67.5t-111.5 -25q-105 0 -182 77q-78 78 -78 183h43
q-1 -49 21.5 -93.5t56.5 -72t71.5 -42.5t67.5 -11q96 -4 162 73.5t57 145.5z" />
    <glyph glyph-name="acute" unicode="&#xb4;" horiz-adv-x="759" 
d="M184 1401v55l391 135v-94z" />
    <glyph glyph-name="mu" unicode="&#xb5;" horiz-adv-x="1257" 
d="M123 -350v1536h86v-719q0 -170 125 -295t295 -125t295 125t125 295v719h86v-725q0 -133 -69 -248t-185.5 -181.5t-251.5 -66.5q-129 0 -240 62t-180 168v-545h-86z" />
    <glyph glyph-name="paragraph" unicode="&#xb6;" horiz-adv-x="1150" 
d="M51 1153q0 155 114 269t269 114h594v-1536h-86v1454h-248v-1454h-86v768h-174q-132 0 -241 88q-63 51 -102.5 128t-39.5 169zM141 1153q0 -126 86 -215q82 -88 207 -88h174v604h-174q-150 0 -241 -131q-52 -76 -52 -170z" />
    <glyph glyph-name="middot" unicode="&#xb7;" horiz-adv-x="389" 
d="M72 594q0 26 22.5 49t48.5 23t49 -23t23 -49t-23 -49t-49 -23t-48.5 23t-22.5 49z" />
    <glyph glyph-name="cedilla" unicode="&#xb8;" horiz-adv-x="684" 
d="M254 -203l-35 4l37 199h41l-29 -147q22 27 71 28.5t93 -32.5t47 -97q0 -55 -40.5 -95t-96.5 -40q-57 0 -97 39t-40 94h39q0 -38 30 -68t68 -30t68 30t30 68t-30 68t-68 30q-27 0 -51.5 -14t-36.5 -37z" />
    <glyph glyph-name="uni00B9" unicode="&#xb9;" horiz-adv-x="374" 
d="M209 768v727h-107v41h150v-768h-43z" />
    <glyph glyph-name="ordmasculine" unicode="&#xba;" horiz-adv-x="796" 
d="M670 1257q6 50 -26 113.5t-100 112.5t-147 47q-54 5 -116 -27.5t-108.5 -99.5t-45.5 -146q-1 -118 91.5 -201t178.5 -73q56 -6 119 27t109 100.5t45 146.5zM715 1257q7 -121 -94.5 -221t-223.5 -94q-130 0 -221 94q-94 91 -94 221q-7 118 94 219t221 95q47 3 100.5 -16
t102 -56t81.5 -101t34 -141z" />
    <glyph glyph-name="guillemotright" unicode="&#xbb;" horiz-adv-x="763" 
d="M682 635v-82l-352 -340v119l268 262l-268 260v119zM434 635v-82l-352 -340v119l268 262l-268 260v119z" />
    <glyph glyph-name="onequarter" unicode="&#xbc;" horiz-adv-x="1249" 
d="M209 768v727h-107v41h150v-768h-43zM911 1536l-641 -1536h-41l639 1536h43zM1042 188h-391v41l391 539h43v-539h123v-41h-123v-188h-43v188zM1042 229v467l-337 -467h337z" />
    <glyph glyph-name="onehalf" unicode="&#xbd;" horiz-adv-x="1349" 
d="M209 768v727h-107v41h150v-768h-43zM911 1536l-641 -1536h-41l639 1536h43zM1176 336l-316 -295h383v-41h-444v41l348 328q76 70 76 168q0 91 -58 148.5t-149 57.5q-43 4 -90.5 -18.5t-83 -73t-33.5 -114.5v-33h-43v33q-3 77 40.5 137.5t101 87.5t108.5 22q51 5 109 -22
t101.5 -87.5t41.5 -137.5q0 -56 -25 -109t-67 -92z" />
    <glyph glyph-name="threequarters" unicode="&#xbe;" horiz-adv-x="1464" 
d="M561 1012q4 30 -11 68t-42.5 73t-72 58t-93.5 22q-78 0 -147 -59l-9 -9l-26 33l323 297h-350v41h414v-41l-242 -223l37 2q58 1 111.5 -25.5t87 -67t52 -86.5t13.5 -83q5 -36 -13.5 -81.5t-52 -86t-87 -67.5t-111.5 -25q-105 0 -182 77q-78 78 -78 183h43
q-1 -49 21.5 -93.5t56.5 -72t71.5 -42.5t67.5 -11q96 -4 162 73.5t57 145.5zM1126 1536l-641 -1536h-41l639 1536h43zM1257 188h-391v41l391 539h43v-539h123v-41h-123v-188h-43v188zM1257 229v467l-337 -467h337z" />
    <glyph glyph-name="questiondown" unicode="&#xbf;" horiz-adv-x="1210" 
d="M651 1174v-246h-49q-175 -5 -302.5 -135t-127.5 -308q0 -182 127.5 -310t308.5 -128q79 -4 159 30t140 91.5t97.5 135.5t37.5 157h88q-5 -134 -77.5 -248.5t-191 -181t-253.5 -66.5q-141 0 -262.5 70.5t-192.5 190.5t-71 259q0 133 65.5 251.5t177 192t240.5 81.5v164h86
zM680 1481q0 -26 -23 -49t-49 -23t-48.5 23t-22.5 49t22.5 48.5t48.5 22.5t49 -22.5t23 -48.5z" />
    <glyph glyph-name="Agrave" unicode="&#xc0;" horiz-adv-x="1298" 
d="M455 1694v94l391 -135v-56zM1268 0h-92l-138 375h-776l-139 -375h-92l571 1536h98zM1008 457l-357 973l-360 -973h717z" />
    <glyph glyph-name="Aacute" unicode="&#xc1;" horiz-adv-x="1298" 
d="M455 1597v56l391 135v-94zM1268 0h-92l-138 375h-776l-139 -375h-92l571 1536h98zM1008 457l-357 973l-360 -973h717z" />
    <glyph glyph-name="Acircumflex" unicode="&#xc2;" horiz-adv-x="1298" 
d="M799 1618l-148 154l-149 -154h-82l184 229h96l181 -229h-82zM1268 0h-92l-138 375h-776l-139 -375h-92l571 1536h98zM1008 457l-357 973l-360 -973h717z" />
    <glyph glyph-name="Atilde" unicode="&#xc3;" horiz-adv-x="1298" 
d="M483 1657h-75q0 57 44 99t101 42q49 0 82 -26q11 -11 51 -58q34 -43 62 -43q31 0 49 20t18 52h78q0 -57 -44 -99t-101 -42q-33 0 -59 14t-64 61q-40 49 -72 49q-26 0 -48 -21.5t-22 -47.5zM1268 0h-92l-138 375h-776l-139 -375h-92l571 1536h98zM1008 457l-357 973
l-360 -973h717z" />
    <glyph glyph-name="Adieresis" unicode="&#xc4;" horiz-adv-x="1298" 
d="M532 1692q0 -26 -19.5 -46t-45.5 -20t-46 20t-20 46t20 45.5t46 19.5t45.5 -19.5t19.5 -45.5zM897 1692q0 -27 -18.5 -46.5t-44.5 -19.5t-46 20t-20 46t20 45.5t46 19.5t44.5 -19.5t18.5 -45.5zM1268 0h-92l-138 375h-776l-139 -375h-92l571 1536h98zM1008 457l-357 973
l-360 -973h717z" />
    <glyph glyph-name="Aring" unicode="&#xc5;" horiz-adv-x="1298" 
d="M772 1780q0 48 -35.5 84.5t-85.5 36.5t-85.5 -36.5t-35.5 -84.5q0 -53 34.5 -87t86.5 -34t86.5 34t34.5 87zM844 1780q7 -61 -51 -125.5t-142 -61.5q-61 -5 -128 49.5t-64 137.5q-4 35 18 78.5t69.5 76.5t104.5 31q57 2 104.5 -31t70 -76.5t18.5 -78.5zM1268 0h-92
l-138 375h-776l-139 -375h-92l571 1536h98zM1008 457l-357 973l-360 -973h717z" />
    <glyph glyph-name="AE" unicode="&#xc6;" horiz-adv-x="1996" 
d="M1925 82v-82h-901v375h-674l-250 -375h-100l1024 1536h901v-82h-815v-645h674v-82h-674v-645h815zM1024 1376h-6l-615 -919h621v919z" />
    <glyph glyph-name="Ccedilla" unicode="&#xc7;" horiz-adv-x="1382" 
d="M791 -203l-35 4l30 170q-145 14 -278 84t-229 176.5t-152.5 247.5t-54.5 289q-2 127 39 249t117 222t176 176t223.5 117t251.5 39q222 0 411 -113v-104q-194 135 -411 135q-142 2 -275.5 -56.5t-230.5 -156.5t-154.5 -232t-56.5 -276q-1 -142 56.5 -276t154.5 -232
t230.5 -156.5t275.5 -56.5q107 0 214.5 35.5t196.5 97.5v-102q-189 -113 -411 -113l-52 2l-22 -114q22 27 71 28.5t93 -32.5t47 -97q0 -55 -40.5 -95t-96.5 -40q-57 0 -97.5 39t-40.5 94h39q0 -38 30.5 -68t68.5 -30t68 30t30 68t-30 68t-68 30q-27 0 -51.5 -14t-36.5 -37z
" />
    <glyph glyph-name="Egrave" unicode="&#xc8;" horiz-adv-x="1095" 
d="M387 1694v94l391 -135v-56zM209 727v-645h815v-82h-901v1536h901v-82h-815v-645h674v-82h-674z" />
    <glyph glyph-name="Eacute" unicode="&#xc9;" horiz-adv-x="1095" 
d="M387 1597v56l391 135v-94zM209 727v-645h815v-82h-901v1536h901v-82h-815v-645h674v-82h-674z" />
    <glyph glyph-name="Ecircumflex" unicode="&#xca;" horiz-adv-x="1095" 
d="M727 1618l-147 154l-150 -154h-82l184 229h97l180 -229h-82zM209 727v-645h815v-82h-901v1536h901v-82h-815v-645h674v-82h-674z" />
    <glyph glyph-name="Edieresis" unicode="&#xcb;" horiz-adv-x="1095" 
d="M209 727v-645h815v-82h-901v1536h901v-82h-815v-645h674v-82h-674zM446 1692q0 -26 -19.5 -46t-45.5 -20t-46 20t-20 46t20 45.5t46 19.5t45.5 -19.5t19.5 -45.5zM811 1692q0 -27 -18.5 -46.5t-44.5 -19.5t-46 20t-20 46t20 45.5t46 19.5t44.5 -19.5t18.5 -45.5z" />
    <glyph glyph-name="Igrave" unicode="&#xcc;" 
d="M209 0h-86v1536h86v-1536zM-31 1714v94l391 -135v-55z" />
    <glyph glyph-name="Iacute" unicode="&#xcd;" 
d="M209 0h-86v1536h86v-1536zM-31 1618v55l391 135v-94z" />
    <glyph glyph-name="Icircumflex" unicode="&#xce;" 
d="M209 0h-86v1536h86v-1536zM315 1618l-147 154l-150 -154h-81l184 229h96l180 -229h-82z" />
    <glyph glyph-name="Idieresis" unicode="&#xcf;" 
d="M209 0h-86v1536h86v-1536zM59 1692q0 -26 -19.5 -46t-45.5 -20t-46 20t-20 46t20 45.5t46 19.5t45.5 -19.5t19.5 -45.5zM403 1692q0 -27 -18.5 -46.5t-44.5 -19.5t-46 20t-20 46t20 45.5t46 19.5t44.5 -19.5t18.5 -45.5z" />
    <glyph glyph-name="Eth" unicode="&#xd0;" horiz-adv-x="1363" 
d="M162 811v725h358q153 3 296.5 -59t248.5 -166.5t167 -247.5t60 -295q2 -152 -60 -295t-167 -247.5t-248.5 -166.5t-296.5 -59h-358v729h-121v82h121zM1202 768q0 136 -55.5 262.5t-147.5 219.5t-218 148.5t-261 55.5h-272v-643h317v-82h-317v-647h272q98 0 197 30.5
t195.5 98.5t162.5 164q127 186 127 393z" />
    <glyph glyph-name="Ntilde" unicode="&#xd1;" horiz-adv-x="1249" 
d="M457 1657h-76q0 57 44 99t101 42q50 0 82 -26q11 -11 51 -58q34 -43 62 -43q31 0 49 20t18 52h78q0 -57 -44 -99t-101 -42q-33 0 -59 14t-64 61q-40 49 -72 49q-26 0 -47.5 -21.5t-21.5 -47.5zM1040 1536h86v-1536h-86l-831 1370v-1370h-86v1536h86l831 -1370v1370z" />
    <glyph glyph-name="Ograve" unicode="&#xd2;" horiz-adv-x="1757" 
d="M682 1694v94l391 -135v-56zM1595 768q1 142 -56.5 276t-154.5 232t-230 156.5t-275 56.5q-142 2 -275.5 -56.5t-230.5 -156.5t-154.5 -232t-56.5 -276q-1 -142 56.5 -276t154.5 -232t230.5 -156.5t275.5 -56.5q142 -2 275 56.5t230 156.5t154.5 232t56.5 276zM1686 768
q2 -127 -39.5 -249t-118 -222t-176.5 -176t-223 -117t-250 -39q-128 -2 -251.5 39t-223.5 117t-176 176t-117 222t-39 249q-2 127 39 249t117 222t176 176t223.5 117t251.5 39q127 2 250 -39t223 -117t176.5 -176t118 -222t39.5 -249z" />
    <glyph glyph-name="Oacute" unicode="&#xd3;" horiz-adv-x="1757" 
d="M682 1597v56l391 135v-94zM1595 768q1 142 -56.5 276t-154.5 232t-230 156.5t-275 56.5q-142 2 -275.5 -56.5t-230.5 -156.5t-154.5 -232t-56.5 -276q-1 -142 56.5 -276t154.5 -232t230.5 -156.5t275.5 -56.5q142 -2 275 56.5t230 156.5t154.5 232t56.5 276zM1686 768
q2 -127 -39.5 -249t-118 -222t-176.5 -176t-223 -117t-250 -39q-128 -2 -251.5 39t-223.5 117t-176 176t-117 222t-39 249q-2 127 39 249t117 222t176 176t223.5 117t251.5 39q127 2 250 -39t223 -117t176.5 -176t118 -222t39.5 -249z" />
    <glyph glyph-name="Ocircumflex" unicode="&#xd4;" horiz-adv-x="1757" 
d="M1026 1618l-147 154l-150 -154h-82l184 229h97l180 -229h-82zM1595 768q1 142 -56.5 276t-154.5 232t-230 156.5t-275 56.5q-142 2 -275.5 -56.5t-230.5 -156.5t-154.5 -232t-56.5 -276q-1 -142 56.5 -276t154.5 -232t230.5 -156.5t275.5 -56.5q142 -2 275 56.5
t230 156.5t154.5 232t56.5 276zM1686 768q2 -127 -39.5 -249t-118 -222t-176.5 -176t-223 -117t-250 -39q-128 -2 -251.5 39t-223.5 117t-176 176t-117 222t-39 249q-2 127 39 249t117 222t176 176t223.5 117t251.5 39q127 2 250 -39t223 -117t176.5 -176t118 -222
t39.5 -249z" />
    <glyph glyph-name="Otilde" unicode="&#xd5;" horiz-adv-x="1757" 
d="M1595 768q1 142 -56.5 276t-154.5 232t-230 156.5t-275 56.5q-142 2 -275.5 -56.5t-230.5 -156.5t-154.5 -232t-56.5 -276q-1 -142 56.5 -276t154.5 -232t230.5 -156.5t275.5 -56.5q142 -2 275 56.5t230 156.5t154.5 232t56.5 276zM1686 768q2 -127 -39.5 -249t-118 -222
t-176.5 -176t-223 -117t-250 -39q-128 -2 -251.5 39t-223.5 117t-176 176t-117 222t-39 249q-2 127 39 249t117 222t176 176t223.5 117t251.5 39q127 2 250 -39t223 -117t176.5 -176t118 -222t39.5 -249zM711 1677h-76q0 57 44 99.5t101 42.5q48 0 82 -27q16 -17 51 -57
q34 -43 62 -43q31 0 49 19.5t18 51.5h78q0 -57 -44 -99t-101 -42q-33 0 -59 14.5t-64 61.5q-40 49 -72 49q-26 0 -47.5 -22t-21.5 -48z" />
    <glyph glyph-name="Odieresis" unicode="&#xd6;" horiz-adv-x="1757" 
d="M762 1692q0 -26 -20 -46t-46 -20t-45.5 20t-19.5 46t19.5 45.5t45.5 19.5t46 -19.5t20 -45.5zM1126 1692q0 -27 -18.5 -46.5t-44.5 -19.5t-46 20t-20 46t20 45.5t46 19.5t44.5 -19.5t18.5 -45.5zM1595 768q1 142 -56.5 276t-154.5 232t-230 156.5t-275 56.5
q-142 2 -275.5 -56.5t-230.5 -156.5t-154.5 -232t-56.5 -276q-1 -142 56.5 -276t154.5 -232t230.5 -156.5t275.5 -56.5q142 -2 275 56.5t230 156.5t154.5 232t56.5 276zM1686 768q2 -127 -39.5 -249t-118 -222t-176.5 -176t-223 -117t-250 -39q-128 -2 -251.5 39t-223.5 117
t-176 176t-117 222t-39 249q-2 127 39 249t117 222t176 176t223.5 117t251.5 39q127 2 250 -39t223 -117t176.5 -176t118 -222t39.5 -249z" />
    <glyph glyph-name="multiply" unicode="&#xd7;" horiz-adv-x="1351" 
d="M141 0l-59 61l532 533l-532 530l61 62l533 -531l532 533l62 -62l-535 -532l535 -533l-62 -61l-532 532z" />
    <glyph glyph-name="Oslash" unicode="&#xd8;" horiz-adv-x="1777" 
d="M1696 768q2 -127 -39.5 -249t-118 -222t-176.5 -176t-223 -117t-250 -39q-148 0 -289 54t-250 151l-170 -170l-61 61l170 170q-97 106 -152 247.5t-55 289.5q-2 127 39 249t117 222t176 176t223.5 117t251.5 39q147 0 285.5 -54t248.5 -151l174 174l62 -61l-174 -174
q99 -107 155 -248t56 -289zM1606 768q0 130 -48 254t-135 221l-1009 -1010q98 -87 222 -136.5t253 -49.5q142 -2 275.5 56.5t230.5 156.5t154.5 232t56.5 276zM889 1489q-142 2 -275.5 -56.5t-230.5 -156.5t-154.5 -232t-56.5 -276q0 -132 47.5 -255t132.5 -218l1010 1010
q-98 86 -222 135t-251 49z" />
    <glyph glyph-name="Ugrave" unicode="&#xd9;" horiz-adv-x="1415" 
d="M512 1694v94l391 -135v-56zM1165 1536h86v-1008q0 -153 -75.5 -282.5t-205 -205t-282.5 -75.5t-283 75.5t-206 205t-76 282.5v1008h86v-1008q0 -173 117 -315q66 -79 164 -122.5t198 -43.5q129 0 239 64.5t174 175t64 241.5v1008z" />
    <glyph glyph-name="Uacute" unicode="&#xda;" horiz-adv-x="1374" 
d="M492 1597v56l391 135v-94zM1165 1536h86v-1008q0 -153 -75.5 -282.5t-205 -205t-282.5 -75.5t-283 75.5t-206 205t-76 282.5v1008h86v-1008q0 -173 117 -315q66 -79 164 -122.5t198 -43.5q129 0 239 64.5t174 175t64 241.5v1008z" />
    <glyph glyph-name="Ucircumflex" unicode="&#xdb;" horiz-adv-x="1415" 
d="M856 1618l-147 154l-150 -154h-82l185 229h96l180 -229h-82zM1165 1536h86v-1008q0 -153 -75.5 -282.5t-205 -205t-282.5 -75.5t-283 75.5t-206 205t-76 282.5v1008h86v-1008q0 -173 117 -315q66 -79 164 -122.5t198 -43.5q129 0 239 64.5t174 175t64 241.5v1008z" />
    <glyph glyph-name="Udieresis" unicode="&#xdc;" horiz-adv-x="1374" 
d="M1165 1536h86v-1008q0 -153 -75.5 -282.5t-205 -205t-282.5 -75.5t-283 75.5t-206 205t-76 282.5v1008h86v-1008q0 -173 117 -315q66 -79 164 -122.5t198 -43.5q129 0 239 64.5t174 175t64 241.5v1008zM571 1692q0 -26 -19.5 -46t-45.5 -20t-46 20t-20 46t20 45.5
t46 19.5t45.5 -19.5t19.5 -45.5zM936 1692q0 -26 -19 -46t-45 -20t-45.5 20t-19.5 46t19.5 45.5t45.5 19.5t45 -19.5t19 -45.5z" />
    <glyph glyph-name="Yacute" unicode="&#xdd;" horiz-adv-x="1167" 
d="M389 1597v56l391 135v-94zM133 1536l451 -700l450 700h103l-510 -786v-750h-86v750l-510 786h102z" />
    <glyph glyph-name="Thorn" unicode="&#xde;" horiz-adv-x="1138" 
d="M1067 936q0 -167 -122.5 -289.5t-291.5 -122.5h-444v-524h-86v1536h86v-193h444q169 0 291.5 -120t122.5 -287zM977 936q0 137 -94 231q-95 95 -230 95h-444v-656h444q118 0 213 82q47 40 79 104.5t32 143.5z" />
    <glyph glyph-name="germandbls" unicode="&#xdf;" horiz-adv-x="1107" 
d="M1026 440q0 -117 -61.5 -219t-164 -161.5t-218.5 -59.5h-281v82h281q148 0 252 104q102 105 102 254q0 43 -12 89.5t-40 94.5t-67.5 86t-100.5 62.5t-134 24.5h-281v82h209q115 -6 211 91.5t90 213.5q0 127 -88 215q-90 90 -213 90q-121 0 -211 -90t-90 -215v-1184h-86
v1184q0 144 94 256q46 55 123.5 93t169.5 38q159 0 275 -114t116 -273q0 -102 -52.5 -192t-137.5 -138q137 -30 225 -147q90 -122 90 -267z" />
    <glyph glyph-name="agrave" unicode="&#xe0;" horiz-adv-x="1464" 
d="M518 1487v94l391 -135v-55zM1255 594q0 145 -73.5 271t-198.5 200t-270 74q-108 0 -208.5 -44t-173 -117.5t-116 -174t-43.5 -209.5t43.5 -210t116 -174.5t173 -118t208.5 -44.5q145 0 270 74.5t198.5 201t73.5 271.5zM1255 1186h86v-1186h-86v297
q-79 -155 -221.5 -243.5t-320.5 -88.5q-117 -4 -232.5 44t-204.5 132t-143 204t-51 249q0 109 46 230t153 225q79 76 195 124t237 48q178 0 320.5 -88.5t221.5 -243.5v297z" />
    <glyph glyph-name="aacute" unicode="&#xe1;" horiz-adv-x="1464" 
d="M518 1391v55l391 135v-94zM1255 594q0 145 -73.5 271t-198.5 200t-270 74q-108 0 -208.5 -44t-173 -117.5t-116 -174t-43.5 -209.5t43.5 -210t116 -174.5t173 -118t208.5 -44.5q145 0 270 74.5t198.5 201t73.5 271.5zM1255 1186h86v-1186h-86v297q-79 -155 -221.5 -243.5
t-320.5 -88.5q-117 -4 -232.5 44t-204.5 132t-143 204t-51 249q0 109 46 230t153 225q79 76 195 124t237 48q178 0 320.5 -88.5t221.5 -243.5v297z" />
    <glyph glyph-name="acircumflex" unicode="&#xe2;" horiz-adv-x="1464" 
d="M860 1380l-147 154l-150 -154h-82l185 230h96l180 -230h-82zM1255 594q0 145 -73.5 271t-198.5 200t-270 74q-108 0 -208.5 -44t-173 -117.5t-116 -174t-43.5 -209.5t43.5 -210t116 -174.5t173 -118t208.5 -44.5q145 0 270 74.5t198.5 201t73.5 271.5zM1255 1186h86
v-1186h-86v297q-79 -155 -221.5 -243.5t-320.5 -88.5q-117 -4 -232.5 44t-204.5 132t-143 204t-51 249q0 109 46 230t153 225q79 76 195 124t237 48q178 0 320.5 -88.5t221.5 -243.5v297z" />
    <glyph glyph-name="atilde" unicode="&#xe3;" horiz-adv-x="1464" 
d="M1255 594q0 145 -73.5 271t-198.5 200t-270 74q-108 0 -208.5 -44t-173 -117.5t-116 -174t-43.5 -209.5t43.5 -210t116 -174.5t173 -118t208.5 -44.5q145 0 270 74.5t198.5 201t73.5 271.5zM1255 1186h86v-1186h-86v297q-79 -155 -221.5 -243.5t-320.5 -88.5
q-117 -4 -232.5 44t-204.5 132t-143 204t-51 249q0 109 46 230t153 225q79 76 195 124t237 48q178 0 320.5 -88.5t221.5 -243.5v297zM547 1417h-76q0 57 44 99.5t101 42.5q48 0 82 -27q23 -23 52 -57q34 -43 61 -43q31 0 49.5 19.5t18.5 51.5h77q0 -57 -44 -99t-101 -42
q-33 0 -59 14.5t-64 61.5q-40 49 -72 49q-26 0 -47.5 -22t-21.5 -48z" />
    <glyph glyph-name="adieresis" unicode="&#xe4;" horiz-adv-x="1464" 
d="M1255 594q0 145 -73.5 271t-198.5 200t-270 74q-108 0 -208.5 -44t-173 -117.5t-116 -174t-43.5 -209.5t43.5 -210t116 -174.5t173 -118t208.5 -44.5q145 0 270 74.5t198.5 201t73.5 271.5zM1255 1186h86v-1186h-86v297q-79 -155 -221.5 -243.5t-320.5 -88.5
q-117 -4 -232.5 44t-204.5 132t-143 204t-51 249q0 109 46 230t153 225q79 76 195 124t237 48q178 0 320.5 -88.5t221.5 -243.5v297zM594 1483q0 -26 -20 -46t-46 -20t-45.5 20t-19.5 46t19.5 45.5t45.5 19.5t46 -19.5t20 -45.5zM958 1483q0 -27 -18.5 -46.5t-44.5 -19.5
t-46 20t-20 46t20 45.5t46 19.5t44.5 -19.5t18.5 -45.5z" />
    <glyph glyph-name="aring" unicode="&#xe5;" horiz-adv-x="1464" 
d="M1255 594q0 145 -73.5 271t-198.5 200t-270 74q-108 0 -208.5 -44t-173 -117.5t-116 -174t-43.5 -209.5t43.5 -210t116 -174.5t173 -118t208.5 -44.5q145 0 270 74.5t198.5 201t73.5 271.5zM1255 1186h86v-1186h-86v297q-79 -155 -221.5 -243.5t-320.5 -88.5
q-117 -4 -232.5 44t-204.5 132t-143 204t-51 249q0 109 46 230t153 225q79 76 195 124t237 48q178 0 320.5 -88.5t221.5 -243.5v297zM834 1475q0 48 -35.5 84t-85.5 36t-85.5 -36t-35.5 -84q0 -53 34.5 -87t86.5 -34t86.5 34t34.5 87zM905 1475q7 -61 -50.5 -125.5
t-141.5 -61.5q-61 -5 -128.5 49.5t-64.5 137.5q-4 35 18.5 78.5t70 76.5t104.5 31q57 2 104.5 -31t69.5 -76.5t18 -78.5z" />
    <glyph glyph-name="ae" unicode="&#xe6;" horiz-adv-x="2600" 
d="M2519 594l-2 -41h-1169q11 -138 86 -254t195 -184t257 -68q148 0 277.5 80.5t199.5 210.5h101q-76 -168 -232 -270q-158 -103 -346 -103q-177 0 -323 92.5t-222 247.5v-305h-86v297q-79 -155 -221.5 -243.5t-320.5 -88.5q-117 -4 -232.5 44t-204.5 132t-143 204t-51 249
q0 109 46 230t153 225q79 76 195 124t237 48q178 0 320.5 -88.5t221.5 -243.5v297h86v-307q68 139 193 231q156 111 352 111q127 0 244 -50.5t202 -134.5t136 -200t51 -242zM1255 594q0 145 -73.5 271t-198.5 200t-270 74q-108 0 -208.5 -44t-173 -117.5t-116 -174
t-43.5 -209.5t43.5 -210t116 -174.5t173 -118t208.5 -44.5q145 0 270 74.5t198.5 201t73.5 271.5zM1886 1139q-137 0 -257 -68.5t-195 -184.5t-86 -251h1079q-15 182 -146 330q-74 83 -181 128.5t-214 45.5z" />
    <glyph glyph-name="ccedilla" unicode="&#xe7;" horiz-adv-x="1110" 
d="M625 -203l-35 4l31 172q-111 17 -211 73t-172 137.5t-114 189t-42 221.5q0 109 46 230t153 225q79 76 195 124t237 48q164 0 315 -84v-105q-149 107 -315 107q-108 0 -208.5 -44t-173 -117.5t-116 -174t-43.5 -209.5t43.5 -210t116 -174.5t173 -118t208.5 -44.5
q168 0 315 105v-103q-151 -84 -315 -84l-51 2l-23 -114q22 27 71 28.5t93 -32.5t47 -97q0 -55 -40.5 -95t-96.5 -40q-57 0 -97.5 39t-40.5 94h39q0 -38 30.5 -68t68.5 -30t68 30t30 68t-30 68t-68 30q-27 0 -51.5 -14t-36.5 -37z" />
    <glyph glyph-name="egrave" unicode="&#xe8;" horiz-adv-x="1427" 
d="M518 1487v94l391 -135v-55zM1346 594l-3 -41h-1169q11 -138 86.5 -254t195.5 -184t257 -68q148 0 277.5 80.5t199.5 210.5h100q-76 -169 -231 -270q-158 -103 -346 -103q-117 -4 -232.5 44t-204.5 132t-143 204t-51 249q0 109 46 230t153 225q79 76 195 124t237 48
q127 0 244 -50.5t202 -134.5t136 -200t51 -242zM713 1139q-102 0 -198 -40.5t-167.5 -108.5t-118.5 -161t-55 -194h1079q-15 183 -145 330q-74 83 -181 128.5t-214 45.5z" />
    <glyph glyph-name="eacute" unicode="&#xe9;" horiz-adv-x="1427" 
d="M518 1391v55l391 135v-94zM1346 594l-3 -41h-1169q11 -138 86.5 -254t195.5 -184t257 -68q148 0 277.5 80.5t199.5 210.5h100q-76 -169 -231 -270q-158 -103 -346 -103q-117 -4 -232.5 44t-204.5 132t-143 204t-51 249q0 109 46 230t153 225q79 76 195 124t237 48
q127 0 244 -50.5t202 -134.5t136 -200t51 -242zM713 1139q-102 0 -198 -40.5t-167.5 -108.5t-118.5 -161t-55 -194h1079q-15 183 -145 330q-74 83 -181 128.5t-214 45.5z" />
    <glyph glyph-name="ecircumflex" unicode="&#xea;" horiz-adv-x="1427" 
d="M860 1380l-147 154l-150 -154h-82l185 230h96l180 -230h-82zM1346 594l-3 -41h-1169q11 -138 86.5 -254t195.5 -184t257 -68q148 0 277.5 80.5t199.5 210.5h100q-76 -169 -231 -270q-158 -103 -346 -103q-117 -4 -232.5 44t-204.5 132t-143 204t-51 249q0 109 46 230
t153 225q79 76 195 124t237 48q127 0 244 -50.5t202 -134.5t136 -200t51 -242zM713 1139q-102 0 -198 -40.5t-167.5 -108.5t-118.5 -161t-55 -194h1079q-15 183 -145 330q-74 83 -181 128.5t-214 45.5z" />
    <glyph glyph-name="edieresis" unicode="&#xeb;" horiz-adv-x="1427" 
d="M596 1483q0 -26 -20 -46t-46 -20t-45.5 20t-19.5 46t19.5 45.5t45.5 19.5t46 -19.5t20 -45.5zM961 1483q0 -26 -19 -46t-45 -20t-46 20t-20 46t20 45.5t46 19.5t45 -19.5t19 -45.5zM1346 594l-3 -41h-1169q11 -138 86.5 -254t195.5 -184t257 -68q148 0 277.5 80.5
t199.5 210.5h100q-76 -169 -231 -270q-158 -103 -346 -103q-117 -4 -232.5 44t-204.5 132t-143 204t-51 249q0 109 46 230t153 225q79 76 195 124t237 48q127 0 244 -50.5t202 -134.5t136 -200t51 -242zM713 1139q-102 0 -198 -40.5t-167.5 -108.5t-118.5 -161t-55 -194
h1079q-15 183 -145 330q-74 83 -181 128.5t-214 45.5z" />
    <glyph glyph-name="igrave" unicode="&#xec;" 
d="M123 0v1186h86v-1186h-86zM-29 1487v94l391 -135v-55z" />
    <glyph glyph-name="iacute" unicode="&#xed;" 
d="M123 0v1186h86v-1186h-86zM-29 1391v55l391 135v-94z" />
    <glyph glyph-name="icircumflex" unicode="&#xee;" 
d="M123 0v1186h86v-1186h-86zM313 1380l-147 154l-150 -154h-82l185 230h96l180 -230h-82z" />
    <glyph glyph-name="idieresis" unicode="&#xef;" 
d="M123 0v1186h86v-1186h-86zM59 1483q0 -26 -19.5 -46t-45.5 -20t-46 20t-20 46t20 45.5t46 19.5t45.5 -19.5t19.5 -45.5zM403 1483q0 -27 -18.5 -46.5t-44.5 -19.5t-46 20t-20 46t20 45.5t46 19.5t44.5 -19.5t18.5 -45.5z" />
    <glyph glyph-name="eth" unicode="&#xf0;" horiz-adv-x="1316" 
d="M688 1350l-133 -133l-59 59l131 131l-224 190h129l154 -131l131 131l60 -59l-127 -127q164 -149 265 -268t159 -248q61 -137 61 -356q0 -157 -77 -289t-209.5 -208.5t-289.5 -76.5t-290 76.5t-210 208.5t-77 289q0 119 48.5 226.5t128 182.5t183.5 119.5t211 44.5
q92 6 221.5 -49t190.5 -139l2 4q-48 124 -379 422zM1145 539q3 128 -65.5 242t-182 181.5t-238.5 67.5q-128 0 -240.5 -67.5t-179.5 -181t-67 -242.5t67 -242.5t179.5 -181.5t240.5 -68t239.5 68t177.5 181.5t69 242.5z" />
    <glyph glyph-name="ntilde" unicode="&#xf1;" horiz-adv-x="1257" 
d="M1135 725v-725h-86v723q0 169 -125 292.5t-295 123.5t-295 -123.5t-125 -292.5v-723h-86v1186h86v-217q60 118 171 185t249 67q135 0 251.5 -66.5t185.5 -181.5t69 -248zM485 1417h-75q0 57 44 99.5t101 42.5q48 0 82 -27q16 -17 51 -57q34 -43 62 -43q31 0 49 19.5
t18 51.5h78q0 -57 -44 -99t-101 -42q-33 0 -59 14.5t-64 61.5q-40 49 -72 49q-26 0 -48 -22t-22 -48z" />
    <glyph glyph-name="ograve" unicode="&#xf2;" horiz-adv-x="1427" 
d="M510 1487v94l391 -135v-55zM1255 594q0 145 -73.5 271t-198.5 200t-270 74q-108 0 -208.5 -44t-173 -117.5t-116 -174t-43.5 -209.5t43.5 -210t116 -174.5t173 -118t208.5 -44.5q145 0 270 74.5t198.5 201t73.5 271.5zM1346 594q0 -169 -86 -314t-232 -230t-315 -85
q-117 -4 -232.5 44t-204.5 132t-143 204t-51 249q0 109 46 230t153 225q79 76 195 124t237 48q127 0 244 -50.5t202 -134.5t136 -200t51 -242z" />
    <glyph glyph-name="oacute" unicode="&#xf3;" horiz-adv-x="1427" 
d="M1255 594q0 145 -73.5 271t-198.5 200t-270 74q-108 0 -208.5 -44t-173 -117.5t-116 -174t-43.5 -209.5t43.5 -210t116 -174.5t173 -118t208.5 -44.5q145 0 270 74.5t198.5 201t73.5 271.5zM1346 594q0 -169 -86 -314t-232 -230t-315 -85q-117 -4 -232.5 44t-204.5 132
t-143 204t-51 249q0 109 46 230t153 225q79 76 195 124t237 48q127 0 244 -50.5t202 -134.5t136 -200t51 -242zM510 1391v55l391 135v-94z" />
    <glyph glyph-name="ocircumflex" unicode="&#xf4;" horiz-adv-x="1427" 
d="M860 1380l-147 154l-150 -154h-82l185 230h96l180 -230h-82zM1255 594q0 145 -73.5 271t-198.5 200t-270 74q-108 0 -208.5 -44t-173 -117.5t-116 -174t-43.5 -209.5t43.5 -210t116 -174.5t173 -118t208.5 -44.5q145 0 270 74.5t198.5 201t73.5 271.5zM1346 594
q0 -169 -86 -314t-232 -230t-315 -85q-117 -4 -232.5 44t-204.5 132t-143 204t-51 249q0 109 46 230t153 225q79 76 195 124t237 48q127 0 244 -50.5t202 -134.5t136 -200t51 -242z" />
    <glyph glyph-name="otilde" unicode="&#xf5;" horiz-adv-x="1427" 
d="M547 1417h-76q0 57 44 99.5t101 42.5q48 0 82 -27q23 -23 52 -57q34 -43 61 -43q31 0 49.5 19.5t18.5 51.5h77q0 -57 -44 -99t-101 -42q-33 0 -59 14.5t-64 61.5q-40 49 -72 49q-26 0 -47.5 -22t-21.5 -48zM1255 594q0 145 -73.5 271t-198.5 200t-270 74
q-108 0 -208.5 -44t-173 -117.5t-116 -174t-43.5 -209.5t43.5 -210t116 -174.5t173 -118t208.5 -44.5q145 0 270 74.5t198.5 201t73.5 271.5zM1346 594q0 -169 -86 -314t-232 -230t-315 -85q-117 -4 -232.5 44t-204.5 132t-143 204t-51 249q0 109 46 230t153 225
q79 76 195 124t237 48q127 0 244 -50.5t202 -134.5t136 -200t51 -242z" />
    <glyph glyph-name="odieresis" unicode="&#xf6;" horiz-adv-x="1427" 
d="M596 1483q0 -26 -20 -46t-46 -20t-45.5 20t-19.5 46t19.5 45.5t45.5 19.5t46 -19.5t20 -45.5zM961 1483q0 -26 -19 -46t-45 -20t-46 20t-20 46t20 45.5t46 19.5t45 -19.5t19 -45.5zM1255 594q0 145 -73.5 271t-198.5 200t-270 74q-108 0 -208.5 -44t-173 -117.5
t-116 -174t-43.5 -209.5t43.5 -210t116 -174.5t173 -118t208.5 -44.5q145 0 270 74.5t198.5 201t73.5 271.5zM1346 594q0 -169 -86 -314t-232 -230t-315 -85q-117 -4 -232.5 44t-204.5 132t-143 204t-51 249q0 109 46 230t153 225q79 76 195 124t237 48q127 0 244 -50.5
t202 -134.5t136 -200t51 -242z" />
    <glyph glyph-name="divide" unicode="&#xf7;" horiz-adv-x="1390" 
d="M102 553v82h1186v-82h-1186zM625 55q0 26 22.5 49t48.5 23t49 -23t23 -49t-23 -48.5t-49 -22.5t-48.5 22.5t-22.5 48.5zM625 1130q0 26 22.5 49t48.5 23t49 -23t23 -49t-23 -48.5t-49 -22.5t-48.5 22.5t-22.5 48.5z" />
    <glyph glyph-name="oslash" unicode="&#xf8;" horiz-adv-x="1443" 
d="M1354 594q0 -169 -86 -314t-232 -230t-315 -85q-231 0 -412 154l-143 -144l-62 60l144 143q-75 86 -116.5 193.5t-41.5 222.5q0 109 46 230t153 225q79 76 195 124t237 48q114 0 222 -41.5t194 -114.5l145 143l59 -59l-143 -143q156 -180 156 -412zM721 1139
q-108 0 -208.5 -44t-173 -117.5t-116 -174t-43.5 -209.5q0 -97 34.5 -189t96.5 -165l764 761q-75 65 -167 101.5t-187 36.5zM1264 594q0 93 -34 184t-95 164l-764 -762q156 -133 350 -133q108 0 208.5 44.5t174 118t117 174.5t43.5 210z" />
    <glyph glyph-name="ugrave" unicode="&#xf9;" horiz-adv-x="1257" 
d="M432 1487v94l391 -135v-55zM123 461v725h86v-719q0 -170 125 -295t295 -125t295 125t125 295v719h86v-725q0 -133 -69 -248t-185.5 -181.5t-251.5 -66.5t-251.5 66.5t-185.5 181.5t-69 248z" />
    <glyph glyph-name="uacute" unicode="&#xfa;" horiz-adv-x="1257" 
d="M432 1391v55l391 135v-94zM123 461v725h86v-719q0 -170 125 -295t295 -125t295 125t125 295v719h86v-725q0 -133 -69 -248t-185.5 -181.5t-251.5 -66.5t-251.5 66.5t-185.5 181.5t-69 248z" />
    <glyph glyph-name="ucircumflex" unicode="&#xfb;" horiz-adv-x="1257" 
d="M778 1380l-147 154l-150 -154h-82l185 230h96l180 -230h-82zM123 461v725h86v-719q0 -170 125 -295t295 -125t295 125t125 295v719h86v-725q0 -133 -69 -248t-185.5 -181.5t-251.5 -66.5t-251.5 66.5t-185.5 181.5t-69 248z" />
    <glyph glyph-name="udieresis" unicode="&#xfc;" horiz-adv-x="1257" 
d="M512 1483q0 -26 -20 -46t-46 -20t-45.5 20t-19.5 46t19.5 45.5t45.5 19.5t46 -19.5t20 -45.5zM877 1483q0 -26 -19 -46t-45 -20t-45.5 20t-19.5 46t19.5 45.5t45.5 19.5t45 -19.5t19 -45.5zM123 461v725h86v-719q0 -170 125 -295t295 -125t295 125t125 295v719h86v-725
q0 -133 -69 -248t-185.5 -181.5t-251.5 -66.5t-251.5 66.5t-185.5 181.5t-69 248z" />
    <glyph glyph-name="yacute" unicode="&#xfd;" horiz-adv-x="1126" 
d="M369 1391v55l391 135v-94zM123 1186l442 -1088l441 1088h90l-652 -1598h-88l164 406l-489 1192h92z" />
    <glyph glyph-name="thorn" unicode="&#xfe;" horiz-adv-x="1464" 
d="M209 592q0 -109 43.5 -209.5t117 -174t174 -117.5t208.5 -44q145 0 269.5 74t197.5 200t73 271t-73 271.5t-197.5 201t-269.5 74.5q-108 0 -208.5 -44.5t-174 -118t-117 -174.5t-43.5 -210zM209 -412h-86v2009h86v-708q79 155 222 243.5t321 88.5q117 4 232.5 -44
t204 -132t142.5 -203.5t51 -249.5q0 -109 -45.5 -229.5t-150.5 -223.5q-79 -77 -196 -125.5t-238 -48.5q-178 0 -321 88.5t-222 243.5v-709z" />
    <glyph glyph-name="ydieresis" unicode="&#xff;" horiz-adv-x="1126" 
d="M446 1483q0 -26 -19.5 -46t-45.5 -20t-46 20t-20 46t20 45.5t46 19.5t45.5 -19.5t19.5 -45.5zM811 1483q0 -27 -18.5 -46.5t-44.5 -19.5t-46 20t-20 46t20 45.5t46 19.5t44.5 -19.5t18.5 -45.5zM123 1186l442 -1088l441 1088h90l-652 -1598h-88l164 406l-489 1192h92z
" />
    <glyph glyph-name="Amacron" unicode="&#x100;" horiz-adv-x="1298" 
d="M457 1722h383v-80h-383v80zM1268 0h-92l-138 375h-776l-139 -375h-92l571 1536h98zM1008 457l-357 973l-360 -973h717z" />
    <glyph glyph-name="amacron" unicode="&#x101;" horiz-adv-x="1464" 
d="M522 1536h383v-80h-383v80zM1255 594q0 145 -73.5 271t-198.5 200t-270 74q-108 0 -208.5 -44t-173 -117.5t-116 -174t-43.5 -209.5t43.5 -210t116 -174.5t173 -118t208.5 -44.5q145 0 270 74.5t198.5 201t73.5 271.5zM1255 1186h86v-1186h-86v297
q-79 -155 -221.5 -243.5t-320.5 -88.5q-117 -4 -232.5 44t-204.5 132t-143 204t-51 249q0 109 46 230t153 225q79 76 195 124t237 48q178 0 320.5 -88.5t221.5 -243.5v297z" />
    <glyph glyph-name="Aogonek" unicode="&#x104;" horiz-adv-x="1298" 
d="M1268 0h-92q-49 5 -102 -45t-52 -123q0 -63 45.5 -106t108.5 -43q46 0 88 26v-61q-50 -33 -113 -33q-30 -4 -66.5 10t-69.5 41t-54.5 71t-20.5 93q-3 30 10.5 66.5t38.5 69.5t65.5 54.5t86.5 20.5h18l-121 334h-776l-139 -375h-92l571 1536h98zM1008 457l-357 973
l-360 -973h717z" />
    <glyph glyph-name="aogonek" unicode="&#x105;" horiz-adv-x="1466" 
d="M1255 1186h86v-1186h-86q-49 5 -101.5 -45t-51.5 -123q0 -63 45 -106t108 -43q46 0 88 26v-61q-50 -33 -112 -33q-30 -4 -66.5 10t-69.5 41t-54.5 71t-20.5 93q-4 41 19.5 90t75.5 86t116 35l24 -2v258q-79 -155 -221.5 -243.5t-320.5 -88.5q-117 -4 -232.5 44
t-204.5 132t-143 204t-51 249q0 109 46 230t153 225q79 76 195 124t237 48q178 0 320.5 -88.5t221.5 -243.5v297zM1255 594q0 145 -73.5 271t-198.5 200t-270 74q-108 0 -208.5 -44t-173 -117.5t-116 -174t-43.5 -209.5t43.5 -210t116 -174.5t173 -118t208.5 -44.5
q145 0 270 74.5t198.5 201t73.5 271.5z" />
    <glyph glyph-name="Cacute" unicode="&#x106;" horiz-adv-x="1382" 
d="M682 1597v56l391 135v-94zM162 768q-1 -142 56.5 -276t154.5 -232t230.5 -156.5t275.5 -56.5q107 0 214.5 35.5t196.5 97.5v-102q-189 -113 -411 -113q-128 -2 -251.5 39t-223.5 117t-176 176t-117 222t-39 249q-2 127 39 249t117 222t176 176t223.5 117t251.5 39
q222 0 411 -113v-104q-194 135 -411 135q-142 2 -275.5 -56.5t-230.5 -156.5t-154.5 -232t-56.5 -276z" />
    <glyph glyph-name="cacute" unicode="&#x107;" horiz-adv-x="1110" 
d="M518 1391v55l391 135v-94zM713 1221q164 0 315 -84v-105q-149 107 -315 107q-108 0 -208.5 -44t-173 -117.5t-116 -174t-43.5 -209.5t43.5 -210t116 -174.5t173 -118t208.5 -44.5q168 0 315 105v-103q-151 -84 -315 -84q-117 -4 -232.5 44t-204.5 132t-143 204t-51 249
q0 109 46 230t153 225q79 76 195 124t237 48z" />
    <glyph glyph-name="Ccaron" unicode="&#x10c;" horiz-adv-x="1382" 
d="M643 1847h82l149 -153l148 153h82l-180 -229h-97zM162 768q-1 -142 56.5 -276t154.5 -232t230.5 -156.5t275.5 -56.5q107 0 214.5 35.5t196.5 97.5v-102q-189 -113 -411 -113q-128 -2 -251.5 39t-223.5 117t-176 176t-117 222t-39 249q-2 127 39 249t117 222t176 176
t223.5 117t251.5 39q222 0 411 -113v-104q-194 135 -411 135q-142 2 -275.5 -56.5t-230.5 -156.5t-154.5 -232t-56.5 -276z" />
    <glyph glyph-name="ccaron" unicode="&#x10d;" horiz-adv-x="1110" 
d="M481 1610h82l150 -154l147 154h82l-180 -230h-96zM713 1221q164 0 315 -84v-105q-149 107 -315 107q-108 0 -208.5 -44t-173 -117.5t-116 -174t-43.5 -209.5t43.5 -210t116 -174.5t173 -118t208.5 -44.5q168 0 315 105v-103q-151 -84 -315 -84q-117 -4 -232.5 44
t-204.5 132t-143 204t-51 249q0 109 46 230t153 225q79 76 195 124t237 48z" />
    <glyph glyph-name="Dcaron" unicode="&#x10e;" horiz-adv-x="1325" 
d="M330 1847h82l149 -153l148 153h82l-181 -229h-96zM123 0v1536h358q153 3 296.5 -59t248.5 -166.5t167 -247.5t60 -295q2 -152 -60 -295t-167 -247.5t-248.5 -166.5t-296.5 -59h-358zM1163 768q0 136 -55.5 262.5t-147.5 219.5t-218 148.5t-261 55.5h-272v-1372h272
q98 0 197 30.5t195.5 98.5t162.5 164q127 186 127 393z" />
    <glyph glyph-name="dcaron" unicode="&#x10f;" horiz-adv-x="1609" 
d="M1497 1597h84l-121 -350h-49zM1255 594q0 145 -73.5 271t-198.5 200t-270 74q-108 0 -208.5 -44t-173 -117.5t-116 -174t-43.5 -209.5t43.5 -210t116 -174.5t173 -118t208.5 -44.5q145 0 270 74.5t198.5 201t73.5 271.5zM1255 1597h86v-1597h-86v297
q-79 -155 -221.5 -243.5t-320.5 -88.5q-117 -4 -232.5 44t-204.5 132t-143 204t-51 249q0 109 46 230t153 225q79 76 195 124t237 48q178 0 320.5 -88.5t221.5 -243.5v708z" />
    <glyph glyph-name="Emacron" unicode="&#x112;" horiz-adv-x="1095" 
d="M383 1722h383v-80h-383v80zM209 727v-645h815v-82h-901v1536h901v-82h-815v-645h674v-82h-674z" />
    <glyph glyph-name="emacron" unicode="&#x113;" horiz-adv-x="1427" 
d="M522 1536h383v-80h-383v80zM1346 594l-3 -41h-1169q11 -138 86.5 -254t195.5 -184t257 -68q148 0 277.5 80.5t199.5 210.5h100q-76 -169 -231 -270q-158 -103 -346 -103q-117 -4 -232.5 44t-204.5 132t-143 204t-51 249q0 109 46 230t153 225q79 76 195 124t237 48
q127 0 244 -50.5t202 -134.5t136 -200t51 -242zM713 1139q-102 0 -198 -40.5t-167.5 -108.5t-118.5 -161t-55 -194h1079q-15 183 -145 330q-74 83 -181 128.5t-214 45.5z" />
    <glyph glyph-name="Edotaccent" unicode="&#x116;" horiz-adv-x="1095" 
d="M662 1683q0 -37 -27 -63.5t-62 -26.5q-37 0 -63.5 26.5t-26.5 63.5q0 35 26.5 62t63.5 27q35 0 62 -27t27 -62zM209 727v-645h815v-82h-901v1536h901v-82h-815v-645h674v-82h-674z" />
    <glyph glyph-name="edotaccent" unicode="&#x117;" horiz-adv-x="1427" 
d="M801 1477q0 -37 -26.5 -64t-61.5 -27q-37 0 -63.5 27t-26.5 64q0 35 26.5 61.5t63.5 26.5q35 0 61.5 -26.5t26.5 -61.5zM1346 594l-3 -41h-1169q11 -138 86.5 -254t195.5 -184t257 -68q148 0 277.5 80.5t199.5 210.5h100q-76 -169 -231 -270q-158 -103 -346 -103
q-117 -4 -232.5 44t-204.5 132t-143 204t-51 249q0 109 46 230t153 225q79 76 195 124t237 48q127 0 244 -50.5t202 -134.5t136 -200t51 -242zM713 1139q-102 0 -198 -40.5t-167.5 -108.5t-118.5 -161t-55 -194h1079q-15 183 -145 330q-74 83 -181 128.5t-214 45.5z" />
    <glyph glyph-name="Eogonek" unicode="&#x118;" horiz-adv-x="1095" 
d="M782 -168q0 -63 45.5 -106t108.5 -43q46 0 88 26v-61q-50 -33 -113 -33q-30 -4 -66.5 10t-69.5 41t-54.5 71t-20.5 93q0 51 23 97.5t61 72.5h-661v1536h901v-82h-815v-645h674v-82h-674v-645h815v-82h-96q-47 3 -98 -47.5t-48 -120.5z" />
    <glyph glyph-name="eogonek" unicode="&#x119;" horiz-adv-x="1427" 
d="M1016 -385q-66 0 -119.5 36t-79.5 89.5t-22.5 118.5t43.5 118q-61 -12 -125 -12q-117 -4 -232.5 44t-204.5 132t-143 204t-51 249q0 109 46 230t153 225q79 76 195 124t237 48q127 0 244 -50.5t202 -134.5t136 -200t51 -242l-3 -41h-1169q11 -138 86.5 -254t195.5 -184
t257 -68q148 0 277.5 80.5t199.5 210.5h100q-47 -102 -128 -184t-181 -129q-61 -25 -92.5 -94t-1.5 -144q17 -51 60.5 -77.5t94 -25.5t93.5 25v-61q-50 -33 -119 -33zM713 1139q-102 0 -198 -40.5t-167.5 -108.5t-118.5 -161t-55 -194h1079q-15 183 -145 330
q-74 83 -181 128.5t-214 45.5z" />
    <glyph glyph-name="Ecaron" unicode="&#x11a;" horiz-adv-x="1095" 
d="M350 1847h82l150 -153l147 153h82l-180 -229h-96zM209 727v-645h815v-82h-901v1536h901v-82h-815v-645h674v-82h-674z" />
    <glyph glyph-name="ecaron" unicode="&#x11b;" horiz-adv-x="1427" 
d="M481 1610h82l150 -154l147 154h82l-180 -230h-96zM1346 594l-3 -41h-1169q11 -138 86.5 -254t195.5 -184t257 -68q148 0 277.5 80.5t199.5 210.5h100q-76 -169 -231 -270q-158 -103 -346 -103q-117 -4 -232.5 44t-204.5 132t-143 204t-51 249q0 109 46 230t153 225
q79 76 195 124t237 48q127 0 244 -50.5t202 -134.5t136 -200t51 -242zM713 1139q-102 0 -198 -40.5t-167.5 -108.5t-118.5 -161t-55 -194h1079q-15 183 -145 330q-74 83 -181 128.5t-214 45.5z" />
    <glyph glyph-name="uni0122" unicode="&#x122;" horiz-adv-x="1757" 
d="M868 -307h-47l45 129q-18 1 -31.5 17.5t-13.5 35.5q0 21 17.5 38t40.5 17t40 -17t17 -38q0 -12 -10 -35zM1595 727h-716v82h804l3 -41q2 -127 -39.5 -249t-118 -222t-176.5 -176t-223 -117t-250 -39q-128 -2 -251.5 39t-223.5 117t-176 176t-117 222t-39 249
q-2 127 39 249t117 222t176 176t223.5 117t251.5 39q253 0 463 -150t296 -383h-96q-79 196 -262.5 323.5t-400.5 127.5q-142 2 -275.5 -56.5t-230.5 -156.5t-154.5 -232t-56.5 -276q-1 -142 56.5 -276t154.5 -232t230.5 -156.5t275.5 -56.5q183 -3 346 89.5t263 251
t107 339.5z" />
    <glyph glyph-name="uni0123" unicode="&#x123;" horiz-adv-x="1419" 
d="M698 1534h47l-45 -129q18 -1 31.5 -17.5t13.5 -35.5q0 -21 -17 -38.5t-40 -17.5t-40 17.5t-17 38.5q0 11 10 34zM82 621q0 105 43.5 220t146.5 214q76 74 187 120t229 46q160 0 309 -88q147 -88 207 -218v271h92v-1084q0 -271 -164.5 -409.5t-451.5 -138.5
q-194 0 -354 96q-91 54 -149.5 137.5t-72.5 171.5h89q7 -49 42 -103t93.5 -103.5t151 -82.5t200.5 -35q284 0 422 150q51 54 76.5 138.5t25.5 178.5v224q-59 -126 -209 -215q-152 -93 -307 -93q-121 0 -233 48.5t-193.5 129.5t-130.5 192.5t-49 232.5zM172 621
q0 -137 71 -257.5t190.5 -192t254.5 -71.5t254.5 71.5t190.5 192t71 257.5q0 103 -42 198.5t-112 165.5t-165 112t-197 42t-197 -42t-165 -112t-112 -165.5t-42 -198.5z" />
    <glyph glyph-name="Imacron" unicode="&#x12a;" 
d="M209 0h-86v1536h86v-1536zM-12 1722h356v-80h-356v80z" />
    <glyph glyph-name="imacron" unicode="&#x12b;" 
d="M-12 1536h356v-80h-356v80zM123 0v1186h86v-1186h-86z" />
    <glyph glyph-name="Iogonek" unicode="&#x12e;" 
d="M84 -168q0 -63 45.5 -106t108.5 -43v-66l-25 -2q-30 -4 -66.5 10t-69.5 41t-54.5 71t-20.5 93q0 62 33 113.5t88 76.5v1516h86v-1536q-54 -10 -89.5 -59t-35.5 -109z" />
    <glyph glyph-name="iogonek" unicode="&#x12f;" 
d="M84 -168q0 -63 45.5 -106t108.5 -43v-66l-25 -2q-30 -4 -66.5 10t-69.5 41t-54.5 71t-20.5 93q0 62 33 113.5t88 76.5v1166h86v-1186q-54 -10 -89.5 -59t-35.5 -109zM102 1569q0 25 19.5 44t44.5 19t44 -19t19 -44t-19 -44.5t-44 -19.5t-44.5 19.5t-19.5 44.5z" />
    <glyph glyph-name="dotlessi" unicode="&#x131;" 
d="M123 0v1186h86v-1186h-86z" />
    <glyph glyph-name="uni0136" unicode="&#x136;" horiz-adv-x="1110" 
d="M526 -272h-47l45 129q-18 1 -31.5 17.5t-13.5 35.5q0 21 17.5 38t40.5 17t40 -17t17 -38q0 -12 -10 -35zM209 1536v-727h256l510 727h104l-538 -768l538 -768h-104l-510 727h-256v-727h-86v1536h86z" />
    <glyph glyph-name="uni0137" unicode="&#x137;" horiz-adv-x="989" 
d="M485 -272h-47l45 129q-18 1 -31.5 17.5t-13.5 35.5q0 21 17.5 38t40.5 17t40 -17t17 -38q0 -12 -10 -35zM209 1597v-962h264l385 551h105l-414 -592l416 -594h-105l-387 553h-264v-553h-86v1597h86z" />
    <glyph glyph-name="Lacute" unicode="&#x139;" horiz-adv-x="1046" 
d="M391 1597v56l391 135v-94zM209 82h807v-82h-893v1536h86v-1454z" />
    <glyph glyph-name="lacute" unicode="&#x13a;" horiz-adv-x="378" 
d="M10 1630v56l391 135v-95zM123 1597h86v-1394q0 -49 33 -85t77 -36h31v-82h-31q-42 -4 -87 18.5t-78 72t-31 112.5v1394z" />
    <glyph glyph-name="uni013B" unicode="&#x13b;" horiz-adv-x="1046" 
d="M559 -272h-47l45 129q-18 1 -31.5 17.5t-13.5 35.5q0 21 17 38t40 17t40.5 -17t17.5 -38q0 -9 -11 -35zM209 82h807v-82h-893v1536h86v-1454z" />
    <glyph glyph-name="uni013C" unicode="&#x13c;" horiz-adv-x="378" 
d="M180 -272h-47l45 129q-18 1 -31.5 17.5t-13.5 35.5q0 21 17 38t40 17t40.5 -17t17.5 -38q0 -12 -10 -35zM123 1597h86v-1394q0 -49 33 -85t77 -36h31v-82h-31q-42 -4 -87 18.5t-78 72t-31 112.5v1394z" />
    <glyph glyph-name="Lcaron" unicode="&#x13d;" horiz-adv-x="1046" 
d="M932 1597h84l-121 -350h-49zM209 82h807v-82h-893v1536h86v-1454z" />
    <glyph glyph-name="lcaron" unicode="&#x13e;" horiz-adv-x="477" 
d="M365 1597h84l-121 -350h-49zM123 1597h86v-1394q0 -49 33 -85t77 -36h31v-82h-31q-42 -4 -87 18.5t-78 72t-31 112.5v1394z" />
    <glyph glyph-name="Lslash" unicode="&#x141;" horiz-adv-x="1177" 
d="M172 1536h86v-752l485 111v-82l-485 -111v-620h889v-82h-975v684l-131 -31v84l131 29v770z" />
    <glyph glyph-name="lslash" unicode="&#x142;" horiz-adv-x="436" 
d="M172 1597h86v-778l131 31v-82l-131 -31v-534q0 -49 33 -85t78 -36h30v-82h-30q-42 -4 -87.5 18.5t-78.5 72t-31 112.5v514l-131 -29v82l131 29v798z" />
    <glyph glyph-name="Nacute" unicode="&#x143;" horiz-adv-x="1249" 
d="M430 1597v56l391 135v-94zM1040 1536h86v-1536h-86l-831 1370v-1370h-86v1536h86l831 -1370v1370z" />
    <glyph glyph-name="nacute" unicode="&#x144;" horiz-adv-x="1257" 
d="M434 1391v55l391 135v-94zM1135 725v-725h-86v723q0 169 -125 292.5t-295 123.5t-295 -123.5t-125 -292.5v-723h-86v1186h86v-217q60 118 171 185t249 67q135 0 251.5 -66.5t185.5 -181.5t69 -248z" />
    <glyph glyph-name="uni0145" unicode="&#x145;" horiz-adv-x="1249" 
d="M614 -272h-47l45 129q-18 1 -31.5 17.5t-13.5 35.5q0 21 17.5 38t40.5 17t40 -17t17 -38q0 -12 -10 -35zM1040 1536h86v-1536h-86l-831 1370v-1370h-86v1536h86l831 -1370v1370z" />
    <glyph glyph-name="uni0146" unicode="&#x146;" horiz-adv-x="1257" 
d="M618 -272h-47l45 129q-18 1 -31.5 17.5t-13.5 35.5q0 21 17.5 38t40.5 17t40 -17t17 -38q0 -12 -10 -35zM1135 725v-725h-86v723q0 169 -125 292.5t-295 123.5t-295 -123.5t-125 -292.5v-723h-86v1186h86v-217q60 118 171 185t249 67q135 0 251.5 -66.5t185.5 -181.5
t69 -248z" />
    <glyph glyph-name="Ncaron" unicode="&#x147;" horiz-adv-x="1249" 
d="M395 1847h82l150 -153l147 153h82l-180 -229h-96zM1040 1536h86v-1536h-86l-831 1370v-1370h-86v1536h86l831 -1370v1370z" />
    <glyph glyph-name="ncaron" unicode="&#x148;" horiz-adv-x="1257" 
d="M397 1610h82l150 -154l147 154h82l-180 -230h-96zM1135 725v-725h-86v723q0 169 -125 292.5t-295 123.5t-295 -123.5t-125 -292.5v-723h-86v1186h86v-217q60 118 171 185t249 67q135 0 251.5 -66.5t185.5 -181.5t69 -248z" />
    <glyph glyph-name="Omacron" unicode="&#x14c;" horiz-adv-x="1757" 
d="M686 1722h383v-80h-383v80zM1595 768q1 142 -56.5 276t-154.5 232t-230 156.5t-275 56.5q-142 2 -275.5 -56.5t-230.5 -156.5t-154.5 -232t-56.5 -276q-1 -142 56.5 -276t154.5 -232t230.5 -156.5t275.5 -56.5q142 -2 275 56.5t230 156.5t154.5 232t56.5 276zM1686 768
q2 -127 -39.5 -249t-118 -222t-176.5 -176t-223 -117t-250 -39q-128 -2 -251.5 39t-223.5 117t-176 176t-117 222t-39 249q-2 127 39 249t117 222t176 176t223.5 117t251.5 39q127 2 250 -39t223 -117t176.5 -176t118 -222t39.5 -249z" />
    <glyph glyph-name="omacron" unicode="&#x14d;" horiz-adv-x="1427" 
d="M522 1536h383v-80h-383v80zM1255 594q0 145 -73.5 271t-198.5 200t-270 74q-108 0 -208.5 -44t-173 -117.5t-116 -174t-43.5 -209.5t43.5 -210t116 -174.5t173 -118t208.5 -44.5q145 0 270 74.5t198.5 201t73.5 271.5zM1346 594q0 -169 -86 -314t-232 -230t-315 -85
q-117 -4 -232.5 44t-204.5 132t-143 204t-51 249q0 109 46 230t153 225q79 76 195 124t237 48q127 0 244 -50.5t202 -134.5t136 -200t51 -242z" />
    <glyph glyph-name="Ohungarumlaut" unicode="&#x150;" horiz-adv-x="1757" 
d="M1595 768q1 142 -56.5 276t-154.5 232t-230 156.5t-275 56.5q-142 2 -275.5 -56.5t-230.5 -156.5t-154.5 -232t-56.5 -276q-1 -142 56.5 -276t154.5 -232t230.5 -156.5t275.5 -56.5q142 -2 275 56.5t230 156.5t154.5 232t56.5 276zM1686 768q2 -127 -39.5 -249t-118 -222
t-176.5 -176t-223 -117t-250 -39q-128 -2 -251.5 39t-223.5 117t-176 176t-117 222t-39 249q-2 127 39 249t117 222t176 176t223.5 117t251.5 39q127 2 250 -39t223 -117t176.5 -176t118 -222t39.5 -249zM899 1620l143 223h109l-139 -223h-113zM715 1620l141 223h111
l-142 -223h-110z" />
    <glyph glyph-name="ohungarumlaut" unicode="&#x151;" horiz-adv-x="1427" 
d="M731 1311l143 223h109l-139 -223h-113zM547 1311l141 223h111l-142 -223h-110zM1255 594q0 145 -73.5 271t-198.5 200t-270 74q-108 0 -208.5 -44t-173 -117.5t-116 -174t-43.5 -209.5t43.5 -210t116 -174.5t173 -118t208.5 -44.5q145 0 270 74.5t198.5 201t73.5 271.5z
M1346 594q0 -169 -86 -314t-232 -230t-315 -85q-117 -4 -232.5 44t-204.5 132t-143 204t-51 249q0 109 46 230t153 225q79 76 195 124t237 48q127 0 244 -50.5t202 -134.5t136 -200t51 -242z" />
    <glyph glyph-name="OE" unicode="&#x152;" horiz-adv-x="2568" 
d="M1681 727v-645h816v-82h-902v434q-101 -225 -297 -347t-419 -122q-128 -2 -251.5 39t-223.5 117t-176 176t-117 222t-39 249q-2 127 39 249t117 222t176 176t223.5 117t251.5 39q223 0 419 -122t297 -347v434h902v-82h-816v-645h674v-82h-674zM1595 768q1 142 -56.5 276
t-154.5 232t-230 156.5t-275 56.5q-142 2 -275.5 -56.5t-230.5 -156.5t-154.5 -232t-56.5 -276q-1 -142 56.5 -276t154.5 -232t230.5 -156.5t275.5 -56.5q142 -2 275 56.5t230 156.5t154.5 232t56.5 276z" />
    <glyph glyph-name="oe" unicode="&#x153;" horiz-adv-x="2600" 
d="M2519 594l-2 -41h-1169q11 -138 86 -254t195 -184t257 -68q148 0 277.5 80.5t199.5 210.5h101q-76 -168 -232 -270q-158 -103 -346 -103q-197 0 -356 111q-160 112 -230 289q-71 -177 -229 -287q-162 -113 -358 -113q-117 -4 -232.5 44t-204.5 132t-143 204t-51 249
q0 109 46 230t153 225q79 76 195 124t237 48q195 0 358 -111q159 -114 229 -289q70 174 230 289q159 111 356 111q127 0 244 -50.5t202 -134.5t136 -200t51 -242zM1255 594q0 145 -73.5 271t-198.5 200t-270 74q-108 0 -208.5 -44t-173 -117.5t-116 -174t-43.5 -209.5
t43.5 -210t116 -174.5t173 -118t208.5 -44.5q145 0 270 74.5t198.5 201t73.5 271.5zM1886 1139q-137 0 -257 -68.5t-195 -184.5t-86 -251h1079q-15 182 -146 330q-74 83 -181 128.5t-214 45.5z" />
    <glyph glyph-name="Racute" unicode="&#x154;" horiz-adv-x="1167" 
d="M385 1597v56l391 135v-94zM1096 1063q0 -173 -118 -306.5t-288 -158.5l301 -598h-98l-295 594h-389v-594h-86v1536h495q128 0 238 -63t175 -172t65 -238zM1006 1063q0 162 -114 276.5t-274 114.5h-409v-778h409q46 0 96 13t103 43.5t94.5 73.5t68 110t26.5 147z" />
    <glyph glyph-name="racute" unicode="&#x155;" horiz-adv-x="589" 
d="M559 1221v-91h-29q-58 4 -118 -25t-105.5 -75.5t-73.5 -107.5t-24 -119v-803h-86v1186h86v-156q44 82 132.5 136.5t188.5 54.5h29zM143 1391v55l392 135v-94z" />
    <glyph glyph-name="uni0156" unicode="&#x156;" horiz-adv-x="1167" 
d="M520 -272h-47l45 129q-18 1 -31.5 17.5t-13.5 35.5q0 21 17 38t40 17t40.5 -17t17.5 -38q0 -12 -10 -35zM1096 1063q0 -173 -118 -306.5t-288 -158.5l301 -598h-98l-295 594h-389v-594h-86v1536h495q128 0 238 -63t175 -172t65 -238zM1006 1063q0 162 -114 276.5
t-274 114.5h-409v-778h409q46 0 96 13t103 43.5t94.5 73.5t68 110t26.5 147z" />
    <glyph glyph-name="uni0157" unicode="&#x157;" horiz-adv-x="589" 
d="M348 -272h-47l45 129q-18 1 -31.5 17.5t-13.5 35.5q0 21 17 38t40 17t40.5 -17t17.5 -38q0 -12 -10 -35zM559 1221v-91h-29q-58 4 -118 -25t-105.5 -75.5t-73.5 -107.5t-24 -119v-803h-86v1186h86v-156q44 82 132.5 136.5t188.5 54.5h29z" />
    <glyph glyph-name="Rcaron" unicode="&#x158;" horiz-adv-x="1167" 
d="M371 1847h82l149 -153l148 153h81l-180 -229h-96zM1096 1063q0 -173 -118 -306.5t-288 -158.5l301 -598h-98l-295 594h-389v-594h-86v1536h495q128 0 238 -63t175 -172t65 -238zM1006 1063q0 162 -114 276.5t-274 114.5h-409v-778h409q46 0 96 13t103 43.5t94.5 73.5
t68 110t26.5 147z" />
    <glyph glyph-name="rcaron" unicode="&#x159;" horiz-adv-x="589" 
d="M559 1221v-91h-29q-58 4 -118 -25t-105.5 -75.5t-73.5 -107.5t-24 -119v-803h-86v1186h86v-156q44 82 132.5 136.5t188.5 54.5h29zM117 1610h82l149 -154l148 154h82l-181 -230h-96z" />
    <glyph glyph-name="Sacute" unicode="&#x15a;" horiz-adv-x="1150" 
d="M377 1597v56l391 135v-94zM215 1171q0 -168 135 -241q69 -39 232 -78q166 -39 215 -55q110 -41 176 -105q96 -93 96 -280q0 -120 -65.5 -226.5t-182.5 -162.5q-119 -58 -248 -58q-183 0 -323 111q-81 63 -124.5 161t-43.5 205h86q-3 -64 21.5 -131t72 -126t129.5 -98
t182 -40q97 0 178.5 36.5t129.5 90.5q98 108 98 238q0 194 -156 274q-67 34 -239 78q-166 38 -222 61q-117 37 -179.5 134t-57.5 212q0 109 60.5 201.5t163.5 145.5t224 53q86 4 169.5 -29.5t145.5 -91.5t98 -140t32 -169h-86q0 148 -105 250q-107 98 -254 98
q-144 0 -251 -94t-107 -224z" />
    <glyph glyph-name="sacute" unicode="&#x15b;" horiz-adv-x="1013" 
d="M311 1391v55l391 135v-94zM82 346h88q0 -124 92.5 -211.5t243.5 -87.5q42 -3 98.5 14t111 49.5t91.5 90t35 125.5q0 126 -97 194q-57 40 -247 74q-188 34 -252 76q-121 81 -121 239q-6 79 49 153.5t146 118.5t186 40q96 5 186 -40.5t144 -124.5t49 -167h-88
q0 135 -131 209q-74 41 -160 41q-82 0 -154 -37t-102 -86q-35 -58 -35 -107q0 -131 127 -184q43 -19 86 -29q39 -9 154 -30q107 -23 162 -47t98 -58q90 -79 90 -235q0 -154 -123 -257.5t-303 -103.5q-181 0 -302.5 107t-121.5 274z" />
    <glyph glyph-name="Scaron" unicode="&#x160;" horiz-adv-x="1150" 
d="M342 1847h82l149 -153l148 153h82l-180 -229h-97zM215 1171q0 -168 135 -241q69 -39 232 -78q166 -39 215 -55q110 -41 176 -105q96 -93 96 -280q0 -120 -65.5 -226.5t-182.5 -162.5q-119 -58 -248 -58q-183 0 -323 111q-81 63 -124.5 161t-43.5 205h86q-3 -64 21.5 -131
t72 -126t129.5 -98t182 -40q97 0 178.5 36.5t129.5 90.5q98 108 98 238q0 194 -156 274q-67 34 -239 78q-166 38 -222 61q-117 37 -179.5 134t-57.5 212q0 109 60.5 201.5t163.5 145.5t224 53q86 4 169.5 -29.5t145.5 -91.5t98 -140t32 -169h-86q0 148 -105 250
q-107 98 -254 98q-144 0 -251 -94t-107 -224z" />
    <glyph glyph-name="scaron" unicode="&#x161;" horiz-adv-x="1013" 
d="M274 1610h82l150 -154l147 154h82l-180 -230h-96zM82 346h88q0 -124 92.5 -211.5t243.5 -87.5q42 -3 98.5 14t111 49.5t91.5 90t35 125.5q0 126 -97 194q-57 40 -247 74q-188 34 -252 76q-121 81 -121 239q-6 79 49 153.5t146 118.5t186 40q96 5 186 -40.5t144 -124.5
t49 -167h-88q0 135 -131 209q-74 41 -160 41q-82 0 -154 -37t-102 -86q-35 -58 -35 -107q0 -131 127 -184q43 -19 86 -29q39 -9 154 -30q107 -23 162 -47t98 -58q90 -79 90 -235q0 -154 -123 -257.5t-303 -103.5q-181 0 -302.5 107t-121.5 274z" />
    <glyph glyph-name="Tcaron" unicode="&#x164;" horiz-adv-x="1042" 
d="M291 1847h82l149 -153l148 153h82l-181 -229h-96zM1012 1536v-82h-447v-1454h-86v1454h-448v82h981z" />
    <glyph glyph-name="tcaron" unicode="&#x165;" horiz-adv-x="661" 
d="M227 1454v-268h195v-82h-195v-1104h-86v1104h-100v82h100v268h86zM557 1597h84l-121 -350h-49z" />
    <glyph glyph-name="Umacron" unicode="&#x16a;" horiz-adv-x="1374" 
d="M496 1722h383v-80h-383v80zM1165 1536h86v-1008q0 -153 -75.5 -282.5t-205 -205t-282.5 -75.5t-283 75.5t-206 205t-76 282.5v1008h86v-1008q0 -173 117 -315q66 -79 164 -122.5t198 -43.5q129 0 239 64.5t174 175t64 241.5v1008z" />
    <glyph glyph-name="umacron" unicode="&#x16b;" horiz-adv-x="1257" 
d="M438 1536h383v-80h-383v80zM123 461v725h86v-719q0 -170 125 -295t295 -125t295 125t125 295v719h86v-725q0 -133 -69 -248t-185.5 -181.5t-251.5 -66.5t-251.5 66.5t-185.5 181.5t-69 248z" />
    <glyph glyph-name="Uring" unicode="&#x16e;" horiz-adv-x="1374" 
d="M1165 1536h86v-1008q0 -153 -75.5 -282.5t-205 -205t-282.5 -75.5t-283 75.5t-206 205t-76 282.5v1008h86v-1008q0 -173 117 -315q66 -79 164 -122.5t198 -43.5q129 0 239 64.5t174 175t64 241.5v1008zM809 1780q0 48 -35.5 84.5t-85.5 36.5t-85.5 -36.5t-35.5 -84.5
q0 -53 34.5 -87t86.5 -34t86.5 34t34.5 87zM881 1780q7 -61 -51 -125.5t-142 -61.5q-61 -5 -128 49.5t-64 137.5q-4 35 18 78.5t69.5 76.5t104.5 31q57 2 104.5 -31t70 -76.5t18.5 -78.5z" />
    <glyph glyph-name="uring" unicode="&#x16f;" horiz-adv-x="1257" 
d="M750 1475q0 48 -35.5 84t-85.5 36t-85.5 -36t-35.5 -84q0 -53 34.5 -87t86.5 -34t86.5 34t34.5 87zM821 1475q7 -61 -50.5 -125.5t-141.5 -61.5q-61 -5 -128.5 49.5t-64.5 137.5q-4 35 18.5 78.5t70 76.5t104.5 31q57 2 104.5 -31t69.5 -76.5t18 -78.5zM123 461v725h86
v-719q0 -170 125 -295t295 -125t295 125t125 295v719h86v-725q0 -133 -69 -248t-185.5 -181.5t-251.5 -66.5t-251.5 66.5t-185.5 181.5t-69 248z" />
    <glyph glyph-name="Uhungarumlaut" unicode="&#x170;" horiz-adv-x="1374" 
d="M1165 1536h86v-1008q0 -153 -75.5 -282.5t-205 -205t-282.5 -75.5t-283 75.5t-206 205t-76 282.5v1008h86v-1008q0 -173 117 -315q66 -79 164 -122.5t198 -43.5q129 0 239 64.5t174 175t64 241.5v1008zM696 1620l144 223h108l-139 -223h-113zM512 1620l141 223h111
l-141 -223h-111z" />
    <glyph glyph-name="uhungarumlaut" unicode="&#x171;" horiz-adv-x="1257" 
d="M123 461v725h86v-719q0 -170 125 -295t295 -125t295 125t125 295v719h86v-725q0 -133 -69 -248t-185.5 -181.5t-251.5 -66.5t-251.5 66.5t-185.5 181.5t-69 248zM637 1311l143 223h109l-139 -223h-113zM453 1311l141 223h111l-142 -223h-110z" />
    <glyph glyph-name="Uogonek" unicode="&#x172;" horiz-adv-x="1374" 
d="M1165 1536h86v-1008q0 -163 -82.5 -297.5t-222.5 -203.5q-60 -25 -90 -94t0 -144q13 -38 42 -63.5t64.5 -34.5t74 -4.5t69.5 22.5v-61q-50 -33 -119 -33q-118 0 -184 98q-38 56 -39.5 124.5t43.5 139.5q-59 -12 -119 -12q-153 0 -283 75.5t-206 205t-76 282.5v1008h86
v-1008q0 -173 117 -315q66 -79 164 -122.5t198 -43.5q129 0 239 64.5t174 175t64 241.5v1008z" />
    <glyph glyph-name="uogonek" unicode="&#x173;" horiz-adv-x="1257" 
d="M123 461v725h86v-719q0 -170 125 -295t295 -125t295 125t125 295v719h86v-725q0 -140 -75.5 -259.5t-199.5 -181.5q-56 -24 -85.5 -79t-16.5 -125q16 -74 63 -107q83 -57 195 -4v-61q-50 -33 -119 -33q-118 0 -184 98q-38 56 -39.5 124.5t43.5 139.5q-36 -8 -88 -8
q-135 0 -251.5 66.5t-185.5 181.5t-69 248z" />
    <glyph glyph-name="Ydieresis" unicode="&#x178;" horiz-adv-x="1167" 
d="M467 1692q0 -26 -20 -46t-46 -20t-45.5 20t-19.5 46t19.5 45.5t45.5 19.5t46 -19.5t20 -45.5zM831 1692q0 -27 -18.5 -46.5t-44.5 -19.5t-46 20t-20 46t20 45.5t46 19.5t44.5 -19.5t18.5 -45.5zM133 1536l451 -700l450 700h103l-510 -786v-750h-86v750l-510 786h102z" />
    <glyph glyph-name="Zacute" unicode="&#x179;" horiz-adv-x="1093" 
d="M352 1597v56l391 135v-94zM49 1454v82h995v-82l-890 -1372h890v-82h-995v82l893 1372h-893z" />
    <glyph glyph-name="zacute" unicode="&#x17a;" horiz-adv-x="1034" 
d="M322 1391v55l391 135v-94zM981 1186v-82l-819 -1022h819v-82h-928v82l819 1022h-819v82h928z" />
    <glyph glyph-name="Zdotaccent" unicode="&#x17b;" horiz-adv-x="1093" 
d="M635 1683q0 -37 -26.5 -63.5t-61.5 -26.5q-37 0 -63.5 26.5t-26.5 63.5q0 35 26.5 62t63.5 27q35 0 61.5 -27t26.5 -62zM49 1454v82h995v-82l-890 -1372h890v-82h-995v82l893 1372h-893z" />
    <glyph glyph-name="zdotaccent" unicode="&#x17c;" horiz-adv-x="1034" 
d="M606 1477q0 -37 -26.5 -64t-61.5 -27q-37 0 -63.5 27t-26.5 64q0 35 26.5 61.5t63.5 26.5q35 0 61.5 -26.5t26.5 -61.5zM981 1186v-82l-819 -1022h819v-82h-928v82l819 1022h-819v82h928z" />
    <glyph glyph-name="Zcaron" unicode="&#x17d;" horiz-adv-x="1093" 
d="M315 1847h82l150 -153l147 153h82l-180 -229h-96zM49 1454v82h995v-82l-890 -1372h890v-82h-995v82l893 1372h-893z" />
    <glyph glyph-name="zcaron" unicode="&#x17e;" horiz-adv-x="1034" 
d="M287 1610h82l149 -154l148 154h82l-181 -230h-96zM981 1186v-82l-819 -1022h819v-82h-928v82l819 1022h-819v82h928z" />
    <glyph glyph-name="florin" unicode="&#x192;" horiz-adv-x="821" 
d="M254 -201l182 1305h-100l12 82h101l28 200q12 91 79 151t157 60h78l-13 -81h-78q-47 0 -86 -39t-47 -91l-28 -200h194l-12 -82h-195l-182 -1305q-12 -91 -78.5 -151t-156.5 -60h-78l12 82h78q47 0 86 38.5t47 90.5z" />
    <glyph glyph-name="circumflex" unicode="&#x2c6;" horiz-adv-x="870" 
d="M584 1380l-148 154l-149 -154h-82l184 230h96l181 -230h-82z" />
    <glyph glyph-name="caron" unicode="&#x2c7;" horiz-adv-x="870" 
d="M205 1610h82l149 -154l148 154h82l-181 -230h-96z" />
    <glyph glyph-name="breve" unicode="&#x2d8;" horiz-adv-x="630" 
d="M123 1536h86q8 -33 40 -58.5t68 -25.5q37 0 68.5 24.5t38.5 59.5h84q-12 -67 -67 -112.5t-124 -45.5q-71 0 -125.5 45t-68.5 113z" />
    <glyph glyph-name="dotaccent" unicode="&#x2d9;" horiz-adv-x="423" 
d="M301 1477q0 -37 -26.5 -64t-61.5 -27q-37 0 -63.5 27t-26.5 64q0 35 26.5 61.5t63.5 26.5q35 0 61.5 -26.5t26.5 -61.5z" />
    <glyph glyph-name="ring" unicode="&#x2da;" horiz-adv-x="794" 
d="M518 1475q0 48 -35.5 84t-85.5 36t-85.5 -36t-35.5 -84q0 -53 34.5 -87t86.5 -34t86.5 34t34.5 87zM590 1475q7 -61 -51 -125.5t-142 -61.5q-61 -5 -128 49.5t-64 137.5q-4 35 18 78.5t69.5 76.5t104.5 31q57 2 104.5 -31t70 -76.5t18.5 -78.5z" />
    <glyph glyph-name="ogonek" unicode="&#x2db;" horiz-adv-x="569" 
d="M205 -168q0 -63 45 -106t108 -43q46 0 88 26v-61q-50 -33 -112 -33q-30 -4 -66.5 10t-69.5 41t-54.5 71t-20.5 93q-4 41 19.5 90t75.5 86t116 35l24 -2v-39q-49 5 -101.5 -45t-51.5 -123z" />
    <glyph glyph-name="tilde" unicode="&#x2dc;" horiz-adv-x="878" 
d="M272 1438h-67q0 56 41.5 97.5t95.5 41.5q41 0 74.5 -22.5t52.5 -55.5q24 -47 68 -47q31 0 49 20t18 52h70q0 -57 -40.5 -98.5t-96.5 -41.5q-36 0 -75 23.5t-52 54.5q-20 45 -68 45q-26 0 -48 -21.5t-22 -47.5z" />
    <glyph glyph-name="hungarumlaut" unicode="&#x2dd;" horiz-adv-x="681" 
d="M307 1311l144 223h108l-139 -223h-113zM123 1311l141 223h111l-142 -223h-110z" />
    <glyph glyph-name="pi" unicode="&#x3c0;" horiz-adv-x="1308" 
d="M1247 1186v-82h-286v-899q0 -73 44.5 -113.5t120.5 -40.5q40 0 70 10v-88q-31 -8 -70 -8q-81 -2 -142 38t-87.5 94.5t-22.5 107.5v899h-438v-1104h-86v1104h-289v82h1186z" />
    <glyph glyph-name="endash" unicode="&#x2013;" horiz-adv-x="1196" 
d="M92 553v82h1012v-82h-1012z" />
    <glyph glyph-name="emdash" unicode="&#x2014;" horiz-adv-x="1714" 
d="M92 553v82h1530v-82h-1530z" />
    <glyph glyph-name="quoteleft" unicode="&#x2018;" horiz-adv-x="307" 
d="M186 1597h60l-56 -159q23 -5 39.5 -24t16.5 -44q0 -30 -22 -50t-50 -20t-50 20t-22 50q0 10 13 43z" />
    <glyph glyph-name="quoteright" unicode="&#x2019;" horiz-adv-x="307" 
d="M121 1300h-60l56 160q-23 5 -39.5 24t-16.5 44q0 30 22 49.5t50 19.5t50 -19.5t22 -49.5q0 -13 -12 -43z" />
    <glyph glyph-name="quotesinglbase" unicode="&#x201a;" horiz-adv-x="307" 
d="M162 -176h-60l56 160q-24 5 -40 24t-16 43q0 30 22 50t50 20t50 -20t22 -50q0 -11 -13 -43z" />
    <glyph glyph-name="quotedblleft" unicode="&#x201c;" horiz-adv-x="479" 
d="M186 1597h60l-56 -159q23 -5 39.5 -24t16.5 -44q0 -30 -22 -50t-50 -20t-50 20t-22 50q0 10 13 43zM358 1597h60l-56 -159q23 -5 39.5 -24t16.5 -44q0 -30 -22 -50t-50 -20t-50 20t-22 50q0 10 13 43z" />
    <glyph glyph-name="quotedblright" unicode="&#x201d;" horiz-adv-x="479" 
d="M293 1300h-60l56 160q-23 5 -39.5 24t-16.5 44q0 30 22 49.5t50 19.5t50 -19.5t22 -49.5q0 -13 -12 -43zM121 1300h-60l56 160q-23 5 -39.5 24t-16.5 44q0 30 22 49.5t50 19.5t50 -19.5t22 -49.5q0 -13 -12 -43z" />
    <glyph glyph-name="quotedblbase" unicode="&#x201e;" horiz-adv-x="479" 
d="M293 -176h-60l56 160q-24 5 -40 24t-16 43q0 30 22 50t50 20t50 -20t22 -50q0 -13 -12 -43zM121 -176h-60l56 160q-24 5 -40 24t-16 43q0 30 22 50t50 20t50 -20t22 -50q0 -13 -12 -43z" />
    <glyph glyph-name="dagger" unicode="&#x2020;" horiz-adv-x="1105" 
d="M123 1133v53h405v350h58v-350h397v-53h-397v-1309h-58v1309h-405z" />
    <glyph glyph-name="daggerdbl" unicode="&#x2021;" horiz-adv-x="1105" 
d="M528 -176v350h-405v53h405v906h-405v53h405v350h58v-350h397v-53h-397v-906h397v-53h-397v-350h-58z" />
    <glyph glyph-name="bullet" unicode="&#x2022;" horiz-adv-x="690" 
d="M346 453q-57 0 -99 42t-42 99q0 56 42 97.5t99 41.5q56 0 97.5 -41.5t41.5 -97.5q0 -57 -41.5 -99t-97.5 -42z" />
    <glyph glyph-name="ellipsis" unicode="&#x2026;" horiz-adv-x="1327" 
d="M72 55q0 26 22.5 49t48.5 23t49 -23t23 -49t-23 -48.5t-49 -22.5t-48.5 22.5t-22.5 48.5zM592 55q0 26 23 49t49 23t48.5 -23t22.5 -49t-22.5 -48.5t-48.5 -22.5t-49 22.5t-23 48.5zM1112 55q0 26 23 49t49 23t48.5 -23t22.5 -49t-22.5 -48.5t-48.5 -22.5t-49 22.5
t-23 48.5z" />
    <glyph glyph-name="perthousand" unicode="&#x2030;" horiz-adv-x="2557" 
d="M872 1180q4 -73 -29 -147.5t-88.5 -129.5t-130 -88t-147.5 -29q-97 -6 -191.5 50.5t-151.5 151t-52 192.5q-4 73 29.5 146.5t89 128t129.5 87.5t147 29q141 0 258 -96q65 -54 101 -134t36 -161zM1616 358q4 -73 -29 -147.5t-88.5 -129.5t-130 -87.5t-147.5 -28.5
q-97 -6 -191.5 50t-152 150.5t-52.5 192.5q-5 97 52.5 190.5t152 150t191.5 51.5q140 0 258 -97q65 -54 101 -134t36 -161zM1319 1536h90l-1032 -1536h-90zM795 1180q6 63 -29.5 136.5t-113.5 129t-175 53.5q-69 0 -139.5 -34.5t-122.5 -108.5q-55 -79 -55 -176
q0 -130 96 -226t221 -96q38 0 79.5 11t84.5 36.5t77 62t55.5 91.5t21.5 121zM1538 358q5 46 -16 101.5t-60 105t-103 82t-138 31.5q-69 0 -140 -34.5t-123 -108.5q-55 -79 -55 -177q0 -129 96 -225t222 -96q38 0 79.5 11t84.5 36.5t76.5 61.5t55 91t21.5 121zM2476 358
q4 -73 -29 -147.5t-88.5 -129.5t-130 -87.5t-147.5 -28.5q-73 -4 -147 28.5t-129.5 87.5t-89 129.5t-29.5 147.5q-5 97 52 190.5t151.5 150t191.5 51.5q140 0 258 -97q65 -54 101 -134t36 -161zM2398 358q5 46 -16 101.5t-60 105t-103 82t-138 31.5q-69 0 -139.5 -34.5
t-122.5 -108.5q-56 -80 -56 -177q0 -128 97 -225q96 -96 221 -96q38 0 79.5 11t84.5 36.5t76.5 61.5t55 91t21.5 121z" />
    <glyph glyph-name="guilsinglleft" unicode="&#x2039;" horiz-adv-x="516" 
d="M434 332v-119l-352 340v82l352 338v-119l-268 -260z" />
    <glyph glyph-name="guilsinglright" unicode="&#x203a;" horiz-adv-x="516" 
d="M434 635v-82l-352 -340v119l268 262l-268 260v119z" />
    <glyph glyph-name="fraction" unicode="&#x2044;" horiz-adv-x="1009" 
d="M846 1536l-641 -1536h-41l639 1536h43z" />
    <glyph glyph-name="Euro" unicode="&#x20ac;" horiz-adv-x="1292" 
d="M1210 1069v-39h-86v37q0 154 -102 276q-58 70 -143 108t-172 38q-170 0 -294 -125t-124 -297v-119h651l-35 -82h-616v-196h557l-31 -82h-526v-119q0 -154 102 -276q58 -70 143 -108t173 -38q170 0 293.5 125t123.5 297v35h86v-37q0 -136 -67.5 -251.5t-183.5 -183
t-252 -67.5t-252 67.5t-184 183t-68 251.5v121h-131v82h131v196h-131v82h131v121q0 136 68 251.5t184 183t252 67.5t252 -67.5t183.5 -183t67.5 -251.5z" />
    <glyph glyph-name="uni2113" unicode="&#x2113;" horiz-adv-x="714" 
d="M608 248l66 -47q-119 -236 -277 -236q-105 0 -170 88q-34 44 -51.5 116t-17.5 142v121l-105 -90l-12 98q2 2 6.5 6t17.5 16.5t31 29.5q40 35 62 63v543q0 246 56.5 359.5t174.5 113.5q197 0 197 -340q0 -162 -92 -352t-250 -363v-184q0 -128 40 -204.5t113 -76.5
q60 0 105 40t106 157zM244 1083v-436q115 136 184.5 289t69.5 295q0 254 -109 254q-76 0 -110.5 -95t-34.5 -307z" />
    <glyph glyph-name="trademark" unicode="&#x2122;" horiz-adv-x="739" 
d="M629 1536h28v-307h-28v241l-111 -241h-26l-113 241v-241h-29v307h29l125 -270zM324 1536v-27h-107v-280h-29v280h-106v27h242z" />
    <glyph glyph-name="Omega" unicode="&#x2126;" horiz-adv-x="1775" 
d="M172 768q-6 -141 60.5 -287t181 -254.5t245.5 -146.5v-82l-6 2h-532v82h358v6q-121 67 -218.5 187t-137.5 251q-41 131 -41 242q-2 127 39 249t117 222t176 176t223.5 117t251.5 39q127 2 250 -39t223 -117t176 -176t117 -222.5t39 -248.5q0 -123 -42.5 -252t-133.5 -240
q-94 -114 -220 -188v-6h359v-82h-533l-4 -2v84q188 66 324 229q78 95 120 217t42 240q1 142 -56.5 276t-154.5 232t-230.5 156.5t-275.5 56.5q-142 2 -275.5 -56.5t-230.5 -156.5t-154.5 -232t-56.5 -276z" />
    <glyph glyph-name="estimated" unicode="&#x212e;" horiz-adv-x="1589" 
d="M1528 639v-18h-1186q-10 0 -10 -9v-358q0 -21 14 -41q89 -92 206.5 -143.5t244.5 -51.5q135 0 259.5 58.5t211.5 159.5h106q-101 -118 -254 -186t-325 -68q-148 0 -283.5 52.5t-234.5 140.5t-157.5 210t-58.5 254q0 133 59 254.5t157.5 210t234 141.5t283.5 53
q197 0 366 -89t268 -241t99 -329zM1260 668v360q0 16 -19 45q-89 86 -206 135t-238 49q-127 0 -244 -50.5t-205 -141.5q-16 -16 -16 -45v-352q3 -13 10 -13h907q8 0 11 13z" />
    <glyph glyph-name="partialdiff" unicode="&#x2202;" horiz-adv-x="1335" 
d="M1251 664q-4 -172 -50 -306.5t-126 -219.5t-185.5 -129t-230.5 -44q-162 0 -294 75t-207.5 206.5t-75.5 292.5q0 242 174 419q69 69 172 111.5t211 42.5q184 0 325 -86.5t203 -237.5l7 5q-13 134 -34 234t-62 190.5t-101.5 147.5t-153 90t-215.5 32q-74 0 -182 -27
q-122 -30 -180 -59v90q61 30 165.5 54t176.5 24q375 0 524 -230q151 -232 139 -675zM1147 539q0 179 -117 323q-65 80 -166 124t-205 44q-132 0 -244 -65.5t-177.5 -178.5t-65.5 -247t65.5 -247t177.5 -179t244 -66q179 0 322 121q79 65 122.5 166t43.5 205z" />
    <glyph glyph-name="increment" unicode="&#x2206;" horiz-adv-x="1210" 
d="M1169 0h-1128l520 1536h88zM604 1397l-442 -1315h887z" />
    <glyph glyph-name="product" unicode="&#x220f;" horiz-adv-x="1267" 
d="M1227 1536v-82h-287v-1454h-86v1454h-438v-1454h-86v1454h-289v82h1186z" />
    <glyph glyph-name="summation" unicode="&#x2211;" horiz-adv-x="1128" 
d="M842 768l-678 -686h923v-82h-1046v82l674 686l-674 684v84h1046v-82h-923z" />
    <glyph glyph-name="minus" unicode="&#x2212;" horiz-adv-x="1390" 
d="M102 553v82h1186v-82h-1186z" />
    <glyph glyph-name="radical" unicode="&#x221a;" horiz-adv-x="956" 
d="M127 547h111l172 -445l391 1434h94l-430 -1536h-105l-180 457l-41 -97l-78 31z" />
    <glyph glyph-name="infinity" unicode="&#x221e;" horiz-adv-x="1421" 
d="M711 676q58 99 142.5 156.5t150.5 52.5q46 3 101 -16.5t103.5 -55t80 -94t30.5 -125.5q5 -112 -89.5 -202.5t-225.5 -90.5q-159 0 -293 203q-132 -203 -293 -203q-46 -3 -101 16.5t-104 55.5t-80.5 94.5t-30.5 126.5q0 113 91 202t225 89q66 5 150.5 -52.5t142.5 -156.5z
M1241 594q1 51 -23.5 95.5t-61.5 71t-78 40t-74 10.5q-65 0 -124.5 -50.5t-129.5 -170.5q71 -116 130.5 -165.5t123.5 -49.5q46 -4 100.5 19.5t96.5 77t40 122.5zM180 594q-2 -69 40.5 -122.5t97 -77t100.5 -19.5q64 0 123.5 49.5t130.5 165.5q-70 120 -129.5 170.5
t-124.5 50.5q-33 3 -74 -10.5t-78.5 -40t-62 -71t-23.5 -95.5z" />
    <glyph glyph-name="integral" unicode="&#x222b;" horiz-adv-x="540" 
d="M225 -201v1587q-4 43 18.5 91.5t73.5 85t115 34.5h78v-81h-78q-47 0 -82 -39.5t-35 -90.5v-1587q4 -43 -18.5 -91.5t-73 -85t-114.5 -34.5h-78v82h78q47 0 81.5 39t34.5 90z" />
    <glyph glyph-name="approxequal" unicode="&#x2248;" horiz-adv-x="1390" 
d="M102 723v86q74 31 211 57q133 25 236 11q109 -15 168 -74q70 -70 213 -70q78 -1 178 21.5t180 58.5v-86q-130 -56 -263.5 -73t-213.5 8q-82 21 -135 71q-69 69 -213 72q-81 0 -181.5 -23t-179.5 -59zM102 375v86q74 31 211 57q130 25 236 10q110 -15 168 -73
q70 -70 213 -70q78 -1 178 21.5t180 58.5v-86q-130 -56 -263.5 -73.5t-213.5 7.5q-80 20 -135 72q-69 69 -213 72q-81 0 -181.5 -23t-179.5 -59z" />
    <glyph glyph-name="notequal" unicode="&#x2260;" horiz-adv-x="1392" 
d="M973 809h315v-82h-397l-266 -266h663v-82h-745l-191 -191h-119l191 191h-322v82h404l266 266h-670v82h752l195 195h118z" />
    <glyph glyph-name="lessequal" unicode="&#x2264;" horiz-adv-x="864" 
d="M82 0v82h700v-82h-700zM782 449v-99l-700 377v82l700 377v-99l-608 -319z" />
    <glyph glyph-name="greaterequal" unicode="&#x2265;" horiz-adv-x="864" 
d="M82 0v82h700v-82h-700zM782 809v-82l-700 -377v99l608 319l-608 319v99z" />
    <glyph glyph-name="lozenge" unicode="&#x25ca;" horiz-adv-x="1142" 
d="M1061 768l-445 -768h-90l-444 768l444 768h90zM571 1438l-391 -670l391 -670l392 670z" />
    <glyph glyph-name="uniF8FF" unicode="&#xf8ff;" horiz-adv-x="1024" 
 />
    <glyph glyph-name="uniFB00" unicode="&#xfb00;" horiz-adv-x="968" 
d="M227 1386v-200h410v200q-4 43 18.5 91.5t73.5 85t115 34.5h74v-81h-74q-49 0 -85 -39t-36 -91v-200h195v-82h-195v-1104h-86v1104h-410v-1104h-86v1104h-100v82h100v200q-4 43 18.5 91.5t73.5 85t115 34.5h74v-81h-74q-49 0 -85 -39t-36 -91z" />
    <glyph glyph-name="uniFB01" unicode="&#xfb01;" horiz-adv-x="845" 
d="M227 1386v-200h496v-1186h-86v1104h-410v-1104h-86v1104h-100v82h100v200q-4 43 18.5 91.5t73.5 85t115 34.5h74v-81h-74q-49 0 -85 -39t-36 -91zM616 1569q0 25 19.5 44t44.5 19t44 -19t19 -44t-19 -44.5t-44 -19.5t-44.5 19.5t-19.5 44.5z" />
    <glyph glyph-name="uniFB02" unicode="&#xfb02;" horiz-adv-x="845" 
d="M227 1386v-200h195v-82h-195v-1104h-86v1104h-100v82h100v200q-4 43 18.5 91.5t73.5 85t115 34.5h375v-1597h-86v1516h-289q-49 0 -85 -39t-36 -91z" />
    <glyph glyph-name="uniFB03" unicode="&#xfb03;" horiz-adv-x="1341" 
d="M227 1386v-200h410v200q-4 43 18.5 91.5t73.5 85t115 34.5h74v-81h-74q-49 0 -85 -39t-36 -91v-200h496v-1186h-86v1104h-410v-1104h-86v1104h-410v-1104h-86v1104h-100v82h100v200q-4 43 18.5 91.5t73.5 85t115 34.5h74v-81h-74q-49 0 -85 -39t-36 -91zM1112 1569
q0 25 19.5 44t44.5 19t44 -19t19 -44t-19 -44.5t-44 -19.5t-44.5 19.5t-19.5 44.5z" />
    <glyph glyph-name="uniFB04" unicode="&#xfb04;" horiz-adv-x="1341" 
d="M723 1386v-200h195v-82h-195v-1104h-86v1104h-410v-1104h-86v1104h-100v82h100v200q-4 43 18.5 91.5t73.5 85t115 34.5h74v-81h-74q-49 0 -85 -39t-36 -91v-200h410v200q-4 43 18.5 91.5t73.5 85t115 34.5h375v-1597h-86v1516h-289q-49 0 -85 -39t-36 -91z" />
    <glyph glyph-name="uniFB05" unicode="&#xfb05;" horiz-adv-x="929" 
d="M694 1454v-268h195v-82h-195v-1104h-86v1104h-381v-1104h-86v1104h-100v82h100v268h86v-268h381v268h86z" />
    <glyph glyph-name="uniFB06" unicode="&#xfb06;" horiz-adv-x="958" 
d="M227 1386v-200h410v268h86v-268h195v-82h-195v-1104h-86v1104h-410v-1104h-86v1104h-100v82h100v200q-4 43 18.5 91.5t73.5 85t115 34.5h74v-81h-74q-49 0 -85 -39t-36 -91z" />
    <glyph glyph-name="null" horiz-adv-x="0" 
 />
    <glyph glyph-name="glyph220" horiz-adv-x="1419" 
d="M1337 594q0 -169 -84.5 -314t-229.5 -230t-314 -85q-168 0 -312.5 85t-229.5 230t-85 314q0 168 85 312.5t229.5 229.5t312.5 85q169 0 314 -85t229.5 -229.5t84.5 -312.5zM1278 594q0 153 -77 283.5t-208 207t-284 76.5q-113 0 -218 -45t-181.5 -121t-122.5 -181.5
t-46 -219.5t46 -219.5t122.5 -182t181.5 -122t218 -45.5q153 0 284 77t208 208t77 284zM1063 717q0 -123 -86 -209q-89 -86 -211 -86h-223v-250h-74v842h297q122 0 211 -86q86 -89 86 -211zM989 717q4 31 -11.5 70t-44 73.5t-73.5 57.5t-94 22h-223v-444h223q97 -1 164 75.5
t59 145.5z" />
    </font>
</defs>
</svg>
