<?xml version="1.0" encoding="utf-8"?>
<!-- Generator: Adobe Illustrator 17.0.0, SVG Export Plug-In . SVG Version: 6.00 Build 0)  -->
<!DOCTYPE svg PUBLIC "-//W3C//DTD SVG 1.1//EN" "http://www.w3.org/Graphics/SVG/1.1/DTD/svg11.dtd">
<svg version="1.1" id="Layer_1" xmlns="http://www.w3.org/2000/svg" xmlns:xlink="http://www.w3.org/1999/xlink" x="0px" y="0px"
	 width="90px" height="24px" viewBox="0 0 90 24" enable-background="new 0 0 90 24" xml:space="preserve">
<rect fill="none" width="90" height="24"/>
<path d="M6.17,4h4.269v6.492L15.763,4h5.039l-5.831,6.858L21,20h-5.104L12,14.057l-1.562,1.782V20H6.17V4z"/>
<path d="M21.409,12.044V12c0-4.423,3.565-8.009,8.317-8.009c4.753,0,8.273,3.542,8.273,7.965V12c0,4.423-3.564,8.009-8.317,8.009
	S21.409,16.467,21.409,12.044z M33.621,12.044V12c0-2.244-1.584-4.158-3.938-4.158s-3.917,1.892-3.917,4.114V12
	c0,2.223,1.606,4.158,3.96,4.158C32.059,16.158,33.621,14.267,33.621,12.044z"/>
<path d="M60.778,7.885H56.18V4h13.487v3.885h-4.62V20h-4.269V7.885z"/>
<path d="M72,4h11.894v3.748h-7.838v2.446h7.098v3.497h-7.098v2.537H84V20H72V4z"/>
<polyline points="54,17.75 43.729,4 40,4 40,20 44,20 44,11.301 50.571,20 54,20 "/>
<rect x="50" y="4" width="4" height="4"/>
</svg>